<?xml version="1.0" standalone="no"?>
<!DOCTYPE svg PUBLIC "-//W3C//DTD SVG 1.1//EN" "http://www.w3.org/Graphics/SVG/1.1/DTD/svg11.dtd" >
<svg xmlns="http://www.w3.org/2000/svg">
<metadata>
This is a custom SVG webfont generated by Fontspring.
</metadata>
<defs>
<font id="DharmaGothicELight" horiz-adv-x="649" >
<font-face units-per-em="2048" ascent="1638" descent="-410" />
<missing-glyph horiz-adv-x="282" />
<glyph unicode=" "  horiz-adv-x="282" />
<glyph unicode="&#x09;" horiz-adv-x="282" />
<glyph unicode="&#xa0;" horiz-adv-x="282" />
<glyph unicode="!" horiz-adv-x="305" d="M221 981l-28 -684h-80l-27 684v453h135v-453zM80 0v193h145v-193h-145z" />
<glyph unicode="&#x22;" horiz-adv-x="460" d="M412 1294l-21 -266h-88l-18 266v140h127v-140zM178 1294l-20 -266h-88l-19 266v140h127v-140z" />
<glyph unicode="#" d="M575 1434l-18 -252h78l-8 -117h-78l-45 -647h78l-7 -117h-79l-21 -301h-113l21 301h-182l-21 -301h-112l20 301h-74l6 117h76l47 647h-77l8 117h78l16 252h113l-19 -252h184l17 252h112zM254 1065l-45 -647h182l45 647h-182z" />
<glyph unicode="$" d="M377 -51h-105v92q-113 2 -152.5 50t-39.5 177v269h119v-242q0 -80 17 -107.5t83 -27.5h45q66 0 83 27.5t17 107.5v106q0 76 -29.5 126.5t-133.5 142.5q-127 115 -164 181.5t-37 172.5v141q0 129 40 177.5t152 50.5v92h105v-92q115 -2 154.5 -49.5t39.5 -178.5v-241h-118 v215q0 80 -17.5 107.5t-83.5 27.5h-45q-66 0 -83 -27.5t-17 -107.5v-109q0 -76 29.5 -126t134.5 -142q127 -113 163.5 -180.5t36.5 -171.5v-142q0 -131 -39.5 -178t-154.5 -49v-92z" />
<glyph unicode="%" horiz-adv-x="1089" d="M322 0l393 1434h53l-393 -1434h-53zM655 160v565q0 98 33 133t123 35h68q86 0 118.5 -35t32.5 -133v-565q0 -98 -32.5 -134t-118.5 -36h-68q-90 0 -123 36t-33 134zM754 700v-518q0 -59 13 -79.5t62 -20.5h29q47 0 60.5 20.5t13.5 79.5v518q0 61 -12.5 81t-61.5 20h-29 q-49 0 -62 -20t-13 -81zM57 711v565q0 98 33 133t123 35h68q86 0 118.5 -35t32.5 -133v-565q0 -98 -32.5 -134t-118.5 -36h-68q-90 0 -123 36t-33 134zM156 1251v-518q0 -59 13 -79.5t62 -20.5h29q47 0 60.5 20.5t13.5 79.5v518q0 61 -12.5 81t-61.5 20h-29q-49 0 -62 -20 t-13 -81z" />
<glyph unicode="&#x26;" horiz-adv-x="704" d="M479 0q-18 41 -22 133q-31 -143 -178 -143h-43q-98 0 -134 43t-36 157v342q0 111 26.5 164.5t95.5 69.5q-70 16 -96 69.5t-26 165.5v189q0 141 46 192.5t175 51.5h186v-125h-164q-72 0 -89 -28t-17 -118v-190q0 -88 17.5 -117t88.5 -29h142v203h122v-203h117v-122h-117 v-447q0 -164 31 -258h-125zM203 559v-313q0 -80 15 -107.5t77 -27.5h41q115 0 115 170v424h-142q-72 0 -89 -28t-17 -118z" />
<glyph unicode="'" horiz-adv-x="325" d="M227 1294l-20 -266h-88l-19 266v140h127v-140z" />
<glyph unicode="(" horiz-adv-x="409" d="M80 76v1159q0 129 40 174t156 45h84v-104h-61q-61 0 -78.5 -28t-17.5 -105v-1123q0 -78 17.5 -105.5t78.5 -27.5h61v-104h-84q-117 0 -156.5 45t-39.5 174z" />
<glyph unicode=")" horiz-adv-x="409" d="M330 1235v-1159q0 -129 -40 -174t-157 -45h-84v104h62q61 0 78.5 27.5t17.5 105.5v1123q0 78 -17.5 105.5t-78.5 27.5h-62v104h84q117 0 157 -45t40 -174z" />
<glyph unicode="*" horiz-adv-x="585" d="M14 1049l226 96l-226 98l56 94l194 -147l-26 244h110l-31 -244l195 147l57 -94l-227 -98l227 -96l-57 -97l-193 146l29 -242h-110l26 242l-194 -146z" />
<glyph unicode="+" d="M270 987h109v-213h196v-115h-196v-213h-109v213h-194v115h194v213z" />
<glyph unicode="," horiz-adv-x="325" d="M90 0v203h146v-203l-121 -160l-15 8l80 152h-90z" />
<glyph unicode="-" horiz-adv-x="417" d="M373 598v-96h-328v96h328z" />
<glyph unicode="." horiz-adv-x="325" d="M90 0v203h146v-203h-146z" />
<glyph unicode="/" d="M29 -41l473 1516h121l-473 -1516h-121z" />
<glyph unicode="0" d="M575 1217v-1000q0 -133 -41.5 -180t-162.5 -47h-90q-121 0 -163 47t-42 180v1000q0 133 42 180t163 47h90q121 0 162.5 -47t41.5 -180zM203 1192v-950q0 -80 17.5 -106.5t82.5 -26.5h45q66 0 83.5 26.5t17.5 106.5v950q0 80 -17.5 106.5t-83.5 26.5h-45q-66 0 -83 -26.5 t-17 -106.5z" />
<glyph unicode="1" horiz-adv-x="313" d="M223 0h-127v1368q23 0 45.5 21.5t22.5 44.5h59v-1434z" />
<glyph unicode="2" horiz-adv-x="624" d="M442 1159v33q0 80 -17 106.5t-83 26.5h-45q-66 0 -83 -26.5t-17 -106.5v-268h-119v293q0 133 42 180t163 47h82q121 0 162.5 -47t41.5 -180v-66q0 -154 -38.5 -248t-168.5 -268q-106 -141 -139 -224t-33 -216v-76h385v-119h-509v203q0 156 37.5 249t168.5 267 q104 143 137 224t33 216z" />
<glyph unicode="3" horiz-adv-x="626" d="M186 1192v-209h-118v234q0 133 42 180t162 47h82q121 0 163 -47t42 -180v-246q0 -102 -23.5 -151.5t-82.5 -65.5q59 -16 82.5 -64.5t23.5 -150.5v-322q0 -133 -42 -180t-163 -47h-82q-121 0 -162.5 47t-41.5 180v309h118v-284q0 -80 17.5 -106.5t83.5 -26.5h45 q66 0 83 26.5t17 106.5v319q0 80 -17.5 106.5t-82.5 26.5h-189v119h189q66 0 83 27.5t17 107.5v244q0 80 -17.5 106.5t-82.5 26.5h-45q-66 0 -83.5 -26.5t-17.5 -106.5z" />
<glyph unicode="4" horiz-adv-x="606" d="M344 1432h137v-1051h119v-111h-119v-270h-127v270h-340v103zM125 381h229v371q0 233 13 485q-94 -379 -127 -485z" />
<glyph unicode="5" horiz-adv-x="630" d="M195 807v-139h-119v766h469v-119h-350v-340q37 115 167 115h41q96 0 130 -42t34 -155v-676q0 -133 -43 -180t-164 -47h-79q-121 0 -163 47t-42 180v309h119v-284q0 -80 17 -106.5t83 -26.5h45q66 0 83 26.5t17 106.5v602q0 78 -15 104.5t-77 26.5h-41q-112 0 -112 -168z " />
<glyph unicode="6" horiz-adv-x="643" d="M575 780v-563q0 -133 -41.5 -180t-162.5 -47h-90q-121 0 -163 47t-42 180v1000q0 133 42 180t163 47h79q123 0 165 -47t42 -180v-162h-118v137q0 80 -17.5 106.5t-83.5 26.5h-45q-66 0 -83 -26.5t-17 -106.5v-326q41 111 168 111h41q96 0 129.5 -42t33.5 -155zM356 862 h-41q-113 0 -112 -168v-452q0 -80 17.5 -106.5t82.5 -26.5h45q66 0 83.5 26.5t17.5 106.5v489q0 76 -17 103.5t-76 27.5z" />
<glyph unicode="7" horiz-adv-x="530" d="M250 0h-137l288 1315h-389v119h506v-107z" />
<glyph unicode="8" horiz-adv-x="634" d="M360 -10h-86q-121 0 -163.5 47t-42.5 180v336q0 100 23.5 149.5t82.5 65.5q-59 16 -82.5 65.5t-23.5 151.5v232q0 133 43 180t163 47h86q121 0 164 -47t43 -180v-232q0 -102 -23.5 -151.5t-82.5 -65.5q59 -16 82.5 -65.5t23.5 -149.5v-336q0 -133 -43 -180t-164 -47z M440 242v336q0 80 -17 106.5t-83 26.5h-45q-66 0 -83 -27t-17 -106v-336q0 -80 17 -106.5t83 -26.5h45q66 0 83 26.5t17 106.5zM440 963v229q0 80 -17 106.5t-83 26.5h-45q-66 0 -83 -26.5t-17 -106.5v-229q0 -80 17 -107t83 -27h45q66 0 83 27t17 107z" />
<glyph unicode="9" horiz-adv-x="643" d="M340 109q66 0 83 26.5t17 106.5v348q-39 -113 -168 -113h-41q-96 0 -129.5 42t-33.5 155v543q0 133 42 180t162 47h90q121 0 163 -47t42 -180v-1000q0 -133 -42 -180t-163 -47h-81q-121 0 -163 47t-42 180v182h119v-157q0 -80 17 -106.5t83 -26.5h45zM195 1192v-469 q0 -78 15 -104.5t77 -26.5h41q113 0 112 168v432q0 80 -17 106.5t-83 26.5h-45q-66 0 -83 -26.5t-17 -106.5z" />
<glyph unicode=":" horiz-adv-x="325" d="M90 819v203h146v-203h-146zM90 0v203h146v-203h-146z" />
<glyph unicode=";" horiz-adv-x="325" d="M90 0v203h146v-203l-121 -160l-15 8l80 152h-90zM90 819v203h146v-203h-146z" />
<glyph unicode="&#x3c;" d="M233 717l342 -258h-161l-338 258l338 256h161z" />
<glyph unicode="=" d="M575 934v-115h-499v115h499zM575 612v-112h-499v112h499z" />
<glyph unicode="&#x3e;" d="M74 459l342 258l-342 256h162l337 -256l-337 -258h-162z" />
<glyph unicode="?" horiz-adv-x="593" d="M188 0v256h142v-256h-142zM416 1141v51q0 80 -17.5 106.5t-83.5 26.5h-45q-66 0 -83 -26.5t-17 -106.5v-268h-119v293q0 133 42 180t163 47h82q121 0 163 -47t42 -180v-78q0 -113 -23.5 -196t-57.5 -132l-68 -95q-34 -46 -57.5 -115t-23.5 -161v-67h-108v51 q0 111 21.5 191.5t53.5 129.5l62 98q31 48 52.5 122t21.5 176z" />
<glyph unicode="@" horiz-adv-x="1019" d="M696 1044l-65 -790q-2 -23 12 -40t39 -17h10q168 0 168 397v231q0 248 -73.5 353.5t-256.5 105.5h-6q-180 0 -268 -101.5t-88 -363.5v-467q0 -131 34 -220t96 -133t132 -61.5t160 -17.5q117 0 180 25v-82q-74 -23 -180 -23q-514 0 -514 520v459q0 291 114.5 419 t333.5 128h6q223 0 318.5 -131t95.5 -410v-243q0 -449 -258 -449h-14q-90 0 -113 72q-25 -72 -117 -72h-30q-106 0 -95 117l56 694q8 113 108 113h29q86 0 98 -70l23 57h65zM539 274l53 648q2 33 -14.5 50t-42.5 17h-21q-43 0 -47 -51l-57 -690q-4 -47 36 -47h15 q35 0 54.5 14t23.5 59z" />
<glyph unicode="A" horiz-adv-x="647" d="M479 0l-35 231h-262l-32 -231h-121l200 1434h187l198 -1434h-135zM242 659l-43 -303h229l-41 303q-49 377 -74 652q-22 -306 -71 -652z" />
<glyph unicode="B" horiz-adv-x="702" d="M92 0v1434h316q131 0 177 -51.5t46 -192.5v-205q0 -109 -24.5 -161t-90.5 -70q66 -16 90.5 -68.5t24.5 -161.5v-280q0 -141 -46 -192.5t-177 -51.5h-316zM387 692h-160v-567h160q72 0 90.5 28.5t18.5 116.5v277q0 86 -19.5 115.5t-89.5 29.5zM496 963v200q0 88 -18.5 117 t-90.5 29h-160v-492h160q70 0 89.5 29t19.5 117z" />
<glyph unicode="C" horiz-adv-x="688" d="M217 1174v-914q0 -90 17.5 -117.5t89.5 -27.5h53q72 0 89 27.5t17 117.5v315h129v-342q0 -143 -45 -193t-176 -50h-88q-131 0 -177 51t-46 192v967q0 141 46 192.5t177 51.5h88q131 0 176 -50.5t45 -193.5v-280h-129v254q0 90 -17 117.5t-89 27.5h-53q-72 0 -89.5 -27.5 t-17.5 -117.5z" />
<glyph unicode="D" horiz-adv-x="712" d="M94 0v1434h316q131 0 177 -51.5t46 -192.5v-946q0 -141 -46 -192.5t-177 -51.5h-316zM229 125h160q72 0 90.5 28.5t18.5 116.5v893q0 88 -18.5 117t-90.5 29h-160v-1184z" />
<glyph unicode="E" horiz-adv-x="552" d="M229 1309v-496h236v-123h-236v-565h277v-125h-412v1434h412v-125h-277z" />
<glyph unicode="F" horiz-adv-x="512" d="M229 1309v-516h226v-123h-226v-670h-135v1434h402v-125h-267z" />
<glyph unicode="G" horiz-adv-x="690" d="M350 653v125h262v-545q0 -143 -45 -193t-176 -50h-88q-131 0 -177 51t-46 192v967q0 141 46 192.5t177 51.5h88q131 0 176 -50.5t45 -193.5v-264h-129v238q0 90 -17 117.5t-89 27.5h-53q-72 0 -89.5 -27.5t-17.5 -117.5v-914q0 -90 17.5 -117.5t89.5 -27.5h53 q72 0 89 27.5t17 117.5v393h-133z" />
<glyph unicode="H" horiz-adv-x="724" d="M229 0h-135v1434h135v-621h269v621h135v-1434h-135v690h-269v-690z" />
<glyph unicode="I" horiz-adv-x="321" d="M94 0v1434h135v-1434h-135z" />
<glyph unicode="J" horiz-adv-x="655" d="M162 575v-315q0 -88 18.5 -116.5t89.5 -28.5h52q72 0 90 28.5t18 116.5v1174h135v-1201q0 -141 -46 -192t-175 -51h-88q-131 0 -176 50t-45 193v342h127z" />
<glyph unicode="K" horiz-adv-x="692" d="M94 0v1434h135v-652q16 47 43 99l269 553h133l-338 -674l350 -760h-143l-273 602q-25 53 -41 107v-709h-135z" />
<glyph unicode="L" horiz-adv-x="491" d="M94 0v1434h135v-1309h246v-125h-381z" />
<glyph unicode="M" horiz-adv-x="915" d="M668 963l-154 -963h-121l-155 963q-16 94 -33 251q4 -160 4 -251v-963h-117v1434h201l145 -959q8 -55 21 -201q6 117 18 201l146 959h202v-1434h-133v963q0 84 4 231q-4 -29 -13 -112.5t-15 -118.5z" />
<glyph unicode="N" horiz-adv-x="724" d="M481 0l-229 944q-27 109 -47 244q4 -156 4 -248v-940h-117v1434h174l207 -883q27 -111 47 -246q-6 233 -6 248v881h119v-1434h-152z" />
<glyph unicode="O" horiz-adv-x="700" d="M80 233v967q0 141 46 192.5t177 51.5h94q131 0 177.5 -51.5t46.5 -192.5v-967q0 -141 -46.5 -192t-177.5 -51h-94q-131 0 -177 51t-46 192zM483 260v914q0 90 -17 117.5t-89 27.5h-53q-72 0 -89.5 -27.5t-17.5 -117.5v-914q0 -90 17.5 -117.5t89.5 -27.5h53q72 0 89 27.5 t17 117.5z" />
<glyph unicode="P" horiz-adv-x="657" d="M94 0v1434h303q129 0 175 -51.5t46 -192.5v-383q0 -143 -46 -194.5t-175 -51.5h-168v-561h-135zM229 686h146q70 0 89 29.5t19 115.5v332q0 88 -19.5 117t-88.5 29h-146v-623z" />
<glyph unicode="Q" horiz-adv-x="700" d="M80 233v967q0 141 46 192.5t177 51.5h94q131 0 177.5 -51.5t46.5 -192.5v-967q0 -133 -39 -184t-148 -57v-55q0 -72 19.5 -96.5t74.5 -24.5h39v-76h-61q-109 0 -153 38t-44 173v39h-6q-131 0 -177 51t-46 192zM483 260v914q0 90 -17 117.5t-89 27.5h-53 q-72 0 -89.5 -27.5t-17.5 -117.5v-914q0 -90 17.5 -117.5t89.5 -27.5h53q72 0 89 27.5t17 117.5z" />
<glyph unicode="R" horiz-adv-x="710" d="M631 496v-244q0 -158 26 -252h-143q-18 47 -18 223v283q0 90 -23.5 125t-97.5 35h-148v-666h-135v1434h316q131 0 177 -51.5t46 -192.5v-232q0 -109 -24.5 -161t-90.5 -70q66 -18 90.5 -70t24.5 -161zM496 936v227q0 88 -18.5 117t-90.5 29h-160v-518h160q70 0 89.5 29.5 t19.5 115.5z" />
<glyph unicode="S" horiz-adv-x="645" d="M444 260v121q0 100 -30.5 154.5t-141.5 156.5q-133 123 -169.5 193.5t-36.5 201.5v113q0 141 46 192.5t175 51.5h73q129 0 174.5 -50.5t45.5 -193.5v-244h-127v218q0 88 -18.5 116.5t-88.5 28.5h-39q-70 0 -88 -28.5t-18 -114.5v-86q0 -100 30.5 -154.5t141.5 -157.5 q131 -121 169 -191.5t38 -203.5v-150q0 -143 -45.5 -193t-174.5 -50h-73q-129 0 -175 51t-46 192v285h127v-258q0 -88 18 -116.5t88 -28.5h39q70 0 88 28.5t18 116.5z" />
<glyph unicode="T" horiz-adv-x="475" d="M305 0h-135v1309h-160v125h453v-125h-158v-1309z" />
<glyph unicode="U" horiz-adv-x="706" d="M225 1434v-1174q0 -88 18.5 -116.5t88.5 -28.5h53q72 0 90.5 28.5t18.5 116.5v1174h127v-1201q0 -143 -45.5 -193t-176.5 -50h-88q-131 0 -176 50t-45 193v1201h135z" />
<glyph unicode="V" horiz-adv-x="641" d="M168 1434l98 -701q41 -289 64 -551q23 262 63 551l99 701h120l-200 -1434h-181l-200 1434h137z" />
<glyph unicode="W" horiz-adv-x="980" d="M469 762l-90 -762h-172l-176 1434h137l86 -734q41 -346 45 -481q8 143 47 481l84 734h139l84 -734q39 -338 47 -481q4 135 45 481l86 734h121l-176 -1434h-166l-90 762q-14 125 -26 383q-7 -236 -25 -383z" />
<glyph unicode="X" horiz-adv-x="647" d="M410 1153l75 281h119l-184 -680l198 -754h-137l-88 344q-53 205 -78 330q-31 -158 -75 -330l-90 -344h-121l196 754l-184 680h137l72 -281q72 -268 80 -324q21 99 80 324z" />
<glyph unicode="Y" horiz-adv-x="608" d="M375 0h-135v504l-226 930h136l92 -387q59 -258 71 -379q14 113 74 381l88 385h121l-221 -922v-512z" />
<glyph unicode="Z" horiz-adv-x="538" d="M57 1309v125h441v-117l-318 -1192h318v-125h-457v117l317 1192h-301z" />
<glyph unicode="[" horiz-adv-x="421" d="M94 1454h279v-104h-156v-1389h156v-104h-279v1597z" />
<glyph unicode="\" d="M147 1475l474 -1516h-121l-473 1516h120z" />
<glyph unicode="]" horiz-adv-x="421" d="M49 1454h279v-1597h-279v104h156v1389h-156v104z" />
<glyph unicode="^" d="M283 1434h86l206 -514h-106l-143 362l-142 -362h-108z" />
<glyph unicode="_" horiz-adv-x="1024" d="M1024 -29v-88h-1024v88h1024z" />
<glyph unicode="`" horiz-adv-x="325" d="M154 1421l100 -231h-80l-141 231h121z" />
<glyph unicode="a" horiz-adv-x="634" d="M70 360q0 117 33.5 176.5t140.5 106.5q129 55 156.5 88t27.5 133v33q0 80 -16.5 106.5t-77.5 26.5h-43q-61 0 -77.5 -26.5t-16.5 -106.5v-145h-117v172q0 127 40 172t154 45h82q117 0 157 -45t40 -172v-734q0 -123 14 -190h-116q-10 31 -15 121q-33 -131 -168 -131h-39 q-92 0 -125.5 41t-33.5 147v182zM428 260v363q-39 -27 -111 -58q-82 -35 -103 -74.5t-21 -130.5v-133q0 -74 16 -100.5t74 -26.5h39q106 0 106 160z" />
<glyph unicode="b" horiz-adv-x="645" d="M446 903q0 74 -16 100.5t-74 26.5h-39q-109 0 -108 -160v-610q0 -160 108 -160h39q57 0 73.5 27t16.5 100v676zM209 1434v-400q37 106 162 107h39q92 0 125.5 -41t33.5 -148v-774q0 -106 -33.5 -147t-125.5 -41h-39q-137 0 -168 129l-17 -119h-100v1434h123z" />
<glyph unicode="c" horiz-adv-x="622" d="M434 233v218h117v-242q0 -129 -40 -174t-155 -45h-86q-117 0 -155.5 45t-38.5 174v715q0 127 40 172t154 45h86q115 0 155 -45t40 -172v-224h-117v197q0 80 -16.5 106.5t-77.5 26.5h-45q-61 0 -78.5 -27.5t-17.5 -105.5v-664q0 -78 17 -105.5t79 -27.5h45q61 0 77.5 26.5 t16.5 106.5z" />
<glyph unicode="d" horiz-adv-x="645" d="M436 260v610q0 160 -108 160h-39q-57 0 -73.5 -26.5t-16.5 -100.5v-676q0 -74 16 -100.5t74 -26.5h39q108 0 108 160zM559 190q0 -123 14 -190h-116q-10 31 -15 121q-33 -131 -168 -131h-38q-92 0 -126 41t-34 147v774q0 106 33.5 147.5t126.5 41.5h38q125 0 162 -107 v400h123v-1244z" />
<glyph unicode="e" horiz-adv-x="624" d="M434 233v148h117v-172q0 -129 -40 -174t-155 -45h-86q-117 0 -155.5 45t-38.5 174v715q0 127 40 172t154 45h86q115 0 155 -45t40 -172v-392h-352v-299q0 -78 17 -105.5t79 -27.5h45q61 0 77.5 26.5t16.5 106.5zM199 897v-258h235v258q0 80 -16.5 106.5t-77.5 26.5h-45 q-61 0 -78.5 -27.5t-17.5 -105.5z" />
<glyph unicode="f" horiz-adv-x="364" d="M14 1026v104h88v87q0 127 40 172t155 45h53v-101h-28q-59 0 -79 -21.5t-20 -97.5v-84h127v-104h-125v-1026h-123v1026h-88z" />
<glyph unicode="g" horiz-adv-x="618" d="M549 506q0 -127 -41 -173t-156 -46h-94q-45 0 -63.5 -18.5t-18.5 -63.5v-4q0 -41 22.5 -55.5t73.5 -14.5h111q111 0 165 -35t54 -145v-31q0 -111 -49 -150.5t-166 -39.5h-156q-164 0 -163 157v33q0 92 73 123q-51 33 -51 127v16q0 90 62 117q-45 18 -62.5 66.5 t-17.5 136.5v418q0 127 40 172t156 45h72q141 0 174 -76q12 76 70 76h20v-109h-18q-37 0 -37 -55v-471zM190 907v-387q0 -78 17.5 -105.5t79.5 -27.5h45q61 0 78.5 27.5t17.5 105.5v387q0 78 -17.5 104.5t-78.5 26.5h-45q-61 0 -79 -26.5t-18 -104.5zM496 -86v16 q0 53 -25 68.5t-88 15.5h-125q-49 0 -71.5 -20.5t-22.5 -69.5v-14q0 -57 23.5 -75.5t76.5 -18.5h119q63 0 88 18.5t25 79.5z" />
<glyph unicode="h" horiz-adv-x="651" d="M569 0h-123v903q0 74 -16 100.5t-74 26.5h-39q-109 0 -108 -160v-870h-123v1434h123v-400q37 106 162 107h39q92 0 125.5 -41t33.5 -148v-952z" />
<glyph unicode="i" horiz-adv-x="294" d="M209 1130v-1130h-123v1130h123zM86 1288v146h123v-146h-123z" />
<glyph unicode="j" horiz-adv-x="294" d="M86 1130h123v-1171q0 -129 -39 -174t-154 -45h-36v96h12q57 0 75.5 20.5t18.5 98.5v1175zM86 1288v146h123v-146h-123z" />
<glyph unicode="k" horiz-adv-x="618" d="M209 551v-551h-123v1434h123v-811l70 139l192 368h119l-285 -532l301 -598h-131l-207 418q-45 92 -59 133z" />
<glyph unicode="l" horiz-adv-x="294" d="M209 0h-123v1434h123v-1434z" />
<glyph unicode="m" horiz-adv-x="985" d="M688 1030h-24q-109 0 -109 -160v-870h-123v903q0 74 -16.5 100.5t-73.5 26.5h-25q-109 0 -108 -160v-870h-123v1130h115v-129q31 139 170 140h24q72 0 108 -24.5t46 -84.5q37 109 164 109h28q92 0 126 -41t34 -148v-952h-123v903q0 74 -16.5 100.5t-73.5 26.5z" />
<glyph unicode="n" horiz-adv-x="651" d="M569 0h-123v903q0 74 -16 100.5t-74 26.5h-39q-109 0 -108 -160v-870h-123v1130h115v-129q31 139 170 140h39q92 0 125.5 -41t33.5 -148v-952z" />
<glyph unicode="o" horiz-adv-x="632" d="M559 924v-715q0 -129 -40 -174t-157 -45h-92q-117 0 -155.5 45t-38.5 174v715q0 127 40 172t154 45h92q117 0 157 -45t40 -172zM199 897v-664q0 -78 17 -105.5t79 -27.5h45q61 0 77.5 27t16.5 106v664q0 80 -16.5 106.5t-77.5 26.5h-45q-61 0 -78.5 -27.5t-17.5 -105.5z " />
<glyph unicode="p" horiz-adv-x="645" d="M446 903q0 74 -16 100.5t-74 26.5h-39q-109 0 -108 -160v-610q0 -160 108 -160h39q57 0 73.5 27t16.5 100v676zM209 -260h-123v1390h115v-129q31 139 170 140h39q92 0 125.5 -41t33.5 -148v-774q0 -106 -33.5 -147t-125.5 -41h-39q-127 0 -162 106v-356z" />
<glyph unicode="q" horiz-adv-x="645" d="M436 260v610q0 160 -108 160h-39q-57 0 -73.5 -26.5t-16.5 -100.5v-676q0 -74 16 -100.5t74 -26.5h39q108 0 108 160zM559 1130v-1390h-123v356q-35 -106 -162 -106h-38q-92 0 -126 41t-34 147v774q0 106 33.5 147.5t126.5 41.5h38q135 0 168 -131l17 120h100z" />
<glyph unicode="r" horiz-adv-x="376" d="M209 0h-123v1130h115v-153q29 164 147 164h17v-131h-17q-74 0 -106.5 -52.5t-32.5 -171.5v-786z" />
<glyph unicode="s" horiz-adv-x="608" d="M418 233v56q0 80 -28 123t-132 120q-119 88 -155.5 150.5t-36.5 171.5v70q0 127 39.5 172t156.5 45h84q117 0 157 -45t40 -172v-172h-117v145q0 80 -16.5 106.5t-79.5 26.5h-43q-63 0 -80 -26.5t-17 -106.5v-35q0 -80 28 -123t132 -121q119 -88 156 -150t37 -171v-88 q0 -129 -40 -174t-157 -45h-84q-117 0 -156.5 45t-39.5 174v190h116v-166q0 -80 16.5 -106.5t80.5 -26.5h45q61 0 77.5 26.5t16.5 106.5z" />
<glyph unicode="t" horiz-adv-x="356" d="M14 1026v104h88v246h123v-246h117v-104h-117v-768q0 -164 33 -258h-133q-23 57 -23 229v797h-88z" />
<glyph unicode="u" horiz-adv-x="651" d="M565 190q0 -113 15 -190h-117q-10 29 -14 113q-33 -123 -168 -123h-39q-92 0 -126 41t-34 147v952h125v-903q0 -76 15.5 -101.5t72.5 -25.5h39q109 0 108 160v870h123v-940z" />
<glyph unicode="v" horiz-adv-x="577" d="M141 1130l84 -487q57 -350 70 -516q12 184 72 516l84 487h112l-196 -1130h-158l-195 1130h127z" />
<glyph unicode="w" horiz-adv-x="909" d="M412 461l-68 -461h-168l-160 1130h127l66 -475q39 -272 57 -522q18 260 60 520l73 477h127l74 -477q41 -260 59 -520q14 254 54 522l67 475h113l-160 -1130h-162l-67 461q-37 244 -47 424q-10 -203 -45 -424z" />
<glyph unicode="x" horiz-adv-x="565" d="M401 1053l23 77h115l-170 -538l178 -592h-129l-33 111q-96 330 -113 405q-23 -119 -106 -405l-33 -111h-113l175 592l-168 538h129l22 -77l39 -128l46 -156q19 -69 28 -112q6 29 110 396z" />
<glyph unicode="y" horiz-adv-x="577" d="M344 -119q-25 -141 -172 -141h-119v96h78q72 0 78 66l8 75l-203 1153h127l84 -487q59 -330 70 -516q12 164 72 516l84 487h112z" />
<glyph unicode="z" horiz-adv-x="512" d="M63 1026v104h408v-96l-297 -930h297v-104h-428v96l297 930h-277z" />
<glyph unicode="{" horiz-adv-x="448" d="M33 602h-19v105h19q57 0 74.5 22.5t17.5 97.5v408q0 129 40 174t157 45h84v-104h-62q-63 0 -79.5 -27t-16.5 -106v-355q0 -98 -21.5 -145t-76.5 -64q55 -16 76.5 -63t21.5 -144v-352q0 -80 16.5 -106.5t79.5 -26.5h62v-104h-84q-117 0 -157 45t-40 174v405 q0 74 -17.5 97.5t-74.5 23.5z" />
<glyph unicode="|" d="M383 1434v-1694h-119v1694h119z" />
<glyph unicode="}" horiz-adv-x="448" d="M434 602h-18q-57 0 -74.5 -23.5t-17.5 -97.5v-405q0 -129 -40 -174t-157 -45h-84v104h61q63 0 80 26.5t17 106.5v352q0 96 21.5 143.5t76.5 63.5q-55 16 -76.5 63.5t-21.5 145.5v355q0 80 -16.5 106.5t-80.5 26.5h-61v104h84q117 0 157 -45t40 -174v-408q0 -76 17 -98 t75 -22h18v-105z" />
<glyph unicode="~" d="M575 823v-131q-57 -82 -129 -82q-43 0 -128 44t-123 44q-70 0 -119 -90v129q59 84 127 84q43 0 128 -45t126 -45q67 0 118 92z" />
<glyph unicode="&#xa1;" horiz-adv-x="305" d="M84 193l29 684h80l26 -684v-453h-135v453zM225 1174v-193h-145v193h145z" />
<glyph unicode="&#xa2;" d="M446 385v217h117v-242q0 -127 -39 -172t-149 -47v-141h-101v141q-111 2 -149.5 47t-38.5 172v715q0 125 39 170t149 47v142h101v-142q111 -2 149.5 -48t38.5 -169v-223h-117v197q0 80 -16 106.5t-80 26.5h-43q-63 0 -79.5 -27t-16.5 -106v-664q0 -80 16.5 -106.5 t79.5 -26.5h43q63 0 79.5 26.5t16.5 106.5z" />
<glyph unicode="&#xa3;" d="M539 453h-203q-10 -195 -141 -334h364v-119h-496v111q147 147 156 342h-135v96h131q-8 47 -44 141t-63.5 208t-27.5 241v78q0 133 42 180t163 47h84q121 0 161.5 -47t40.5 -180v-355h-118v330q0 80 -17.5 106.5t-83.5 26.5h-45q-66 0 -83 -26.5t-17 -106.5v-55 q0 -125 26.5 -237t59.5 -206t41 -145h205v-96z" />
<glyph unicode="&#xa4;" d="M125 715q0 63 35 114l-97 89l60 59l86 -98q51 39 115 39q66 0 116 -39l90 98l56 -59l-97 -89q37 -53 37 -114q0 -57 -34 -113l94 -88l-56 -57l-88 96q-53 -37 -118.5 -37t-114.5 37l-86 -96l-60 57l97 88q-35 52 -35 113zM195 715q0 -53 37.5 -91t91 -38t93.5 38t40 91 q0 55 -40 94t-93.5 39t-91 -39t-37.5 -94z" />
<glyph unicode="&#xa5;" d="M401 1049l84 385h113l-205 -906h189v-61h-193v-141h193v-62h-193v-264h-125v264h-196v62h196v141h-196v61h190l-205 906h127l86 -387q55 -244 68 -379q14 148 67 381z" />
<glyph unicode="&#xa6;" d="M383 1434v-768h-119v768h119zM383 508v-768h-119v768h119z" />
<glyph unicode="&#xa7;" horiz-adv-x="618" d="M186 29q0 -78 16.5 -104.5t80.5 -26.5h43q63 0 79.5 26.5t16.5 104.5v34q0 68 -27.5 109t-126.5 107q-121 78 -161.5 139t-40.5 151v181q0 147 114 176q-68 55 -90 108t-22 129v60q0 129 41 175t159 46h84q117 0 158 -46t41 -175v-133h-119v116q0 78 -16.5 104.5 t-79.5 26.5h-45q-61 0 -78.5 -26.5t-17.5 -104.5v-35q0 -68 28.5 -108.5t126.5 -106.5q119 -78 160 -139t41 -151v-181q0 -150 -115 -176q70 -55 92.5 -108.5t22.5 -128.5v-60q0 -129 -41 -175t-160 -46h-86q-117 0 -157.5 46t-40.5 175v133h120v-116zM428 641 q0 68 -26.5 107.5t-118.5 105.5q-59 -2 -76 -26.5t-17 -84.5v-149q0 -70 26 -110t118 -103q59 0 76.5 24.5t17.5 86.5v149z" />
<glyph unicode="&#xa8;" horiz-adv-x="325" d="M326 1241h-115v129h115v-129zM115 1241h-117v129h117v-129z" />
<glyph unicode="&#xa9;" horiz-adv-x="1032" d="M950 1022v-610q0 -223 -83 -322.5t-306 -99.5h-92q-223 0 -305 99t-82 323v610q0 223 82 322.5t305 99.5h92q223 0 306 -99.5t83 -322.5zM170 1022v-610q0 -193 64.5 -267.5t238.5 -74.5h86q174 0 238.5 74.5t64.5 267.5v610q0 193 -64.5 267.5t-238.5 74.5h-86 q-174 0 -238.5 -74.5t-64.5 -267.5zM430 1024v-614q0 -53 14.5 -70.5t57.5 -17.5h26q43 0 57.5 17t14.5 71v213h86v-230q0 -92 -31.5 -124.5t-117.5 -32.5h-50q-86 0 -117.5 32.5t-31.5 124.5v647q0 92 31.5 125t117.5 33h50q86 0 117.5 -32.5t31.5 -125.5v-186h-86v170 q0 53 -14.5 70.5t-57.5 17.5h-26q-43 0 -57.5 -17.5t-14.5 -70.5z" />
<glyph unicode="&#xaa;" horiz-adv-x="485" d="M186 1087q96 43 116 65t20 89v23q0 55 -12.5 73.5t-55.5 18.5h-31q-45 0 -57 -18.5t-12 -73.5v-95h-88v111q0 96 29.5 130t115.5 34h59q88 0 118 -34t30 -130v-504q0 -88 12 -135h-86q-14 25 -14 102q-23 -113 -129 -112h-25q-68 0 -92.5 30.5t-24.5 110.5v113 q0 82 23.5 123.5t103.5 78.5zM322 1067q-29 -25 -78 -47q-61 -27 -75.5 -54.5t-14.5 -88.5v-70q0 -53 11 -72.5t54 -19.5h27q76 0 76 116v236zM59 436v94h365v-94h-365z" />
<glyph unicode="&#xab;" horiz-adv-x="589" d="M215 156l-201 409l201 410h117l-197 -410l197 -409h-117zM461 156l-197 409l197 410h114l-192 -410l192 -409h-114z" />
<glyph unicode="&#xac;" d="M465 659h-389v115h499v-328h-110v213z" />
<glyph unicode="&#xad;" horiz-adv-x="417" d="M373 598v-96h-328v96h328z" />
<glyph unicode="&#xae;" horiz-adv-x="1032" d="M950 1022v-610q0 -223 -83 -322.5t-306 -99.5h-92q-223 0 -305 99t-82 323v610q0 223 82 322.5t305 99.5h92q223 0 306 -99.5t83 -322.5zM170 1022v-610q0 -193 64.5 -267.5t238.5 -74.5h86q174 0 238.5 74.5t64.5 267.5v610q0 193 -64.5 267.5t-238.5 74.5h-86 q-174 0 -238.5 -74.5t-64.5 -267.5zM696 1032v-184q0 -125 -73 -150q74 -23 73 -147v-109q0 -125 21 -198h-99q-14 37 -14 176v145q0 51 -17.5 71.5t-62.5 20.5h-88v-413h-92v946h203q86 0 117.5 -33t31.5 -125zM530 1108h-94v-367h94q45 0 59.5 17.5t14.5 70.5v189 q0 53 -14.5 71.5t-59.5 18.5z" />
<glyph unicode="&#xaf;" horiz-adv-x="325" d="M340 1247h-354v84h354v-84z" />
<glyph unicode="&#xb0;" horiz-adv-x="475" d="M238 1411q84 0 138 -54t54 -140.5t-54 -140.5t-138 -54q-86 0 -139.5 54t-53.5 140.5t53.5 140.5t139.5 54zM238 1325q-47 0 -77 -30.5t-30 -78t29.5 -77t77 -29.5t76 29.5t28.5 77t-29.5 78t-74.5 30.5z" />
<glyph unicode="&#xb1;" d="M575 477v-112h-499v112h499zM270 1069h109v-209h196v-115h-196v-206h-109v206h-194v115h194v209z" />
<glyph unicode="&#xb2;" horiz-adv-x="491" d="M158 1251v-110h-90v135q0 98 31.5 133t119.5 35h64q88 0 119.5 -35t31.5 -133v-35q0 -43 -8 -83t-17.5 -64.5t-32.5 -55.5l-34 -44q-10 -13 -41 -45l-39 -40q-55 -53 -81.5 -103t-26.5 -126v-37h276v-92h-377v127q0 164 137 293q74 68 110 127t36 139v14q0 61 -12.5 81 t-61.5 20h-29q-49 0 -62 -20t-13 -81z" />
<glyph unicode="&#xb3;" horiz-adv-x="491" d="M332 733v131q0 61 -13.5 81t-62.5 20h-121v92h121q49 0 62.5 20.5t13.5 79.5v94q0 61 -13.5 81t-62.5 20h-29q-49 0 -61 -19.5t-12 -81.5v-55h-93v80q0 98 32 133t122 35h61q88 0 121 -35t33 -133v-102q0 -78 -19.5 -115t-66.5 -47q47 -12 66.5 -50t19.5 -114v-137 q0 -98 -32.5 -134t-121.5 -36h-61q-88 0 -121 35.5t-33 134.5v94h93v-72q0 -59 13 -79.5t60 -20.5h29q49 0 62.5 20.5t13.5 79.5z" />
<glyph unicode="&#xb4;" horiz-adv-x="325" d="M70 1190l102 231h121l-143 -231h-80z" />
<glyph unicode="&#xb5;" horiz-adv-x="651" d="M207 1130v-903q0 -76 15.5 -101.5t72.5 -25.5h39q109 0 108 160v870h123v-940q0 -113 15 -190h-117q-10 29 -14 113q-33 -123 -168 -123h-39q-25 0 -35 2v-252h-125v1390h125z" />
<glyph unicode="&#xb6;" horiz-adv-x="796" d="M434 1331v-1530h-106v613h-68q-131 0 -176 50t-45 193v533q0 143 45 193.5t176 50.5h442v-1633h-106v1530h-162z" />
<glyph unicode="&#xb7;" horiz-adv-x="325" d="M90 616v203h146v-203h-146z" />
<glyph unicode="&#xb8;" horiz-adv-x="325" d="M215 -170q0 39 -18.5 55.5t-73.5 12.5v116h45v-77q129 0 129 -97q0 -35 -6 -55.5t-39 -37.5t-92 -17q-82 0 -106.5 25.5t-24.5 86.5h77q-4 -41 5.5 -55t46.5 -14q35 0 46 12t11 45z" />
<glyph unicode="&#xb9;" horiz-adv-x="284" d="M193 551h-99v833q18 0 34.5 16.5t16.5 33.5h48v-883z" />
<glyph unicode="&#xba;" horiz-adv-x="481" d="M63 436v94h359v-94h-359zM63 797v483q0 96 29 130t115 34h67q88 0 118 -34t30 -130v-483q0 -96 -30 -131t-118 -35h-67q-86 0 -115 35t-29 131zM326 811v453q0 55 -12.5 73.5t-55.5 18.5h-31q-45 0 -57 -18.5t-12 -73.5v-453q0 -55 12 -73.5t57 -18.5h31q43 0 55.5 18.5 t12.5 73.5z" />
<glyph unicode="&#xbb;" horiz-adv-x="589" d="M575 565l-200 -409h-117l197 409l-197 410h117zM326 565l-197 -409h-115l193 409l-193 410h115z" />
<glyph unicode="&#xbc;" horiz-adv-x="854" d="M145 0l394 1434h53l-393 -1434h-54zM193 551h-99v833q18 0 34.5 16.5t16.5 33.5h48v-883zM653 883h99v-633h59v-86h-59v-164h-99v164h-250v82zM494 250h159v94q0 133 9 387q-45 -145 -134 -387z" />
<glyph unicode="&#xbd;" horiz-adv-x="915" d="M145 0l394 1434h53l-393 -1434h-54zM193 551h-99v833q18 0 34.5 16.5t16.5 33.5h48v-883zM582 700v-110h-90v135q0 98 31.5 133t119.5 35h64q88 0 119.5 -35t31.5 -133v-35q0 -43 -8 -83t-17.5 -64.5t-32.5 -56.5l-34 -44q-10 -12 -41 -44l-39 -40q-55 -53 -81.5 -103 t-26.5 -126v-37h276v-92h-377v127q0 164 137 293q74 68 110 127t36 139v14q0 61 -12.5 81t-61.5 20h-29q-49 0 -62 -20t-13 -81z" />
<glyph unicode="&#xbe;" horiz-adv-x="1028" d="M322 0l393 1434h53l-393 -1434h-53zM829 883h99v-633h59v-86h-59v-164h-99v164h-249v82zM670 250h159v94q0 133 9 387q-45 -145 -133 -387zM332 733v131q0 61 -13.5 81t-62.5 20h-121v92h121q49 0 62.5 20.5t13.5 79.5v94q0 61 -13.5 81t-62.5 20h-29q-49 0 -61 -19.5 t-12 -81.5v-55h-93v80q0 98 32 133t122 35h61q88 0 121 -35t33 -133v-102q0 -78 -19.5 -115t-66.5 -47q47 -12 66.5 -50t19.5 -114v-137q0 -98 -32.5 -134t-121.5 -36h-61q-88 0 -121 35.5t-33 134.5v94h93v-72q0 -59 13 -79.5t60 -20.5h29q49 0 62.5 20.5t13.5 79.5z" />
<glyph unicode="&#xbf;" horiz-adv-x="593" d="M406 1174v-256h-142v256h142zM178 33v-51q0 -80 17.5 -107t83.5 -27h45q66 0 83 27t17 107v268h119v-293q0 -133 -42 -180t-163 -47h-82q-121 0 -163 47t-42 180v78q0 113 23.5 195.5t57.5 131.5l68 96q34 46 57.5 114.5t23.5 160.5v68h108v-51q0 -111 -21.5 -192 t-53.5 -130l-62 -97q-31 -48 -52.5 -122t-21.5 -176z" />
<glyph unicode="&#xc0;" horiz-adv-x="647" d="M479 0l-35 231h-262l-32 -231h-121l200 1434h187l198 -1434h-135zM242 659l-43 -303h229l-41 303q-49 377 -74 652q-22 -306 -71 -652zM289 1710l100 -231h-80l-141 231h121z" />
<glyph unicode="&#xc1;" horiz-adv-x="647" d="M479 0l-35 231h-262l-32 -231h-121l200 1434h187l198 -1434h-135zM242 659l-43 -303h229l-41 303q-49 377 -74 652q-22 -306 -71 -652zM256 1479l102 231h121l-143 -231h-80z" />
<glyph unicode="&#xc2;" horiz-adv-x="647" d="M479 0l-35 231h-262l-32 -231h-121l200 1434h187l198 -1434h-135zM242 659l-43 -303h229l-41 303q-49 377 -74 652q-22 -306 -71 -652zM369 1710l131 -231h-82l-94 143l-95 -143h-82l129 231h93z" />
<glyph unicode="&#xc3;" horiz-adv-x="647" d="M479 0l-35 231h-262l-32 -231h-121l200 1434h187l198 -1434h-135zM242 659l-43 -303h229l-41 303q-49 377 -74 652q-22 -306 -71 -652zM440 1655h66q0 -78 -23.5 -108.5t-79.5 -30.5q-45 0 -94 27.5t-67 27.5q-23 0 -29 -13.5t-6 -46.5h-68q0 78 24.5 110t80.5 32 q45 0 94 -28t68 -28q23 0 28.5 12.5t5.5 45.5z" />
<glyph unicode="&#xc4;" horiz-adv-x="647" d="M479 0l-35 231h-262l-32 -231h-121l200 1434h187l198 -1434h-135zM242 659l-43 -303h229l-41 303q-49 377 -74 652q-22 -306 -71 -652zM485 1530h-114v129h114v-129zM274 1530h-116v129h116v-129z" />
<glyph unicode="&#xc5;" horiz-adv-x="647" d="M479 0l-35 231h-262l-32 -231h-121l200 1434h187l198 -1434h-135zM242 659l-43 -303h229l-41 303q-49 377 -74 652q-22 -306 -71 -652zM377 1601.5q0 22.5 -15.5 38t-38 15.5t-39 -15.5t-16.5 -38t16.5 -38t39 -15.5t38 15.5t15.5 38zM207 1601.5q0 49.5 33.5 81t83 31.5 t82 -31.5t32.5 -81t-32.5 -81t-82 -31.5t-83 31.5t-33.5 81z" />
<glyph unicode="&#xc6;" horiz-adv-x="856" d="M807 1434v-125h-277v-496h236v-123h-236v-565h277v-125h-412v231h-209l-49 -231h-121l320 1434h471zM285 688l-72 -332h182v897q-34 -217 -110 -565z" />
<glyph unicode="&#xc7;" horiz-adv-x="688" d="M399 -170q0 39 -18.5 55.5t-73.5 12.5v92h-4q-131 0 -177 51t-46 192v967q0 141 46 192.5t177 51.5h88q131 0 176 -50.5t45 -193.5v-280h-129v254q0 90 -17 117.5t-89 27.5h-53q-72 0 -89.5 -27.5t-17.5 -117.5v-914q0 -90 17.5 -117.5t89.5 -27.5h53q72 0 89 27.5 t17 117.5v315h129v-342q0 -143 -45 -193t-176 -50h-39v-53q129 0 129 -97q0 -35 -6 -55.5t-39 -37.5t-92 -17q-82 0 -106.5 25.5t-24.5 86.5h78q-4 -41 5 -55t46 -14q35 0 46 12t11 45z" />
<glyph unicode="&#xc8;" horiz-adv-x="552" d="M229 1309v-496h236v-123h-236v-565h277v-125h-412v1434h412v-125h-277zM268 1710l101 -231h-80l-142 231h121z" />
<glyph unicode="&#xc9;" horiz-adv-x="552" d="M229 1309v-496h236v-123h-236v-565h277v-125h-412v1434h412v-125h-277zM236 1479l102 231h121l-144 -231h-79z" />
<glyph unicode="&#xca;" horiz-adv-x="552" d="M229 1309v-496h236v-123h-236v-565h277v-125h-412v1434h412v-125h-277zM346 1710l131 -231h-82l-94 143l-94 -143h-82l129 231h92z" />
<glyph unicode="&#xcb;" horiz-adv-x="552" d="M229 1309v-496h236v-123h-236v-565h277v-125h-412v1434h412v-125h-277zM463 1530h-115v129h115v-129zM252 1530h-117v129h117v-129z" />
<glyph unicode="&#xcc;" horiz-adv-x="321" d="M94 0v1434h135v-1434h-135zM127 1710l100 -231h-80l-141 231h121z" />
<glyph unicode="&#xcd;" horiz-adv-x="321" d="M94 0v1434h135v-1434h-135zM94 1479l103 231h120l-143 -231h-80z" />
<glyph unicode="&#xce;" horiz-adv-x="321" d="M94 0v1434h135v-1434h-135zM207 1710l131 -231h-82l-94 143l-94 -143h-82l129 231h92z" />
<glyph unicode="&#xcf;" horiz-adv-x="321" d="M94 0v1434h135v-1434h-135zM324 1530h-115v129h115v-129zM113 1530h-117v129h117v-129z" />
<glyph unicode="&#xd0;" horiz-adv-x="712" d="M94 0v702h-59v103h59v629h316q131 0 177 -51.5t46 -192.5v-946q0 -141 -46 -192.5t-177 -51.5h-316zM229 125h160q72 0 90.5 28.5t18.5 116.5v893q0 88 -18.5 117t-90.5 29h-160v-504h142v-103h-142v-577z" />
<glyph unicode="&#xd1;" horiz-adv-x="724" d="M481 0l-229 944q-27 109 -47 244q4 -156 4 -248v-940h-117v1434h174l207 -883q27 -111 47 -246q-6 233 -6 248v881h119v-1434h-152zM479 1655h66q0 -78 -23.5 -108.5t-79.5 -30.5q-45 0 -94 27.5t-67 27.5q-23 0 -29 -13.5t-6 -46.5h-68q0 78 24.5 110t80.5 32 q45 0 94 -28t67 -28q23 0 29 12.5t6 45.5z" />
<glyph unicode="&#xd2;" horiz-adv-x="700" d="M80 233v967q0 141 46 192.5t177 51.5h94q131 0 177.5 -51.5t46.5 -192.5v-967q0 -141 -46.5 -192t-177.5 -51h-94q-131 0 -177 51t-46 192zM483 260v914q0 90 -17 117.5t-89 27.5h-53q-72 0 -89.5 -27.5t-17.5 -117.5v-914q0 -90 17.5 -117.5t89.5 -27.5h53q72 0 89 27.5 t17 117.5zM315 1710l101 -231h-80l-141 231h120z" />
<glyph unicode="&#xd3;" horiz-adv-x="700" d="M80 233v967q0 141 46 192.5t177 51.5h94q131 0 177.5 -51.5t46.5 -192.5v-967q0 -141 -46.5 -192t-177.5 -51h-94q-131 0 -177 51t-46 192zM483 260v914q0 90 -17 117.5t-89 27.5h-53q-72 0 -89.5 -27.5t-17.5 -117.5v-914q0 -90 17.5 -117.5t89.5 -27.5h53q72 0 89 27.5 t17 117.5zM283 1479l102 231h121l-144 -231h-79z" />
<glyph unicode="&#xd4;" horiz-adv-x="700" d="M80 233v967q0 141 46 192.5t177 51.5h94q131 0 177.5 -51.5t46.5 -192.5v-967q0 -141 -46.5 -192t-177.5 -51h-94q-131 0 -177 51t-46 192zM483 260v914q0 90 -17 117.5t-89 27.5h-53q-72 0 -89.5 -27.5t-17.5 -117.5v-914q0 -90 17.5 -117.5t89.5 -27.5h53q72 0 89 27.5 t17 117.5zM395 1710l131 -231h-82l-94 143l-94 -143h-82l129 231h92z" />
<glyph unicode="&#xd5;" horiz-adv-x="700" d="M80 233v967q0 141 46 192.5t177 51.5h94q131 0 177.5 -51.5t46.5 -192.5v-967q0 -141 -46.5 -192t-177.5 -51h-94q-131 0 -177 51t-46 192zM483 260v914q0 90 -17 117.5t-89 27.5h-53q-72 0 -89.5 -27.5t-17.5 -117.5v-914q0 -90 17.5 -117.5t89.5 -27.5h53q72 0 89 27.5 t17 117.5zM467 1655h65q0 -78 -23.5 -108.5t-78.5 -30.5q-45 0 -94 27.5t-68 27.5q-23 0 -29 -13.5t-6 -46.5h-67q0 78 24.5 110t79.5 32q45 0 94.5 -28t67.5 -28q23 0 29 12.5t6 45.5z" />
<glyph unicode="&#xd6;" horiz-adv-x="700" d="M80 233v967q0 141 46 192.5t177 51.5h94q131 0 177.5 -51.5t46.5 -192.5v-967q0 -141 -46.5 -192t-177.5 -51h-94q-131 0 -177 51t-46 192zM483 260v914q0 90 -17 117.5t-89 27.5h-53q-72 0 -89.5 -27.5t-17.5 -117.5v-914q0 -90 17.5 -117.5t89.5 -27.5h53q72 0 89 27.5 t17 117.5zM512 1530h-115v129h115v-129zM301 1530h-117v129h117v-129z" />
<glyph unicode="&#xd7;" d="M252 717l-168 178l74 76l168 -178l168 178l71 -76l-170 -178l170 -176l-71 -76l-168 178l-168 -178l-74 76z" />
<glyph unicode="&#xd8;" horiz-adv-x="700" d="M80 233v967q0 141 46 192.5t177 51.5h94q41 0 95 -8l16 59h110l-32 -119q35 -55 35 -176v-967q0 -141 -46.5 -192t-177.5 -51h-94q-41 0 -94 8l-16 -59h-113l33 118q-33 49 -33 176zM217 1174v-785l240 911q-25 18 -80 19h-53q-72 0 -89.5 -27.5t-17.5 -117.5zM483 260 v784l-239 -911q18 -18 80 -18h53q72 0 89 27.5t17 117.5z" />
<glyph unicode="&#xd9;" horiz-adv-x="706" d="M225 1434v-1174q0 -88 18.5 -116.5t88.5 -28.5h53q72 0 90.5 28.5t18.5 116.5v1174h127v-1201q0 -143 -45.5 -193t-176.5 -50h-88q-131 0 -176 50t-45 193v1201h135zM319 1710l101 -231h-80l-141 231h120z" />
<glyph unicode="&#xda;" horiz-adv-x="706" d="M225 1434v-1174q0 -88 18.5 -116.5t88.5 -28.5h53q72 0 90.5 28.5t18.5 116.5v1174h127v-1201q0 -143 -45.5 -193t-176.5 -50h-88q-131 0 -176 50t-45 193v1201h135zM287 1479l102 231h121l-143 -231h-80z" />
<glyph unicode="&#xdb;" horiz-adv-x="706" d="M225 1434v-1174q0 -88 18.5 -116.5t88.5 -28.5h53q72 0 90.5 28.5t18.5 116.5v1174h127v-1201q0 -143 -45.5 -193t-176.5 -50h-88q-131 0 -176 50t-45 193v1201h135zM399 1710l131 -231h-81l-95 143l-94 -143h-82l129 231h92z" />
<glyph unicode="&#xdc;" horiz-adv-x="706" d="M225 1434v-1174q0 -88 18.5 -116.5t88.5 -28.5h53q72 0 90.5 28.5t18.5 116.5v1174h127v-1201q0 -143 -45.5 -193t-176.5 -50h-88q-131 0 -176 50t-45 193v1201h135zM516 1530h-115v129h115v-129zM305 1530h-117v129h117v-129z" />
<glyph unicode="&#xdd;" horiz-adv-x="608" d="M375 0h-135v504l-226 930h136l92 -387q59 -258 71 -379q14 113 74 381l88 385h121l-221 -922v-512zM246 1479l102 231h121l-143 -231h-80z" />
<glyph unicode="&#xde;" horiz-adv-x="657" d="M94 0v1434h135v-123h168q131 0 176 -50.5t45 -191.5v-369q0 -141 -46 -192t-175 -51h-168v-457h-135zM229 582h146q72 0 90 28.5t18 116.5v313q0 88 -18.5 118t-89.5 30h-146v-606z" />
<glyph unicode="&#xdf;" horiz-adv-x="643" d="M446 1096v116q0 78 -17 104.5t-79 26.5h-47q-57 0 -75.5 -21.5t-18.5 -96.5v-1225h-123v1225q0 129 40 174t157 45h90q117 0 156.5 -45t39.5 -172v-113q0 -98 -24.5 -145t-85.5 -62q61 -14 85.5 -61t24.5 -144v-483q0 -129 -40 -174t-156 -45h-78v104h57q57 0 75.5 21.5 t18.5 97.5v496q0 78 -17 104.5t-79 26.5h-55v113h55q61 0 78.5 27.5t17.5 105.5z" />
<glyph unicode="&#xe0;" horiz-adv-x="634" d="M70 360q0 117 33.5 176.5t140.5 106.5q129 55 156.5 88t27.5 133v33q0 80 -16.5 106.5t-77.5 26.5h-43q-61 0 -77.5 -26.5t-16.5 -106.5v-145h-117v172q0 127 40 172t154 45h82q117 0 157 -45t40 -172v-734q0 -123 14 -190h-116q-10 31 -15 121q-33 -131 -168 -131h-39 q-92 0 -125.5 41t-33.5 147v182zM428 260v363q-39 -27 -111 -58q-82 -35 -103 -74.5t-21 -130.5v-133q0 -74 16 -100.5t74 -26.5h39q106 0 106 160zM285 1421l100 -231h-80l-141 231h121z" />
<glyph unicode="&#xe1;" horiz-adv-x="634" d="M70 360q0 117 33.5 176.5t140.5 106.5q129 55 156.5 88t27.5 133v33q0 80 -16.5 106.5t-77.5 26.5h-43q-61 0 -77.5 -26.5t-16.5 -106.5v-145h-117v172q0 127 40 172t154 45h82q117 0 157 -45t40 -172v-734q0 -123 14 -190h-116q-10 31 -15 121q-33 -131 -168 -131h-39 q-92 0 -125.5 41t-33.5 147v182zM428 260v363q-39 -27 -111 -58q-82 -35 -103 -74.5t-21 -130.5v-133q0 -74 16 -100.5t74 -26.5h39q106 0 106 160zM252 1190l102 231h121l-143 -231h-80z" />
<glyph unicode="&#xe2;" horiz-adv-x="634" d="M70 360q0 117 33.5 176.5t140.5 106.5q129 55 156.5 88t27.5 133v33q0 80 -16.5 106.5t-77.5 26.5h-43q-61 0 -77.5 -26.5t-16.5 -106.5v-145h-117v172q0 127 40 172t154 45h82q117 0 157 -45t40 -172v-734q0 -123 14 -190h-116q-10 31 -15 121q-33 -131 -168 -131h-39 q-92 0 -125.5 41t-33.5 147v182zM428 260v363q-39 -27 -111 -58q-82 -35 -103 -74.5t-21 -130.5v-133q0 -74 16 -100.5t74 -26.5h39q106 0 106 160zM365 1421l131 -231h-82l-95 143l-94 -143h-82l129 231h93z" />
<glyph unicode="&#xe3;" horiz-adv-x="634" d="M70 360q0 117 33.5 176.5t140.5 106.5q129 55 156.5 88t27.5 133v33q0 80 -16.5 106.5t-77.5 26.5h-43q-61 0 -77.5 -26.5t-16.5 -106.5v-145h-117v172q0 127 40 172t154 45h82q117 0 157 -45t40 -172v-734q0 -123 14 -190h-116q-10 31 -15 121q-33 -131 -168 -131h-39 q-92 0 -125.5 41t-33.5 147v182zM428 260v363q-39 -27 -111 -58q-82 -35 -103 -74.5t-21 -130.5v-133q0 -74 16 -100.5t74 -26.5h39q106 0 106 160zM436 1366h66q0 -78 -23.5 -108.5t-79.5 -30.5q-45 0 -94 27.5t-67 27.5q-23 0 -29 -13.5t-6 -45.5h-68q0 78 24.5 109.5 t80.5 31.5q45 0 94 -27.5t67 -27.5q23 0 29 12t6 45z" />
<glyph unicode="&#xe4;" horiz-adv-x="634" d="M70 360q0 117 33.5 176.5t140.5 106.5q129 55 156.5 88t27.5 133v33q0 80 -16.5 106.5t-77.5 26.5h-43q-61 0 -77.5 -26.5t-16.5 -106.5v-145h-117v172q0 127 40 172t154 45h82q117 0 157 -45t40 -172v-734q0 -123 14 -190h-116q-10 31 -15 121q-33 -131 -168 -131h-39 q-92 0 -125.5 41t-33.5 147v182zM428 260v363q-39 -27 -111 -58q-82 -35 -103 -74.5t-21 -130.5v-133q0 -74 16 -100.5t74 -26.5h39q106 0 106 160zM481 1241h-114v129h114v-129zM270 1241h-116v129h116v-129z" />
<glyph unicode="&#xe5;" horiz-adv-x="634" d="M70 360q0 117 33.5 176.5t140.5 106.5q129 55 156.5 88t27.5 133v33q0 80 -16.5 106.5t-77.5 26.5h-43q-61 0 -77.5 -26.5t-16.5 -106.5v-145h-117v172q0 127 40 172t154 45h82q117 0 157 -45t40 -172v-734q0 -123 14 -190h-116q-10 31 -15 121q-33 -131 -168 -131h-39 q-92 0 -125.5 41t-33.5 147v182zM428 260v363q-39 -27 -111 -58q-82 -35 -103 -74.5t-21 -130.5v-133q0 -74 16 -100.5t74 -26.5h39q106 0 106 160zM373 1312.5q0 22.5 -15.5 38t-38 15.5t-39 -15.5t-16.5 -38t16.5 -37.5t39 -15t38 15t15.5 37.5zM203 1313q0 49 33.5 80.5 t83 31.5t82 -31.5t32.5 -80.5t-32.5 -81t-82 -32t-83 32t-33.5 81z" />
<glyph unicode="&#xe6;" horiz-adv-x="978" d="M788 639v258q0 80 -16 106.5t-80 26.5h-43q-63 0 -79.5 -26.5t-16.5 -106.5v-258h235zM428 864v33q0 80 -16.5 106.5t-77.5 26.5h-43q-61 0 -77.5 -26.5t-16.5 -106.5v-145h-117v172q0 127 40 172t154 45h39q82 0 123 -22.5t56 -78.5q14 55 53 78t123 23h41 q117 0 156.5 -45t39.5 -172v-392h-352v-299q0 -80 16.5 -106.5t79.5 -26.5h43q63 0 79.5 27t16.5 106v148h117v-172q0 -129 -40 -174t-156 -45h-84q-92 0 -134 26.5t-57 96.5q-33 -123 -166 -123h-39q-92 0 -125.5 41t-33.5 147v182q0 117 33.5 176.5t140.5 106.5 q129 55 156.5 88t27.5 133zM428 260v363q-39 -27 -111 -58q-82 -35 -103 -74.5t-21 -130.5v-133q0 -74 16 -100.5t74 -26.5h39q106 0 106 160z" />
<glyph unicode="&#xe7;" horiz-adv-x="622" d="M365 -170q0 39 -18.5 55.5t-74.5 12.5v92h-2q-117 0 -155.5 45t-38.5 174v715q0 127 40 172t154 45h86q115 0 155 -45t40 -172v-224h-117v197q0 80 -16.5 106.5t-77.5 26.5h-45q-61 0 -78.5 -27.5t-17.5 -105.5v-664q0 -78 17 -105.5t79 -27.5h45q61 0 77.5 27t16.5 106 v218h117v-242q0 -129 -40 -174t-155 -45h-39v-53q129 0 129 -97q0 -35 -6 -55.5t-38.5 -37.5t-92.5 -17q-82 0 -106.5 25.5t-24.5 86.5h78q-4 -41 5 -55t46 -14q35 0 46.5 12t11.5 45z" />
<glyph unicode="&#xe8;" horiz-adv-x="624" d="M434 233v148h117v-172q0 -129 -40 -174t-155 -45h-86q-117 0 -155.5 45t-38.5 174v715q0 127 40 172t154 45h86q115 0 155 -45t40 -172v-392h-352v-299q0 -78 17 -105.5t79 -27.5h45q61 0 77.5 26.5t16.5 106.5zM199 897v-258h235v258q0 80 -16.5 106.5t-77.5 26.5h-45 q-61 0 -78.5 -27.5t-17.5 -105.5zM285 1421l100 -231h-80l-141 231h121z" />
<glyph unicode="&#xe9;" horiz-adv-x="624" d="M434 233v148h117v-172q0 -129 -40 -174t-155 -45h-86q-117 0 -155.5 45t-38.5 174v715q0 127 40 172t154 45h86q115 0 155 -45t40 -172v-392h-352v-299q0 -78 17 -105.5t79 -27.5h45q61 0 77.5 26.5t16.5 106.5zM199 897v-258h235v258q0 80 -16.5 106.5t-77.5 26.5h-45 q-61 0 -78.5 -27.5t-17.5 -105.5zM252 1190l102 231h121l-143 -231h-80z" />
<glyph unicode="&#xea;" horiz-adv-x="624" d="M434 233v148h117v-172q0 -129 -40 -174t-155 -45h-86q-117 0 -155.5 45t-38.5 174v715q0 127 40 172t154 45h86q115 0 155 -45t40 -172v-392h-352v-299q0 -78 17 -105.5t79 -27.5h45q61 0 77.5 26.5t16.5 106.5zM199 897v-258h235v258q0 80 -16.5 106.5t-77.5 26.5h-45 q-61 0 -78.5 -27.5t-17.5 -105.5zM362 1421l132 -231h-82l-95 143l-94 -143h-82l129 231h92z" />
<glyph unicode="&#xeb;" horiz-adv-x="624" d="M434 233v148h117v-172q0 -129 -40 -174t-155 -45h-86q-117 0 -155.5 45t-38.5 174v715q0 127 40 172t154 45h86q115 0 155 -45t40 -172v-392h-352v-299q0 -78 17 -105.5t79 -27.5h45q61 0 77.5 26.5t16.5 106.5zM199 897v-258h235v258q0 80 -16.5 106.5t-77.5 26.5h-45 q-61 0 -78.5 -27.5t-17.5 -105.5zM479 1241h-114v129h114v-129zM268 1241h-116v129h116v-129z" />
<glyph unicode="&#xec;" horiz-adv-x="294" d="M113 1421l100 -231h-80l-141 231h121zM209 1130v-1130h-123v1130h123z" />
<glyph unicode="&#xed;" horiz-adv-x="294" d="M80 1190l102 231h121l-143 -231h-80zM209 1130v-1130h-123v1130h123z" />
<glyph unicode="&#xee;" horiz-adv-x="294" d="M209 1130v-1130h-123v1130h123zM195 1421l131 -231h-82l-94 143l-95 -143h-82l129 231h93z" />
<glyph unicode="&#xef;" horiz-adv-x="294" d="M311 1241h-114v129h114v-129zM100 1241h-116v129h116v-129zM209 1130v-1130h-123v1130h123z" />
<glyph unicode="&#xf0;" horiz-adv-x="659" d="M559 1208v-999q0 -129 -40 -174t-157 -45h-92q-117 0 -155.5 45t-38.5 174v743q0 106 33.5 147.5t126.5 41.5h38q125 0 162 -107v164q0 72 -12 98l-107 -96l-26 33l104 90q-25 10 -57 10h-59v101h77q90 0 133 -29l33 29h56l-60 -54q41 -47 41 -172zM199 233 q0 -78 17 -105.5t79 -27.5h45q61 0 77.5 27t16.5 106v637q0 160 -106 160h-39q-57 0 -73.5 -26.5t-16.5 -100.5v-670z" />
<glyph unicode="&#xf1;" horiz-adv-x="651" d="M569 0h-123v903q0 74 -16 100.5t-74 26.5h-39q-109 0 -108 -160v-870h-123v1130h115v-129q31 139 170 140h39q92 0 125.5 -41t33.5 -148v-952zM444 1366h66q0 -78 -23.5 -108.5t-78.5 -30.5q-45 0 -94.5 27.5t-67.5 27.5q-23 0 -29 -13.5t-6 -45.5h-68q0 78 25 109.5 t80 31.5q45 0 94 -27.5t68 -27.5q23 0 28.5 12t5.5 45z" />
<glyph unicode="&#xf2;" horiz-adv-x="632" d="M559 924v-715q0 -129 -40 -174t-157 -45h-92q-117 0 -155.5 45t-38.5 174v715q0 127 40 172t154 45h92q117 0 157 -45t40 -172zM199 897v-664q0 -78 17 -105.5t79 -27.5h45q61 0 77.5 27t16.5 106v664q0 80 -16.5 106.5t-77.5 26.5h-45q-61 0 -78.5 -27.5t-17.5 -105.5z M283 1421l100 -231h-80l-141 231h121z" />
<glyph unicode="&#xf3;" horiz-adv-x="632" d="M559 924v-715q0 -129 -40 -174t-157 -45h-92q-117 0 -155.5 45t-38.5 174v715q0 127 40 172t154 45h92q117 0 157 -45t40 -172zM199 897v-664q0 -78 17 -105.5t79 -27.5h45q61 0 77.5 27t16.5 106v664q0 80 -16.5 106.5t-77.5 26.5h-45q-61 0 -78.5 -27.5t-17.5 -105.5z M250 1190l102 231h121l-143 -231h-80z" />
<glyph unicode="&#xf4;" horiz-adv-x="632" d="M559 924v-715q0 -129 -40 -174t-157 -45h-92q-117 0 -155.5 45t-38.5 174v715q0 127 40 172t154 45h92q117 0 157 -45t40 -172zM199 897v-664q0 -78 17 -105.5t79 -27.5h45q61 0 77.5 27t16.5 106v664q0 80 -16.5 106.5t-77.5 26.5h-45q-61 0 -78.5 -27.5t-17.5 -105.5z M362 1421l132 -231h-82l-95 143l-94 -143h-82l129 231h92z" />
<glyph unicode="&#xf5;" horiz-adv-x="632" d="M559 924v-715q0 -129 -40 -174t-157 -45h-92q-117 0 -155.5 45t-38.5 174v715q0 127 40 172t154 45h92q117 0 157 -45t40 -172zM199 897v-664q0 -78 17 -105.5t79 -27.5h45q61 0 77.5 27t16.5 106v664q0 80 -16.5 106.5t-77.5 26.5h-45q-61 0 -78.5 -27.5t-17.5 -105.5z M434 1366h66q0 -78 -23.5 -108.5t-79.5 -30.5q-45 0 -94 27.5t-67 27.5q-23 0 -29 -13.5t-6 -45.5h-68q0 78 24.5 109.5t80.5 31.5q45 0 94 -27.5t67 -27.5q23 0 29 12t6 45z" />
<glyph unicode="&#xf6;" horiz-adv-x="632" d="M559 924v-715q0 -129 -40 -174t-157 -45h-92q-117 0 -155.5 45t-38.5 174v715q0 127 40 172t154 45h92q117 0 157 -45t40 -172zM199 897v-664q0 -78 17 -105.5t79 -27.5h45q61 0 77.5 27t16.5 106v664q0 80 -16.5 106.5t-77.5 26.5h-45q-61 0 -78.5 -27.5t-17.5 -105.5z M479 1241h-114v129h114v-129zM268 1241h-116v129h116v-129z" />
<glyph unicode="&#xf7;" d="M575 774v-115h-499v115h499zM260 430v127h129v-127h-129zM260 874v130h129v-130h-129z" />
<glyph unicode="&#xf8;" horiz-adv-x="632" d="M559 924v-715q0 -129 -40 -174t-157 -45h-92q-43 0 -73 6l-17 -57h-104l33 104q-33 47 -33 166v715q0 127 40 172t154 45h92q41 0 72 -6l21 67h104l-35 -115q35 -46 35 -163zM340 100q61 0 77.5 27t16.5 106v598l-205 -716q20 -14 66 -15h45zM199 897v-592l202 711 q-20 14 -61 14h-45q-61 0 -78.5 -27.5t-17.5 -105.5z" />
<glyph unicode="&#xf9;" horiz-adv-x="651" d="M565 190q0 -113 15 -190h-117q-10 29 -14 113q-33 -123 -168 -123h-39q-92 0 -126 41t-34 147v952h125v-903q0 -76 15.5 -101.5t72.5 -25.5h39q109 0 108 160v870h123v-940zM291 1421l100 -231h-80l-141 231h121z" />
<glyph unicode="&#xfa;" horiz-adv-x="651" d="M565 190q0 -113 15 -190h-117q-10 29 -14 113q-33 -123 -168 -123h-39q-92 0 -126 41t-34 147v952h125v-903q0 -76 15.5 -101.5t72.5 -25.5h39q109 0 108 160v870h123v-940zM258 1190l102 231h121l-143 -231h-80z" />
<glyph unicode="&#xfb;" horiz-adv-x="651" d="M565 190q0 -113 15 -190h-117q-10 29 -14 113q-33 -123 -168 -123h-39q-92 0 -126 41t-34 147v952h125v-903q0 -76 15.5 -101.5t72.5 -25.5h39q109 0 108 160v870h123v-940zM371 1421l131 -231h-82l-94 143l-95 -143h-81l129 231h92z" />
<glyph unicode="&#xfc;" horiz-adv-x="651" d="M565 190q0 -113 15 -190h-117q-10 29 -14 113q-33 -123 -168 -123h-39q-92 0 -126 41t-34 147v952h125v-903q0 -76 15.5 -101.5t72.5 -25.5h39q109 0 108 160v870h123v-940zM487 1241h-114v129h114v-129zM276 1241h-116v129h116v-129z" />
<glyph unicode="&#xfd;" horiz-adv-x="577" d="M344 -119q-25 -141 -172 -141h-119v96h78q72 0 78 66l8 75l-203 1153h127l84 -487q59 -330 70 -516q12 164 72 516l84 487h112zM227 1190l103 231h121l-144 -231h-80z" />
<glyph unicode="&#xfe;" horiz-adv-x="645" d="M446 903q0 74 -16 100.5t-74 26.5h-39q-109 0 -108 -160v-610q0 -160 108 -160h39q57 0 73.5 27t16.5 100v676zM209 -260h-123v1694h123v-400q37 106 162 107h39q92 0 125.5 -41t33.5 -148v-774q0 -106 -33.5 -147t-125.5 -41h-39q-127 0 -162 106v-356z" />
<glyph unicode="&#xff;" horiz-adv-x="577" d="M344 -119q-25 -141 -172 -141h-119v96h78q72 0 78 66l8 75l-203 1153h127l84 -487q59 -330 70 -516q12 164 72 516l84 487h112zM457 1241h-115v129h115v-129zM246 1241h-117v129h117v-129z" />
<glyph unicode="&#x152;" horiz-adv-x="913" d="M590 1309v-496h235v-123h-235v-565h276v-125h-563q-131 0 -177 51t-46 193v946q0 141 46 192.5t177 51.5h563v-125h-276zM324 125h129v1184h-129q-70 0 -88.5 -29t-18.5 -117v-893q0 -88 18.5 -116.5t88.5 -28.5z" />
<glyph unicode="&#x153;" horiz-adv-x="985" d="M795 233v148h116v-172q0 -129 -40 -174t-156 -45h-39q-86 0 -126 23.5t-54 82.5q-14 -59 -53.5 -82.5t-123.5 -23.5h-49q-117 0 -155.5 45t-38.5 174v715q0 127 40 172t154 45h49q84 0 124 -23.5t53 -83.5q14 59 54 83t126 24h39q117 0 156.5 -45t39.5 -172v-392h-352 v-299q0 -80 16.5 -106.5t79.5 -26.5h43q63 0 80 26.5t17 106.5zM199 897v-664q0 -78 17 -105.5t79 -27.5h45q61 0 77.5 27t16.5 106v664q0 80 -16.5 106.5t-77.5 26.5h-45q-61 0 -78.5 -27.5t-17.5 -105.5zM559 897v-258h236v258q0 80 -16.5 106.5t-80.5 26.5h-43 q-63 0 -79.5 -26.5t-16.5 -106.5z" />
<glyph unicode="&#x178;" horiz-adv-x="608" d="M375 0h-135v504l-226 930h136l92 -387q59 -258 71 -379q14 113 74 381l88 385h121l-221 -922v-512zM473 1530h-115v129h115v-129zM262 1530h-117v129h117v-129z" />
<glyph unicode="&#x2c6;" horiz-adv-x="325" d="M209 1421l131 -231h-82l-94 143l-94 -143h-82l129 231h92z" />
<glyph unicode="&#x2dc;" horiz-adv-x="325" d="M281 1366h65q0 -78 -23.5 -108.5t-78.5 -30.5q-45 0 -94.5 27.5t-67.5 27.5q-23 0 -29 -13.5t-6 -45.5h-67q0 78 24.5 109.5t79.5 31.5q45 0 94 -27.5t68 -27.5q23 0 29 12t6 45z" />
<glyph unicode="&#x2000;" horiz-adv-x="857" />
<glyph unicode="&#x2001;" horiz-adv-x="1714" />
<glyph unicode="&#x2002;" horiz-adv-x="857" />
<glyph unicode="&#x2003;" horiz-adv-x="1714" />
<glyph unicode="&#x2004;" horiz-adv-x="571" />
<glyph unicode="&#x2005;" horiz-adv-x="428" />
<glyph unicode="&#x2006;" horiz-adv-x="285" />
<glyph unicode="&#x2007;" horiz-adv-x="285" />
<glyph unicode="&#x2008;" horiz-adv-x="214" />
<glyph unicode="&#x2009;" horiz-adv-x="342" />
<glyph unicode="&#x200a;" horiz-adv-x="95" />
<glyph unicode="&#x2010;" horiz-adv-x="417" d="M373 598v-96h-328v96h328z" />
<glyph unicode="&#x2011;" horiz-adv-x="417" d="M373 598v-96h-328v96h328z" />
<glyph unicode="&#x2012;" horiz-adv-x="417" d="M373 598v-96h-328v96h328z" />
<glyph unicode="&#x2013;" horiz-adv-x="1024" d="M1024 598v-96h-1024v96h1024z" />
<glyph unicode="&#x2014;" horiz-adv-x="2048" d="M2048 598v-96h-2048v96h2048z" />
<glyph unicode="&#x2018;" horiz-adv-x="325" d="M233 1274v-203h-145v203l121 160l14 -9l-80 -151h90z" />
<glyph unicode="&#x2019;" horiz-adv-x="325" d="M90 1231v203h146v-203l-121 -160l-15 8l80 152h-90z" />
<glyph unicode="&#x201a;" horiz-adv-x="325" d="M90 0v203h146v-203l-121 -160l-15 8l80 152h-90z" />
<glyph unicode="&#x201c;" horiz-adv-x="518" d="M451 1274v-203h-146v203l121 160l14 -9l-80 -151h91zM211 1274v-203h-145v203l120 160l15 -9l-80 -151h90z" />
<glyph unicode="&#x201d;" horiz-adv-x="518" d="M307 1231v203h146v-203l-121 -160l-15 8l80 152h-90zM68 1231v203h145v-203l-121 -160l-14 8l80 152h-90z" />
<glyph unicode="&#x201e;" horiz-adv-x="518" d="M307 0v203h146v-203l-121 -160l-15 8l80 152h-90zM68 0v203h145v-203l-121 -160l-14 8l80 152h-90z" />
<glyph unicode="&#x2022;" horiz-adv-x="559" d="M78 717q0 88 57.5 147.5t143.5 59.5q88 0 145 -59.5t57 -147.5q0 -86 -58 -145.5t-144 -59.5t-143.5 59.5t-57.5 145.5z" />
<glyph unicode="&#x2026;" horiz-adv-x="757" d="M68 0v203h145v-203h-145zM307 0v203h146v-203h-146zM547 0v203h145v-203h-145z" />
<glyph unicode="&#x202f;" horiz-adv-x="342" />
<glyph unicode="&#x2039;" horiz-adv-x="344" d="M215 156l-201 409l201 410h115l-193 -410l193 -409h-115z" />
<glyph unicode="&#x203a;" horiz-adv-x="344" d="M330 565l-201 -409h-115l193 409l-193 410h115z" />
<glyph unicode="&#x205f;" horiz-adv-x="428" />
<glyph unicode="&#x20ac;" d="M578 823h-365v-137h365v-63h-365v-381q0 -80 17.5 -106.5t82.5 -26.5h45q66 0 83.5 26.5t17.5 106.5v233h119v-258q0 -133 -41 -180t-162 -47h-84q-121 0 -163 47t-42 180v406h-68v63h68v137h-68v62h68v332q0 133 42 180t163 47h84q121 0 162 -47t41 -180v-183h-119v158 q0 80 -17.5 106.5t-83.5 26.5h-45q-66 0 -83 -26.5t-17 -106.5v-307h365v-62z" />
<glyph unicode="&#x2122;" horiz-adv-x="940" d="M651 928l88 506h146v-848h-99v497q0 129 7 222q-4 -18 -16.5 -101.5t-18.5 -120.5l-90 -497h-78l-96 497q-25 137 -39 230q8 -135 8 -230v-497h-84v848h141l90 -506q14 -76 21 -189q14 150 20 189zM10 1350v84h303v-84h-102v-764h-98v764h-103z" />
<glyph unicode="&#xe000;" horiz-adv-x="1130" d="M0 1130h1130v-1130h-1130v1130z" />
<glyph unicode="&#xfb01;" horiz-adv-x="659" d="M14 1026v104h88v87q0 127 40 172t155 45h53v-101h-28q-59 0 -79 -21.5t-20 -97.5v-84h127v-104h-125v-1026h-123v1026h-88zM573 1130v-1130h-122v1130h122zM451 1288v146h122v-146h-122z" />
<glyph unicode="&#xfb02;" horiz-adv-x="659" d="M14 1026v104h88v87q0 127 40 172t155 45h53v-101h-28q-59 0 -79 -21.5t-20 -97.5v-84h127v-104h-125v-1026h-123v1026h-88zM573 0h-122v1434h122v-1434z" />
<glyph unicode="&#xfb03;" horiz-adv-x="1022" d="M937 1130v-1130h-123v1130h123zM814 1288v146h123v-146h-123zM378 1026v104h88v87q0 127 40 172t155 45h53v-101h-28q-59 0 -79 -21.5t-20 -97.5v-84h127v-104h-125v-1026h-123v1026h-88zM14 1026v104h88v87q0 127 40 172t155 45h53v-101h-28q-59 0 -79 -21.5t-20 -97.5 v-84h127v-104h-125v-1026h-123v1026h-88z" />
<glyph unicode="&#xfb04;" horiz-adv-x="1022" d="M937 0h-123v1434h123v-1434zM378 1026v104h88v87q0 127 40 172t155 45h53v-101h-28q-59 0 -79 -21.5t-20 -97.5v-84h127v-104h-125v-1026h-123v1026h-88zM14 1026v104h88v87q0 127 40 172t155 45h53v-101h-28q-59 0 -79 -21.5t-20 -97.5v-84h127v-104h-125v-1026h-123 v1026h-88z" />
</font>
</defs>
</svg>
