<?xml version="1.0" standalone="no"?>
<!DOCTYPE svg PUBLIC "-//W3C//DTD SVG 1.1//EN" "http://www.w3.org/Graphics/SVG/1.1/DTD/svg11.dtd" >
<svg xmlns="http://www.w3.org/2000/svg">
<metadata>
This is a custom SVG webfont generated by Fontspring.
</metadata>
<defs>
<font id="DharmaGothicELightItalic" horiz-adv-x="649" >
<font-face units-per-em="2048" ascent="1638" descent="-410" />
<missing-glyph horiz-adv-x="282" />
<glyph unicode=" "  horiz-adv-x="282" />
<glyph unicode="&#x09;" horiz-adv-x="282" />
<glyph unicode="&#xa0;" horiz-adv-x="282" />
<glyph unicode="!" horiz-adv-x="305" d="M279 981l-123 -684h-80l67 684l66 453h135zM2 0l27 193h143l-25 -193h-145z" />
<glyph unicode="&#x22;" horiz-adv-x="460" d="M514 1294l-57 -266h-88l18 266l21 140h127zM281 1294l-58 -266h-88l19 266l20 140h127z" />
<glyph unicode="#" d="M698 1434l-53 -252h78l-27 -117h-75l-138 -647h78l-22 -117h-80l-62 -301h-112l61 301h-182l-62 -301h-112l63 301h-73l22 117h76l135 647h-78l25 117h78l53 252h112l-53 -252h182l54 252h112zM326 1065l-136 -647h183l135 647h-182z" />
<glyph unicode="$" d="M291 -51h-105l13 92q-113 2 -144.5 49t-15.5 178l37 275h119l-35 -248q-12 -80 3 -107.5t81 -27.5h43q66 0 88 27.5t33 107.5l14 111q10 76 -12.5 128t-112.5 142q-111 109 -139.5 179.5t-12.5 172.5l21 137q18 129 64 177.5t159 50.5l12 92h105l-12 -92 q113 -2 146.5 -50.5t16.5 -177.5l-34 -245h-119l28 219q12 80 -2 107.5t-79 27.5h-43q-68 0 -88.5 -26.5t-32.5 -108.5l-17 -111q-10 -74 13.5 -127t113.5 -143q111 -109 138.5 -178.5t13.5 -173.5l-19 -138q-16 -129 -64 -177t-163 -50z" />
<glyph unicode="%" horiz-adv-x="1089" d="M242 0l594 1434h57l-594 -1434h-57zM600 160l80 565q12 98 50 133t128 35h68q86 0 113.5 -35t13.5 -133l-78 -565q-14 -98 -52 -134t-124 -36h-68q-90 0 -117.5 36t-13.5 134zM774 700l-74 -518q-8 -59 2.5 -79.5t59.5 -20.5h29q49 0 64 20.5t24 79.5l71 518q12 57 1 79 t-60 22h-29q-49 0 -64.5 -20t-23.5 -81zM80 711l80 565q12 98 50 133t128 35h68q86 0 113.5 -35t12.5 -133l-77 -565q-14 -98 -52 -134t-124 -36h-68q-90 0 -117.5 36t-13.5 134zM254 1251l-74 -518q-8 -59 2.5 -79.5t59.5 -20.5h28q49 0 64.5 20.5t23.5 79.5l72 518 q12 57 1 79t-60 22h-29q-49 0 -64.5 -20t-23.5 -81z" />
<glyph unicode="&#x26;" horiz-adv-x="704" d="M401 0q-12 35 -4 135q-51 -145 -198 -145h-43q-98 0 -128 43t-14 157l47 342q16 111 50 164.5t106 69.5q-68 16 -86 68.5t-2 166.5l27 189q20 141 72.5 192.5t181.5 51.5h186l-18 -125h-164q-70 0 -92.5 -29t-34.5 -117l-27 -190q-12 -88 2 -117t86 -29h139l29 203h123 l-29 -203h119l-18 -122h-119l-62 -447q-20 -168 -4 -258h-125zM203 559l-45 -313q-14 -72 -1 -103.5t74 -31.5h41q117 0 140 170l57 424h-139q-72 0 -93.5 -28t-33.5 -118z" />
<glyph unicode="'" horiz-adv-x="325" d="M330 1294l-58 -266h-88l19 266l20 140h127z" />
<glyph unicode="(" horiz-adv-x="409" d="M12 76l162 1159q18 129 64.5 174t162.5 45h84l-14 -104h-61q-61 0 -82 -28t-33 -105l-158 -1123q-10 -80 3.5 -106.5t74.5 -26.5h61l-14 -104h-84q-117 0 -149.5 45t-16.5 174z" />
<glyph unicode=")" horiz-adv-x="409" d="M422 1235l-162 -1159q-18 -129 -64 -174t-161 -45h-86l14 104h62q63 0 83.5 27.5t30.5 105.5l160 1123q10 80 -3 106.5t-75 26.5h-61l12 104h86q115 0 148.5 -46t15.5 -173z" />
<glyph unicode="*" horiz-adv-x="585" d="M84 1049l238 96l-211 98l69 94l172 -147l8 244h111l-65 -244l217 147l43 -94l-242 -98l215 -96l-72 -97l-172 146l-6 -242h-110l61 242l-213 -146z" />
<glyph unicode="+" d="M330 987h108l-28 -213h194l-14 -115h-197l-31 -213h-108l31 213h-195l16 115h193z" />
<glyph unicode="," horiz-adv-x="325" d="M12 0l27 203h145l-26 -203l-146 -160l-10 8l100 152h-90z" />
<glyph unicode="-" horiz-adv-x="417" d="M379 598l-14 -96h-328l12 96h330z" />
<glyph unicode="." horiz-adv-x="325" d="M12 0l27 203h145l-26 -203h-146z" />
<glyph unicode="/" d="M-55 -41l684 1516h125l-686 -1516h-123z" />
<glyph unicode="0" d="M668 1217l-142 -1000q-18 -133 -66 -180t-169 -47h-90q-121 0 -157 47t-17 180l141 1000q18 133 67.5 180t170.5 47h90q121 0 155.5 -47t16.5 -180zM291 1192l-133 -950q-12 -80 2 -106.5t80 -26.5h45q66 0 86 26.5t32 106.5l134 950q12 80 -2.5 106.5t-79.5 26.5h-43 q-68 0 -88.5 -26.5t-32.5 -106.5z" />
<glyph unicode="1" horiz-adv-x="313" d="M145 0h-127l193 1368q23 0 48.5 21.5t27.5 44.5h59z" />
<glyph unicode="2" horiz-adv-x="624" d="M528 1165l4 33q10 76 -3 101.5t-78 25.5h-45q-66 0 -87.5 -26.5t-33.5 -106.5l-37 -268h-119l41 293q18 133 66.5 180t171.5 47h81q121 0 155 -47t18 -180l-9 -66q-20 -154 -72.5 -249t-207.5 -269q-127 -143 -171 -225t-63 -213l-10 -76h383l-14 -119h-510l28 209 q20 154 72.5 249t206.5 269q129 145 173 225t60 213z" />
<glyph unicode="3" horiz-adv-x="626" d="M274 1192l-28 -209h-119l33 234q20 133 68 180t169 47h82q121 0 157 -47t15 -180l-35 -246q-14 -102 -43.5 -151.5t-91.5 -65.5q57 -16 72.5 -64.5t1.5 -150.5l-45 -322q-18 -133 -66.5 -180t-169.5 -47h-81q-121 0 -157 47t-18 180l43 309h119l-39 -284 q-12 -78 3.5 -105.5t80.5 -27.5h43q66 0 88.5 27.5t32.5 105.5l43 319q12 80 -2 106.5t-80 26.5h-190l18 119h189q66 0 87 27.5t33 107.5l35 244q12 80 -2 106.5t-80 26.5h-45q-68 0 -88.5 -26.5t-32.5 -106.5z" />
<glyph unicode="4" horiz-adv-x="606" d="M461 1432h143l-149 -1051h118l-12 -111h-119l-39 -270h-127l39 270h-346l13 103zM98 381h232l53 371q35 250 80 485q-162 -408 -197 -485z" />
<glyph unicode="5" horiz-adv-x="630" d="M229 807l-20 -139h-119l109 766h469l-19 -119h-350l-47 -340q53 115 184 115h41q96 0 125 -42t12 -155l-96 -676q-18 -133 -67.5 -180t-169.5 -47h-80q-121 0 -157 47t-17 180l43 309h118l-38 -284q-12 -80 2 -106.5t79 -26.5h45q66 0 86.5 26.5t32.5 106.5l84 602 q14 70 1 100.5t-74 30.5h-41q-113 0 -136 -168z" />
<glyph unicode="6" horiz-adv-x="643" d="M606 780l-80 -563q-18 -133 -66 -180t-169 -47h-90q-123 0 -158 47t-16 180l141 1000q18 133 67.5 180t170.5 47h79q123 0 158 -47t16 -180l-24 -162h-119l21 137q12 80 -2.5 106.5t-79.5 26.5h-43q-68 0 -88.5 -26.5t-32.5 -106.5l-47 -330q55 115 184 115h41 q96 0 124.5 -42t12.5 -155zM221 694l-63 -452q-12 -80 2 -106.5t80 -26.5h45q66 0 86 26.5t32 106.5l68 489q14 72 1 101.5t-75 29.5h-41q-112 0 -135 -168z" />
<glyph unicode="7" horiz-adv-x="530" d="M172 0h-141l471 1315h-383l16 119h506l-14 -107z" />
<glyph unicode="8" horiz-adv-x="634" d="M281 -10h-86q-121 0 -159 48t-18 179l50 336q14 100 43.5 149.5t91.5 65.5q-59 16 -74.5 65.5t-1.5 151.5l33 232q18 133 68.5 180t170.5 47h86q121 0 157 -47t17 -180l-32 -232q-14 -100 -45 -149.5t-93 -65.5q57 -16 75 -66.5t3 -150.5l-49 -336q-20 -133 -68 -180 t-169 -47zM395 242l47 336q12 80 -2 106.5t-80 26.5h-43q-66 0 -87 -27t-33 -106l-47 -336q-12 -80 2 -106.5t79 -26.5h45q66 0 86.5 26.5t32.5 106.5zM498 963l32 229q12 80 -2 106.5t-79 26.5h-46q-66 0 -87 -26.5t-33 -106.5l-31 -229q-10 -80 3 -107t79 -27h45 q66 0 86.5 27t32.5 107z" />
<glyph unicode="9" horiz-adv-x="643" d="M276 109q66 0 86.5 26.5t32.5 106.5l49 350q-53 -115 -184 -115h-41q-96 0 -123.5 42t-11.5 155l76 543q18 133 67 180t170 47h90q121 0 156 -47t16 -180l-141 -1000q-18 -133 -66.5 -180t-168.5 -47h-82q-121 0 -157 47t-17 180l24 182h119l-20 -157q-12 -80 2 -106.5 t79 -26.5h45zM283 1192l-66 -469q-10 -78 2 -104.5t72 -26.5h41q115 0 137 168l61 432q12 80 -2 106.5t-79 26.5h-46q-66 0 -87 -26.5t-33 -106.5z" />
<glyph unicode=":" horiz-adv-x="325" d="M127 819l27 203h145l-27 -203h-145zM12 0l27 203h145l-26 -203h-146z" />
<glyph unicode=";" horiz-adv-x="325" d="M12 0l27 203h145l-26 -203l-146 -160l-10 8l100 152h-90zM127 819l27 203h145l-27 -203h-145z" />
<glyph unicode="&#x3c;" d="M256 711l297 -252h-154l-301 258l373 256h168z" />
<glyph unicode="=" d="M627 934l-15 -115h-499l14 115h500zM582 612l-15 -112h-499l16 112h498z" />
<glyph unicode="&#x3e;" d="M438 721l-299 252h154l303 -258l-375 -256h-166z" />
<glyph unicode="?" horiz-adv-x="593" d="M111 0l34 256h142l-35 -256h-141zM498 1141l8 51q12 78 -2.5 105.5t-79.5 27.5h-45q-66 0 -87.5 -27.5t-31.5 -105.5l-39 -268h-119l41 293q20 133 68.5 180t169.5 47h82q121 0 155.5 -47t16.5 -180l-10 -74q-16 -113 -51 -196t-75 -134l-80 -99q-40 -48 -74 -118 t-48 -160l-10 -63h-109l8 51q16 113 48 193.5t70 130.5l75 96q37 47 70 122t49 175z" />
<glyph unicode="@" horiz-adv-x="1019" d="M766 1044l-178 -790q-4 -23 7 -40t36 -17h10q74 0 135.5 90t89.5 307l31 231q33 248 -25.5 353.5t-238.5 105.5h-6q-180 0 -281.5 -101.5t-140.5 -363.5l-68 -467q-18 -131 2.5 -220t77.5 -133t125 -61.5t158 -17.5q119 0 184 25l-12 -82q-78 -23 -183 -23 q-111 0 -196.5 27t-151 84t-90 161.5t-4.5 247.5l66 459q41 291 173 419t351 128h6q221 0 298 -131t40 -410l-33 -243q-61 -449 -323 -449h-13q-92 0 -102 72q-37 -72 -127 -72h-31q-104 0 -80 117l154 694q27 113 125 113h29q84 0 88 -70l32 57h66zM498 274l143 648 q8 33 -5 50t-42 17h-21q-41 0 -53 -51l-153 -690q-10 -47 30 -47h13q37 0 57.5 14t30.5 59z" />
<glyph unicode="A" horiz-adv-x="647" d="M401 0v231h-262l-65 -231h-123l401 1434h187l-2 -1434h-136zM256 659l-82 -303h227l2 303q2 379 17 652q-51 -232 -164 -652z" />
<glyph unicode="B" horiz-adv-x="702" d="M14 0l201 1434h315q131 0 170 -52q25 -34 26 -105q0 -38 -7 -87l-29 -205q-16 -109 -48 -161t-97 -70q61 -16 79 -69q9 -27 9 -69q0 -39 -8 -92l-39 -280q-20 -143 -72.5 -193.5t-183.5 -50.5h-316zM406 692h-160l-80 -567h160q72 0 93 28.5t34 116.5l39 277q6 40 5 67 q0 32 -8 49q-13 29 -83 29zM551 963l29 200q6 41 5 69q0 33 -7 48q-14 29 -86 29h-160l-70 -492h160q70 0 93.5 29t35.5 117z" />
<glyph unicode="C" horiz-adv-x="688" d="M303 1174l-129 -914q-6 -41 -6 -69q0 -33 8 -48q14 -29 86 -28h51q72 0 94.5 28.5t34.5 116.5l45 315h127l-49 -342q-20 -143 -71.5 -193t-182.5 -50h-88q-131 0 -170 51q-25 34 -25 106q0 38 7 86l135 967q20 141 73.5 192.5t184.5 51.5h88q131 0 168 -50 q24 -32 24 -103q0 -39 -8 -91l-38 -280h-127l36 254q6 41 6 68q0 33 -8 48q-14 29 -86 29h-53q-70 0 -92.5 -28.5t-34.5 -116.5z" />
<glyph unicode="D" horiz-adv-x="712" d="M16 0l201 1434h315q131 0 170 -52q25 -34 26 -105q0 -38 -7 -87l-133 -946q-20 -143 -72.5 -193.5t-183.5 -50.5h-316zM494 1309h-160l-166 -1184h160q72 0 93 27.5t34 117.5l127 893q6 41 5 69q0 33 -7 48q-14 29 -86 29z" />
<glyph unicode="E" horiz-adv-x="552" d="M334 1309l-70 -496h236l-19 -123h-235l-78 -565h276l-16 -125h-412l201 1434h412l-19 -125h-276z" />
<glyph unicode="F" horiz-adv-x="512" d="M334 1309l-72 -516h225l-16 -123h-227l-92 -670h-136l201 1434h401l-18 -125h-266z" />
<glyph unicode="G" horiz-adv-x="690" d="M365 653l16 125h260l-76 -545q-20 -143 -71.5 -193t-182.5 -50h-88q-131 0 -170 51q-25 34 -25 106q0 38 7 86l135 967q20 141 73.5 192.5t184.5 51.5h88q131 0 168 -50q24 -32 24 -103q0 -39 -8 -91l-36 -264h-127l34 238q6 41 6 68q0 33 -8 48q-14 29 -86 29h-53 q-70 0 -92.5 -28.5t-34.5 -116.5l-129 -914q-6 -41 -6 -69q0 -33 8 -48q14 -29 86 -28h51q72 0 94.5 28.5t34.5 116.5l56 393h-133z" />
<glyph unicode="H" horiz-adv-x="724" d="M152 0h-136l201 1434h135l-88 -621h268l89 621h135l-201 -1434h-135l94 690h-268z" />
<glyph unicode="I" horiz-adv-x="321" d="M16 0l201 1434h135l-200 -1434h-136z" />
<glyph unicode="J" horiz-adv-x="655" d="M164 575l-43 -315q-8 -43 -9 -72q0 -27 8 -43q15 -31 87 -30h53q72 0 93.5 28.5t33.5 116.5l166 1174h135l-168 -1201q-20 -141 -73.5 -192t-182.5 -51h-88q-131 0 -170 51q-25 34 -25 106q0 38 7 86l49 342h127z" />
<glyph unicode="K" horiz-adv-x="692" d="M16 0l201 1434h135l-92 -650q23 45 53 97l344 553h140l-430 -676l241 -758h-139l-193 602q-12 35 -26 107l-98 -709h-136z" />
<glyph unicode="L" horiz-adv-x="491" d="M16 0l201 1434h135l-184 -1309h246l-17 -125h-381z" />
<glyph unicode="M" horiz-adv-x="915" d="M750 963q4 41 36 231l-28 -110l-33 -121l-289 -963h-121l-20 963q-2 54 -2 105q0 77 4 146l-31 -251l-135 -963h-117l201 1434h199l12 -959q0 -109 -8 -201q41 174 49 201l276 959h205l-200 -1434h-134z" />
<glyph unicode="N" horiz-adv-x="724" d="M403 0l-94 944q-14 145 -16 244q-16 -164 -29 -248l-133 -940h-117l201 1434h174l82 -883q8 -88 12 -246l15 116l16 132l123 881h119l-201 -1434h-152z" />
<glyph unicode="O" horiz-adv-x="700" d="M35 233l135 967q20 141 73.5 192.5t184.5 51.5h94q131 0 169 -50q25 -33 25 -105q0 -39 -7 -89l-136 -967q-20 -143 -72 -193t-184 -50h-94q-131 0 -170 51q-25 34 -25 106q0 37 7 86zM442 260l129 914q6 41 6 68q0 33 -8 48q-14 29 -86 29h-53q-70 0 -92.5 -28.5 t-34.5 -116.5l-129 -914q-6 -41 -6 -69q0 -33 8 -48q14 -29 86 -28h51q72 0 94.5 28.5t34.5 116.5z" />
<glyph unicode="P" horiz-adv-x="657" d="M16 0l201 1434h303q131 0 170 -52q25 -34 26 -105q0 -38 -7 -87l-56 -383q-20 -143 -73.5 -194.5t-184.5 -51.5h-166l-77 -561h-136zM481 1309h-147l-86 -623h145q70 0 92.5 29.5t34.5 115.5l47 332q6 41 6 69q0 33 -8 48q-14 29 -84 29z" />
<glyph unicode="Q" horiz-adv-x="700" d="M35 233l135 967q20 141 73.5 192.5t184.5 51.5h94q131 0 169 -50q25 -33 25 -105q0 -39 -7 -89l-136 -967q-18 -133 -64 -184t-155 -57l-8 -55q-4 -27 -4 -48q0 -32 10 -48q16 -26 72 -25h39l-10 -76h-62q-109 0 -145 39q-26 27 -26 101q0 33 5 75l4 35h-6 q-131 0 -170 51q-25 34 -25 106q0 37 7 86zM442 260l129 914q6 41 6 68q0 33 -8 48q-14 29 -86 29h-53q-70 0 -92.5 -28.5t-34.5 -116.5l-129 -914q-6 -41 -6 -69q0 -33 8 -48q14 -29 86 -28h51q72 0 94.5 28.5t34.5 116.5z" />
<glyph unicode="R" horiz-adv-x="710" d="M621 496l-33 -244q-14 -103 -14 -174q0 -45 6 -78h-144q-4 15 -4 45q0 60 17 178l38 283q5 36 5 63q0 41 -11 62q-18 35 -92 35h-147l-92 -666h-136l201 1434h315q131 0 170 -52q25 -34 26 -105q0 -38 -7 -87l-33 -232q-14 -109 -47 -161t-100 -70q61 -18 78 -71 q10 -29 10 -74q0 -37 -6 -86zM547 936l33 227q6 41 5 69q0 33 -7 48q-14 29 -86 29h-160l-72 -518h160q70 0 92.5 29.5t34.5 115.5z" />
<glyph unicode="S" horiz-adv-x="645" d="M403 260l17 123q4 37 4 68q0 54 -13 90q-22 55 -118 155q-113 119 -140 194q-17 47 -18 116q0 41 6 90l15 104q18 141 71.5 192.5t184.5 51.5h73q129 0 167 -50q25 -33 25 -105q0 -39 -7 -89l-35 -248h-127l31 222q8 43 8 72q0 27 -7 42q-15 31 -87 31h-37 q-72 0 -94.5 -27.5t-34.5 -115.5l-13 -86q-5 -38 -5 -70q0 -52 15 -86q24 -55 119 -158q113 -121 141 -194q17 -44 16 -110q0 -44 -7 -97l-18 -142q-20 -141 -72.5 -192t-181.5 -51h-74q-131 0 -170 51q-25 34 -26 106q0 38 7 86l41 289h127l-36 -262q-6 -41 -6 -69 q0 -33 8 -48q14 -29 86 -28h36q72 0 94.5 28.5t34.5 116.5z" />
<glyph unicode="T" horiz-adv-x="475" d="M227 0h-135l182 1309h-159l18 125h453l-17 -125h-159z" />
<glyph unicode="U" horiz-adv-x="706" d="M348 1434l-166 -1174q-6 -41 -5 -69q0 -33 7 -48q14 -29 86 -28h54q70 0 92 28.5t35 116.5l165 1174h127l-170 -1201q-20 -143 -71 -193t-183 -50h-88q-131 0 -170 51q-25 34 -25 106q0 38 7 86l170 1201h135z" />
<glyph unicode="V" horiz-adv-x="641" d="M289 1434v-701q0 -311 -15 -551q72 297 142 551l194 701h125l-401 -1434h-180v1434h135z" />
<glyph unicode="W" horiz-adv-x="980" d="M496 762l-191 -762h-176l25 1434h133l-15 -734q-8 -344 -22 -481q18 102 115 481l184 734h143l-20 -734q-8 -344 -23 -481q18 102 115 481l188 734h123l-377 -1434h-166l19 762q2 139 24 383q-42 -242 -79 -383z" />
<glyph unicode="X" horiz-adv-x="647" d="M489 1153l113 281h125l-281 -680l99 -754h-137l-41 344q-25 205 -33 330q-51 -154 -121 -330l-137 -344h-125l301 754l-88 680h133l35 -281q31 -254 33 -324q36 107 124 324z" />
<glyph unicode="Y" horiz-adv-x="608" d="M297 0h-135l69 506l-94 928h133l37 -387q21 -207 21 -338v-41q33 135 123 381l143 385h125l-352 -924z" />
<glyph unicode="Z" horiz-adv-x="538" d="M162 1309l18 125h441l-19 -117l-483 -1192h315l-14 -125h-457l14 117l484 1192h-299z" />
<glyph unicode="[" horiz-adv-x="421" d="M219 1454h279l-13 -104h-157l-197 -1389h158l-15 -104h-278z" />
<glyph unicode="\" d="M279 1475l260 -1516h-121l-260 1516h121z" />
<glyph unicode="]" horiz-adv-x="421" d="M172 1454h281l-224 -1597h-280l14 104h158l196 1389h-157z" />
<glyph unicode="^" d="M406 1434h86l135 -514h-105l-92 362l-192 -362h-111z" />
<glyph unicode="_" horiz-adv-x="1024" d="M940 -29l-10 -88h-1022l10 88h1022z" />
<glyph unicode="`" horiz-adv-x="325" d="M272 1421l70 -231h-80l-108 231h118z" />
<glyph unicode="a" horiz-adv-x="634" d="M254 643q137 55 170 89t47 136l4 29q6 37 6 63q0 28 -7 42q-13 28 -75 28h-43q-61 0 -82.5 -27.5t-31.5 -105.5l-19 -145h-117l25 172q16 127 63.5 172t161.5 45h82q117 0 150 -45q22 -30 22 -97q0 -33 -6 -75l-102 -734q-13 -110 -13 -165v-25h-116q-5 16 -5 42 q0 31 7 77q-49 -129 -187 -129h-38q-92 0 -121 41q-19 27 -19 83q0 28 4 64l27 182q16 119 57 177.5t156 105.5zM436 616q-33 -23 -117 -57q-86 -35 -114.5 -74t-40.5 -129l-19 -129q-5 -34 -4 -58q0 -29 6 -43q12 -26 70 -26h39q109 0 131 160z" />
<glyph unicode="b" horiz-adv-x="645" d="M494 903q5 34 4 59q0 29 -6 43q-12 26 -70 25h-39q-106 0 -129 -160l-86 -610q-4 -28 -4 -51q0 -109 88 -109h39q59 0 78.5 27t29.5 100zM332 1434l-56 -398q51 104 177 105h39q92 0 120 -41q18 -26 19 -79q0 -30 -6 -69l-109 -774q-16 -106 -55 -147t-131 -41h-39 q-137 0 -150 125l-32 -115h-101l201 1434h123z" />
<glyph unicode="c" horiz-adv-x="622" d="M389 233l31 218h115l-33 -242q-16 -127 -63.5 -173t-162.5 -46h-86q-117 0 -149 45q-21 29 -21 92q0 36 7 82l100 715q16 127 62.5 172t162.5 45h86q115 0 149 -45q22 -29 22 -93q0 -35 -7 -79l-31 -224h-116l26 197q6 37 6 63q0 28 -7 42q-13 28 -74 28h-46 q-63 0 -82.5 -26.5t-31.5 -106.5l-94 -664q-6 -36 -6 -61q0 -29 8 -44q14 -28 75 -28h45q61 0 82 27.5t33 105.5z" />
<glyph unicode="d" horiz-adv-x="645" d="M393 260l86 610q4 27 4 51q0 110 -90 109h-39q-57 0 -76.5 -26.5t-29.5 -100.5l-94 -676q-6 -35 -6.5 -59.5t6.5 -38.5q12 -29 69 -29h39q108 0 131 160zM508 190q-14 -89 -14 -151q0 -21 2 -39h-117q-3 16 -3 40q0 32 5 79q-49 -129 -186 -129h-39q-92 0 -121 41 q-18 26 -18 78q0 30 6 69l108 774q14 106 54 147.5t132 41.5h39q125 0 148 -107l55 400h123z" />
<glyph unicode="e" horiz-adv-x="624" d="M389 233l21 148h116l-24 -172q-18 -129 -64.5 -174t-161.5 -45h-86q-117 0 -149 45q-21 29 -21 92q0 36 7 82l100 715q18 127 64.5 172t160.5 45h86q115 0 149 -45q22 -29 22 -93q0 -35 -7 -79l-55 -392h-352l-41 -299q-6 -36 -6 -61q0 -29 8 -44q14 -28 75 -28h45 q61 0 81 26.5t32 106.5zM246 897l-35 -258h233l37 258q6 37 6 63q0 28 -7 42q-13 28 -74 28h-46q-61 0 -82.5 -27.5t-31.5 -105.5z" />
<glyph unicode="f" horiz-adv-x="364" d="M80 1026l14 104h88l13 87q18 127 64 172t161 45h53l-14 -101h-29q-59 0 -80.5 -20.5t-32.5 -98.5l-14 -84h127l-12 -104h-127l-144 -1026h-122l143 1026h-88z" />
<glyph unicode="g" horiz-adv-x="618" d="M240 907l-54 -387q-6 -37 -6 -63q0 -28 7 -42q13 -28 77 -28h43q63 0 84 27.5t31 105.5l53 387q6 37 6 63q0 28 -7 42q-13 27 -77 26h-43q-61 0 -81.5 -26.5t-32.5 -104.5zM406 -86l2 16q2 14 2 25q0 32 -18 44q-24 15 -87 15h-123q-51 0 -75.5 -20.5t-32.5 -69.5l-2 -14 q-2 -16 -3 -30q0 -33 15 -46q20 -18 76 -18h116q66 0 94 18.5t36 79.5zM125 201q-6 -41 14.5 -55.5t71.5 -14.5h111q113 0 161 -35q37 -26 37 -95q0 -23 -4 -50l-4 -31q-14 -111 -69.5 -150.5t-172.5 -39.5h-155q-144 0 -144 124q0 16 2 33l4 33q12 92 93 123q-38 25 -38 88 q0 18 3 39l2 16q10 88 80 117q-43 18 -56 68q-6 23 -5 53q0 36 7 82l60 418q16 127 63 172t164 45h72q76 0 113.5 -18.5t50.5 -61.5q20 80 80 80h20l-14 -109h-21q-39 0 -45 -55l-65 -471q-18 -127 -65.5 -173t-162.5 -46h-94q-47 0 -66.5 -18.5t-27.5 -67.5z" />
<glyph unicode="h" horiz-adv-x="651" d="M492 0h-123l125 903q5 34 4 59q0 29 -6 43q-12 26 -70 25h-39q-106 0 -129 -160l-123 -870h-123l201 1434h123l-56 -398q51 104 177 105h39q92 0 120 -41q18 -26 19 -79q0 -30 -6 -69z" />
<glyph unicode="i" horiz-adv-x="294" d="M289 1130l-158 -1130h-123l158 1130h123zM188 1288l21 146h123l-21 -146h-123z" />
<glyph unicode="j" horiz-adv-x="294" d="M166 1130h123l-164 -1171q-16 -129 -61.5 -174t-159.5 -45h-37l12 96h12q57 0 78 20.5t31 98.5zM188 1288l21 146h123l-21 -146h-123z" />
<glyph unicode="k" horiz-adv-x="618" d="M207 551l-76 -551h-123l201 1434h123l-115 -809q20 37 86 137l244 368h125l-361 -536l217 -594h-127l-151 418q-27 74 -43 133z" />
<glyph unicode="l" horiz-adv-x="294" d="M131 0h-123l201 1434h123z" />
<glyph unicode="m" horiz-adv-x="985" d="M754 1030h-25q-106 0 -129 -160l-123 -870h-123l127 903q3 30 4 53q0 33 -8 49q-12 26 -69 25h-25q-106 0 -129 -160l-123 -870h-123l158 1130h115l-17 -122q49 133 189 133h24q72 0 104.5 -24.5t34.5 -82.5q53 106 179 107h28q92 0 121 -41q19 -27 19 -84q0 -28 -5 -64 l-135 -952h-123l127 903q3 30 4 53q0 33 -8 49q-12 25 -69 25z" />
<glyph unicode="n" horiz-adv-x="651" d="M492 0h-123l125 903q5 34 4 59q0 29 -6 43q-12 26 -70 25h-39q-106 0 -129 -160l-123 -870h-123l158 1130h115l-17 -122q49 133 189 133h39q92 0 120 -41q18 -26 19 -79q0 -30 -6 -69z" />
<glyph unicode="o" horiz-adv-x="632" d="M610 924l-100 -715q-18 -129 -64.5 -174t-162.5 -45h-93q-117 0 -149 45q-21 29 -21 92q0 36 7 82l100 715q16 127 62.5 172t162.5 45h92q117 0 150 -45q22 -30 22 -97q-1 -33 -6 -75zM246 897l-94 -664q-4 -35 -5 -59q0 -32 8 -47q13 -27 74 -27h45q61 0 82 28t33 105 l92 664q6 37 6 63q0 28 -7 42q-13 28 -74 28h-46q-63 0 -83.5 -27.5t-30.5 -105.5z" />
<glyph unicode="p" horiz-adv-x="645" d="M494 903q5 34 4 59q0 29 -6 43q-12 26 -70 25h-39q-106 0 -129 -160l-86 -610q-4 -28 -4 -51q0 -109 88 -109h39q59 0 78.5 27t29.5 100zM94 -260h-123l195 1390h115l-17 -122q49 133 189 133h39q92 0 120 -41q18 -26 19 -79q0 -30 -6 -69l-109 -774q-16 -106 -55 -147 t-131 -41h-39q-125 0 -148 104z" />
<glyph unicode="q" horiz-adv-x="645" d="M393 260l86 610q4 27 4 51q0 110 -90 109h-39q-57 0 -76.5 -26.5t-29.5 -100.5l-94 -676q-6 -35 -6.5 -59.5t6.5 -38.5q12 -29 69 -29h39q108 0 131 160zM639 1130l-195 -1390h-122l49 356q-51 -106 -176 -106h-39q-92 0 -121 41q-18 26 -18 78q0 30 6 69l108 774 q14 106 54 147.5t132 41.5h39q133 0 150 -127l33 116h100z" />
<glyph unicode="r" horiz-adv-x="376" d="M131 0h-123l158 1130h115l-21 -147q53 158 170 158h16l-18 -131h-16q-74 0 -114 -52.5t-56 -171.5z" />
<glyph unicode="s" horiz-adv-x="608" d="M373 233l8 60q3 26 3 48q0 46 -14 75q-22 43 -116 119q-106 86 -134 149q-17 40 -18 98q0 34 7 74l10 68q18 127 64 172t161 45h84q117 0 150 -45q22 -30 21 -97q0 -33 -5 -75l-27 -176h-114l20 149q6 37 6 63q0 28 -7 42q-13 28 -77 28h-43q-61 0 -80.5 -26.5 t-33.5 -106.5l-7 -39q-4 -28 -4 -52q0 -43 15 -71q23 -43 114 -121q106 -86 136 -149q18 -40 18 -99q0 -34 -6 -73l-12 -84q-18 -129 -64.5 -174t-161.5 -45h-84q-117 0 -149 45q-22 30 -22 97q0 34 5 77l27 192h117l-25 -168q-6 -37 -6 -63q0 -28 7 -42q13 -28 77 -28h45 q63 0 83 26.5t32 106.5z" />
<glyph unicode="t" horiz-adv-x="356" d="M80 1026l14 104h88l35 246h123l-35 -246h117l-14 -104h-117l-109 -768q-13 -82 -13 -149q0 -61 11 -109h-133q-6 22 -5 61q0 62 13 168l113 797h-88z" />
<glyph unicode="u" horiz-adv-x="651" d="M514 190q-13 -88 -13 -157q0 -17 1 -33h-117q-3 16 -3 39q0 32 5 78q-49 -127 -186 -127h-39q-92 0 -121 41q-18 26 -18 78q0 30 6 69l133 952h125l-127 -903q-5 -34 -5 -58q0 -29 7 -43q12 -26 69 -26h37q109 0 131 160l123 870h123z" />
<glyph unicode="v" horiz-adv-x="577" d="M221 1130l15 -487q4 -138 4 -251q0 -158 -9 -265q29 143 146 516l151 487h115l-354 -1130h-158l-37 1130h127z" />
<glyph unicode="w" horiz-adv-x="909" d="M397 463l-127 -463h-172l-2 1130h125v-475q0 -299 -16 -522q37 180 135 520l137 477h125l10 -477q1 -39 1 -78q0 -201 -17 -442q51 233 131 522l131 475h115l-318 -1130h-159l-4 463l-2 105q0 159 10 319q-27 -145 -103 -424z" />
<glyph unicode="x" horiz-adv-x="565" d="M469 1057l33 73h116l-245 -538l96 -592h-125l-18 111q-55 315 -60 403q-27 -80 -162 -403l-47 -111h-114l256 592l-93 538h125l13 -73q47 -285 57 -402q51 144 168 402z" />
<glyph unicode="y" horiz-adv-x="577" d="M248 -119q-43 -141 -191 -141h-118l12 96h78q68 0 86 66l18 67l-39 1161h127l15 -487q4 -133 4 -245q0 -157 -9 -271q37 180 144 516l153 487h115z" />
<glyph unicode="z" horiz-adv-x="512" d="M129 1026l14 104h408l-12 -96l-424 -930h293l-15 -104h-428l12 96l424 930h-272z" />
<glyph unicode="{" horiz-adv-x="448" d="M39 602h-19l15 105h18q55 0 77 23.5t32 96.5l57 408q18 129 64.5 174t162.5 45h84l-14 -104h-61q-63 0 -84 -28t-31 -105l-49 -355q-14 -96 -42 -144t-85 -65q53 -16 67.5 -63t-0.5 -144l-49 -352q-12 -78 1.5 -105.5t74.5 -27.5h61l-12 -104h-84q-117 0 -150.5 45 t-15.5 174l58 405q10 74 -4.5 97.5t-71.5 23.5z" />
<glyph unicode="|" d="M506 1434l-238 -1694h-118l237 1694h119z" />
<glyph unicode="}" horiz-adv-x="448" d="M438 602h-16q-57 0 -77.5 -23.5t-31.5 -97.5l-57 -405q-18 -129 -64.5 -174t-162.5 -45h-84l14 104h61q61 0 82 27.5t33 105.5l49 352q14 96 42 143.5t83 63.5q-51 16 -65.5 65.5t0.5 143.5l49 355q12 78 -1 105.5t-77 27.5h-61l14 104h84q117 0 150.5 -45t15.5 -174 l-58 -408q-10 -74 4.5 -97t69.5 -23h19z" />
<glyph unicode="~" d="M612 823l-20 -131q-68 -82 -137 -82q-45 0 -123 44t-119 44q-68 0 -131 -90l18 129q70 84 140 84q43 0 121.5 -45t117.5 -45q67 0 133 92z" />
<glyph unicode="&#xa1;" horiz-adv-x="305" d="M33 193l125 684h80l-68 -684l-64 -453h-135zM311 1174l-26 -193h-146l27 193h145z" />
<glyph unicode="&#xa2;" d="M422 385l31 217h116l-34 -242q-18 -127 -63.5 -172t-156.5 -47l-18 -141h-100l18 141q-111 2 -142.5 47t-15.5 172l101 715q16 125 62 170t157 47l20 142h101l-21 -142q111 -2 142.5 -47t15.5 -170l-31 -223h-117l29 197q12 78 -2 105.5t-76 27.5h-45q-61 0 -80.5 -27 t-31.5 -106l-95 -664q-12 -78 1.5 -105.5t76.5 -27.5h43q63 0 84 27.5t31 105.5z" />
<glyph unicode="&#xa3;" d="M524 453h-202q-41 -197 -191 -334h365l-15 -119h-495l14 111q166 145 205 342h-135l12 96h133q-2 47 -24.5 150.5t-34 188.5t5.5 251l10 78q20 133 68.5 180t169.5 47h84q121 0 154.5 -47t15.5 -180l-50 -355h-118l47 330q12 80 -2.5 106.5t-79.5 26.5h-45 q-66 0 -88.5 -27.5t-32.5 -105.5l-8 -62q-23 -166 11 -361.5t34 -219.5h205z" />
<glyph unicode="&#xa4;" d="M147 715q10 66 50 114l-82 89l67 59l72 -98q57 39 121 39q61 0 110 -39l105 98l47 -59l-111 -89q31 -55 23 -114q-8 -57 -53 -113l84 -88l-64 -57l-76 96q-59 -37 -123 -37q-68 0 -108 37l-100 -96l-52 57l109 88q-29 50 -19 113zM217 715q-8 -53 24.5 -91t86 -38 t98.5 38t53 91q8 55 -26.5 94t-88 39t-96.5 -39t-51 -94z" />
<glyph unicode="&#xa5;" d="M465 1049l137 385h119l-332 -906h189l-9 -61h-192l-21 -141h193l-8 -62h-193l-37 -264h-125l37 264h-196l8 62h196l19 141h-195l8 61h191l-78 906h125l35 -387q18 -215 12 -379q39 160 117 381z" />
<glyph unicode="&#xa6;" d="M506 1434l-107 -768h-118l106 768h119zM377 508l-109 -768h-118l108 768h119z" />
<glyph unicode="&#xa7;" horiz-adv-x="618" d="M111 29q-12 -76 2 -103.5t75 -27.5h45q63 0 84 26.5t31 104.5l4 34q8 70 -14.5 113t-108.5 107q-109 80 -141.5 140t-19.5 148l24 179q10 78 43 119.5t101 56.5q-61 55 -77 109.5t-5 129.5l8 58q16 129 64 175t167 46h84q117 0 152 -46t16 -175l-18 -133h-121l16 116 q12 78 -1 104.5t-77 26.5h-43q-61 0 -81.5 -27.5t-32.5 -105.5l-4 -28q-10 -72 12 -115t111 -107q111 -80 141.5 -139t17.5 -151l-24 -179q-10 -78 -43 -119.5t-101 -56.5q61 -57 76.5 -109.5t7.5 -129.5l-6 -58q-14 -129 -63.5 -175t-169.5 -46h-86q-117 0 -151 46t-15 175 l18 133h119zM438 643q10 70 -10 111t-102 102q-59 0 -80 -24.5t-29 -86.5l-20 -153q-10 -72 9 -112t101 -101q61 0 82 24.5t29 85.5z" />
<glyph unicode="&#xa8;" horiz-adv-x="325" d="M422 1241h-117l19 129h114zM209 1241h-115l19 129h114z" />
<glyph unicode="&#xa9;" horiz-adv-x="1032" d="M496 1024l-86 -614q-8 -53 3 -70.5t56 -17.5h25q45 0 61 17t25 71l28 213h86l-30 -230q-14 -92 -50 -124.5t-122 -32.5h-52q-86 0 -112.5 32.5t-14.5 124.5l93 647q12 92 49 125t123 33h49q86 0 112.5 -32.5t14.5 -125.5l-27 -186h-86l25 170q8 53 -4.5 70.5t-57.5 17.5 h-24q-43 0 -59.5 -17.5t-24.5 -70.5zM1016 1022l-86 -610q-31 -223 -128 -322.5t-321 -99.5h-92q-223 0 -290.5 99t-37.5 323l84 610q31 223 128.5 322.5t320.5 99.5h92q223 0 292 -99.5t38 -322.5zM236 1022l-86 -610q-27 -193 26 -267.5t227 -74.5h86q174 0 250 75.5 t103 266.5l86 610q27 193 -27.5 267.5t-228.5 74.5h-88q-172 0 -246.5 -74.5t-101.5 -267.5z" />
<glyph unicode="&#xaa;" horiz-adv-x="485" d="M260 1087q102 43 125 65t31 89l4 29q4 31 3 50t-14.5 27.5t-43.5 8.5h-31q-43 0 -57.5 -18.5t-22.5 -73.5l-14 -95h-88l14 111q14 96 49 130t121 34h59q88 0 112.5 -34t10.5 -130l-72 -504q-10 -80 -6 -135h-86q-10 23 0 98q-39 -109 -143 -108h-25q-68 0 -88 30.5 t-10 110.5l16 113q12 86 41 125.5t115 76.5zM358 831l35 234q-31 -25 -84 -47q-66 -27 -84 -54.5t-26 -91.5l-11 -65q-8 -53 1.5 -72.5t50.5 -19.5h28q74 -1 90 116zM43 436l12 94h367l-14 -94h-365z" />
<glyph unicode="&#xab;" horiz-adv-x="589" d="M158 156l-144 409l258 410h119l-258 -412l139 -407h-114zM408 156l-142 407l258 412h119l-260 -414l137 -405h-112z" />
<glyph unicode="&#xac;" d="M479 659h-389l16 115h498l-45 -328h-110z" />
<glyph unicode="&#xad;" horiz-adv-x="417" d="M379 598l-14 -96h-328l12 96h330z" />
<glyph unicode="&#xae;" horiz-adv-x="1032" d="M1016 1022l-86 -610q-31 -223 -128 -322.5t-321 -99.5h-92q-223 0 -290.5 99t-37.5 323l84 610q31 223 128.5 322.5t320.5 99.5h92q223 0 292 -99.5t38 -322.5zM236 1022l-86 -610q-27 -193 26 -267.5t227 -74.5h86q174 0 250 75.5t103 266.5l86 610q27 193 -27.5 267.5 t-228.5 74.5h-88q-172 0 -246.5 -74.5t-101.5 -267.5zM762 1032l-27 -184q-16 -125 -92 -150q72 -23 53 -147l-16 -109q-16 -119 -8 -198h-99q-12 43 9 178l22 143q8 51 -6 71.5t-59 20.5h-88l-60 -413h-92l133 946h203q86 0 113.5 -33t13.5 -125zM608 1108h-94l-53 -367h94 q45 0 61.5 17.5t24.5 70.5l27 189q8 53 -4.5 71.5t-55.5 18.5z" />
<glyph unicode="&#xaf;" horiz-adv-x="325" d="M434 1247h-352l12 84h355z" />
<glyph unicode="&#xb0;" horiz-adv-x="475" d="M356 1411q76 0 122 -45t46 -117q0 -98 -65.5 -162.5t-157.5 -64.5q-76 0 -121 44t-45 116q0 98 63.5 163.5t157.5 65.5zM344 1325q-53 0 -88 -36t-35 -89q0 -41 25.5 -65.5t66.5 -24.5q53 0 87 35t34 90q0 41 -23.5 65.5t-66.5 24.5z" />
<glyph unicode="&#xb1;" d="M563 477l-16 -112h-500l16 112h500zM340 1069h109l-29 -209h196l-14 -115h-196l-31 -206h-109l31 206h-195l15 115h194z" />
<glyph unicode="&#xb2;" horiz-adv-x="491" d="M256 1251l-14 -110h-92l18 135q14 98 50 133t126 35h64q86 0 111.5 -35t15.5 -133l-5 -37q-4 -37 -12 -70.5t-24 -63.5l-28 -49q-11 -19 -38 -46t-37 -36l-42 -37q-32 -28 -38 -34q-43 -39 -66.5 -64.5t-46 -69.5t-28.5 -95l-4 -31h276l-12 -92h-377l19 127 q25 168 178 295q86 70 129 129t53 149q4 37 3 59.5t-14 32t-48 9.5h-29q-49 0 -64.5 -20t-23.5 -81z" />
<glyph unicode="&#xb3;" horiz-adv-x="491" d="M354 733l19 131q8 61 -1.5 81t-58.5 20h-123l15 92h121q49 0 65.5 20.5t24.5 79.5l12 94q8 61 -2 81t-59 20h-27q-51 0 -67.5 -20.5t-22.5 -80.5l-6 -55h-92l10 80q12 98 50 133t128 35h61q88 0 115 -35t12 -133l-14 -102q-10 -78 -34.5 -115t-73.5 -47q45 -12 59 -50 t4 -114l-18 -137q-14 -98 -51.5 -134t-125.5 -36h-61q-90 0 -117.5 35.5t-13.5 134.5l14 94h92l-10 -72q-8 -59 2 -79.5t58 -20.5h28q49 0 64.5 20.5t23.5 79.5z" />
<glyph unicode="&#xb4;" horiz-adv-x="325" d="M158 1190l135 231h123l-176 -231h-82z" />
<glyph unicode="&#xb5;" horiz-adv-x="651" d="M287 1130l-127 -903q-10 -76 2 -101.5t69 -25.5h37q109 0 131 160l123 870h123l-131 -940q-16 -129 -12 -190h-117q-6 37 2 117q-49 -127 -186 -127h-39q-25 0 -35 2l-35 -252h-125l195 1390h125z" />
<glyph unicode="&#xb6;" horiz-adv-x="796" d="M543 1331l-215 -1530h-107l86 613h-67q-131 0 -170 51t-19 192l76 533q20 143 72.5 193.5t183.5 50.5h442l-229 -1633h-107l216 1530h-162z" />
<glyph unicode="&#xb7;" horiz-adv-x="325" d="M98 616l27 203h145l-26 -203h-146z" />
<glyph unicode="&#xb8;" horiz-adv-x="325" d="M47 -227q68 0 68 77q0 47 -64 48h-20l16 116h45l-12 -77q117 0 117 -78q0 -57 -31 -93t-123 -36q-68 0 -93.5 17t-25.5 56q0 20 4 39h78q-6 -25 -6 -39q0 -30 47 -30z" />
<glyph unicode="&#xb9;" horiz-adv-x="284" d="M190 551h-98l117 833q18 0 36.5 16.5t22.5 33.5h47z" />
<glyph unicode="&#xba;" horiz-adv-x="481" d="M43 436l12 94h363l-15 -94h-360zM96 797l68 483q14 96 48 130t120 34h67q88 0 112 -34t11 -130l-65 -483q-12 -96 -48 -131t-124 -35h-68q-86 0 -110.5 35t-10.5 131zM360 811l64 453q8 55 -1 73.5t-54 18.5h-31q-43 0 -57.5 -18.5t-22.5 -73.5l-65 -453q-8 -55 2 -73.5 t55 -18.5h31q43 0 57 18.5t22 73.5z" />
<glyph unicode="&#xbb;" horiz-adv-x="589" d="M434 975l141 -410l-256 -409h-118l258 411l-142 408h117zM184 975l142 -408l-258 -411h-119l260 413l-137 406h112z" />
<glyph unicode="&#xbc;" horiz-adv-x="854" d="M66 0l593 1434h58l-594 -1434h-57zM190 551h-98l117 833q18 0 36.5 16.5t22.5 33.5h47zM696 883h101l-88 -633h57l-10 -86h-60l-24 -164h-99l25 164h-252l10 82zM449 250h161l13 94q29 188 63 387q-80 -178 -188 -387z" />
<glyph unicode="&#xbd;" horiz-adv-x="915" d="M66 0l593 1434h58l-594 -1434h-57zM190 551h-98l117 833q18 0 36.5 16.5t22.5 33.5h47zM602 700l-14 -110h-92l18 135q14 98 50 133t126 35h64q86 0 111.5 -35t15.5 -133l-4 -37q-4 -37 -12.5 -70.5t-24.5 -63.5l-28 -49q-11 -19 -37.5 -46t-37.5 -36l-42 -37 q-32 -28 -38 -34q-43 -39 -66.5 -64.5t-46 -69.5t-28.5 -95l-4 -31h276l-12 -92h-377l19 127q25 168 178 295q86 70 129 129t53 149q4 37 3 59.5t-14 32t-48 9.5h-29q-49 0 -64.5 -20t-23.5 -81z" />
<glyph unicode="&#xbe;" horiz-adv-x="1028" d="M242 0l594 1434h57l-594 -1434h-57zM872 883h101l-88 -633h57l-10 -86h-60l-24 -164h-98l24 164h-252l10 82zM625 250h161l13 94q29 188 63 387q-80 -178 -188 -387zM354 733l19 131q8 61 -1.5 81t-58.5 20h-123l15 92h121q49 0 65.5 20.5t24.5 79.5l12 94q8 61 -2 81 t-59 20h-27q-51 0 -67.5 -20.5t-22.5 -80.5l-6 -55h-92l10 80q12 98 50 133t128 35h61q88 0 115 -35t12 -133l-14 -102q-10 -78 -34.5 -115t-73.5 -47q45 -12 59 -50t4 -114l-18 -137q-14 -98 -51.5 -134t-125.5 -36h-61q-90 0 -117.5 35.5t-13.5 134.5l14 94h92l-10 -72 q-8 -59 2 -79.5t58 -20.5h28q49 0 64.5 20.5t23.5 79.5z" />
<glyph unicode="&#xbf;" horiz-adv-x="593" d="M492 1174l-35 -256h-144l37 256h142zM104 33l-8 -51q-12 -78 2.5 -106t79.5 -28h45q66 0 86.5 27t32.5 107l39 268h119l-41 -293q-18 -133 -67.5 -180t-170.5 -47h-82q-121 0 -155.5 47t-16.5 180l10 74q16 113 51 195.5t75 133.5l80 100q40 48 74 117.5t48 159.5l10 64 h109l-8 -51q-16 -113 -48 -194t-70 -130l-75 -96q-37 -47 -70 -122t-49 -175z" />
<glyph unicode="&#xc0;" horiz-adv-x="647" d="M401 0v231h-262l-65 -231h-123l401 1434h187l-2 -1434h-136zM256 659l-82 -303h227l2 303q2 379 17 652q-51 -232 -164 -652zM446 1710l70 -231h-80l-108 231h118z" />
<glyph unicode="&#xc1;" horiz-adv-x="647" d="M401 0v231h-262l-65 -231h-123l401 1434h187l-2 -1434h-136zM256 659l-82 -303h227l2 303q2 379 17 652q-51 -232 -164 -652zM383 1479l135 231h123l-176 -231h-82z" />
<glyph unicode="&#xc2;" horiz-adv-x="647" d="M401 0v231h-262l-65 -231h-123l401 1434h187l-2 -1434h-136zM256 659l-82 -303h227l2 303q2 379 17 652q-51 -232 -164 -652zM530 1710l97 -231h-80l-74 143l-115 -143h-84l162 231h94z" />
<glyph unicode="&#xc3;" horiz-adv-x="647" d="M401 0v231h-262l-65 -231h-123l401 1434h187l-2 -1434h-136zM256 659l-82 -303h227l2 303q2 379 17 652q-51 -232 -164 -652zM594 1655h65q-12 -78 -40.5 -108.5t-83.5 -30.5q-45 0 -90.5 27.5t-63.5 27.5q-35 0 -43 -60h-68q12 78 41 110t86 32q43 0 88 -28t64 -28 q37 1 45 58z" />
<glyph unicode="&#xc4;" horiz-adv-x="647" d="M401 0v231h-262l-65 -231h-123l401 1434h187l-2 -1434h-136zM256 659l-82 -303h227l2 303q2 379 17 652q-51 -232 -164 -652zM621 1530h-117l18 129h115zM408 1530h-115l18 129h115z" />
<glyph unicode="&#xc5;" horiz-adv-x="647" d="M401 0v231h-262l-65 -231h-123l401 1434h187l-2 -1434h-136zM256 659l-82 -303h227l2 303q2 379 17 652q-51 -232 -164 -652zM475 1655q-27 0 -45 -15.5t-18 -46.5q0 -45 47 -45q27 0 45 15.5t18 46.5q0 45 -47 45zM451 1489q-45 0 -72 26.5t-27 69.5q0 57 38 93t93 36 q45 0 72 -26.5t27 -69.5q0 -57 -38 -93t-93 -36z" />
<glyph unicode="&#xc6;" horiz-adv-x="856" d="M-61 0l520 1434h471l-19 -125h-274l-70 -496h236l-19 -123h-235l-80 -565h276l-16 -125h-412l33 231h-205l-82 -231h-124zM307 688l-117 -332h177l127 879z" />
<glyph unicode="&#xc7;" horiz-adv-x="688" d="M272 -10l-8 -53q117 0 117 -78q0 -57 -31 -93t-123 -36q-68 0 -93 17t-25 56q0 20 4 39h77q-6 -25 -6 -39q0 -31 47 -30q68 0 68 77q0 47 -63 48h-21l14 92h-6q-131 0 -170 51t-18 192l135 967q20 141 73.5 192.5t184.5 51.5h88q131 0 168 -50.5t16 -193.5l-38 -280h-127 l36 254q12 88 -2 116.5t-86 28.5h-53q-70 0 -92.5 -28.5t-34.5 -116.5l-129 -914q-12 -88 2 -116.5t86 -28.5h51q72 0 94.5 28.5t34.5 116.5l45 315h127l-49 -342q-20 -143 -71.5 -193t-182.5 -50h-39z" />
<glyph unicode="&#xc8;" horiz-adv-x="552" d="M334 1309l-70 -496h236l-19 -123h-235l-78 -565h276l-16 -125h-412l201 1434h412l-19 -125h-276zM426 1710l70 -231h-80l-109 231h119z" />
<glyph unicode="&#xc9;" horiz-adv-x="552" d="M334 1309l-70 -496h236l-19 -123h-235l-78 -565h276l-16 -125h-412l201 1434h412l-19 -125h-276zM362 1479l136 231h123l-177 -231h-82z" />
<glyph unicode="&#xca;" horiz-adv-x="552" d="M334 1309l-70 -496h236l-19 -123h-235l-78 -565h276l-16 -125h-412l201 1434h412l-19 -125h-276zM508 1710l96 -231h-80l-73 143l-115 -143h-84l162 231h94z" />
<glyph unicode="&#xcb;" horiz-adv-x="552" d="M334 1309l-70 -496h236l-19 -123h-235l-78 -565h276l-16 -125h-412l201 1434h412l-19 -125h-276zM598 1530h-117l19 129h114zM385 1530h-115l19 129h114z" />
<glyph unicode="&#xcc;" horiz-adv-x="321" d="M16 0l201 1434h135l-200 -1434h-136zM285 1710l69 -231h-80l-108 231h119z" />
<glyph unicode="&#xcd;" horiz-adv-x="321" d="M16 0l201 1434h135l-200 -1434h-136zM221 1479l135 231h123l-176 -231h-82z" />
<glyph unicode="&#xce;" horiz-adv-x="321" d="M16 0l201 1434h135l-200 -1434h-136zM369 1710l96 -231h-80l-74 143l-114 -143h-84l161 231h95z" />
<glyph unicode="&#xcf;" horiz-adv-x="321" d="M16 0l201 1434h135l-200 -1434h-136zM459 1530h-117l18 129h115zM246 1530h-115l19 129h114z" />
<glyph unicode="&#xd0;" horiz-adv-x="712" d="M16 0l99 702h-60l15 103h59l88 629h315q131 0 170 -51.5t19 -192.5l-133 -946q-20 -143 -72.5 -193.5t-183.5 -50.5h-316zM494 1309h-160l-72 -504h141l-12 -103h-143l-80 -577h160q72 0 93 27.5t34 117.5l127 893q12 88 -2 117t-86 29z" />
<glyph unicode="&#xd1;" horiz-adv-x="724" d="M403 0l-94 944q-14 145 -16 244q-16 -164 -29 -248l-133 -940h-117l201 1434h174l82 -883q8 -88 12 -246l15 116l16 132l123 881h119l-201 -1434h-152zM633 1655h65q-12 -78 -40.5 -108.5t-84.5 -30.5q-45 0 -90 27.5t-63 27.5q-35 0 -43 -60h-68q12 78 41 110t86 32 q43 0 88 -28t64 -28q37 1 45 58z" />
<glyph unicode="&#xd2;" horiz-adv-x="700" d="M35 233l135 967q20 141 73.5 192.5t184.5 51.5h94q131 0 169 -50.5t18 -193.5l-136 -967q-20 -143 -72 -193t-184 -50h-94q-131 0 -169.5 51t-18.5 192zM442 260l129 914q12 88 -2 116.5t-86 28.5h-53q-70 0 -92.5 -28.5t-34.5 -116.5l-129 -914q-12 -88 2 -116.5 t86 -28.5h51q72 0 94.5 28.5t34.5 116.5zM473 1710l70 -231h-80l-109 231h119z" />
<glyph unicode="&#xd3;" horiz-adv-x="700" d="M35 233l135 967q20 141 73.5 192.5t184.5 51.5h94q131 0 169 -50.5t18 -193.5l-136 -967q-20 -143 -72 -193t-184 -50h-94q-131 0 -169.5 51t-18.5 192zM442 260l129 914q12 88 -2 116.5t-86 28.5h-53q-70 0 -92.5 -28.5t-34.5 -116.5l-129 -914q-12 -88 2 -116.5 t86 -28.5h51q72 0 94.5 28.5t34.5 116.5zM410 1479l135 231h123l-176 -231h-82z" />
<glyph unicode="&#xd4;" horiz-adv-x="700" d="M35 233l135 967q20 141 73.5 192.5t184.5 51.5h94q131 0 169 -50.5t18 -193.5l-136 -967q-20 -143 -72 -193t-184 -50h-94q-131 0 -169.5 51t-18.5 192zM442 260l129 914q12 88 -2 116.5t-86 28.5h-53q-70 0 -92.5 -28.5t-34.5 -116.5l-129 -914q-12 -88 2 -116.5 t86 -28.5h51q72 0 94.5 28.5t34.5 116.5zM557 1710l96 -231h-80l-73 143l-115 -143h-84l162 231h94z" />
<glyph unicode="&#xd5;" horiz-adv-x="700" d="M35 233l135 967q20 141 73.5 192.5t184.5 51.5h94q131 0 169 -50.5t18 -193.5l-136 -967q-20 -143 -72 -193t-184 -50h-94q-131 0 -169.5 51t-18.5 192zM442 260l129 914q12 88 -2 116.5t-86 28.5h-53q-70 0 -92.5 -28.5t-34.5 -116.5l-129 -914q-12 -88 2 -116.5 t86 -28.5h51q72 0 94.5 28.5t34.5 116.5zM621 1655h65q-12 -78 -41 -108.5t-84 -30.5q-45 0 -90 27.5t-63 27.5q-35 0 -43 -60h-68q12 78 41 110t86 32q43 0 88 -28t63 -28q38 1 46 58z" />
<glyph unicode="&#xd6;" horiz-adv-x="700" d="M35 233l135 967q20 141 73.5 192.5t184.5 51.5h94q131 0 169 -50.5t18 -193.5l-136 -967q-20 -143 -72 -193t-184 -50h-94q-131 0 -169.5 51t-18.5 192zM442 260l129 914q12 88 -2 116.5t-86 28.5h-53q-70 0 -92.5 -28.5t-34.5 -116.5l-129 -914q-12 -88 2 -116.5 t86 -28.5h51q72 0 94.5 28.5t34.5 116.5zM647 1530h-117l19 129h115zM434 1530h-115l19 129h115z" />
<glyph unicode="&#xd7;" d="M272 723l-145 178l80 74l145 -182l195 182l65 -82l-198 -178l149 -180l-80 -70l-145 180l-195 -180l-65 78z" />
<glyph unicode="&#xd8;" horiz-adv-x="700" d="M35 233l135 967q20 141 73.5 192.5t184.5 51.5h94q39 0 92 -8l25 59h111l-48 -121q23 -49 7 -174l-136 -967q-20 -143 -72 -193t-184 -50h-94q-41 0 -94 8l-25 -59h-112l51 118q-26 55 -8 176zM442 260l113 793l-371 -920q18 -18 78 -18h51q72 0 94.5 28.5t34.5 116.5z M303 1174l-113 -789l371 915q-20 18 -78 19h-53q-70 0 -92.5 -28.5t-34.5 -116.5z" />
<glyph unicode="&#xd9;" horiz-adv-x="706" d="M348 1434l-166 -1174q-12 -88 2.5 -116.5t85.5 -28.5h54q70 0 92 28.5t35 116.5l165 1174h127l-170 -1201q-20 -143 -71 -193t-183 -50h-88q-131 0 -169.5 51t-18.5 192l170 1201h135zM477 1710l70 -231h-80l-109 231h119z" />
<glyph unicode="&#xda;" horiz-adv-x="706" d="M348 1434l-166 -1174q-12 -88 2.5 -116.5t85.5 -28.5h54q70 0 92 28.5t35 116.5l165 1174h127l-170 -1201q-20 -143 -71 -193t-183 -50h-88q-131 0 -169.5 51t-18.5 192l170 1201h135zM414 1479l135 231h123l-176 -231h-82z" />
<glyph unicode="&#xdb;" horiz-adv-x="706" d="M348 1434l-166 -1174q-12 -88 2.5 -116.5t85.5 -28.5h54q70 0 92 28.5t35 116.5l165 1174h127l-170 -1201q-20 -143 -71 -193t-183 -50h-88q-131 0 -169.5 51t-18.5 192l170 1201h135zM561 1710l96 -231h-79l-74 143l-115 -143h-84l162 231h94z" />
<glyph unicode="&#xdc;" horiz-adv-x="706" d="M348 1434l-166 -1174q-12 -88 2.5 -116.5t85.5 -28.5h54q70 0 92 28.5t35 116.5l165 1174h127l-170 -1201q-20 -143 -71 -193t-183 -50h-88q-131 0 -169.5 51t-18.5 192l170 1201h135zM651 1530h-116l18 129h115zM438 1530h-114l18 129h115z" />
<glyph unicode="&#xdd;" horiz-adv-x="608" d="M297 0h-135l69 506l-94 928h133l37 -387q25 -242 21 -379q33 135 123 381l143 385h125l-352 -924zM373 1479l135 231h123l-176 -231h-82z" />
<glyph unicode="&#xde;" horiz-adv-x="657" d="M16 0l201 1434h135l-18 -123h168q131 0 170 -50.5t18 -191.5l-51 -369q-20 -143 -72.5 -193t-183.5 -50h-168l-63 -457h-136zM465 1188h-148l-86 -606h148q70 0 92.5 28.5t34.5 116.5l45 313q12 88 -2 118t-84 30z" />
<glyph unicode="&#xdf;" horiz-adv-x="643" d="M520 1096l17 116q12 78 -1.5 104.5t-74.5 26.5h-47q-57 0 -79 -20t-32 -98l-172 -1225h-123l172 1225q18 129 64.5 174t163.5 45h90q117 0 150.5 -45t15.5 -172l-17 -113q-14 -98 -45 -145t-94 -62q59 -14 77.5 -61t4.5 -144l-70 -483q-18 -129 -64 -174t-161 -45h-78 l12 104h58q57 0 79.5 21.5t32.5 97.5l70 496q10 78 -3 104.5t-75 26.5h-55l14 113h56q61 0 81.5 27.5t32.5 105.5z" />
<glyph unicode="&#xe0;" horiz-adv-x="634" d="M254 643q137 55 170 89t47 136l4 29q12 78 -1 105.5t-75 27.5h-43q-61 0 -82.5 -27.5t-31.5 -105.5l-19 -145h-117l25 172q16 127 63.5 172t161.5 45h82q117 0 150 -45t16 -172l-102 -734q-16 -137 -13 -190h-116q-10 35 2 119q-49 -129 -187 -129h-38q-92 0 -121 41 t-15 147l27 182q16 119 57 177.5t156 105.5zM436 616q-33 -23 -117 -57q-86 -35 -114.5 -74t-40.5 -129l-19 -129q-10 -76 2.5 -101.5t69.5 -25.5h39q109 0 131 160zM403 1421l70 -231h-80l-108 231h118z" />
<glyph unicode="&#xe1;" horiz-adv-x="634" d="M254 643q137 55 170 89t47 136l4 29q12 78 -1 105.5t-75 27.5h-43q-61 0 -82.5 -27.5t-31.5 -105.5l-19 -145h-117l25 172q16 127 63.5 172t161.5 45h82q117 0 150 -45t16 -172l-102 -734q-16 -137 -13 -190h-116q-10 35 2 119q-49 -129 -187 -129h-38q-92 0 -121 41 t-15 147l27 182q16 119 57 177.5t156 105.5zM436 616q-33 -23 -117 -57q-86 -35 -114.5 -74t-40.5 -129l-19 -129q-10 -76 2.5 -101.5t69.5 -25.5h39q109 0 131 160zM340 1190l135 231h123l-176 -231h-82z" />
<glyph unicode="&#xe2;" horiz-adv-x="634" d="M254 643q137 55 170 89t47 136l4 29q12 78 -1 105.5t-75 27.5h-43q-61 0 -82.5 -27.5t-31.5 -105.5l-19 -145h-117l25 172q16 127 63.5 172t161.5 45h82q117 0 150 -45t16 -172l-102 -734q-16 -137 -13 -190h-116q-10 35 2 119q-49 -129 -187 -129h-38q-92 0 -121 41 t-15 147l27 182q16 119 57 177.5t156 105.5zM436 616q-33 -23 -117 -57q-86 -35 -114.5 -74t-40.5 -129l-19 -129q-10 -76 2.5 -101.5t69.5 -25.5h39q109 0 131 160zM487 1421l97 -231h-80l-74 143l-115 -143h-84l162 231h94z" />
<glyph unicode="&#xe3;" horiz-adv-x="634" d="M254 643q137 55 170 89t47 136l4 29q12 78 -1 105.5t-75 27.5h-43q-61 0 -82.5 -27.5t-31.5 -105.5l-19 -145h-117l25 172q16 127 63.5 172t161.5 45h82q117 0 150 -45t16 -172l-102 -734q-16 -137 -13 -190h-116q-10 35 2 119q-49 -129 -187 -129h-38q-92 0 -121 41 t-15 147l27 182q16 119 57 177.5t156 105.5zM436 616q-33 -23 -117 -57q-86 -35 -114.5 -74t-40.5 -129l-19 -129q-10 -76 2.5 -101.5t69.5 -25.5h39q109 0 131 160zM551 1366h65q-12 -78 -40.5 -108.5t-83.5 -30.5q-45 0 -90.5 27.5t-63.5 27.5q-35 0 -43 -59h-68 q12 78 41 109.5t86 31.5q43 0 88 -27.5t64 -27.5q37 0 45 57z" />
<glyph unicode="&#xe4;" horiz-adv-x="634" d="M254 643q137 55 170 89t47 136l4 29q12 78 -1 105.5t-75 27.5h-43q-61 0 -82.5 -27.5t-31.5 -105.5l-19 -145h-117l25 172q16 127 63.5 172t161.5 45h82q117 0 150 -45t16 -172l-102 -734q-16 -137 -13 -190h-116q-10 35 2 119q-49 -129 -187 -129h-38q-92 0 -121 41 t-15 147l27 182q16 119 57 177.5t156 105.5zM436 616q-33 -23 -117 -57q-86 -35 -114.5 -74t-40.5 -129l-19 -129q-10 -76 2.5 -101.5t69.5 -25.5h39q109 0 131 160zM578 1241h-117l18 129h115zM365 1241h-115l18 129h115z" />
<glyph unicode="&#xe5;" horiz-adv-x="634" d="M254 643q137 55 170 89t47 136l4 29q12 78 -1 105.5t-75 27.5h-43q-61 0 -82.5 -27.5t-31.5 -105.5l-19 -145h-117l25 172q16 127 63.5 172t161.5 45h82q117 0 150 -45t16 -172l-102 -734q-16 -137 -13 -190h-116q-10 35 2 119q-49 -129 -187 -129h-38q-92 0 -121 41 t-15 147l27 182q16 119 57 177.5t156 105.5zM436 616q-33 -23 -117 -57q-86 -35 -114.5 -74t-40.5 -129l-19 -129q-10 -76 2.5 -101.5t69.5 -25.5h39q109 0 131 160zM432 1366q-27 0 -45 -15.5t-18 -45.5q0 -45 47 -45q27 0 45 15t18 46q0 45 -47 45zM408 1200 q-45 0 -72 26.5t-27 69.5q0 57 38 93t93 36q45 0 72 -26.5t27 -69.5q0 -57 -38 -93t-93 -36z" />
<glyph unicode="&#xe6;" horiz-adv-x="978" d="M14 178l27 182q18 119 59 177.5t154 105.5q137 55 170 89t47 136l4 29q12 78 -1 105.5t-75 27.5h-43q-61 0 -81.5 -27.5t-32.5 -105.5l-19 -145h-117l25 172q16 127 63.5 172t161.5 45h39q82 0 119 -22.5t43 -78.5q20 55 64.5 78t128.5 23h41q117 0 149.5 -45t15.5 -172 l-55 -392h-352l-43 -299q-12 -78 2 -105.5t76 -27.5h45q61 0 81.5 28t30.5 105l21 148h117l-23 -172q-16 -127 -63.5 -173t-163.5 -46h-84q-92 0 -131 26.5t-41 96.5q-53 -123 -185 -123h-38q-92 0 -122 41t-14 147zM799 639l37 258q12 78 -1.5 105.5t-76.5 27.5h-43 q-63 0 -83 -26.5t-32 -106.5l-37 -258h236zM387 260l49 356q-33 -23 -117 -57q-86 -35 -114.5 -74t-40.5 -129l-19 -129q-10 -76 2.5 -101.5t69.5 -25.5h39q108 0 131 160z" />
<glyph unicode="&#xe7;" horiz-adv-x="622" d="M238 -10l-9 -53q117 0 117 -78q0 -57 -30.5 -93t-122.5 -36q-68 0 -93.5 17t-25.5 56q0 20 4 39h78q-6 -25 -6 -39q0 -31 47 -30q68 0 67 77q0 47 -63 48h-21l15 92h-5q-117 0 -149.5 45t-13.5 174l100 715q16 127 62.5 172t162.5 45h86q115 0 149 -45t15 -172l-31 -224 h-116l26 197q12 78 -1 105.5t-74 27.5h-46q-63 0 -82.5 -26.5t-31.5 -106.5l-94 -664q-12 -78 2 -105.5t75 -27.5h45q61 0 82 28t33 105l31 218h115l-33 -242q-16 -127 -63.5 -173t-162.5 -46h-38z" />
<glyph unicode="&#xe8;" horiz-adv-x="624" d="M389 233l21 148h116l-24 -172q-18 -129 -64.5 -174t-161.5 -45h-86q-117 0 -149.5 45t-13.5 174l100 715q18 127 64.5 172t160.5 45h86q115 0 149 -45t15 -172l-55 -392h-352l-41 -299q-12 -78 2 -105.5t75 -27.5h45q61 0 81 26.5t32 106.5zM246 897l-35 -258h233l37 258 q12 78 -1 105.5t-74 27.5h-46q-61 0 -82.5 -27.5t-31.5 -105.5zM403 1421l70 -231h-80l-108 231h118z" />
<glyph unicode="&#xe9;" horiz-adv-x="624" d="M389 233l21 148h116l-24 -172q-18 -129 -64.5 -174t-161.5 -45h-86q-117 0 -149.5 45t-13.5 174l100 715q18 127 64.5 172t160.5 45h86q115 0 149 -45t15 -172l-55 -392h-352l-41 -299q-12 -78 2 -105.5t75 -27.5h45q61 0 81 26.5t32 106.5zM246 897l-35 -258h233l37 258 q12 78 -1 105.5t-74 27.5h-46q-61 0 -82.5 -27.5t-31.5 -105.5zM340 1190l135 231h123l-176 -231h-82z" />
<glyph unicode="&#xea;" horiz-adv-x="624" d="M389 233l21 148h116l-24 -172q-18 -129 -64.5 -174t-161.5 -45h-86q-117 0 -149.5 45t-13.5 174l100 715q18 127 64.5 172t160.5 45h86q115 0 149 -45t15 -172l-55 -392h-352l-41 -299q-12 -78 2 -105.5t75 -27.5h45q61 0 81 26.5t32 106.5zM246 897l-35 -258h233l37 258 q12 78 -1 105.5t-74 27.5h-46q-61 0 -82.5 -27.5t-31.5 -105.5zM485 1421l97 -231h-80l-74 143l-115 -143h-84l162 231h94z" />
<glyph unicode="&#xeb;" horiz-adv-x="624" d="M389 233l21 148h116l-24 -172q-18 -129 -64.5 -174t-161.5 -45h-86q-117 0 -149.5 45t-13.5 174l100 715q18 127 64.5 172t160.5 45h86q115 0 149 -45t15 -172l-55 -392h-352l-41 -299q-12 -78 2 -105.5t75 -27.5h45q61 0 81 26.5t32 106.5zM246 897l-35 -258h233l37 258 q12 78 -1 105.5t-74 27.5h-46q-61 0 -82.5 -27.5t-31.5 -105.5zM575 1241h-116l18 129h115zM362 1241h-114l18 129h115z" />
<glyph unicode="&#xec;" horiz-adv-x="294" d="M231 1421l70 -231h-80l-108 231h118zM289 1130l-158 -1130h-123l158 1130h123z" />
<glyph unicode="&#xed;" horiz-adv-x="294" d="M168 1190l135 231h123l-176 -231h-82zM289 1130l-158 -1130h-123l158 1130h123z" />
<glyph unicode="&#xee;" horiz-adv-x="294" d="M289 1130l-158 -1130h-123l158 1130h123zM317 1421l97 -231h-80l-74 143l-115 -143h-84l162 231h94z" />
<glyph unicode="&#xef;" horiz-adv-x="294" d="M408 1241h-117l18 129h115zM195 1241h-115l18 129h115zM289 1130l-158 -1130h-123l158 1130h123z" />
<glyph unicode="&#xf0;" horiz-adv-x="659" d="M649 1208l-139 -999q-18 -129 -64.5 -174t-162.5 -45h-93q-117 0 -149.5 45t-13.5 174l104 743q14 106 54 147.5t132 41.5h39q125 0 146 -109l24 166q10 72 0 98l-118 -96l-23 33l119 90q-25 10 -58 10h-59l14 101h78q88 0 129 -29l37 29h55l-67 -54q34 -49 16 -172z M152 233q-10 -80 3 -106.5t74 -26.5h45q61 0 82 28t33 105l90 637q23 160 -86 160h-39q-57 0 -76.5 -26.5t-29.5 -100.5z" />
<glyph unicode="&#xf1;" horiz-adv-x="651" d="M492 0h-123l125 903q10 76 -2.5 101.5t-69.5 25.5h-39q-106 0 -129 -160l-123 -870h-123l158 1130h115l-17 -122q49 133 189 133h39q92 0 120.5 -41t12.5 -148zM559 1366h66q-12 -78 -41 -108.5t-84 -30.5q-45 0 -90 27.5t-64 27.5q-35 0 -43 -59h-67q12 78 40.5 109.5 t85.5 31.5q43 0 88.5 -27.5t63.5 -27.5q37 0 45 57z" />
<glyph unicode="&#xf2;" horiz-adv-x="632" d="M610 924l-100 -715q-18 -129 -64.5 -174t-162.5 -45h-93q-117 0 -149.5 45t-13.5 174l100 715q16 127 62.5 172t162.5 45h92q117 0 149.5 -45t16.5 -172zM246 897l-94 -664q-10 -80 3 -106.5t74 -26.5h45q61 0 82 28t33 105l92 664q12 78 -1 105.5t-74 27.5h-46 q-63 0 -83.5 -27.5t-30.5 -105.5zM401 1421l70 -231h-80l-108 231h118z" />
<glyph unicode="&#xf3;" horiz-adv-x="632" d="M610 924l-100 -715q-18 -129 -64.5 -174t-162.5 -45h-93q-117 0 -149.5 45t-13.5 174l100 715q16 127 62.5 172t162.5 45h92q117 0 149.5 -45t16.5 -172zM246 897l-94 -664q-10 -80 3 -106.5t74 -26.5h45q61 0 82 28t33 105l92 664q12 78 -1 105.5t-74 27.5h-46 q-63 0 -83.5 -27.5t-30.5 -105.5zM338 1190l135 231h123l-176 -231h-82z" />
<glyph unicode="&#xf4;" horiz-adv-x="632" d="M610 924l-100 -715q-18 -129 -64.5 -174t-162.5 -45h-93q-117 0 -149.5 45t-13.5 174l100 715q16 127 62.5 172t162.5 45h92q117 0 149.5 -45t16.5 -172zM246 897l-94 -664q-10 -80 3 -106.5t74 -26.5h45q61 0 82 28t33 105l92 664q12 78 -1 105.5t-74 27.5h-46 q-63 0 -83.5 -27.5t-30.5 -105.5zM485 1421l97 -231h-80l-74 143l-115 -143h-84l162 231h94z" />
<glyph unicode="&#xf5;" horiz-adv-x="632" d="M610 924l-100 -715q-18 -129 -64.5 -174t-162.5 -45h-93q-117 0 -149.5 45t-13.5 174l100 715q16 127 62.5 172t162.5 45h92q117 0 149.5 -45t16.5 -172zM246 897l-94 -664q-10 -80 3 -106.5t74 -26.5h45q61 0 82 28t33 105l92 664q12 78 -1 105.5t-74 27.5h-46 q-63 0 -83.5 -27.5t-30.5 -105.5zM549 1366h65q-12 -78 -40.5 -108.5t-84.5 -30.5q-45 0 -90 27.5t-63 27.5q-35 0 -43 -59h-68q12 78 41 109.5t86 31.5q43 0 88 -27.5t64 -27.5q37 0 45 57z" />
<glyph unicode="&#xf6;" horiz-adv-x="632" d="M610 924l-100 -715q-18 -129 -64.5 -174t-162.5 -45h-93q-117 0 -149.5 45t-13.5 174l100 715q16 127 62.5 172t162.5 45h92q117 0 149.5 -45t16.5 -172zM246 897l-94 -664q-10 -80 3 -106.5t74 -26.5h45q61 0 82 28t33 105l92 664q12 78 -1 105.5t-74 27.5h-46 q-63 0 -83.5 -27.5t-30.5 -105.5zM575 1241h-116l18 129h115zM362 1241h-114l18 129h115z" />
<glyph unicode="&#xf7;" d="M604 774l-14 -115h-500l16 115h498zM242 430l18 127h129l-20 -127h-127zM305 874l19 130h127l-19 -130h-127z" />
<glyph unicode="&#xf8;" horiz-adv-x="632" d="M610 924l-100 -715q-18 -129 -64.5 -174t-162.5 -45h-93q-43 0 -73 6l-25 -57h-104l47 104q-25 41 -8 166l100 715q18 127 64.5 172t160.5 45h92q39 0 70 -6l31 67h104l-51 -115q28 -44 12 -163zM274 100q61 0 82 28t33 105l82 598l-305 -716q20 -14 63 -15h45zM246 897 l-84 -594l305 713q-20 14 -61 14h-46q-63 0 -82.5 -26.5t-31.5 -106.5z" />
<glyph unicode="&#xf9;" horiz-adv-x="651" d="M514 190q-16 -111 -12 -190h-117q-6 37 2 117q-49 -127 -186 -127h-39q-92 0 -121 41t-12 147l133 952h125l-127 -903q-10 -76 2 -101.5t69 -25.5h37q109 0 131 160l123 870h123zM410 1421l69 -231h-80l-108 231h119z" />
<glyph unicode="&#xfa;" horiz-adv-x="651" d="M514 190q-16 -111 -12 -190h-117q-6 37 2 117q-49 -127 -186 -127h-39q-92 0 -121 41t-12 147l133 952h125l-127 -903q-10 -76 2 -101.5t69 -25.5h37q109 0 131 160l123 870h123zM346 1190l135 231h123l-176 -231h-82z" />
<glyph unicode="&#xfb;" horiz-adv-x="651" d="M514 190q-16 -111 -12 -190h-117q-6 37 2 117q-49 -127 -186 -127h-39q-92 0 -121 41t-12 147l133 952h125l-127 -903q-10 -76 2 -101.5t69 -25.5h37q109 0 131 160l123 870h123zM494 1421l96 -231h-80l-74 143l-114 -143h-84l161 231h95z" />
<glyph unicode="&#xfc;" horiz-adv-x="651" d="M514 190q-16 -111 -12 -190h-117q-6 37 2 117q-49 -127 -186 -127h-39q-92 0 -121 41t-12 147l133 952h125l-127 -903q-10 -76 2 -101.5t69 -25.5h37q109 0 131 160l123 870h123zM584 1241h-117l18 129h115zM371 1241h-115l18 129h115z" />
<glyph unicode="&#xfd;" horiz-adv-x="577" d="M248 -119q-43 -141 -191 -141h-118l12 96h78q68 0 86 66l18 67l-39 1161h127l15 -487q10 -319 -5 -516q37 180 144 516l153 487h115zM315 1190l136 231h122l-176 -231h-82z" />
<glyph unicode="&#xfe;" horiz-adv-x="645" d="M494 903q10 76 -2.5 101.5t-69.5 25.5h-39q-106 0 -129 -160l-86 -610q-23 -160 84 -160h39q59 0 78.5 27t29.5 100zM94 -260h-123l238 1694h123l-56 -398q51 104 177 105h39q92 0 120.5 -41t12.5 -148l-109 -774q-16 -106 -55 -147t-131 -41h-39q-125 0 -148 104z" />
<glyph unicode="&#xff;" horiz-adv-x="577" d="M248 -119q-43 -141 -191 -141h-118l12 96h78q68 0 86 66l18 67l-39 1161h127l15 -487q10 -319 -5 -516q37 180 144 516l153 487h115zM553 1241h-117l19 129h114zM340 1241h-115l19 129h114z" />
<glyph unicode="&#x152;" horiz-adv-x="913" d="M694 1309l-69 -496h235l-18 -123h-236l-80 -565h277l-15 -125h-563q-131 0 -170 51t-18 193l133 946q20 143 72.5 193.5t183.5 50.5h563l-18 -125h-277zM262 125h129l168 1184h-129q-72 0 -94.5 -29t-34.5 -117l-127 -893q-12 -88 2 -116.5t86 -28.5z" />
<glyph unicode="&#x153;" horiz-adv-x="985" d="M748 233l20 148h117l-23 -172q-18 -129 -64 -174t-163 -45h-39q-86 0 -123 23.5t-43 82.5q-20 -59 -63 -82.5t-127 -23.5h-50q-117 0 -149.5 45t-13.5 174l100 715q16 127 62.5 172t162.5 45h49q84 0 121 -23.5t39 -83.5q23 59 67 83t130 24h39q117 0 149.5 -45 t16.5 -172l-56 -392h-352l-43 -299q-10 -80 3 -106.5t75 -26.5h45q61 0 82 27.5t31 105.5zM246 897l-94 -664q-10 -80 3 -106.5t74 -26.5h45q61 0 82 28t33 105l92 664q12 78 -1 105.5t-74 27.5h-46q-63 0 -83.5 -27.5t-30.5 -105.5zM606 897l-37 -258h236l37 258 q12 78 -1.5 105.5t-76.5 27.5h-43q-63 0 -84 -27.5t-31 -105.5z" />
<glyph unicode="&#x178;" horiz-adv-x="608" d="M297 0h-135l69 506l-94 928h133l37 -387q25 -242 21 -379q33 135 123 381l143 385h125l-352 -924zM608 1530h-116l18 129h115zM395 1530h-114l18 129h115z" />
<glyph unicode="&#x2c6;" horiz-adv-x="325" d="M332 1421l96 -231h-80l-74 143l-114 -143h-84l162 231h94z" />
<glyph unicode="&#x2dc;" horiz-adv-x="325" d="M395 1366h66q-12 -78 -41 -108.5t-84 -30.5q-45 0 -90 27.5t-64 27.5q-35 0 -43 -59h-67q12 78 40.5 109.5t86.5 31.5q43 0 88 -27.5t63 -27.5q37 0 45 57z" />
<glyph unicode="&#x2000;" horiz-adv-x="857" />
<glyph unicode="&#x2001;" horiz-adv-x="1714" />
<glyph unicode="&#x2002;" horiz-adv-x="857" />
<glyph unicode="&#x2003;" horiz-adv-x="1714" />
<glyph unicode="&#x2004;" horiz-adv-x="571" />
<glyph unicode="&#x2005;" horiz-adv-x="428" />
<glyph unicode="&#x2006;" horiz-adv-x="285" />
<glyph unicode="&#x2007;" horiz-adv-x="285" />
<glyph unicode="&#x2008;" horiz-adv-x="214" />
<glyph unicode="&#x2009;" horiz-adv-x="342" />
<glyph unicode="&#x200a;" horiz-adv-x="95" />
<glyph unicode="&#x2010;" horiz-adv-x="417" d="M379 598l-14 -96h-328l12 96h330z" />
<glyph unicode="&#x2011;" horiz-adv-x="417" d="M379 598l-14 -96h-328l12 96h330z" />
<glyph unicode="&#x2012;" horiz-adv-x="417" d="M379 598l-14 -96h-328l12 96h330z" />
<glyph unicode="&#x2013;" horiz-adv-x="1024" d="M1030 598l-14 -96h-1024l14 96h1024z" />
<glyph unicode="&#x2014;" horiz-adv-x="2048" d="M2054 598l-14 -96h-2048l14 96h2048z" />
<glyph unicode="&#x2018;" horiz-adv-x="325" d="M336 1274l-29 -201h-145l28 201l144 160l12 -9l-100 -151h90z" />
<glyph unicode="&#x2019;" horiz-adv-x="325" d="M184 1231l27 203h145l-26 -203l-146 -160l-10 8l100 152h-90z" />
<glyph unicode="&#x201a;" horiz-adv-x="325" d="M12 0l27 203h145l-26 -203l-146 -160l-10 8l100 152h-90z" />
<glyph unicode="&#x201c;" horiz-adv-x="518" d="M553 1274l-29 -201h-145l29 201l143 160l12 -9l-100 -151h90zM313 1274l-28 -201h-146l29 201l143 160l13 -9l-101 -151h90z" />
<glyph unicode="&#x201d;" horiz-adv-x="518" d="M401 1231l27 203h145l-26 -203l-146 -160l-10 8l101 152h-91zM162 1231l26 203h146l-27 -203l-145 -160l-10 8l100 152h-90z" />
<glyph unicode="&#x201e;" horiz-adv-x="518" d="M229 0l27 203h145l-26 -203l-146 -160l-10 8l100 152h-90zM-10 0l26 203h146l-27 -203l-145 -160l-10 8l100 152h-90z" />
<glyph unicode="&#x2022;" horiz-adv-x="559" d="M272 512q-80 0 -128 49t-48 127q0 96 70 166t164 70q80 0 128 -49.5t48 -126.5q0 -96 -70 -166t-164 -70z" />
<glyph unicode="&#x2026;" horiz-adv-x="757" d="M-10 0l26 203h146l-27 -203h-145zM229 0l27 203h145l-26 -203h-146zM469 0l27 203h145l-27 -203h-145z" />
<glyph unicode="&#x202f;" horiz-adv-x="342" />
<glyph unicode="&#x2039;" horiz-adv-x="344" d="M158 156l-144 409l258 410h121l-260 -414l137 -405h-112z" />
<glyph unicode="&#x203a;" horiz-adv-x="344" d="M186 975l144 -410l-258 -409h-121l260 413l-137 406h112z" />
<glyph unicode="&#x205f;" horiz-adv-x="428" />
<glyph unicode="&#x20ac;" d="M614 823h-364l-19 -137h365l-10 -63h-365l-53 -381q-12 -78 3 -105.5t81 -27.5h43q66 0 86 26.5t35 106.5l30 233h119l-35 -258q-18 -133 -66 -180t-169 -47h-84q-121 0 -156 47t-16 180l55 406h-67l8 63h69l19 137h-68l8 62h68l47 332q20 133 68.5 180t169.5 47h84 q121 0 155.5 -47t14.5 -180l-27 -183h-119l25 158q12 80 -2.5 106.5t-79.5 26.5h-45q-66 0 -87.5 -27.5t-31.5 -105.5l-45 -307h365z" />
<glyph unicode="&#x2122;" horiz-adv-x="940" d="M702 928l160 506h146l-119 -848h-98l69 497q16 121 39 222l-34 -113q-24 -80 -34 -109l-159 -497h-78l-27 497q-6 100 -6 230q-14 -168 -24 -230l-70 -497h-84l119 848h137l20 -506q4 -104 -4 -189zM121 1350l12 84h303l-12 -84h-102l-107 -764h-98l106 764h-102z" />
<glyph unicode="&#xe000;" horiz-adv-x="1130" d="M0 1130h1130v-1130h-1130v1130z" />
<glyph unicode="&#xfb01;" horiz-adv-x="659" d="M80 1026l14 104h88l13 87q18 127 64 172t161 45h53l-14 -101h-29q-59 0 -80.5 -20.5t-32.5 -98.5l-14 -84h127l-12 -104h-127l-144 -1026h-122l143 1026h-88zM653 1130l-157 -1130h-123l157 1130h123zM553 1288l20 146h123l-20 -146h-123z" />
<glyph unicode="&#xfb02;" horiz-adv-x="659" d="M80 1026l14 104h88l13 87q18 127 64 172t161 45h53l-14 -101h-29q-59 0 -80.5 -20.5t-32.5 -98.5l-14 -84h127l-12 -104h-127l-144 -1026h-122l143 1026h-88zM496 0h-123l200 1434h123z" />
<glyph unicode="&#xfb03;" horiz-adv-x="1022" d="M1017 1130l-158 -1130h-123l158 1130h123zM916 1288l21 146h123l-21 -146h-123zM444 1026l14 104h88l13 87q18 127 64 172t161 45h53l-14 -101h-29q-59 0 -80.5 -20.5t-32.5 -98.5l-14 -84h127l-12 -104h-127l-144 -1026h-122l143 1026h-88zM80 1026l14 104h88l13 87 q18 127 64 172t161 45h53l-14 -101h-29q-59 0 -80.5 -20.5t-32.5 -98.5l-14 -84h127l-12 -104h-127l-144 -1026h-122l143 1026h-88z" />
<glyph unicode="&#xfb04;" horiz-adv-x="1022" d="M859 0h-123l201 1434h123zM444 1026l14 104h88l13 87q18 127 64 172t161 45h53l-14 -101h-29q-59 0 -80.5 -20.5t-32.5 -98.5l-14 -84h127l-12 -104h-127l-144 -1026h-122l143 1026h-88zM80 1026l14 104h88l13 87q18 127 64 172t161 45h53l-14 -101h-29 q-59 0 -80.5 -20.5t-32.5 -98.5l-14 -84h127l-12 -104h-127l-144 -1026h-122l143 1026h-88z" />
</font>
</defs>
</svg>
