<?xml version="1.0" standalone="no"?>
<!DOCTYPE svg PUBLIC "-//W3C//DTD SVG 1.1//EN" "http://www.w3.org/Graphics/SVG/1.1/DTD/svg11.dtd" >
<svg xmlns="http://www.w3.org/2000/svg">
<metadata>
This is a custom SVG webfont generated by Fontspring.
</metadata>
<defs>
<font id="DharmaGothicEThin" horiz-adv-x="610" >
<font-face units-per-em="2048" ascent="1638" descent="-410" />
<missing-glyph horiz-adv-x="282" />
<glyph unicode=" "  horiz-adv-x="282" />
<glyph unicode="&#x09;" horiz-adv-x="282" />
<glyph unicode="&#xa0;" horiz-adv-x="282" />
<glyph unicode="!" horiz-adv-x="272" d="M168 975l-21 -725h-22l-21 725v459h64v-459zM98 0v131h76v-131h-76z" />
<glyph unicode="&#x22;" horiz-adv-x="364" d="M303 1307l-12 -242h-35l-10 242v127h57v-127zM121 1307l-12 -242h-35l-11 242v127h58v-127z" />
<glyph unicode="#" d="M522 1434l-18 -260h86l-4 -56h-86l-54 -753h86l-2 -56h-88l-20 -309h-60l21 309h-221l-21 -309h-59l20 309h-82l3 56h83l54 753h-86l4 56h86l18 260h60l-19 -260h221l19 260h59zM219 1118l-53 -753h221l53 753h-221z" />
<glyph unicode="$" d="M330 -51h-51v92h-7q-104 0 -141 40t-37 155v301h56v-279q0 -96 21.5 -129t102.5 -33h58q82 0 103.5 33t21.5 129v139q0 82 -32 138.5t-138 156.5q-123 119 -158 182.5t-35 161.5v162q0 113 37 154t141 41h7v92h51v-92h10q104 0 140 -41t36 -154v-274h-55v252 q0 96 -21.5 128.5t-103.5 32.5h-57q-82 0 -103.5 -32.5t-21.5 -128.5v-142q0 -82 31.5 -138t138.5 -157q123 -119 157.5 -182t34.5 -162v-159q0 -115 -36 -155t-140 -40h-10v-92z" />
<glyph unicode="%" horiz-adv-x="1015" d="M317 0l336 1434h45l-336 -1434h-45zM625 135v598q0 86 27.5 116t105.5 30h57q76 0 103.5 -30t27.5 -116v-598q0 -84 -27.5 -114.5t-103.5 -30.5h-57q-78 0 -105.5 30.5t-27.5 114.5zM678 713v-557q0 -72 15.5 -94.5t74.5 -22.5h35q59 0 74.5 22.5t15.5 94.5v557 q0 72 -15.5 94t-74.5 22h-35q-59 0 -74.5 -22t-15.5 -94zM70 700v598q0 86 27.5 116t105.5 30h57q76 0 103.5 -30t27.5 -116v-598q0 -84 -27.5 -114.5t-103.5 -30.5h-57q-78 0 -105.5 30.5t-27.5 114.5zM123 1278v-557q0 -72 15.5 -94.5t74.5 -22.5h35q59 0 74.5 22.5 t15.5 94.5v557q0 72 -15.5 94.5t-74.5 22.5h-35q-59 0 -74.5 -22.5t-15.5 -94.5z" />
<glyph unicode="&#x26;" horiz-adv-x="659" d="M477 0q-12 37 -16 125q-31 -135 -174 -135h-37q-98 0 -133 39t-35 145v401q0 96 23.5 141.5t84.5 59.5q-61 14 -84.5 59.5t-23.5 143.5v246q0 121 39 165t151 44h181v-56h-174q-88 0 -111 -34.5t-23 -141.5v-221q0 -106 22.5 -141t111.5 -35h174v225h59v-225h129v-55 h-129v-492q0 -160 27 -258h-62zM145 573v-372q0 -94 19.5 -127t93.5 -33h53q141 0 142 209v500h-174q-88 0 -111 -35.5t-23 -141.5z" />
<glyph unicode="'" horiz-adv-x="305" d="M182 1307l-12 -242h-35l-10 242v127h57v-127z" />
<glyph unicode="(" horiz-adv-x="389" d="M98 45v1221q0 111 35 149.5t133 38.5h66v-51h-56q-78 0 -98 -32t-20 -128v-1175q0 -96 20.5 -128t97.5 -32h56v-51h-66q-98 0 -133 38.5t-35 149.5z" />
<glyph unicode=")" horiz-adv-x="389" d="M291 1266v-1221q0 -111 -35 -149.5t-133 -38.5h-66v51h56q78 0 98 31.5t20 128.5v1175q0 96 -20.5 128t-97.5 32h-56v51h66q98 0 133 -38.5t35 -149.5z" />
<glyph unicode="*" horiz-adv-x="516" d="M20 1071l218 105l-218 104l29 49l197 -137l-17 242h58l-21 -242l199 137l31 -49l-220 -104l220 -105l-31 -49l-197 135l19 -239h-58l17 239l-197 -135z" />
<glyph unicode="+" d="M276 940h56v-195h186v-59h-186v-194h-56v194h-184v59h184v195z" />
<glyph unicode="," horiz-adv-x="305" d="M115 0v131h75v-131l-57 -135l-12 4l39 131h-45z" />
<glyph unicode="-" horiz-adv-x="382" d="M332 573v-47h-281v47h281z" />
<glyph unicode="." horiz-adv-x="305" d="M115 0v131h75v-131h-75z" />
<glyph unicode="/" d="M47 -41l459 1516h57l-459 -1516h-57z" />
<glyph unicode="0" d="M518 1249v-1065q0 -115 -36 -154.5t-140 -39.5h-74q-102 0 -139 40t-37 154v1065q0 115 37 155t139 40h74q104 0 140 -40t36 -155zM152 1227v-1020q0 -96 21.5 -129t102.5 -33h58q82 0 103.5 33t21.5 129v1020q0 96 -21.5 129t-103.5 33h-58q-82 0 -103 -33t-21 -129z " />
<glyph unicode="1" horiz-adv-x="282" d="M174 0h-59v1401q10 0 20 10t10 23h29v-1434z" />
<glyph unicode="2" horiz-adv-x="579" d="M451 1192v35q0 96 -21.5 129t-103.5 33h-58q-82 0 -103.5 -33t-21.5 -129v-303h-55v325q0 115 36 155t140 40h70q104 0 140 -40t36 -155v-63q0 -154 -35 -248t-162 -276q-109 -156 -140.5 -244t-31.5 -234v-129h379v-55h-438v190q0 154 35 248t162 277q109 156 140.5 244 t31.5 233z" />
<glyph unicode="3" horiz-adv-x="589" d="M139 1227v-240h-55v262q0 115 36 155t140 40h70q104 0 140 -40t36 -155v-307q0 -90 -21.5 -132t-76.5 -56q55 -12 76.5 -54.5t21.5 -132.5v-383q0 -115 -36 -154.5t-140 -39.5h-70q-104 0 -140 40t-36 154v338h55v-315q0 -96 21.5 -129t103.5 -33h58q82 0 103 33t21 129 v358q0 96 -21.5 129t-102.5 33h-183v55h183q82 0 103 33t21 129v283q0 96 -21.5 129t-102.5 33h-58q-82 0 -103.5 -32t-21.5 -130z" />
<glyph unicode="4" horiz-adv-x="559" d="M350 1432h68v-1084h133v-55h-133v-293h-60v293h-340v55zM70 348h288v471q0 285 9 522l-152 -522z" />
<glyph unicode="5" horiz-adv-x="593" d="M147 838v-152h-55v748h404v-56h-349v-389q41 106 166 107h35q98 0 132 -39t34 -148v-725q0 -115 -37 -154.5t-141 -39.5h-68q-102 0 -139 40t-37 154v338h55v-315q0 -96 21.5 -129t103.5 -33h58q82 0 103.5 33t21.5 129v680q0 92 -19.5 124.5t-93.5 32.5h-53 q-142 1 -142 -206z" />
<glyph unicode="6" horiz-adv-x="602" d="M518 807v-623q0 -115 -36 -154.5t-140 -39.5h-74q-104 0 -140 40t-36 154v1065q0 115 36 155t140 40h68q104 0 141 -40t37 -155v-172h-55v150q0 96 -21.5 129t-103.5 33h-58q-82 0 -103 -33t-21 -129v-340q41 106 165 106h35q98 0 132 -38.5t34 -147.5zM346 942h-53 q-141 0 -141 -207v-528q0 -96 21.5 -129t102.5 -33h58q82 0 103.5 33t21.5 129v577q0 92 -19.5 125t-93.5 33z" />
<glyph unicode="7" horiz-adv-x="466" d="M193 0h-64l264 1378h-377v56h435v-50z" />
<glyph unicode="8" horiz-adv-x="593" d="M332 -10h-70q-104 0 -141 40t-37 154v404q0 88 21.5 130t74.5 56q-55 14 -75.5 56t-20.5 131v288q0 115 37 155t141 40h70q104 0 141 -40t37 -155v-288q0 -90 -21.5 -131.5t-76.5 -55.5q55 -14 76.5 -56t21.5 -130v-404q0 -115 -37 -154.5t-141 -39.5zM451 207v379 q0 96 -21.5 129t-103.5 33h-58q-82 0 -103.5 -33t-21.5 -129v-379q0 -96 21.5 -129t103.5 -33h58q82 0 103.5 33t21.5 129zM451 965v262q0 96 -21.5 129t-103.5 33h-58q-82 0 -103.5 -33t-21.5 -129v-262q0 -96 21.5 -129t103.5 -33h58q82 0 103.5 33t21.5 129z" />
<glyph unicode="9" horiz-adv-x="602" d="M326 45q82 0 103.5 33t21.5 129v360q-41 -106 -166 -106h-35q-98 0 -132 39t-34 147v602q0 115 36 155t140 40h74q104 0 140 -40t36 -155v-1065q0 -115 -36 -154.5t-140 -39.5h-68q-104 0 -141 40t-37 154v193h55v-170q0 -96 21.5 -129t103.5 -33h58zM256 512h53 q141 0 142 207v508q0 96 -21.5 129t-103.5 33h-58q-82 0 -103.5 -33t-21.5 -129v-557q0 -92 19.5 -125t93.5 -33z" />
<glyph unicode=":" horiz-adv-x="305" d="M115 854v131h75v-131h-75zM115 0v131h75v-131h-75z" />
<glyph unicode=";" horiz-adv-x="305" d="M115 0v131h75v-131l-57 -135l-12 4l39 131h-45zM115 854v131h75v-131h-75z" />
<glyph unicode="&#x3c;" d="M184 717l334 -215h-94l-332 215l332 213h94z" />
<glyph unicode="=" d="M518 889v-58h-426v58h426zM518 600v-57h-426v57h426z" />
<glyph unicode="&#x3e;" d="M92 502l334 215l-334 213h94l332 -213l-332 -215h-94z" />
<glyph unicode="?" horiz-adv-x="548" d="M195 0v217h73v-217h-73zM426 1167v60q0 96 -21.5 129t-103.5 33h-57q-82 0 -103.5 -33t-21.5 -129v-303h-56v325q0 115 36 155t141 40h69q104 0 140 -40t36 -155v-69q0 -125 -23.5 -215.5t-57.5 -142.5l-67 -101q-34 -49 -57.5 -126t-23.5 -183v-64h-49v43 q0 121 22.5 208t54.5 138l64 103q33 51 55.5 132.5t22.5 194.5z" />
<glyph unicode="@" horiz-adv-x="956" d="M633 1053l-64 -828q-2 -25 13.5 -41t40.5 -16h14q74 0 123 90t49 299v279q0 260 -68.5 368.5t-242.5 108.5h-6q-170 0 -256 -98.5t-86 -352.5v-565q0 -121 33.5 -205t95 -125t126 -57t148.5 -16q96 0 156 22v-51q-61 -25 -155.5 -25t-172.5 21.5t-145.5 72t-105.5 144.5 t-38 225v559q0 274 103.5 389t296.5 115h6q203 0 284.5 -123t81.5 -407v-281q0 -430 -231 -430h-15q-84 0 -98 72q-23 -72 -102 -72h-27q-90 0 -82 92l58 758q6 90 96 90h22q80 0 93 -68l20 56h35zM510 252l53 692q2 39 -17.5 59.5t-47.5 20.5h-23q-45 0 -49 -57l-57 -748 q-4 -51 39 -51h14q41 0 62.5 16.5t25.5 67.5z" />
<glyph unicode="A" horiz-adv-x="587" d="M483 0l-39 254h-313l-37 -254h-55l211 1434h86l211 -1434h-64zM215 819l-76 -510h297l-74 510q-66 467 -73 533q-23 -195 -74 -533z" />
<glyph unicode="B" horiz-adv-x="663" d="M113 0v1434h268q113 0 152.5 -43t39.5 -166v-269q0 -96 -24.5 -142t-85.5 -60q61 -14 85.5 -59.5t24.5 -141.5v-344q0 -123 -39.5 -166t-152.5 -43h-268zM377 727h-201v-672h201q88 0 110.5 35t22.5 141v320q0 106 -22.5 141t-110.5 35zM510 958v244q0 106 -22.5 141 t-110.5 35h-201v-596h201q88 0 110.5 35t22.5 141z" />
<glyph unicode="C" horiz-adv-x="649" d="M162 1212v-991q0 -106 22.5 -141t110.5 -35h67q88 0 111 35t23 141v336h59v-358q0 -123 -39 -166t-151 -43h-74q-113 0 -153 43t-40 166v1036q0 123 40 166t153 43h74q113 0 151.5 -43t38.5 -166v-297h-59v274q0 106 -22.5 141.5t-111.5 35.5h-67q-88 0 -110.5 -35.5 t-22.5 -141.5z" />
<glyph unicode="D" horiz-adv-x="671" d="M113 0v1434h268q113 0 152.5 -43t39.5 -166v-1016q0 -123 -39.5 -166t-152.5 -43h-268zM176 55h201q88 0 110.5 35t22.5 141v971q0 106 -22.5 141t-110.5 35h-201v-1323z" />
<glyph unicode="E" horiz-adv-x="522" d="M176 1378v-596h254v-55h-254v-672h289v-55h-352v1434h352v-56h-289z" />
<glyph unicode="F" horiz-adv-x="477" d="M176 1378v-616h246v-55h-246v-707h-63v1434h344v-56h-281z" />
<glyph unicode="G" horiz-adv-x="651" d="M330 696v56h225v-553q0 -123 -39 -166t-151 -43h-74q-113 0 -153 43t-40 166v1036q0 123 40 166t153 43h74q113 0 151.5 -43t38.5 -166v-297h-59v274q0 106 -22.5 141.5t-111.5 35.5h-67q-88 0 -110.5 -35t-22.5 -142v-991q0 -106 22.5 -141t110.5 -35h67q88 0 111 35 t23 141v475h-166z" />
<glyph unicode="H" horiz-adv-x="686" d="M176 0h-63v1434h63v-652h334v652h63v-1434h-63v727h-334v-727z" />
<glyph unicode="I" horiz-adv-x="288" d="M113 0v1434h63v-1434h-63z" />
<glyph unicode="J" horiz-adv-x="608" d="M102 557v-336q0 -106 22.5 -141t111.5 -35h67q88 0 110.5 35t22.5 141v1213h64v-1235q0 -123 -40 -166t-153 -43h-74q-113 0 -151.5 43t-38.5 166v358h59z" />
<glyph unicode="K" horiz-adv-x="630" d="M113 0v1434h63v-666l49 92l320 574h63l-381 -674l396 -760h-68l-334 649l-45 90v-739h-63z" />
<glyph unicode="L" horiz-adv-x="460" d="M113 0v1434h63v-1379h264v-55h-327z" />
<glyph unicode="M" horiz-adv-x="831" d="M639 1118l-190 -1118h-68l-191 1118q-25 152 -30 223q6 -104 6 -223v-1118h-55v1434h90l194 -1168q12 -84 23 -180q4 59 22 180l197 1168h84v-1434h-62v1118q0 6 7 191q-23 -166 -27 -191z" />
<glyph unicode="N" horiz-adv-x="677" d="M498 0l-287 1128q-14 59 -49 222q6 -197 6 -226v-1124h-57v1434h86l270 -1074q14 -59 49 -221q-6 197 -6 226v1069h57v-1434h-69z" />
<glyph unicode="O" horiz-adv-x="657" d="M98 199v1036q0 123 40 166t153 43h76q113 0 152.5 -43t39.5 -166v-1036q0 -123 -40 -166t-152 -43h-76q-113 0 -153 43t-40 166zM496 221v991q0 106 -22.5 141.5t-111.5 35.5h-67q-88 0 -110.5 -35t-22.5 -142v-991q0 -106 22.5 -141t110.5 -35h67q88 0 111 35t23 141z " />
<glyph unicode="P" horiz-adv-x="600" d="M113 0v1434h249q113 0 153 -43t40 -166v-420q0 -123 -40 -166t-153 -43h-186v-596h-63zM176 651h182q88 0 111 35t23 141v375q0 106 -23 141t-111 35h-182v-727z" />
<glyph unicode="Q" horiz-adv-x="657" d="M98 199v1036q0 123 40 166t153 43h76q113 0 152.5 -43t39.5 -166v-1036q0 -121 -39 -164t-147 -45v-66q0 -82 23.5 -110.5t88.5 -28.5h31v-45h-31q-94 0 -135 32.5t-41 155.5v62h-18q-113 0 -153 43t-40 166zM496 221v991q0 106 -22.5 141.5t-111.5 35.5h-67 q-88 0 -110.5 -35t-22.5 -142v-991q0 -106 22.5 -141t110.5 -35h67q88 0 111 35t23 141z" />
<glyph unicode="R" horiz-adv-x="671" d="M573 532v-280q0 -154 23 -252h-70q-16 47 -16 223v299q0 106 -26.5 145.5t-114.5 39.5h-193v-707h-63v1434h268q113 0 152.5 -43t39.5 -166v-289q0 -96 -24.5 -142t-85.5 -61q61 -14 85.5 -59.5t24.5 -141.5zM510 938v264q0 106 -22.5 141t-110.5 35h-201v-616h201 q88 0 110.5 35t22.5 141z" />
<glyph unicode="S" horiz-adv-x="595" d="M453 221v154q0 111 -29 169t-141 167q-137 131 -170 195.5t-33 191.5v137q0 123 40 166t152 43h54q113 0 151.5 -43t38.5 -166v-277h-59v254q0 106 -22.5 141.5t-110.5 35.5h-48q-88 0 -110.5 -35t-22.5 -142v-112q0 -111 29 -169.5t141 -166.5q137 -131 170 -195.5 t33 -191.5v-178q0 -121 -39 -165t-151 -44h-56q-113 0 -151.5 44t-38.5 165v317h59v-295q0 -106 22.5 -141t110.5 -35h47q88 0 111 35t23 141z" />
<glyph unicode="T" horiz-adv-x="415" d="M240 0h-64v1378h-162v56h387v-56h-161v-1378z" />
<glyph unicode="U" horiz-adv-x="671" d="M172 1434v-1213q0 -106 22.5 -141t110.5 -35h68q88 0 110.5 35t22.5 141v1213h59v-1235q0 -123 -39 -166t-151 -43h-74q-113 0 -152.5 43t-39.5 166v1235h63z" />
<glyph unicode="V" horiz-adv-x="587" d="M104 1434l121 -820q49 -328 74 -532q25 205 74 532l121 820h55l-211 -1434h-86l-211 1434h63z" />
<glyph unicode="W" horiz-adv-x="888" d="M410 940l-117 -940h-72l-180 1434h63l103 -820q49 -397 53 -510q4 113 53 510l103 820h69l103 -820q49 -397 53 -510q4 113 53 510l101 820h55l-178 -1434h-68l-119 940q-33 250 -39 391q-5 -164 -36 -391z" />
<glyph unicode="X" horiz-adv-x="591" d="M391 1120l92 314h56l-201 -678l215 -756h-64l-108 383q-74 260 -90 334q-27 -121 -86 -334l-111 -383h-55l215 756l-201 678h64l92 -314q76 -250 90 -327q26 108 92 327z" />
<glyph unicode="Y" horiz-adv-x="542" d="M307 0h-63v545l-226 889h64l119 -463q61 -231 78 -357q10 76 77 359l115 461h55l-219 -881v-553z" />
<glyph unicode="Z" horiz-adv-x="491" d="M66 1378v56h374v-56l-329 -1323h329v-55h-391v55l330 1323h-313z" />
<glyph unicode="[" horiz-adv-x="403" d="M113 1454h233v-51h-174v-1495h174v-51h-233v1597z" />
<glyph unicode="\" d="M104 1475l459 -1516h-57l-459 1516h57z" />
<glyph unicode="]" horiz-adv-x="403" d="M57 1454h234v-1597h-234v51h174v1495h-174v51z" />
<glyph unicode="^" d="M287 1434h39l194 -469h-57l-156 387l-157 -387h-58z" />
<glyph unicode="_" horiz-adv-x="1024" d="M1024 -33v-51h-1024v51h1024z" />
<glyph unicode="`" horiz-adv-x="305" d="M119 1417l100 -225h-43l-131 225h74z" />
<glyph unicode="a" horiz-adv-x="600" d="M256 635q129 63 156.5 97t27.5 138v60q0 96 -20.5 128t-97.5 32h-54q-78 0 -98 -32t-20 -128v-172h-56v196q0 109 35 148t133 39h70q98 0 133 -39t35 -148v-764q0 -123 12 -190h-55q-10 37 -11 111q-37 -121 -165 -121h-35q-92 0 -126 38t-34 140v182q0 119 32 176.5 t138 108.5zM440 238v454q-23 -37 -149 -96q-94 -43 -120 -91t-26 -153v-159q0 -90 19.5 -121t91.5 -31h49q135 0 135 197z" />
<glyph unicode="b" d="M459 938q0 90 -19.5 121t-91.5 31h-49q-135 0 -135 -197v-655q0 -197 135 -197h49q72 0 91.5 30.5t19.5 121.5v745zM164 1434v-396q37 102 160 103h34q92 0 126 -38t34 -140v-795q0 -102 -33.5 -140t-126.5 -38h-34q-133 0 -168 123l-13 -113h-39v1434h60z" />
<glyph unicode="c" horiz-adv-x="589" d="M446 201v233h56v-256q0 -111 -35 -149.5t-133 -38.5h-74q-98 0 -133 39t-35 149v776q0 109 35 148t133 39h74q98 0 133 -39t35 -148v-237h-56v213q0 96 -20 128t-98 32h-58q-78 0 -98 -32t-20 -128v-729q0 -96 20.5 -128t97.5 -32h58q78 0 98 32t20 128z" />
<glyph unicode="d" d="M446 238v655q0 197 -135 197h-49q-72 0 -91 -31t-19 -121v-745q0 -90 19 -121t91 -31h49q135 0 135 197zM506 190q0 -123 12 -190h-55q-10 37 -10 111q-37 -121 -166 -121h-35q-92 0 -126 38t-34 140v795q0 102 34 140t126 38h35q119 0 159 -103v396h60v-1244z" />
<glyph unicode="e" horiz-adv-x="591" d="M446 201v174h56v-197q0 -111 -35 -149.5t-133 -38.5h-74q-98 0 -133 39t-35 149v776q0 109 35 148t133 39h74q98 0 133 -39t35 -148v-397h-350v-356q0 -96 20.5 -128t97.5 -32h58q78 0 98 32t20 128zM152 930v-322h294v322q0 96 -20 128t-98 32h-58q-78 0 -98 -32 t-20 -128z" />
<glyph unicode="f" horiz-adv-x="335" d="M18 1079v51h99v115q0 111 34.5 150t133.5 39h32v-52h-24q-72 0 -94.5 -24.5t-22.5 -118.5v-109h141v-51h-141v-1079h-59v1079h-99z" />
<glyph unicode="g" horiz-adv-x="571" d="M504 461q0 -109 -35 -149t-133 -40h-78h-8q-55 0 -76.5 -21.5t-21.5 -74.5v-6q0 -49 26.5 -66.5t87.5 -17.5h92q47 0 76 -4t59.5 -19.5t45 -49t14.5 -87.5v-32q0 -98 -45 -131t-146 -33h-124q-156 0 -156 155v31q0 104 84 127q-59 29 -60 121v14q0 86 62 105 q-45 16 -61.5 56t-16.5 122v493q0 109 35 148t133 39h70q129 0 155 -80q0 80 58 80h12v-51h-8q-41 0 -41 -58v-571zM150 930v-447q0 -96 20 -127.5t98 -31.5h58q78 0 98 31.5t20 127.5v447q0 96 -20.5 128t-97.5 32h-58q-78 0 -98 -32t-20 -128zM494 -96v18q0 66 -30 85.5 t-106 19.5h-110q-59 0 -85 -26t-26 -87v-16q0 -72 28 -94.5t91 -22.5h102q78 0 107 22.5t29 100.5z" />
<glyph unicode="h" horiz-adv-x="618" d="M518 0h-59v938q0 90 -19.5 121t-91.5 31h-49q-135 0 -135 -197v-893h-60v1434h60v-396q37 102 160 103h34q92 0 126 -38t34 -140v-963z" />
<glyph unicode="i" horiz-adv-x="268" d="M164 1130v-1130h-60v1130h60zM104 1321v113h60v-113h-60z" />
<glyph unicode="j" horiz-adv-x="268" d="M104 1130h60v-1202q0 -111 -33 -149.5t-131 -38.5h-20v51h12q70 0 91 23.5t21 117.5v1198zM104 1321v113h60v-113h-60z" />
<glyph unicode="k" horiz-adv-x="571" d="M164 578v-578h-60v1434h60v-822l82 136l231 382h60l-326 -530l342 -600h-64l-253 446q-66 120 -72 132z" />
<glyph unicode="l" horiz-adv-x="268" d="M164 0h-60v1434h60v-1434z" />
<glyph unicode="m" horiz-adv-x="935" d="M164 0h-60v1130h54v-110q33 121 166 121h16q74 0 108.5 -22.5t45.5 -80.5q37 102 159 103h23q92 0 126 -38t34 -140v-963h-60v938q0 90 -19.5 121t-90.5 31h-31q-135 0 -135 -197v-893h-60v938q0 90 -19.5 121t-90.5 31h-31q-135 0 -135 -197v-893z" />
<glyph unicode="n" horiz-adv-x="618" d="M518 0h-59v938q0 90 -19.5 121t-91.5 31h-49q-135 0 -135 -197v-893h-60v1130h54v-110q33 121 166 121h34q92 0 126 -38t34 -140v-963z" />
<glyph unicode="o" horiz-adv-x="598" d="M506 954v-776q0 -111 -35 -149.5t-133 -38.5h-78q-98 0 -133 39t-35 149v776q0 109 35 148t133 39h78q98 0 133 -39t35 -148zM152 930v-729q0 -96 20.5 -128t97.5 -32h58q78 0 98 31.5t20 128.5v729q0 96 -20 128t-98 32h-58q-78 0 -98 -32t-20 -128z" />
<glyph unicode="p" d="M459 938q0 90 -19.5 121t-91.5 31h-49q-135 0 -135 -197v-655q0 -197 135 -197h49q72 0 91.5 30.5t19.5 121.5v745zM164 -260h-60v1390h54v-110q33 121 166 121h34q92 0 126 -38t34 -140v-795q0 -102 -33.5 -140t-126.5 -38h-34q-123 0 -160 102v-352z" />
<glyph unicode="q" d="M446 238v655q0 197 -135 197h-49q-72 0 -91 -31t-19 -121v-745q0 -90 19 -121t91 -31h49q135 0 135 197zM506 1130v-1390h-60v352q-39 -102 -159 -102h-35q-92 0 -126 38t-34 140v795q0 102 34 140t126 38h35q133 0 166 -125l14 114h39z" />
<glyph unicode="r" horiz-adv-x="337" d="M164 0h-60v1130h54v-137q33 147 145 148h16v-60h-16q-72 0 -105.5 -57t-33.5 -186v-838z" />
<glyph unicode="s" horiz-adv-x="573" d="M432 201v65q0 96 -26.5 144.5t-133.5 138.5q-123 102 -156.5 162.5t-33.5 167.5v75q0 109 35 148t133 39h74q98 0 133 -39t35 -148v-196h-56v172q0 96 -20.5 128t-98.5 32h-57q-78 0 -98.5 -32t-20.5 -128v-45q0 -96 27 -144.5t133 -138.5q123 -102 157 -162.5t34 -167.5 v-94q0 -111 -35 -149.5t-133 -38.5h-74q-98 0 -133 39t-35 149v215h55v-192q0 -96 20.5 -128t98.5 -32h57q78 0 98.5 32t20.5 128z" />
<glyph unicode="t" horiz-adv-x="323" d="M18 1079v51h99v246h59v-246h129v-51h-129v-821q0 -170 31 -258h-68q-23 66 -22 229v850h-99z" />
<glyph unicode="u" horiz-adv-x="618" d="M514 190q0 -123 12 -190h-55q-10 37 -10 111q-37 -121 -166 -121h-35q-92 0 -126 38t-34 140v962h60v-937q0 -90 19.5 -121t90.5 -31h49q135 0 136 197v892h59v-940z" />
<glyph unicode="v" horiz-adv-x="530" d="M82 1130l106 -585q74 -416 80 -498q10 121 80 498l109 585h53l-209 -1130h-74l-207 1130h62z" />
<glyph unicode="w" horiz-adv-x="833" d="M360 604l-96 -604h-76l-165 1130h61l84 -585q53 -367 63 -498q12 160 66 494l96 589h58l96 -589q49 -309 63 -494q10 131 64 498l84 585h53l-166 -1130h-72l-96 604q-43 262 -57 443q-9 -132 -60 -443z" />
<glyph unicode="x" horiz-adv-x="516" d="M397 1044l31 86h53l-190 -540l198 -590h-61l-41 123q-104 309 -135 418q-33 -125 -131 -418l-41 -123h-53l196 590l-190 540h61l31 -88q106 -301 137 -409q29 112 135 411z" />
<glyph unicode="y" horiz-adv-x="530" d="M272 -145q-20 -115 -139 -115h-70v51h68q43 0 62.5 18.5t27.5 57.5l15 86l-216 1177h62l106 -585q74 -416 80 -498q10 129 80 498l109 585h53z" />
<glyph unicode="z" horiz-adv-x="471" d="M70 1079v51h350v-51l-305 -1028h305v-51h-367v51l305 1028h-288z" />
<glyph unicode="{" horiz-adv-x="423" d="M27 629h-7v51h7q70 0 91 26.5t21 118.5v441q0 111 35 149.5t133 38.5h66v-51h-56q-78 0 -98 -32t-20 -128v-412q0 -82 -17.5 -122.5t-62.5 -55.5q45 -14 62.5 -55t17.5 -121v-409q0 -96 20.5 -128t97.5 -32h56v-51h-66q-98 0 -133 38.5t-35 149.5v438q0 90 -21 118 t-91 28z" />
<glyph unicode="|" d="M334 1434v-1694h-60v1694h60z" />
<glyph unicode="}" horiz-adv-x="423" d="M403 629h-6q-70 0 -91 -28t-21 -118v-438q0 -111 -35 -149.5t-133 -38.5h-66v51h55q78 0 98.5 31.5t20.5 128.5v409q0 80 17.5 121t62.5 55q-45 14 -62.5 55.5t-17.5 122.5v412q0 96 -20.5 128t-98.5 32h-55v51h66q98 0 133 -39t35 -149v-441q0 -92 21.5 -118.5 t90.5 -26.5h6v-51z" />
<glyph unicode="~" d="M518 793v-80q-51 -76 -106 -76q-39 0 -112 45t-105 45q-59 0 -103 -90v80q47 74 107 74q39 0 110.5 -44.5t106.5 -44.5q59 1 102 91z" />
<glyph unicode="&#xa1;" horiz-adv-x="272" d="M104 199l21 725h22l21 -725v-459h-64v459zM174 1174v-132h-76v132h76z" />
<glyph unicode="&#xa2;" d="M455 352v234h55v-256q0 -111 -35 -150t-133 -39h-10v-141h-51v141h-13q-98 0 -133 39t-35 150v776q0 109 35 147.5t133 38.5h13v142h51v-142h10q98 0 133 -39t35 -147v-238h-55v213q0 96 -20.5 128t-98.5 32h-57q-78 0 -98.5 -31.5t-20.5 -128.5v-729q0 -96 20.5 -127.5 t98.5 -31.5h57q78 0 98.5 31.5t20.5 127.5z" />
<glyph unicode="&#xa3;" d="M483 463h-192q-6 -223 -154 -408h367v-55h-424v55q147 184 153 408h-133v55h131q-6 55 -40.5 158.5t-65.5 234.5t-31 269v69q0 115 36 155t140 40h70q104 0 140 -40t36 -155v-366h-55v344q0 96 -21.5 129t-103.5 33h-57q-82 0 -103.5 -33t-21.5 -129v-47 q0 -135 30.5 -264.5t64.5 -235t40 -162.5h194v-55z" />
<glyph unicode="&#xa4;" d="M141 715q0 51 31 96l-88 84l41 41l82 -88q43 33 96 33q57 0 98 -35l86 90l39 -41l-90 -84q33 -43 33 -96q0 -49 -31 -94l88 -82l-39 -41l-84 88q-45 -33 -100 -33q-53 0 -96 33l-82 -88l-41 41l88 82q-31 39 -31 94zM186 715q0 -47 35 -82t82 -35q49 0 85 35t36 82 q0 49 -36 85t-85 36q-47 0 -82 -36t-35 -85z" />
<glyph unicode="&#xa5;" d="M385 971l107 463h53l-207 -887v-17h188v-55h-188v-149h188v-56h-188v-270h-59v270h-195v56h195v149h-195v55h195v17l-211 887h59l113 -465q59 -244 71 -355q15 109 74 357z" />
<glyph unicode="&#xa6;" d="M334 1434v-756h-60v756h60zM334 498v-758h-60v758h60z" />
<glyph unicode="&#xa7;" horiz-adv-x="575" d="M137 2q0 -96 20.5 -128t98.5 -32h57q78 0 98.5 32t20.5 128v43q0 78 -28.5 124t-131.5 128q-115 92 -152.5 153.5t-37.5 143.5v186q0 74 27.5 115t99.5 49q-76 68 -100.5 120t-24.5 124v69q0 109 35 148t133 39h74q98 0 133 -39t35 -148v-155h-56v131q0 96 -20.5 128 t-98.5 32h-57q-78 0 -98.5 -32t-20.5 -128v-43q0 -78 29 -124t131 -128q115 -92 153 -153.5t38 -143.5v-186q0 -76 -29 -116t-98 -48q74 -68 99.5 -120t25.5 -124v-70q0 -109 -35 -147.5t-133 -38.5h-74q-98 0 -133 39t-35 147v156h55v-131zM260 899q-76 0 -97.5 -30.5 t-21.5 -104.5v-168q0 -78 31 -125t141 -135q78 0 99.5 30.5t21.5 104.5v168q0 78 -30.5 125t-143.5 135z" />
<glyph unicode="&#xa8;" horiz-adv-x="305" d="M272 1260h-65v90h65v-90zM98 1260h-65v90h65v-90z" />
<glyph unicode="&#xa9;" horiz-adv-x="956" d="M864 1081v-729q0 -193 -71.5 -277.5t-262.5 -84.5h-106q-190 0 -261 85t-71 277v729q0 193 70.5 278t261.5 85h106q190 0 262 -85t72 -278zM150 1081v-729q0 -174 59 -242.5t219 -68.5h100q160 0 219.5 68.5t59.5 242.5v729q0 174 -59.5 243t-219.5 69h-100 q-160 0 -219 -69t-59 -243zM375 1061v-688q0 -61 16.5 -81t69.5 -20h31q53 0 69.5 19.5t16.5 81.5v235h51v-246q0 -80 -30 -109.5t-105 -29.5h-39q-76 0 -106 30t-30 109v711q0 80 30 108.5t106 28.5h39q76 0 105.5 -28.5t29.5 -108.5v-205h-51v193q0 61 -16.5 80.5 t-69.5 19.5h-31q-53 0 -69.5 -19.5t-16.5 -80.5z" />
<glyph unicode="&#xaa;" horiz-adv-x="454" d="M193 1079q94 49 113.5 72t19.5 96v43q0 66 -14.5 86.5t-67.5 20.5h-39q-53 0 -67.5 -20.5t-14.5 -86.5v-116h-47v129q0 84 25.5 112.5t99.5 28.5h49q76 0 101.5 -29t25.5 -112v-531q0 -84 10 -131h-45q-10 35 -10 90q-25 -100 -127 -100h-19q-68 0 -91 27.5t-23 103.5 v112q0 84 21.5 125t99.5 80zM326 811v303q-23 -29 -99 -65q-72 -37 -88 -70t-16 -111v-88q0 -63 13.5 -84.5t62.5 -21.5h34q93 0 93 137zM72 459v53h311v-53h-311z" />
<glyph unicode="&#xab;" horiz-adv-x="505" d="M219 156l-199 409l199 410h57l-198 -410l198 -409h-57zM428 156l-199 409l199 410h57l-198 -410l198 -409h-57z" />
<glyph unicode="&#xac;" d="M461 686h-369v59h426v-253h-57v194z" />
<glyph unicode="&#xad;" horiz-adv-x="382" d="M332 573v-47h-281v47h281z" />
<glyph unicode="&#xae;" horiz-adv-x="956" d="M864 1081v-729q0 -193 -71.5 -277.5t-262.5 -84.5h-106q-190 0 -261 85t-71 277v729q0 193 70.5 278t261.5 85h106q190 0 262 -85t72 -278zM150 1081v-729q0 -174 59 -242.5t219 -68.5h100q160 0 219.5 68.5t59.5 242.5v729q0 174 -59.5 243t-219.5 69h-100 q-160 0 -219 -69t-59 -243zM635 1065v-236q0 -109 -64 -131q63 -23 64 -129v-123q0 -137 20 -217h-61q-14 41 -14 191v151q0 61 -18.5 83t-72.5 22h-108v-447h-55v975h174q76 0 105.5 -29.5t29.5 -109.5zM494 1159h-113v-436h113q53 0 69.5 19.5t16.5 80.5v236 q0 61 -16.5 80.5t-69.5 19.5z" />
<glyph unicode="&#xaf;" horiz-adv-x="305" d="M305 1266h-305v51h305v-51z" />
<glyph unicode="&#xb0;" horiz-adv-x="440" d="M219 1411q72 0 119 -47t47 -117q0 -72 -47 -119t-119 -47q-70 0 -117 47.5t-47 119t46 117.5t118 46zM219 1360q-49 0 -81 -33t-32 -80q0 -49 33 -80.5t80 -31.5q49 0 81 31.5t32 80.5q0 47 -32 80t-81 33z" />
<glyph unicode="&#xb1;" d="M518 487v-57h-426v57h426zM276 1001h56v-194h186v-59h-186v-195h-56v195h-184v59h184v194z" />
<glyph unicode="&#xb2;" horiz-adv-x="460" d="M125 1278v-109h-49v129q0 86 26.5 116t102.5 30h57q78 0 104.5 -30t26.5 -116v-22q0 -43 -8 -83t-16.5 -63.5t-32 -60.5t-31.5 -47l-41 -49q-33 -39 -37 -43q-106 -125 -106 -264v-52h268v-49h-323v94q0 158 122 302q51 59 76 90.5t50.5 92t25.5 120.5v14 q0 72 -15.5 94.5t-74.5 22.5h-35q-59 0 -74.5 -22.5t-15.5 -94.5z" />
<glyph unicode="&#xb3;" horiz-adv-x="460" d="M336 721v164q0 72 -15.5 94t-74.5 22h-113v50h113q59 0 74.5 22.5t15.5 93.5v111q0 72 -15.5 94.5t-74.5 22.5h-35q-59 0 -74.5 -22.5t-15.5 -94.5v-64h-49v84q0 86 27.5 116t103.5 30h55q76 0 103.5 -30t27.5 -116v-133q0 -68 -17.5 -99.5t-62.5 -39.5q45 -8 62.5 -41 t17.5 -100v-185q0 -84 -27.5 -114.5t-103.5 -30.5h-55q-76 0 -103.5 30.5t-27.5 114.5v107h49v-86q0 -70 15.5 -93.5t72.5 -23.5h37q59 0 74.5 22.5t15.5 94.5z" />
<glyph unicode="&#xb4;" horiz-adv-x="305" d="M86 1192l100 225h74l-131 -225h-43z" />
<glyph unicode="&#xb5;" horiz-adv-x="618" d="M160 1130v-937q0 -90 19.5 -121t90.5 -31h49q135 0 136 197v892h59v-940q0 -123 12 -190h-55q-10 37 -10 111q-37 -121 -166 -121h-35q-63 0 -100 16v-266h-60v1390h60z" />
<glyph unicode="&#xb6;" horiz-adv-x="731" d="M360 1378v-1577h-63v613h-59q-113 0 -153 43t-40 166v602q0 123 40 166t153 43h380v-1633h-63v1577h-195z" />
<glyph unicode="&#xb7;" horiz-adv-x="305" d="M115 651v131h75v-131h-75z" />
<glyph unicode="&#xb8;" horiz-adv-x="305" d="M213 -172q0 45 -16.5 61.5t-69.5 10.5v120h25v-81q106 0 106 -99q0 -33 -5 -53t-29.5 -38.5t-71.5 -18.5q-63 0 -84 26.5t-21 83.5h49q-4 -45 6.5 -61.5t49.5 -16.5q37 0 49 14.5t12 51.5z" />
<glyph unicode="&#xb9;" horiz-adv-x="274" d="M164 565h-53v842q27 0 26 27h27v-869z" />
<glyph unicode="&#xba;" horiz-adv-x="452" d="M76 459v53h305v-53h-305zM76 774v529q0 84 24.5 112.5t98.5 28.5h55q76 0 101.5 -29t25.5 -112v-529q0 -84 -25.5 -113.5t-101.5 -29.5h-55q-74 0 -98.5 29.5t-24.5 113.5zM330 784v506q0 66 -14.5 86.5t-67.5 20.5h-39q-53 0 -67.5 -20.5t-14.5 -86.5v-506 q0 -66 14.5 -86t67.5 -20h39q53 0 67.5 20t14.5 86z" />
<glyph unicode="&#xbb;" horiz-adv-x="505" d="M485 565l-198 -409h-58l199 409l-199 410h58zM276 565l-198 -409h-58l199 409l-199 410h58z" />
<glyph unicode="&#xbc;" horiz-adv-x="804" d="M160 0l336 1434h45l-336 -1434h-45zM164 565h-53v842q27 0 26 27h27v-869zM645 868h49v-653h60v-49h-60v-166h-53v166h-246v49zM444 215h197v104q0 244 6 459q-74 -231 -162 -459z" />
<glyph unicode="&#xbd;" horiz-adv-x="858" d="M160 0l336 1434h45l-336 -1434h-45zM164 565h-53v842q27 0 26 27h27v-869zM522 713v-109h-49v129q0 86 26.5 116t102.5 30h57q78 0 105 -30t27 -116v-22q0 -43 -8.5 -83t-16.5 -63.5t-31.5 -60.5t-32.5 -47l-40 -49q-33 -39 -37 -43q-106 -125 -107 -265v-51h268v-49 h-323v94q0 158 123 301q51 59 75.5 91t50 92.5t25.5 119.5v15q0 72 -15 94t-75 22h-35q-59 0 -74.5 -22t-15.5 -94z" />
<glyph unicode="&#xbe;" horiz-adv-x="962" d="M317 0l336 1434h45l-336 -1434h-45zM803 868h49v-653h59v-49h-59v-166h-53v166h-246v49zM602 215h197v104q0 244 6 459q-74 -231 -162 -459zM336 721v164q0 72 -15.5 94t-74.5 22h-113v50h113q59 0 74.5 22.5t15.5 93.5v111q0 72 -15.5 94.5t-74.5 22.5h-35 q-59 0 -74.5 -22.5t-15.5 -94.5v-64h-49v84q0 86 27.5 116t103.5 30h55q76 0 103.5 -30t27.5 -116v-133q0 -68 -17.5 -99.5t-62.5 -39.5q45 -8 62.5 -41t17.5 -100v-185q0 -84 -27.5 -114.5t-103.5 -30.5h-55q-76 0 -103.5 30.5t-27.5 114.5v107h49v-86q0 -70 15.5 -93.5 t72.5 -23.5h37q59 0 74.5 22.5t15.5 94.5z" />
<glyph unicode="&#xbf;" horiz-adv-x="548" d="M354 1174v-218h-73v218h73zM123 6v-59q0 -96 21.5 -129t103.5 -33h57q82 0 103.5 32.5t21.5 129.5v303h55v-326q0 -115 -35.5 -154.5t-140.5 -39.5h-69q-104 0 -140.5 40t-36.5 154v70q0 125 24 215t57 142l68 102q34 49 57.5 125.5t23.5 183.5v63h49v-43 q0 -121 -22.5 -208t-54.5 -138l-64 -102q-33 -51 -55.5 -133t-22.5 -195z" />
<glyph unicode="&#xc0;" horiz-adv-x="587" d="M483 0l-39 254h-313l-37 -254h-55l211 1434h86l211 -1434h-64zM215 819l-76 -510h297l-74 510q-66 467 -73 533q-23 -195 -74 -533zM240 1704l100 -225h-43l-131 225h74z" />
<glyph unicode="&#xc1;" horiz-adv-x="587" d="M483 0l-39 254h-313l-37 -254h-55l211 1434h86l211 -1434h-64zM215 819l-76 -510h297l-74 510q-66 467 -73 533q-23 -195 -74 -533zM248 1479l100 225h74l-131 -225h-43z" />
<glyph unicode="&#xc2;" horiz-adv-x="587" d="M483 0l-39 254h-313l-37 -254h-55l211 1434h86l211 -1434h-64zM215 819l-76 -510h297l-74 510q-66 467 -73 533q-23 -195 -74 -533zM317 1704l125 -225h-45l-104 161l-105 -161h-45l123 225h51z" />
<glyph unicode="&#xc3;" horiz-adv-x="587" d="M483 0l-39 254h-313l-37 -254h-55l211 1434h86l211 -1434h-64zM215 819l-76 -510h297l-74 510q-66 467 -73 533q-23 -195 -74 -533zM410 1634h43q0 -61 -19.5 -85.5t-64.5 -24.5q-41 0 -90.5 28.5t-67.5 28.5q-23 0 -29 -13.5t-6 -47.5h-43q0 59 19.5 84.5t64.5 25.5 q41 0 90 -28.5t68 -28.5q23 0 29 13t6 48z" />
<glyph unicode="&#xc4;" horiz-adv-x="587" d="M483 0l-39 254h-313l-37 -254h-55l211 1434h86l211 -1434h-64zM215 819l-76 -510h297l-74 510q-66 467 -73 533q-23 -195 -74 -533zM412 1546h-66v90h66v-90zM238 1546h-66v90h66v-90z" />
<glyph unicode="&#xc5;" horiz-adv-x="587" d="M483 0l-39 254h-313l-37 -254h-55l211 1434h86l211 -1434h-64zM215 819l-76 -510h297l-74 510q-66 467 -73 533q-23 -195 -74 -533zM350 1591.5q0 22.5 -17.5 39t-40 16.5t-39.5 -16.5t-17 -39t17 -39t39.5 -16.5t40 16.5t17.5 39zM195 1591q0 41 27.5 69t70.5 28 t70.5 -28t27.5 -69t-27.5 -68.5t-70.5 -27.5t-70.5 27.5t-27.5 68.5z" />
<glyph unicode="&#xc6;" horiz-adv-x="774" d="M23 0l313 1434h381v-56h-289v-596h254v-55h-254v-672h289v-55h-352v254h-232l-55 -254h-55zM256 819l-111 -510h220v1026z" />
<glyph unicode="&#xc7;" horiz-adv-x="649" d="M381 -172q0 45 -16.5 61.5t-69.5 10.5v90h-4q-113 0 -153 43t-40 166v1036q0 123 40 166t153 43h74q113 0 151.5 -43t38.5 -166v-297h-59v274q0 106 -22.5 141.5t-111.5 35.5h-67q-88 0 -110.5 -35t-22.5 -142v-991q0 -106 22.5 -141t110.5 -35h67q88 0 111 35t23 141 v336h59v-358q0 -123 -39 -166t-151 -43h-46v-51q106 0 107 -99q0 -33 -5 -53t-29.5 -38.5t-72.5 -18.5q-63 0 -83.5 26.5t-20.5 83.5h49q-4 -45 6.5 -61.5t48.5 -16.5q37 0 49.5 14.5t12.5 51.5z" />
<glyph unicode="&#xc8;" horiz-adv-x="522" d="M176 1378v-596h254v-55h-254v-672h289v-55h-352v1434h352v-56h-289zM238 1704l100 -225h-43l-131 225h74z" />
<glyph unicode="&#xc9;" horiz-adv-x="522" d="M176 1378v-596h254v-55h-254v-672h289v-55h-352v1434h352v-56h-289zM246 1479l100 225h74l-131 -225h-43z" />
<glyph unicode="&#xca;" horiz-adv-x="522" d="M176 1378v-596h254v-55h-254v-672h289v-55h-352v1434h352v-56h-289zM315 1704l125 -225h-45l-104 161l-105 -161h-45l123 225h51z" />
<glyph unicode="&#xcb;" horiz-adv-x="522" d="M176 1378v-596h254v-55h-254v-672h289v-55h-352v1434h352v-56h-289zM410 1546h-66v90h66v-90zM236 1546h-66v90h66v-90z" />
<glyph unicode="&#xcc;" horiz-adv-x="288" d="M113 0v1434h63v-1434h-63zM90 1704l100 -225h-43l-131 225h74z" />
<glyph unicode="&#xcd;" horiz-adv-x="288" d="M113 0v1434h63v-1434h-63zM98 1479l101 225h73l-131 -225h-43z" />
<glyph unicode="&#xce;" horiz-adv-x="288" d="M113 0v1434h63v-1434h-63zM170 1704l125 -225h-45l-105 161l-104 -161h-45l123 225h51z" />
<glyph unicode="&#xcf;" horiz-adv-x="288" d="M113 0v1434h63v-1434h-63zM264 1546h-65v90h65v-90zM90 1546h-65v90h65v-90z" />
<glyph unicode="&#xd0;" horiz-adv-x="671" d="M113 0v729h-66v51h66v654h268q113 0 152.5 -43t39.5 -166v-1016q0 -123 -39.5 -166t-152.5 -43h-268zM176 55h201q88 0 110.5 35t22.5 141v971q0 106 -22.5 141t-110.5 35h-201v-598h176v-51h-176v-674z" />
<glyph unicode="&#xd1;" horiz-adv-x="677" d="M498 0l-287 1128q-14 59 -49 222q6 -197 6 -226v-1124h-57v1434h86l270 -1074q14 -59 49 -221q-6 197 -6 226v1069h57v-1434h-69zM455 1634h43q0 -61 -19.5 -85.5t-64.5 -24.5q-41 0 -90.5 28.5t-67.5 28.5q-23 0 -29 -13.5t-6 -47.5h-43q0 59 19.5 84.5t64.5 25.5 q41 0 90 -28.5t68 -28.5q23 0 29 13t6 48z" />
<glyph unicode="&#xd2;" horiz-adv-x="657" d="M98 199v1036q0 123 40 166t153 43h76q113 0 152.5 -43t39.5 -166v-1036q0 -123 -40 -166t-152 -43h-76q-113 0 -153 43t-40 166zM496 221v991q0 106 -22.5 141.5t-111.5 35.5h-67q-88 0 -110.5 -35t-22.5 -142v-991q0 -106 22.5 -141t110.5 -35h67q88 0 111 35t23 141z M274 1704l101 -225h-43l-131 225h73z" />
<glyph unicode="&#xd3;" horiz-adv-x="657" d="M98 199v1036q0 123 40 166t153 43h76q113 0 152.5 -43t39.5 -166v-1036q0 -123 -40 -166t-152 -43h-76q-113 0 -153 43t-40 166zM496 221v991q0 106 -22.5 141.5t-111.5 35.5h-67q-88 0 -110.5 -35t-22.5 -142v-991q0 -106 22.5 -141t110.5 -35h67q88 0 111 35t23 141z M283 1479l100 225h74l-131 -225h-43z" />
<glyph unicode="&#xd4;" horiz-adv-x="657" d="M98 199v1036q0 123 40 166t153 43h76q113 0 152.5 -43t39.5 -166v-1036q0 -123 -40 -166t-152 -43h-76q-113 0 -153 43t-40 166zM496 221v991q0 106 -22.5 141.5t-111.5 35.5h-67q-88 0 -110.5 -35t-22.5 -142v-991q0 -106 22.5 -141t110.5 -35h67q88 0 111 35t23 141z M352 1704l125 -225h-45l-104 161l-105 -161h-45l123 225h51z" />
<glyph unicode="&#xd5;" horiz-adv-x="657" d="M98 199v1036q0 123 40 166t153 43h76q113 0 152.5 -43t39.5 -166v-1036q0 -123 -40 -166t-152 -43h-76q-113 0 -153 43t-40 166zM496 221v991q0 106 -22.5 141.5t-111.5 35.5h-67q-88 0 -110.5 -35t-22.5 -142v-991q0 -106 22.5 -141t110.5 -35h67q88 0 111 35t23 141z M444 1634h43q0 -61 -19 -85.5t-65 -24.5q-43 0 -92 28.5t-65 28.5q-23 0 -29 -13.5t-6 -47.5h-43q0 59 19.5 84.5t64.5 25.5q43 0 92 -28.5t66 -28.5q23 0 28.5 13t5.5 48z" />
<glyph unicode="&#xd6;" horiz-adv-x="657" d="M98 199v1036q0 123 40 166t153 43h76q113 0 152.5 -43t39.5 -166v-1036q0 -123 -40 -166t-152 -43h-76q-113 0 -153 43t-40 166zM496 221v991q0 106 -22.5 141.5t-111.5 35.5h-67q-88 0 -110.5 -35t-22.5 -142v-991q0 -106 22.5 -141t110.5 -35h67q88 0 111 35t23 141z M446 1546h-65v90h65v-90zM272 1546h-65v90h65v-90z" />
<glyph unicode="&#xd7;" d="M266 717l-160 170l39 41l160 -170l160 170l39 -41l-162 -170l162 -168l-39 -39l-160 168l-160 -168l-39 39z" />
<glyph unicode="&#xd8;" horiz-adv-x="657" d="M98 199v1036q0 123 40 166t153 43h76q78 0 118 -21l19 72h55l-29 -111q29 -45 29 -149v-1036q0 -123 -40 -166t-152 -43h-76q-76 0 -119 18l-18 -69h-56l27 108q-27 43 -27 152zM162 184l307 1174q-25 31 -107 31h-67q-88 0 -110.5 -35t-22.5 -142v-1028zM496 221v1028 l-308 -1175q27 -29 107 -29h67q88 0 111 35t23 141z" />
<glyph unicode="&#xd9;" horiz-adv-x="671" d="M172 1434v-1213q0 -106 22.5 -141t110.5 -35h68q88 0 110.5 35t22.5 141v1213h59v-1235q0 -123 -39 -166t-151 -43h-74q-113 0 -152.5 43t-39.5 166v1235h63zM281 1704l100 -225h-43l-131 225h74z" />
<glyph unicode="&#xda;" horiz-adv-x="671" d="M172 1434v-1213q0 -106 22.5 -141t110.5 -35h68q88 0 110.5 35t22.5 141v1213h59v-1235q0 -123 -39 -166t-151 -43h-74q-113 0 -152.5 43t-39.5 166v1235h63zM289 1479l100 225h74l-131 -225h-43z" />
<glyph unicode="&#xdb;" horiz-adv-x="671" d="M172 1434v-1213q0 -106 22.5 -141t110.5 -35h68q88 0 110.5 35t22.5 141v1213h59v-1235q0 -123 -39 -166t-151 -43h-74q-113 0 -152.5 43t-39.5 166v1235h63zM360 1704l125 -225h-45l-104 161l-105 -161h-45l123 225h51z" />
<glyph unicode="&#xdc;" horiz-adv-x="671" d="M172 1434v-1213q0 -106 22.5 -141t110.5 -35h68q88 0 110.5 35t22.5 141v1213h59v-1235q0 -123 -39 -166t-151 -43h-74q-113 0 -152.5 43t-39.5 166v1235h63zM455 1546h-66v90h66v-90zM281 1546h-66v90h66v-90z" />
<glyph unicode="&#xdd;" horiz-adv-x="542" d="M307 0h-63v545l-226 889h64l119 -463q61 -231 78 -357q10 76 77 359l115 461h55l-219 -881v-553zM233 1479l101 225h74l-132 -225h-43z" />
<glyph unicode="&#xde;" horiz-adv-x="600" d="M113 0v1434h63v-123h186q113 0 153 -43t40 -164v-414q0 -123 -40 -166t-153 -43h-186v-481h-63zM176 537h182q88 0 111 34.5t23 141.5v366q0 109 -23 143.5t-111 34.5h-182v-720z" />
<glyph unicode="&#xdf;" d="M459 1120v113q0 96 -20.5 128t-98.5 32h-59q-72 0 -94.5 -25t-22.5 -119v-1249h-60v1255q0 111 35 150t133 39h78q98 0 133 -39t35 -148v-145q0 -88 -22.5 -128t-79.5 -48q57 -10 79.5 -51t22.5 -125v-572q0 -111 -34.5 -149.5t-133.5 -38.5h-80v51h72q72 0 94.5 24.5 t22.5 117.5v557q0 96 -20.5 127.5t-98.5 31.5h-70v52h70q78 0 98.5 31.5t20.5 127.5z" />
<glyph unicode="&#xe0;" horiz-adv-x="600" d="M256 635q129 63 156.5 97t27.5 138v60q0 96 -20.5 128t-97.5 32h-54q-78 0 -98 -32t-20 -128v-172h-56v196q0 109 35 148t133 39h70q98 0 133 -39t35 -148v-764q0 -123 12 -190h-55q-10 37 -11 111q-37 -121 -165 -121h-35q-92 0 -126 38t-34 140v182q0 119 32 176.5 t138 108.5zM440 238v454q-23 -37 -149 -96q-94 -43 -120 -91t-26 -153v-159q0 -90 19.5 -121t91.5 -31h49q135 0 135 197zM248 1417l100 -225h-43l-131 225h74z" />
<glyph unicode="&#xe1;" horiz-adv-x="600" d="M256 635q129 63 156.5 97t27.5 138v60q0 96 -20.5 128t-97.5 32h-54q-78 0 -98 -32t-20 -128v-172h-56v196q0 109 35 148t133 39h70q98 0 133 -39t35 -148v-764q0 -123 12 -190h-55q-10 37 -11 111q-37 -121 -165 -121h-35q-92 0 -126 38t-34 140v182q0 119 32 176.5 t138 108.5zM440 238v454q-23 -37 -149 -96q-94 -43 -120 -91t-26 -153v-159q0 -90 19.5 -121t91.5 -31h49q135 0 135 197zM256 1192l100 225h74l-131 -225h-43z" />
<glyph unicode="&#xe2;" horiz-adv-x="600" d="M256 635q129 63 156.5 97t27.5 138v60q0 96 -20.5 128t-97.5 32h-54q-78 0 -98 -32t-20 -128v-172h-56v196q0 109 35 148t133 39h70q98 0 133 -39t35 -148v-764q0 -123 12 -190h-55q-10 37 -11 111q-37 -121 -165 -121h-35q-92 0 -126 38t-34 140v182q0 119 32 176.5 t138 108.5zM440 238v454q-23 -37 -149 -96q-94 -43 -120 -91t-26 -153v-159q0 -90 19.5 -121t91.5 -31h49q135 0 135 197zM326 1417l125 -225h-45l-105 162l-104 -162h-45l122 225h52z" />
<glyph unicode="&#xe3;" horiz-adv-x="600" d="M256 635q129 63 156.5 97t27.5 138v60q0 96 -20.5 128t-97.5 32h-54q-78 0 -98 -32t-20 -128v-172h-56v196q0 109 35 148t133 39h70q98 0 133 -39t35 -148v-764q0 -123 12 -190h-55q-10 37 -11 111q-37 -121 -165 -121h-35q-92 0 -126 38t-34 140v182q0 119 32 176.5 t138 108.5zM440 238v454q-23 -37 -149 -96q-94 -43 -120 -91t-26 -153v-159q0 -90 19.5 -121t91.5 -31h49q135 0 135 197zM418 1348h43q0 -61 -19.5 -86t-64.5 -25q-41 0 -90 28.5t-68 28.5q-23 0 -29 -13t-6 -48h-43q0 59 19.5 84.5t64.5 25.5q41 0 90.5 -28.5t67.5 -28.5 q23 0 29 13.5t6 48.5z" />
<glyph unicode="&#xe4;" horiz-adv-x="600" d="M256 635q129 63 156.5 97t27.5 138v60q0 96 -20.5 128t-97.5 32h-54q-78 0 -98 -32t-20 -128v-172h-56v196q0 109 35 148t133 39h70q98 0 133 -39t35 -148v-764q0 -123 12 -190h-55q-10 37 -11 111q-37 -121 -165 -121h-35q-92 0 -126 38t-34 140v182q0 119 32 176.5 t138 108.5zM440 238v454q-23 -37 -149 -96q-94 -43 -120 -91t-26 -153v-159q0 -90 19.5 -121t91.5 -31h49q135 0 135 197zM420 1260h-66v90h66v-90zM246 1260h-66v90h66v-90z" />
<glyph unicode="&#xe5;" horiz-adv-x="600" d="M256 635q129 63 156.5 97t27.5 138v60q0 96 -20.5 128t-97.5 32h-54q-78 0 -98 -32t-20 -128v-172h-56v196q0 109 35 148t133 39h70q98 0 133 -39t35 -148v-764q0 -123 12 -190h-55q-10 37 -11 111q-37 -121 -165 -121h-35q-92 0 -126 38t-34 140v182q0 119 32 176.5 t138 108.5zM440 238v454q-23 -37 -149 -96q-94 -43 -120 -91t-26 -153v-159q0 -90 19.5 -121t91.5 -31h49q135 0 135 197zM358 1304.5q0 22.5 -17 39t-39.5 16.5t-40 -16.5t-17.5 -39t17.5 -39t40 -16.5t39.5 16.5t17 39zM203 1305q0 41 27.5 68.5t70.5 27.5t70.5 -27.5 t27.5 -68.5t-27.5 -69t-70.5 -28t-70.5 28t-27.5 69z" />
<glyph unicode="&#xe6;" horiz-adv-x="940" d="M256 635q129 63 156.5 97t27.5 138v60q0 96 -20.5 128t-97.5 32h-54q-78 0 -98 -32t-20 -128v-172h-56v196q0 109 35 148t133 39h45q80 0 117 -23.5t45 -85.5q10 61 47 85t117 24h49q98 0 133 -39t35 -148v-397h-350v-356q0 -96 20.5 -128t97.5 -32h58q78 0 98.5 31.5 t20.5 128.5v174h55v-197q0 -111 -35 -149.5t-133 -38.5h-74q-82 0 -118.5 24.5t-45.5 89.5q-37 -115 -163 -114h-35q-92 0 -126 38t-34 140v182q0 119 32 176.5t138 108.5zM795 608v322q0 96 -20.5 128t-98.5 32h-58q-78 0 -98 -32t-20 -128v-322h295zM440 238v454 q-23 -37 -149 -96q-94 -43 -120 -91t-26 -153v-159q0 -90 19.5 -121t91.5 -31h49q135 0 135 197z" />
<glyph unicode="&#xe7;" horiz-adv-x="589" d="M354 -172q0 45 -16 61.5t-70 10.5v90h-8q-98 0 -133 39t-35 149v776q0 109 35 148t133 39h74q98 0 133 -39t35 -148v-237h-56v213q0 96 -20 128t-98 32h-58q-78 0 -98 -32t-20 -128v-729q0 -96 20.5 -128t97.5 -32h58q78 0 98 31.5t20 128.5v233h56v-256 q0 -111 -35 -149.5t-133 -38.5h-41v-51q106 0 106 -99q0 -33 -5 -53t-29.5 -38.5t-71.5 -18.5q-63 0 -84 26.5t-21 83.5h50q-4 -45 6 -61.5t49 -16.5q37 0 49 14.5t12 51.5z" />
<glyph unicode="&#xe8;" horiz-adv-x="591" d="M446 201v174h56v-197q0 -111 -35 -149.5t-133 -38.5h-74q-98 0 -133 39t-35 149v776q0 109 35 148t133 39h74q98 0 133 -39t35 -148v-397h-350v-356q0 -96 20.5 -128t97.5 -32h58q78 0 98 32t20 128zM152 930v-322h294v322q0 96 -20 128t-98 32h-58q-78 0 -98 -32 t-20 -128zM248 1417l100 -225h-43l-131 225h74z" />
<glyph unicode="&#xe9;" horiz-adv-x="591" d="M446 201v174h56v-197q0 -111 -35 -149.5t-133 -38.5h-74q-98 0 -133 39t-35 149v776q0 109 35 148t133 39h74q98 0 133 -39t35 -148v-397h-350v-356q0 -96 20.5 -128t97.5 -32h58q78 0 98 32t20 128zM152 930v-322h294v322q0 96 -20 128t-98 32h-58q-78 0 -98 -32 t-20 -128zM256 1192l100 225h74l-131 -225h-43z" />
<glyph unicode="&#xea;" horiz-adv-x="591" d="M446 201v174h56v-197q0 -111 -35 -149.5t-133 -38.5h-74q-98 0 -133 39t-35 149v776q0 109 35 148t133 39h74q98 0 133 -39t35 -148v-397h-350v-356q0 -96 20.5 -128t97.5 -32h58q78 0 98 32t20 128zM152 930v-322h294v322q0 96 -20 128t-98 32h-58q-78 0 -98 -32 t-20 -128zM326 1417l125 -225h-45l-105 162l-104 -162h-45l122 225h52z" />
<glyph unicode="&#xeb;" horiz-adv-x="591" d="M446 201v174h56v-197q0 -111 -35 -149.5t-133 -38.5h-74q-98 0 -133 39t-35 149v776q0 109 35 148t133 39h74q98 0 133 -39t35 -148v-397h-350v-356q0 -96 20.5 -128t97.5 -32h58q78 0 98 32t20 128zM152 930v-322h294v322q0 96 -20 128t-98 32h-58q-78 0 -98 -32 t-20 -128zM420 1260h-66v90h66v-90zM246 1260h-66v90h66v-90z" />
<glyph unicode="&#xec;" horiz-adv-x="268" d="M80 1417l100 -225h-43l-131 225h74zM164 1130v-1130h-60v1130h60z" />
<glyph unicode="&#xed;" horiz-adv-x="268" d="M88 1192l100 225h74l-131 -225h-43zM164 1130v-1130h-60v1130h60z" />
<glyph unicode="&#xee;" horiz-adv-x="268" d="M164 1130v-1130h-60v1130h60zM160 1417l125 -225h-45l-105 162l-104 -162h-45l123 225h51z" />
<glyph unicode="&#xef;" horiz-adv-x="268" d="M254 1260h-66v90h66v-90zM80 1260h-66v90h66v-90zM164 1130v-1130h-60v1130h60z" />
<glyph unicode="&#xf0;" horiz-adv-x="630" d="M506 1237v-1059q0 -111 -35 -149.5t-133 -38.5h-78q-98 0 -133 39t-35 149v785q0 102 34 140t126 38h35q119 0 159 -103v185q0 92 -16 120l-135 -118l-27 32l131 113q-25 12 -71 12h-60v52h62q74 0 116 -25l29 25h55l-57 -52q33 -45 33 -145zM152 201q0 -96 20.5 -128 t97.5 -32h58q78 0 98 31.5t20 128.5v692q0 197 -135 197h-49q-72 0 -91 -31t-19 -121v-737z" />
<glyph unicode="&#xf1;" horiz-adv-x="618" d="M518 0h-59v938q0 90 -19.5 121t-91.5 31h-49q-135 0 -135 -197v-893h-60v1130h54v-110q33 121 166 121h34q92 0 126 -38t34 -140v-963zM428 1348h43q0 -61 -19.5 -86t-64.5 -25q-43 0 -92 28.5t-66 28.5q-23 0 -28.5 -13t-5.5 -48h-43q0 59 19 84.5t65 25.5 q43 0 92 -28.5t65 -28.5q23 0 29 13.5t6 48.5z" />
<glyph unicode="&#xf2;" horiz-adv-x="598" d="M506 954v-776q0 -111 -35 -149.5t-133 -38.5h-78q-98 0 -133 39t-35 149v776q0 109 35 148t133 39h78q98 0 133 -39t35 -148zM152 930v-729q0 -96 20.5 -128t97.5 -32h58q78 0 98 31.5t20 128.5v729q0 96 -20 128t-98 32h-58q-78 0 -98 -32t-20 -128zM244 1417l100 -225 h-43l-131 225h74z" />
<glyph unicode="&#xf3;" horiz-adv-x="598" d="M506 954v-776q0 -111 -35 -149.5t-133 -38.5h-78q-98 0 -133 39t-35 149v776q0 109 35 148t133 39h78q98 0 133 -39t35 -148zM152 930v-729q0 -96 20.5 -128t97.5 -32h58q78 0 98 31.5t20 128.5v729q0 96 -20 128t-98 32h-58q-78 0 -98 -32t-20 -128zM252 1192l100 225 h74l-131 -225h-43z" />
<glyph unicode="&#xf4;" horiz-adv-x="598" d="M506 954v-776q0 -111 -35 -149.5t-133 -38.5h-78q-98 0 -133 39t-35 149v776q0 109 35 148t133 39h78q98 0 133 -39t35 -148zM152 930v-729q0 -96 20.5 -128t97.5 -32h58q78 0 98 31.5t20 128.5v729q0 96 -20 128t-98 32h-58q-78 0 -98 -32t-20 -128zM324 1417l125 -225 h-46l-104 162l-104 -162h-45l122 225h52z" />
<glyph unicode="&#xf5;" horiz-adv-x="598" d="M506 954v-776q0 -111 -35 -149.5t-133 -38.5h-78q-98 0 -133 39t-35 149v776q0 109 35 148t133 39h78q98 0 133 -39t35 -148zM152 930v-729q0 -96 20.5 -128t97.5 -32h58q78 0 98 31.5t20 128.5v729q0 96 -20 128t-98 32h-58q-78 0 -98 -32t-20 -128zM416 1348h43 q0 -61 -19.5 -86t-64.5 -25q-43 0 -92.5 28.5t-65.5 28.5q-23 0 -29 -13t-6 -48h-43q0 59 19.5 84.5t64.5 25.5q43 0 92.5 -28.5t65.5 -28.5q23 0 29 13.5t6 48.5z" />
<glyph unicode="&#xf6;" horiz-adv-x="598" d="M506 954v-776q0 -111 -35 -149.5t-133 -38.5h-78q-98 0 -133 39t-35 149v776q0 109 35 148t133 39h78q98 0 133 -39t35 -148zM152 930v-729q0 -96 20.5 -128t97.5 -32h58q78 0 98 31.5t20 128.5v729q0 96 -20 128t-98 32h-58q-78 0 -98 -32t-20 -128zM418 1260h-66v90h66 v-90zM244 1260h-66v90h66v-90z" />
<glyph unicode="&#xf7;" d="M518 745v-59h-426v59h426zM268 492v79h72v-79h-72zM268 860v80h72v-80h-72z" />
<glyph unicode="&#xf8;" horiz-adv-x="598" d="M506 954v-776q0 -111 -35 -149.5t-133 -38.5h-78q-59 0 -94 12l-19 -63h-55l27 98q-27 41 -27 141v776q0 109 35 148t133 39h78q55 0 92 -13l21 74h55l-31 -106q31 -40 31 -142zM446 930q0 39 -2 55l-262 -924q23 -20 88 -20h58q78 0 98 31.5t20 128.5v729zM152 930v-778 l262 917q-27 20 -86 21h-58q-78 0 -98 -32t-20 -128z" />
<glyph unicode="&#xf9;" horiz-adv-x="618" d="M514 190q0 -123 12 -190h-55q-10 37 -10 111q-37 -121 -166 -121h-35q-92 0 -126 38t-34 140v962h60v-937q0 -90 19.5 -121t90.5 -31h49q135 0 136 197v892h59v-940zM254 1417l100 -225h-43l-131 225h74z" />
<glyph unicode="&#xfa;" horiz-adv-x="618" d="M514 190q0 -123 12 -190h-55q-10 37 -10 111q-37 -121 -166 -121h-35q-92 0 -126 38t-34 140v962h60v-937q0 -90 19.5 -121t90.5 -31h49q135 0 136 197v892h59v-940zM262 1192l100 225h74l-131 -225h-43z" />
<glyph unicode="&#xfb;" horiz-adv-x="618" d="M514 190q0 -123 12 -190h-55q-10 37 -10 111q-37 -121 -166 -121h-35q-92 0 -126 38t-34 140v962h60v-937q0 -90 19.5 -121t90.5 -31h49q135 0 136 197v892h59v-940zM334 1417l125 -225h-45l-105 162l-104 -162h-45l123 225h51z" />
<glyph unicode="&#xfc;" horiz-adv-x="618" d="M514 190q0 -123 12 -190h-55q-10 37 -10 111q-37 -121 -166 -121h-35q-92 0 -126 38t-34 140v962h60v-937q0 -90 19.5 -121t90.5 -31h49q135 0 136 197v892h59v-940zM428 1260h-66v90h66v-90zM254 1260h-66v90h66v-90z" />
<glyph unicode="&#xfd;" horiz-adv-x="530" d="M272 -145q-20 -115 -139 -115h-70v51h68q43 0 62.5 18.5t27.5 57.5l15 86l-216 1177h62l106 -585q74 -416 80 -498q10 129 80 498l109 585h53zM223 1192l101 225h73l-131 -225h-43z" />
<glyph unicode="&#xfe;" d="M459 938q0 90 -19.5 121t-91.5 31h-49q-135 0 -135 -197v-655q0 -197 135 -197h49q72 0 91.5 30.5t19.5 121.5v745zM164 -260h-60v1694h60v-396q37 102 160 103h34q92 0 126 -38t34 -140v-795q0 -102 -33.5 -140t-126.5 -38h-34q-123 0 -160 102v-352z" />
<glyph unicode="&#xff;" horiz-adv-x="530" d="M272 -145q-20 -115 -139 -115h-70v51h68q43 0 62.5 18.5t27.5 57.5l15 86l-216 1177h62l106 -585q74 -416 80 -498q10 129 80 498l109 585h53zM387 1260h-65v90h65v-90zM213 1260h-66v90h66v-90z" />
<glyph unicode="&#x152;" horiz-adv-x="864" d="M518 1378v-596h254v-55h-254v-672h289v-55h-516q-113 0 -153 43t-40 166v1016q0 123 40 166t153 43h516v-56h-289zM295 55h160v1323h-160q-88 0 -110.5 -34.5t-22.5 -141.5v-971q0 -106 22.5 -141t110.5 -35z" />
<glyph unicode="&#x153;" horiz-adv-x="946" d="M801 201v174h55v-197q0 -111 -35 -149.5t-133 -38.5h-49q-80 0 -117 23.5t-47 84.5q-10 -61 -46 -84.5t-116 -23.5h-53q-98 0 -133 39t-35 149v776q0 109 35 148t133 39h53q80 0 117 -23.5t45 -85.5q10 61 47 85t117 24h49q98 0 133 -39t35 -148v-397h-350v-356 q0 -96 20.5 -128t98.5 -32h57q78 0 98.5 32t20.5 128zM152 930v-729q0 -96 20.5 -128t97.5 -32h58q78 0 98 31.5t20 128.5v729q0 96 -20 128t-98 32h-58q-78 0 -98 -32t-20 -128zM506 930v-322h295v322q0 96 -20.5 128t-98.5 32h-57q-78 0 -98.5 -32t-20.5 -128z" />
<glyph unicode="&#x178;" horiz-adv-x="542" d="M307 0h-63v545l-226 889h64l119 -463q61 -231 78 -357q10 76 77 359l115 461h55l-219 -881v-553zM397 1546h-65v90h65v-90zM223 1546h-65v90h65v-90z" />
<glyph unicode="&#x2c6;" horiz-adv-x="305" d="M178 1417l125 -225h-45l-104 162l-105 -162h-45l123 225h51z" />
<glyph unicode="&#x2dc;" horiz-adv-x="305" d="M270 1348h43q0 -61 -19.5 -86t-64.5 -25q-41 0 -90 28.5t-67 28.5q-23 0 -29 -13t-6 -48h-43q0 59 19.5 84.5t64.5 25.5q41 0 90 -28.5t68 -28.5q23 0 28.5 13.5t5.5 48.5z" />
<glyph unicode="&#x2000;" horiz-adv-x="852" />
<glyph unicode="&#x2001;" horiz-adv-x="1704" />
<glyph unicode="&#x2002;" horiz-adv-x="852" />
<glyph unicode="&#x2003;" horiz-adv-x="1704" />
<glyph unicode="&#x2004;" horiz-adv-x="568" />
<glyph unicode="&#x2005;" horiz-adv-x="426" />
<glyph unicode="&#x2006;" horiz-adv-x="284" />
<glyph unicode="&#x2007;" horiz-adv-x="284" />
<glyph unicode="&#x2008;" horiz-adv-x="213" />
<glyph unicode="&#x2009;" horiz-adv-x="340" />
<glyph unicode="&#x200a;" horiz-adv-x="94" />
<glyph unicode="&#x2010;" horiz-adv-x="382" d="M332 573v-47h-281v47h281z" />
<glyph unicode="&#x2011;" horiz-adv-x="382" d="M332 573v-47h-281v47h281z" />
<glyph unicode="&#x2012;" horiz-adv-x="382" d="M332 573v-47h-281v47h281z" />
<glyph unicode="&#x2013;" horiz-adv-x="1024" d="M1024 573v-47h-1024v47h1024z" />
<glyph unicode="&#x2014;" horiz-adv-x="2048" d="M2048 573v-47h-2048v47h2048z" />
<glyph unicode="&#x2018;" horiz-adv-x="305" d="M190 1298v-131h-75v131l57 136l12 -4l-39 -132h45z" />
<glyph unicode="&#x2019;" horiz-adv-x="305" d="M115 1303v131h75v-131l-57 -136l-12 4l39 132h-45z" />
<glyph unicode="&#x201a;" horiz-adv-x="305" d="M115 0v131h75v-131l-57 -135l-12 4l39 131h-45z" />
<glyph unicode="&#x201c;" horiz-adv-x="438" d="M352 1298v-131h-76v131l58 136l12 -4l-39 -132h45zM162 1298v-131h-76v131l57 136l13 -4l-39 -132h45z" />
<glyph unicode="&#x201d;" horiz-adv-x="438" d="M276 1303v131h76v-131l-57 -136l-12 4l39 132h-46zM86 1303v131h76v-131l-58 -136l-12 4l39 132h-45z" />
<glyph unicode="&#x201e;" horiz-adv-x="438" d="M276 0v131h76v-131l-57 -135l-12 4l39 131h-46zM86 0v131h76v-131l-58 -135l-12 4l39 131h-45z" />
<glyph unicode="&#x2022;" horiz-adv-x="530" d="M92 716.5q0 71.5 50.5 123t122 51.5t122.5 -51.5t51 -122.5q0 -70 -51 -120t-122.5 -50t-122 49t-50.5 120.5z" />
<glyph unicode="&#x2026;" horiz-adv-x="628" d="M86 0v131h76v-131h-76zM276 0v131h76v-131h-76zM467 0v131h76v-131h-76z" />
<glyph unicode="&#x202f;" horiz-adv-x="340" />
<glyph unicode="&#x2039;" horiz-adv-x="296" d="M219 156l-199 409l199 410h57l-198 -410l198 -409h-57z" />
<glyph unicode="&#x203a;" horiz-adv-x="296" d="M276 565l-198 -409h-58l199 409l-199 410h58z" />
<glyph unicode="&#x205f;" horiz-adv-x="426" />
<glyph unicode="&#x20ac;" d="M524 829h-362v-149h362v-55h-362v-418q0 -96 21.5 -129t103.5 -33h57q82 0 103.5 33t21.5 129v254h55v-277q0 -115 -35.5 -154.5t-140.5 -39.5h-69q-104 0 -140.5 40t-36.5 154v441h-77v55h77v149h-77v56h77v364q0 115 36 155t141 40h69q104 0 140 -40t36 -155v-200h-55 v178q0 96 -21.5 129t-103.5 33h-57q-82 0 -103.5 -33t-21.5 -129v-342h362v-56z" />
<glyph unicode="&#x2122;" horiz-adv-x="841" d="M592 864l104 570h84v-848h-59v567q0 125 6 209l-33 -209l-106 -567h-45l-113 567q-20 100 -37 217q6 -88 6 -217v-567h-49v848h82l111 -570q20 -113 24 -184q9 84 25 184zM14 1382v52h260v-52h-100v-796h-59v796h-101z" />
<glyph unicode="&#xe000;" horiz-adv-x="1130" d="M0 1130h1130v-1130h-1130v1130z" />
<glyph unicode="&#xfb01;" horiz-adv-x="604" d="M18 1079v51h99v115q0 111 34.5 150t133.5 39h32v-52h-24q-72 0 -94.5 -24.5t-22.5 -118.5v-109h141v-51h-141v-1079h-59v1079h-99zM500 1130v-1130h-60v1130h60zM440 1321v113h60v-113h-60z" />
<glyph unicode="&#xfb02;" horiz-adv-x="604" d="M18 1079v51h99v115q0 111 34.5 150t133.5 39h32v-52h-24q-72 0 -94.5 -24.5t-22.5 -118.5v-109h141v-51h-141v-1079h-59v1079h-99zM500 0h-60v1434h60v-1434z" />
<glyph unicode="&#xfb03;" horiz-adv-x="938" d="M834 1130v-1130h-60v1130h60zM774 1321v113h60v-113h-60zM353 1079v51h99v115q0 111 34.5 150t133.5 39h32v-52h-24q-72 0 -94.5 -24.5t-22.5 -118.5v-109h141v-51h-141v-1079h-59v1079h-99zM18 1079v51h99v115q0 111 34.5 150t133.5 39h32v-52h-24q-72 0 -94.5 -24.5 t-22.5 -118.5v-109h141v-51h-141v-1079h-59v1079h-99z" />
<glyph unicode="&#xfb04;" horiz-adv-x="938" d="M834 0h-60v1434h60v-1434zM353 1079v51h99v115q0 111 34.5 150t133.5 39h32v-52h-24q-72 0 -94.5 -24.5t-22.5 -118.5v-109h141v-51h-141v-1079h-59v1079h-99zM18 1079v51h99v115q0 111 34.5 150t133.5 39h32v-52h-24q-72 0 -94.5 -24.5t-22.5 -118.5v-109h141v-51h-141 v-1079h-59v1079h-99z" />
</font>
</defs>
</svg>
