<?xml version="1.0" standalone="no"?>
<!DOCTYPE svg PUBLIC "-//W3C//DTD SVG 1.1//EN" "http://www.w3.org/Graphics/SVG/1.1/DTD/svg11.dtd" >
<svg xmlns="http://www.w3.org/2000/svg">
<metadata>
This is a custom SVG webfont generated by Fontspring.
</metadata>
<defs>
<font id="DharmaGothicEThinItalic" horiz-adv-x="610" >
<font-face units-per-em="2048" ascent="1638" descent="-410" />
<missing-glyph horiz-adv-x="282" />
<glyph unicode=" "  horiz-adv-x="282" />
<glyph unicode="&#x09;" horiz-adv-x="282" />
<glyph unicode="&#xa0;" horiz-adv-x="282" />
<glyph unicode="!" horiz-adv-x="272" d="M225 975l-121 -725h-22l80 725l65 459h64zM20 0l17 131h76l-17 -131h-76z" />
<glyph unicode="&#x22;" horiz-adv-x="364" d="M408 1307l-46 -242h-34l22 242l19 127h57zM225 1307l-45 -242h-35l23 242l18 127h58z" />
<glyph unicode="#" d="M645 1434l-55 -260h86l-12 -56h-86l-158 -753h86l-10 -56h-88l-64 -309h-59l63 309h-221l-64 -309h-59l64 309h-82l10 56h84l158 753h-86l12 56h86l55 260h60l-56 -260h221l56 260h59zM297 1118l-158 -753h221l158 753h-221z" />
<glyph unicode="$" d="M244 -51h-51l12 92h-6q-104 0 -135 40t-15 155l41 305h55l-39 -283q-12 -96 4.5 -129t98.5 -33h57q82 0 108.5 33t39.5 129l20 143q10 80 -13.5 137.5t-115.5 157.5q-104 113 -131 180.5t-12 163.5l22 158q16 113 58.5 154t146.5 41h6l13 92h51l-13 -92h11q104 0 135 -41 t14 -154l-39 -276h-55l35 254q12 96 -4.5 128.5t-98.5 32.5h-57q-82 0 -108.5 -32.5t-38.5 -128.5l-21 -144q-10 -80 14.5 -139t114.5 -156q106 -115 133 -181.5t13 -162.5l-23 -157q-16 -115 -58 -155t-147 -40h-10z" />
<glyph unicode="%" horiz-adv-x="1015" d="M238 0l536 1434h49l-536 -1434h-49zM565 135l84 598q10 86 43 116t111 30h57q76 0 98.5 -30t12.5 -116l-84 -598q-12 -84 -44 -114.5t-108 -30.5h-57q-78 0 -101.5 30.5t-11.5 114.5zM698 713l-77 -557q-10 -72 2 -94.5t71 -22.5h35q59 0 77.5 22.5t29.5 94.5l77 557 q10 72 -2 94t-71 22h-35q-59 0 -78 -22t-29 -94zM90 700l84 598q10 86 43 116t111 30h57q76 0 98.5 -30t12.5 -116l-84 -598q-12 -84 -44 -114.5t-108 -30.5h-57q-78 0 -101.5 30.5t-11.5 114.5zM223 1278l-78 -557q-10 -72 2.5 -94.5t71.5 -22.5h35q59 0 77.5 22.5 t28.5 94.5l78 557q10 72 -2 94.5t-71 22.5h-35q-59 0 -78 -22.5t-29 -94.5z" />
<glyph unicode="&#x26;" horiz-adv-x="659" d="M399 0q-8 35 0 125q-51 -135 -192 -135h-37q-98 0 -128 39t-15 145l57 401q14 96 44 141.5t93 59.5q-59 14 -76.5 59.5t-3.5 143.5l35 246q16 123 61.5 166t157.5 43h180l-8 -56h-174q-88 0 -115.5 -34.5t-41.5 -141.5l-31 -221q-10 -66 -7 -104.5t28.5 -55t86.5 -16.5 h172l33 225h60l-33 -225h131l-8 -55h-131l-68 -492q-20 -164 -8 -258h-62zM147 573l-53 -372q-16 -86 0.5 -123t89.5 -37h54q141 0 172 209l69 500h-174q-88 0 -116 -35.5t-42 -141.5z" />
<glyph unicode="'" horiz-adv-x="305" d="M287 1307l-45 -242h-35l22 242l19 127h57z" />
<glyph unicode="(" horiz-adv-x="389" d="M27 45l170 1221q16 111 56 149.5t138 38.5h66l-6 -51h-56q-78 0 -103.5 -33t-37.5 -127l-166 -1175q-12 -96 3 -128t93 -32h56l-7 -51h-65q-98 0 -127.5 38.5t-13.5 149.5z" />
<glyph unicode=")" horiz-adv-x="389" d="M389 1266l-170 -1221q-16 -111 -56 -149.5t-138 -38.5h-66l6 51h55q78 0 104 32.5t38 127.5l166 1175q12 96 -3.5 128t-93.5 32h-55l6 51h66q98 0 127.5 -38.5t13.5 -149.5z" />
<glyph unicode="*" horiz-adv-x="516" d="M92 1071l232 105l-203 104l37 49l176 -137l18 242h58l-56 -242l219 137l23 -49l-234 -104l205 -105l-37 -49l-178 135l-16 -239h-57l51 239l-215 -135z" />
<glyph unicode="+" d="M330 940h55l-27 -195h187l-8 -59h-187l-28 -194h-56l29 194h-184l8 59h184z" />
<glyph unicode="," horiz-adv-x="305" d="M37 0l16 131h76l-16 -131l-78 -135l-10 4l57 131h-45z" />
<glyph unicode="-" horiz-adv-x="382" d="M334 573l-6 -47h-281l6 47h281z" />
<glyph unicode="." horiz-adv-x="305" d="M37 0l16 131h76l-16 -131h-76z" />
<glyph unicode="/" d="M-37 -41l672 1516h59l-671 -1516h-60z" />
<glyph unicode="0" d="M614 1249l-149 -1065q-16 -115 -57 -154.5t-146 -39.5h-74q-102 0 -133.5 40t-15.5 154l149 1065q16 115 59.5 155t145.5 40h74q104 0 133.5 -40t13.5 -155zM246 1227l-144 -1020q-14 -96 3.5 -129t99.5 -33h57q82 0 107.5 32t40.5 130l143 1020q12 96 -4.5 129t-97.5 33 h-58q-82 0 -108.5 -33t-38.5 -129z" />
<glyph unicode="1" horiz-adv-x="282" d="M96 0h-59l196 1401q10 0 21.5 10t13.5 23h29z" />
<glyph unicode="2" horiz-adv-x="579" d="M541 1196l4 31q12 96 -4.5 129t-98.5 33h-57q-82 0 -108.5 -33t-38.5 -129l-43 -303h-56l45 325q16 115 58.5 155t146.5 40h70q104 0 134 -40t13 -155l-8 -63q-23 -154 -71 -248t-199 -276q-129 -156 -174 -244t-66 -234l-18 -129h379l-7 -55h-438l27 195q20 152 68 246 t202 278q131 158 175.5 246t64.5 231z" />
<glyph unicode="3" horiz-adv-x="589" d="M233 1227l-34 -240h-56l37 262q16 115 58.5 155t146.5 40h70q104 0 133.5 -40t13.5 -155l-43 -307q-12 -90 -39.5 -132t-83.5 -56q53 -12 67.5 -54.5t2.5 -132.5l-53 -383q-16 -115 -57.5 -154.5t-145.5 -39.5h-70q-104 0 -135 40t-14 154l47 338h55l-43 -315 q-12 -96 4.5 -129t98.5 -33h57q82 0 107.5 32t39.5 130l49 358q12 96 -4 129t-98 33h-182l8 55h182q82 0 108.5 33t39.5 129l41 283q12 96 -4.5 129t-98.5 33h-57q-84 0 -110 -32t-38 -130z" />
<glyph unicode="4" horiz-adv-x="559" d="M469 1432h72l-154 -1084h133l-6 -55h-133l-41 -293h-59l41 293h-345l7 55zM39 348h289l67 471q49 344 82 522l-225 -522z" />
<glyph unicode="5" horiz-adv-x="593" d="M410 1044h-54q-143 0 -170 -206l-20 -152h-55l104 748h403l-8 -56h-348l-55 -391q57 109 182 109h35q98 0 127 -39t12 -148l-102 -725q-16 -115 -58.5 -154.5t-146.5 -39.5h-68q-102 0 -133.5 40t-15.5 154l47 338h55l-43 -315q-12 -96 4.5 -129t98.5 -33h57 q82 0 108.5 33t39.5 129l94 680q16 84 0 120.5t-90 36.5z" />
<glyph unicode="6" horiz-adv-x="602" d="M553 807l-88 -623q-16 -115 -57 -154.5t-146 -39.5h-74q-104 0 -134.5 40t-14.5 154l149 1065q16 115 58.5 155t146.5 40h68q104 0 135 -40t14 -155l-24 -172h-56l23 150q12 96 -4.5 129t-97.5 33h-58q-82 0 -108.5 -33t-38.5 -129l-49 -342q57 109 182 108h35 q98 0 126.5 -38.5t12.5 -147.5zM399 942h-53q-139 0 -170 -207l-74 -528q-14 -96 3.5 -129t99.5 -33h57q82 0 108.5 33t39.5 129l79 577q16 84 0 121t-90 37z" />
<glyph unicode="7" horiz-adv-x="466" d="M115 0h-66l457 1378h-375l8 56h434l-6 -50z" />
<glyph unicode="8" horiz-adv-x="593" d="M252 -10h-70q-104 0 -136 40t-15 154l57 404q10 88 38 130t85 56q-53 14 -68.5 55t-3.5 132l41 288q16 115 59.5 155t147.5 40h70q104 0 135 -40t14 -155l-41 -288q-12 -88 -39.5 -130.5t-83.5 -56.5q53 -14 67.5 -56t4.5 -130l-57 -404q-16 -115 -58.5 -154.5 t-146.5 -39.5zM401 207l54 379q12 96 -4.5 129t-98.5 33h-57q-82 0 -108.5 -33t-39.5 -129l-53 -379q-14 -96 3.5 -129t99.5 -33h57q82 0 107.5 32t39.5 130zM508 965l37 262q12 96 -4.5 129t-98.5 33h-57q-82 0 -108.5 -33t-38.5 -129l-37 -262q-14 -96 3 -129t99 -33h57 q82 0 108 32t40 130z" />
<glyph unicode="9" horiz-adv-x="602" d="M254 45q82 0 107.5 32t39.5 130l52 362q-55 -109 -183 -108h-34q-98 0 -127 39t-13 147l84 602q16 115 58.5 155t146.5 40h74q104 0 134 -40t13 -155l-149 -1065q-16 -115 -57.5 -154.5t-145.5 -39.5h-68q-104 0 -136 40t-15 154l26 193h56l-23 -170q-14 -96 3.5 -129 t99.5 -33h57zM238 1227l-80 -557q-12 -92 3 -125t89 -33h53q139 0 170 207l72 508q12 96 -4.5 129t-98.5 33h-57q-82 0 -108.5 -33t-38.5 -129z" />
<glyph unicode=":" horiz-adv-x="305" d="M156 854l16 131h76l-17 -131h-75zM37 0l16 131h76l-16 -131h-76z" />
<glyph unicode=";" horiz-adv-x="305" d="M37 0l16 131h76l-16 -131l-78 -135l-10 4l57 131h-45zM156 854l16 131h76l-17 -131h-75z" />
<glyph unicode="&#x3c;" d="M207 713l299 -211h-90l-301 215l360 213h98z" />
<glyph unicode="=" d="M563 889l-6 -58h-426l6 58h426zM524 600l-8 -57h-426l8 57h426z" />
<glyph unicode="&#x3e;" d="M446 719l-299 211h91l301 -215l-361 -213h-98z" />
<glyph unicode="?" horiz-adv-x="548" d="M117 0l28 217h74l-29 -217h-73zM512 1167l8 60q12 96 -4 129t-98 33h-58q-82 0 -108.5 -33t-38.5 -129l-43 -303h-55l45 325q16 115 58 155t147 40h69q104 0 134 -40t14 -155l-11 -69q-18 -125 -53 -216.5t-75 -144.5l-81 -102q-40 -49 -75 -125t-51 -180l-11 -64h-49 l6 43q18 121 53 208t75 138l79 103q39 51 73 131.5t50 195.5z" />
<glyph unicode="@" horiz-adv-x="956" d="M702 1053l-180 -828q-4 -25 8.5 -41t36.5 -16h15q74 0 136 90t91 299l39 279q35 262 -18.5 369.5t-225.5 107.5h-6q-170 0 -270.5 -98.5t-134.5 -352.5l-80 -565q-16 -123 5 -206t76.5 -124t118 -57t146.5 -16q98 0 159 22l-8 -51q-66 -25 -157 -25q-94 0 -169 21.5 t-136.5 72t-86 144.5t-6.5 225l80 559q39 274 158 389t311 115h6q203 0 268.5 -123t24.5 -407l-39 -281q-63 -430 -293 -430h-14q-84 0 -88 72q-33 -72 -113 -72h-26q-88 0 -70 92l164 758q20 90 111 90h22q78 0 82 -68l29 56h34zM467 252l149 692q8 39 -8 59.5t-45 20.5 h-22q-45 0 -58 -57l-161 -748q-10 -51 30 -51h15q41 0 65.5 16.5t34.5 67.5z" />
<glyph unicode="A" horiz-adv-x="587" d="M406 0l-3 254h-313l-72 -254h-57l412 1434h86l10 -1434h-63zM254 819l-148 -510h297l-4 510q-2 170 -2 303t2 230q-61 -244 -145 -533z" />
<glyph unicode="B" horiz-adv-x="663" d="M35 0l201 1434h268q113 0 146 -44q23 -30 23 -95q0 -31 -5 -70l-39 -269q-14 -98 -44 -143t-96 -59q61 -14 79 -59q10 -24 10 -64q0 -33 -7 -78l-47 -344q-16 -123 -62 -166t-159 -43h-268zM399 727h-200l-95 -672h201q88 0 116 35t42 141l45 320q6 48 6 81q0 41 -9 60 q-18 35 -106 35zM565 958l35 244q8 50 8 85q0 10 -1 20q-3 39 -28.5 55t-86.5 16h-201l-84 -596h201q88 0 115.5 35t41.5 141z" />
<glyph unicode="C" horiz-adv-x="649" d="M254 1212l-139 -991q-8 -50 -8 -85q0 -10 1 -19q3 -39 28.5 -55.5t86.5 -16.5h68q88 0 115.5 35t42.5 141l47 336h59l-51 -358q-16 -123 -61.5 -166t-157.5 -43h-74q-113 0 -146 44q-23 30 -23 94q0 31 5 71l146 1036q16 121 63 165t160 44h73q113 0 145 -43 q21 -28 21 -92q0 -33 -6 -74l-41 -297h-59l39 274q8 50 8 85q0 10 -1 20q-3 39 -28.5 55.5t-87.5 16.5h-67q-88 0 -116 -35.5t-42 -141.5z" />
<glyph unicode="D" horiz-adv-x="671" d="M35 0l201 1434h268q113 0 146 -44q23 -30 23 -95q0 -31 -5 -70l-144 -1016q-16 -123 -62 -166t-159 -43h-268zM492 1378h-201l-185 -1323h199q88 0 116 35t42 141l137 971q8 50 8 85q0 10 -1 20q-3 39 -28.5 55t-86.5 16z" />
<glyph unicode="E" horiz-adv-x="522" d="M291 1378l-84 -596h254l-8 -55h-254l-95 -672h289l-6 -55h-352l201 1434h352l-8 -56h-289z" />
<glyph unicode="F" horiz-adv-x="477" d="M291 1378l-86 -616h246l-9 -55h-245l-99 -707h-63l201 1434h344l-9 -56h-280z" />
<glyph unicode="G" horiz-adv-x="651" d="M348 696l8 56h226l-78 -553q-16 -123 -61.5 -166t-157.5 -43h-74q-113 0 -146 44q-23 30 -23 94q0 31 5 71l146 1036q16 121 63 165t160 44h73q113 0 145 -43q21 -28 21 -92q0 -33 -6 -74l-41 -297h-59l39 274q8 50 8 85q0 10 -1 20q-3 39 -28.5 55.5t-87.5 16.5h-67 q-88 0 -116 -35t-42 -142l-139 -991q-8 -50 -8 -85q0 -10 1 -19q3 -39 28.5 -55.5t86.5 -16.5h68q88 0 115.5 35t42.5 141l65 475h-166z" />
<glyph unicode="H" horiz-adv-x="686" d="M98 0h-63l201 1434h63l-92 -652h334l92 652h63l-200 -1434h-64l100 727h-333z" />
<glyph unicode="I" horiz-adv-x="288" d="M35 0l201 1434h63l-201 -1434h-63z" />
<glyph unicode="J" horiz-adv-x="608" d="M102 557l-47 -336q-8 -50 -8 -85q0 -10 1 -19q3 -39 28.5 -55.5t87.5 -16.5h67q88 0 116 35t42 141l170 1213h64l-174 -1235q-16 -123 -62.5 -166t-159.5 -43h-73q-113 0 -146 43q-22 29 -22 93q0 32 6 73l51 358h59z" />
<glyph unicode="K" horiz-adv-x="630" d="M35 0l201 1434h63l-94 -664l59 90l400 574h67l-475 -674l289 -760h-64l-245 649q-4 14 -18.5 50t-16.5 42l-103 -741h-63z" />
<glyph unicode="L" horiz-adv-x="460" d="M35 0l201 1434h63l-195 -1379h265l-7 -55h-327z" />
<glyph unicode="M" horiz-adv-x="831" d="M737 1118q18 115 33 191q-10 -33 -26.5 -98.5t-24.5 -92.5l-346 -1118h-70l-35 1118q-2 48 -1 94q0 68 3 129q-10 -117 -26 -223l-156 -1118h-55l200 1434h89l32 -1153q2 -42 2 -82q0 -59 -4 -113q27 113 47 180l359 1168h86l-201 -1434h-61z" />
<glyph unicode="N" horiz-adv-x="677" d="M420 0l-127 1128q-18 180 -21 222q-14 -156 -24 -226l-158 -1124h-57l200 1434h89l116 -1074q12 -127 19 -221q27 221 26 226l150 1069h57l-201 -1434h-69z" />
<glyph unicode="O" horiz-adv-x="657" d="M47 199l146 1036q16 121 63 165t160 44h76q113 0 145 -43q22 -29 22 -93q0 -32 -6 -73l-145 -1036q-16 -123 -62.5 -166t-158.5 -43h-76q-113 0 -146 44q-23 30 -23 94q0 32 5 71zM449 221l139 991q8 50 8 85q0 10 -1 20q-3 39 -28.5 55.5t-87.5 16.5h-67q-88 0 -116 -35 t-42 -142l-139 -991q-8 -50 -8 -85q0 -10 1 -19q3 -39 28.5 -55.5t86.5 -16.5h68q88 0 116 35t42 141z" />
<glyph unicode="P" horiz-adv-x="600" d="M35 0l201 1434h249q113 0 147 -44q23 -30 23 -95q0 -31 -6 -70l-59 -420q-16 -121 -63.5 -165t-159.5 -44h-187l-82 -596h-63zM473 1378h-182l-103 -727h183q88 0 115.5 35t41.5 141l54 375q6 48 6 82q0 41 -9 59q-18 35 -106 35z" />
<glyph unicode="Q" horiz-adv-x="657" d="M47 199l146 1036q16 121 63 165t160 44h76q113 0 145 -43q22 -29 22 -93q0 -32 -6 -73l-145 -1036q-16 -121 -61.5 -164t-153.5 -45l-10 -66q-5 -32 -5 -55q0 -38 12 -55q19 -29 87 -29h31l-7 -45h-30q-94 0 -130 33q-25 22 -25 87q0 30 5 68l8 62h-18q-113 0 -146 44 q-23 30 -23 94q0 32 5 71zM449 221l139 991q8 50 8 85q0 10 -1 20q-3 39 -28.5 55.5t-87.5 16.5h-67q-88 0 -116 -35t-42 -142l-139 -991q-8 -50 -8 -85q0 -10 1 -19q3 -39 28.5 -55.5t86.5 -16.5h68q88 0 116 35t42 141z" />
<glyph unicode="R" horiz-adv-x="671" d="M569 532l-39 -280q-15 -114 -15 -190q0 -35 3 -62h-69q-3 13 -3 38q0 59 17 185l41 299q6 44 6 76q0 46 -12 70q-20 39 -109 39h-192l-99 -707h-63l201 1434h268q113 0 146 -44q23 -30 23 -95q0 -31 -5 -70l-41 -289q-14 -96 -45 -142t-95 -61q59 -14 77 -58 q10 -26 10 -70q0 -32 -5 -73zM563 938l37 264q8 50 8 85q0 10 -1 20q-3 39 -28.5 55t-86.5 16h-201l-86 -616h201q88 0 115.5 35t41.5 141z" />
<glyph unicode="S" horiz-adv-x="595" d="M406 221l20 154q6 48 6 86q0 52 -11 86q-19 59 -116 166q-117 127 -140 196q-14 41 -14 102q0 42 7 95l16 129q16 121 63.5 165t159.5 44h54q113 0 144 -43q21 -28 21 -92q0 -33 -6 -74l-39 -279h-59l37 256q8 50 8 85q0 10 -1 20q-3 39 -28.5 55.5t-87.5 16.5h-47 q-88 0 -115.5 -35t-41.5 -142l-17 -112q-7 -49 -7 -88q0 -49 11 -82q20 -59 119 -168q115 -127 138 -197q14 -41 14 -102q0 -42 -7 -94l-22 -170q-16 -123 -61.5 -166t-157.5 -43h-56q-113 0 -145 44q-22 29 -22 93q0 32 6 72l45 319h59l-41 -297q-8 -50 -8 -85q0 -10 1 -19 q3 -39 28.5 -55.5t87.5 -16.5h47q88 0 116 35t42 141z" />
<glyph unicode="T" horiz-adv-x="415" d="M162 0h-64l193 1378h-162l8 56h387l-8 -56h-162z" />
<glyph unicode="U" horiz-adv-x="671" d="M295 1434l-170 -1213q-8 -50 -8 -85q0 -10 1 -19q3 -39 28.5 -55.5t86.5 -16.5h68q88 0 115.5 35t42.5 141l170 1213h59l-174 -1235q-16 -123 -61 -166t-158 -43h-74q-113 0 -146 44q-23 30 -23 94q0 31 5 71l174 1235h64z" />
<glyph unicode="V" horiz-adv-x="587" d="M227 1434l6 -820q2 -147 2 -261q0 -172 -4 -271l148 532l235 820h58l-412 -1434h-86l-10 1434h63z" />
<glyph unicode="W" horiz-adv-x="888" d="M461 940l-246 -940h-72l21 1434h61l-12 -820q-8 -403 -18 -510q23 121 124 510l218 820h69l-12 -820q-8 -403 -19 -510q23 121 125 510l215 820h58l-379 -1434h-68l13 940q4 272 16 391q-20 -110 -94 -391z" />
<glyph unicode="X" horiz-adv-x="591" d="M469 1120l133 314h60l-297 -678l110 -756h-61l-56 383q-35 254 -43 334q-43 -117 -133 -334l-162 -383h-59l320 756l-105 678h62l47 -314q41 -262 45 -327q18 49 72 174z" />
<glyph unicode="Y" horiz-adv-x="542" d="M229 0h-63l76 543l-101 891h64l51 -463q31 -301 31 -357q25 94 125 359l178 461h59l-344 -887z" />
<glyph unicode="Z" horiz-adv-x="491" d="M180 1378l8 56h375l-8 -56l-514 -1323h328l-7 -55h-391l6 55l515 1323h-312z" />
<glyph unicode="[" horiz-adv-x="403" d="M238 1454h233l-6 -51h-174l-211 -1495h174l-6 -51h-234z" />
<glyph unicode="\" d="M233 1475l246 -1516h-57l-246 1516h57z" />
<glyph unicode="]" horiz-adv-x="403" d="M182 1454h234l-223 -1597h-234l6 51h174l211 1495h-174z" />
<glyph unicode="^" d="M410 1434h39l129 -469h-56l-102 387l-211 -387h-59z" />
<glyph unicode="_" horiz-adv-x="1024" d="M940 -33l-6 -51h-1022l6 51h1022z" />
<glyph unicode="`" horiz-adv-x="305" d="M240 1417l67 -225h-43l-98 225h74z" />
<glyph unicode="a" horiz-adv-x="600" d="M266 635q137 63 170 97t47 138l9 60q5 43 5 73q0 38 -9 55q-15 32 -93 32h-53q-78 0 -103.5 -33t-37.5 -127l-23 -172h-55l27 196q16 109 56 148t138 39h70q98 0 128 -39q19 -25 19 -79q0 -30 -6 -69l-106 -764q-15 -114 -16 -168q0 -12 1 -22h-55q-2 11 -2 27q0 32 8 86 q-51 -123 -184 -123h-35q-92 0 -121 38q-19 25 -19 79q0 27 5 61l26 182q16 121 55 177.5t154 107.5zM395 238l62 450q-31 -39 -160 -96q-100 -45 -133 -91t-47 -151l-23 -157q-8 -41 -8 -70.5t8 -46.5q16 -35 88 -35h49q137 0 164 197z" />
<glyph unicode="b" d="M512 938q5 40 5 68q0 35 -8 53q-15 31 -87 31h-49q-135 0 -162 -197l-92 -655q-4 -33 -5 -61q0 -137 111 -136h49q72 0 96.5 30.5t37.5 121.5zM287 1434l-56 -396q53 102 175 103h34q92 0 121 -38q19 -25 19 -79q0 -27 -5 -61l-112 -795q-14 -102 -53 -140t-131 -38h-35 q-133 0 -150 123l-28 -113h-39l200 1434h60z" />
<glyph unicode="c" horiz-adv-x="589" d="M395 201l33 233h55l-34 -256q-16 -111 -56.5 -149.5t-138.5 -38.5h-74q-98 0 -128 39q-19 25 -19 80q0 30 6 69l108 776q16 109 56.5 148t138.5 39h74q98 0 128 -39q19 -25 19 -79q0 -30 -6 -69l-33 -237h-55l29 213q5 43 5 73q0 38 -8 55q-15 32 -94 32h-57 q-78 0 -103.5 -33t-37.5 -127l-103 -729q-5 -43 -5 -73q0 -38 8 -55q15 -32 94 -32h57q78 0 103.5 33t37.5 127z" />
<glyph unicode="d" d="M401 238l93 655q4 32 4 59q0 137 -113 138h-49q-72 0 -95.5 -31t-35.5 -121l-105 -745q-8 -41 -8 -70.5t8 -46.5q16 -35 88 -35h50q136 0 163 197zM455 190q-15 -97 -15 -162v-28h-55q-2 11 -2 27q0 32 8 86q-51 -123 -184 -123h-35q-92 0 -121 38q-19 25 -19 79 q0 27 5 61l113 795q14 102 53 140t131 38h35q121 0 145 -105l55 398h60z" />
<glyph unicode="e" horiz-adv-x="591" d="M395 201l25 174h55l-26 -197q-16 -111 -56.5 -149.5t-138.5 -38.5h-74q-98 0 -128 39q-19 25 -19 80q0 30 6 69l108 776q16 109 56.5 148t138.5 39h74q98 0 128 -39q19 -25 19 -79q0 -30 -6 -69l-55 -397h-352l-50 -356q-5 -43 -5 -73q0 -38 8 -55q15 -32 94 -32h57 q78 0 103.5 33t37.5 127zM453 608l45 322q5 43 5 73q0 38 -8 55q-15 32 -94 32h-57q-78 0 -103.5 -33t-37.5 -127l-45 -322h295z" />
<glyph unicode="f" horiz-adv-x="335" d="M92 1079l6 51h99l16 115q16 111 56 150t139 39h32l-8 -52h-24q-72 0 -97.5 -24.5t-38.5 -118.5l-16 -109h141l-6 -51h-141l-152 -1079h-59l151 1079h-98z" />
<glyph unicode="g" horiz-adv-x="571" d="M201 930l-62 -447q-5 -43 -5 -72q0 -38 8 -56q15 -32 94 -31h57q78 0 103.5 32.5t37.5 126.5l62 447q5 43 5 73q0 38 -8 55q-15 32 -94 32h-57q-78 0 -103.5 -33t-37.5 -127zM399 -96l2 18q2 15 2 28q0 42 -20 57q-27 19 -102 20h-109q-59 0 -88 -26t-37 -87l-2 -16 q-2 -19 -2 -35q0 -43 16 -60q23 -23 86 -22h101q78 0 109.5 22.5t43.5 100.5zM-8 -84q12 104 100 127q-43 22 -43 88q0 15 2 33l2 14q10 86 76 105q-41 16 -53 58q-6 21 -6 51t6 69l69 493q16 109 56.5 148t138.5 39h70q70 0 102.5 -18.5t40.5 -61.5q14 80 70 80h12l-8 -51 h-9q-43 0 -49 -58l-80 -571q-16 -109 -56 -149t-138 -40h-86q-55 0 -80 -22.5t-33 -79.5q-1 -10 -1 -19q0 -34 19 -48q24 -17 85 -17h90q47 0 75.5 -4t57.5 -19.5t38 -49.5q5 -18 5 -41q0 -21 -4 -46l-4 -32q-12 -98 -62.5 -131t-150.5 -33h-123q-136 0 -136 121q0 16 3 34z " />
<glyph unicode="h" horiz-adv-x="618" d="M422 1090h-49q-135 0 -162 -197l-125 -893h-59l200 1434h60l-56 -396q53 102 175 103h34q92 0 121 -38q19 -25 19 -79q0 -27 -5 -61l-135 -963h-59l131 938q5 40 5 68q0 35 -8 53q-15 31 -87 31z" />
<glyph unicode="i" horiz-adv-x="268" d="M244 1130l-158 -1130h-59l157 1130h60zM211 1321l16 113h60l-17 -113h-59z" />
<glyph unicode="j" horiz-adv-x="268" d="M184 1130h60l-168 -1202q-16 -111 -54 -149.5t-135 -38.5h-20l6 51h12q70 0 93.5 23.5t37.5 117.5zM211 1321l16 113h60l-17 -113h-59z" />
<glyph unicode="k" horiz-adv-x="571" d="M166 578l-80 -578h-59l200 1434h60l-117 -820q18 29 98 136l285 380h61l-399 -532l260 -598h-61l-193 446l-30 69q-19 45 -25 63z" />
<glyph unicode="l" horiz-adv-x="268" d="M86 0h-59l200 1434h60z" />
<glyph unicode="m" horiz-adv-x="935" d="M739 1090h-30q-135 0 -162 -197l-125 -893h-60l132 938q5 40 5 68q0 35 -9 53q-15 31 -87 31h-30q-135 0 -162 -197l-125 -893h-59l157 1130h54l-17 -110q53 121 185 121h16q72 0 104.5 -22.5t34.5 -78.5q53 100 174 101h23q92 0 121 -38q19 -25 19 -79q0 -27 -5 -61 l-135 -963h-60l131 938q5 40 6 68q0 35 -9 53q-15 31 -87 31z" />
<glyph unicode="n" horiz-adv-x="618" d="M440 0h-59l131 938q5 40 5 68q0 35 -8 53q-15 31 -87 31h-49q-135 0 -162 -197l-125 -893h-59l157 1130h54l-17 -110q53 121 185 121h34q92 0 121 -38q19 -25 19 -79q0 -27 -5 -61z" />
<glyph unicode="o" horiz-adv-x="598" d="M561 954l-108 -776q-16 -111 -56.5 -149.5t-138.5 -38.5h-78q-98 0 -128 39q-19 25 -19 80q0 30 6 69l108 776q16 109 56.5 148t138.5 39h78q98 0 128 -39q19 -25 19 -79q0 -30 -6 -69zM203 930l-103 -729q-5 -43 -5 -73q0 -38 8 -55q15 -32 94 -32h57q78 0 103.5 32.5 t37.5 127.5l103 729q5 43 5 73q0 38 -8 55q-15 32 -94 32h-57q-78 0 -103.5 -33t-37.5 -127z" />
<glyph unicode="p" d="M512 938q5 40 5 68q0 35 -8 53q-15 31 -87 31h-49q-135 0 -162 -197l-92 -655q-4 -33 -5 -61q0 -137 111 -136h49q72 0 96.5 30.5t37.5 121.5zM49 -260h-59l194 1390h54l-17 -110q53 121 185 121h34q92 0 121 -38q19 -25 19 -79q0 -27 -5 -61l-112 -795 q-14 -102 -53 -140t-131 -38h-35q-123 0 -146 98z" />
<glyph unicode="q" d="M401 238l93 655q4 32 4 59q0 137 -113 138h-49q-72 0 -95.5 -31t-35.5 -121l-105 -745q-8 -41 -8 -70.5t8 -46.5q16 -35 88 -35h50q136 0 163 197zM586 1130l-195 -1390h-59l49 354q-53 -104 -174 -104h-35q-92 0 -121 38q-19 25 -19 79q0 27 5 61l113 795q14 102 53 140 t131 38h35q133 0 147 -127l31 116h39z" />
<glyph unicode="r" horiz-adv-x="337" d="M86 0h-59l157 1130h54l-19 -135q53 145 166 146h16l-8 -60h-16q-72 0 -114 -57t-60 -186z" />
<glyph unicode="s" horiz-adv-x="573" d="M381 201l8 69q5 37 5 68q0 48 -12 79q-19 50 -112 136q-109 98 -134 161q-16 38 -15 92q0 35 6 77l10 71q16 109 56 148t139 39h74q98 0 128 -39q19 -25 19 -79q0 -30 -6 -69l-29 -200h-55l24 176q5 43 6 73q0 38 -9 55q-15 32 -93 32h-57q-78 0 -103.5 -33t-37.5 -127 l-7 -49q-5 -37 -4 -68q0 -48 12 -79q19 -50 111 -136q109 -100 134 -162q16 -39 17 -97q0 -32 -5 -71l-13 -90q-16 -111 -56 -149.5t-138 -38.5h-74q-98 0 -128 39q-19 25 -19 80q0 30 6 69l28 219h56l-27 -196q-8 -46 -8 -77q0 -9 1 -18q3 -35 25.5 -50t77.5 -15h58 q80 0 104.5 33t36.5 127z" />
<glyph unicode="t" horiz-adv-x="323" d="M92 1079l6 51h99l34 246h60l-35 -246h129l-6 -51h-131l-115 -821q-12 -96 -12 -164q0 -56 8 -94h-68q-6 24 -5 64q0 63 14 165l118 850h-96z" />
<glyph unicode="u" horiz-adv-x="618" d="M463 190q-15 -97 -15 -162q0 -15 1 -28h-56q-2 11 -2 27q0 32 8 86q-51 -123 -184 -123h-35q-92 0 -121 38q-19 25 -19 79q0 27 5 61l135 962h60l-131 -937q-8 -41 -8.5 -70.5t8.5 -46.5q16 -35 88 -35h49q137 0 164 197l125 892h59z" />
<glyph unicode="v" horiz-adv-x="530" d="M162 1130l22 -585q12 -287 12 -420q0 -50 -1 -78q23 104 149 498l191 585h55l-367 -1130h-73l-50 1130h62z" />
<glyph unicode="w" horiz-adv-x="833" d="M365 604l-181 -604h-73l-9 1130h60l2 -585q0 -397 -6 -498q31 143 135 494l178 589h57l15 -589q2 -98 2 -185q0 -175 -8 -309q23 104 133 498l166 585h55l-324 -1130h-73l-11 604q-3 134 -2 235q0 134 4 208q-20 -107 -120 -443z" />
<glyph unicode="x" horiz-adv-x="516" d="M463 1042l43 88h55l-266 -542l119 -588h-62l-24 127q-74 393 -76 414q-51 -125 -191 -418l-57 -123h-55l278 590l-114 540h61l16 -86q6 -39 39 -196.5t41 -212.5q39 90 193 407z" />
<glyph unicode="y" horiz-adv-x="530" d="M174 -145q-39 -115 -156 -115h-69l6 51h68q82 0 104 76l27 86l-54 1177h62l22 -585q12 -287 12 -420q0 -50 -1 -78q25 117 149 498l191 585h55z" />
<glyph unicode="z" horiz-adv-x="471" d="M143 1079l7 51h350l-6 -51l-449 -1028h303l-6 -51h-367l7 51l448 1028h-287z" />
<glyph unicode="{" horiz-adv-x="423" d="M37 629h-6l6 51h6q70 0 95.5 27.5t37.5 117.5l62 441q16 111 56 149.5t138 38.5h66l-6 -51h-56q-78 0 -103.5 -33t-37.5 -127l-57 -412q-10 -82 -34 -122.5t-71 -55.5q41 -14 53.5 -56t-0.5 -120l-57 -409q-12 -96 3 -128t93 -32h56l-7 -51h-65q-98 0 -128 38.5 t-13 149.5l61 438q12 90 -5 118t-87 28z" />
<glyph unicode="|" d="M457 1434l-238 -1694h-59l237 1694h60z" />
<glyph unicode="}" horiz-adv-x="423" d="M414 629h-6q-70 0 -95.5 -28t-38.5 -118l-61 -438q-16 -111 -56 -149.5t-139 -38.5h-65l6 51h55q78 0 103.5 32.5t38.5 127.5l57 409q10 82 33.5 122t70.5 54q-41 14 -53 57.5t0 120.5l58 412q12 96 -3.5 128t-93.5 32h-55l6 51h66q98 0 127.5 -39t13.5 -149l-61 -441 q-12 -92 5 -118.5t87 -26.5h6z" />
<glyph unicode="~" d="M551 793l-12 -80q-59 -76 -117 -76q-39 0 -105.5 45t-99.5 45q-57 0 -115 -90l13 80q57 74 116 74q39 0 104.5 -44.5t100.5 -44.5q58 1 115 91z" />
<glyph unicode="&#xa1;" horiz-adv-x="272" d="M53 199l123 725h23l-82 -725l-64 -459h-63zM260 1174l-18 -132h-76l18 132h76z" />
<glyph unicode="&#xa2;" d="M426 352l33 234h55l-37 -256q-16 -111 -56 -150t-138 -39h-11l-18 -141h-51l18 141h-12q-98 0 -128 39t-13 150l108 776q16 109 56 147.5t139 38.5h12l20 142h52l-21 -142h10q98 0 128 -39t14 -147l-33 -238h-55l30 213q12 96 -3 128t-93 32h-57q-78 0 -103.5 -32.5 t-38.5 -127.5l-102 -729q-12 -96 3.5 -127.5t92.5 -31.5h58q78 0 103.5 32.5t37.5 126.5z" />
<glyph unicode="&#xa3;" d="M469 463h-193q-41 -229 -210 -408h366l-6 -55h-424l6 55q170 178 211 408h-133l8 55h131q2 55 -19.5 169t-32.5 214t7 279l10 69q16 115 58.5 155t146.5 40h70q104 0 134 -40t13 -155l-51 -366h-55l49 344q12 96 -4 129t-98 33h-58q-82 0 -108.5 -32t-38.5 -122l-8 -55 q-18 -174 -7 -274.5t31.5 -215.5t18.5 -172h194z" />
<glyph unicode="&#xa4;" d="M164 715q6 53 43 96l-76 84l47 41l70 -88q45 33 100 33t94 -35l99 90l32 -41l-102 -84q27 -43 21 -96q-8 -51 -46 -94l76 -82l-43 -41l-71 88q-53 -33 -106.5 -33t-90.5 33l-94 -88l-37 41l100 82q-26 41 -16 94zM209 715q-8 -47 22.5 -82t77.5 -35q49 0 89 35t48 82 q6 49 -24.5 85t-79.5 36q-47 0 -87 -36t-46 -85z" />
<glyph unicode="&#xa5;" d="M440 973l170 461h58l-332 -889l-2 -15h188l-8 -55h-188l-21 -149h189l-9 -56h-188l-37 -270h-59l37 270h-195l8 56h195l20 149h-194l8 55h194l2 13l-86 891h60l47 -467q25 -244 22 -353q25 97 121 359z" />
<glyph unicode="&#xa6;" d="M457 1434l-107 -756h-59l106 756h60zM326 498l-107 -758h-59l106 758h60z" />
<glyph unicode="&#xa7;" horiz-adv-x="575" d="M59 2q-14 -94 2.5 -127t94.5 -33h57q78 0 102.5 32t38.5 128l6 43q10 78 -12 125t-112 129q-102 92 -132 152.5t-18 142.5l27 186q10 74 43.5 115t107.5 49q-66 66 -84 119t-8 125l10 69q16 109 56.5 148t138.5 39h74q98 0 127.5 -39t13.5 -148l-23 -155h-57l20 131 q14 94 -2 127t-94 33h-57q-78 0 -103.5 -33t-37.5 -127l-7 -43q-10 -78 11.5 -125t113.5 -129q104 -92 132 -151.5t16 -143.5l-25 -186q-10 -74 -44 -115t-107 -49q68 -68 85 -120t7 -124l-10 -70q-16 -109 -56.5 -147.5t-138.5 -38.5h-74q-98 0 -127.5 39t-13.5 147l23 156 h57zM311 899h-4q-76 0 -101.5 -30.5t-35.5 -104.5l-25 -168q-10 -80 13.5 -129t120.5 -131h6q76 0 101.5 30.5t35.5 104.5l22 168q10 80 -13.5 128t-119.5 132z" />
<glyph unicode="&#xa8;" horiz-adv-x="305" d="M371 1260h-66l12 90h66zM197 1260h-66l12 90h66z" />
<glyph unicode="&#xa9;" horiz-adv-x="956" d="M938 1081l-102 -729q-27 -193 -111 -277.5t-274 -84.5h-107q-190 0 -248.5 85t-32.5 277l103 729q27 193 109.5 278t273.5 85h106q190 0 250 -85t33 -278zM223 1081l-102 -729q-25 -174 24.5 -242.5t208.5 -68.5h101q160 0 229.5 68.5t93.5 242.5l103 729 q23 174 -26.5 243t-209.5 69h-100q-160 0 -229.5 -69t-92.5 -243zM444 1061l-96 -688q-8 -61 5.5 -81t66.5 -20h31q53 0 72.5 20.5t27.5 80.5l33 235h51l-35 -246q-10 -80 -44 -109.5t-110 -29.5h-38q-76 0 -101.5 30t-15.5 109l100 711q10 78 45 107.5t111 29.5h39 q76 0 100.5 -28.5t13.5 -108.5l-28 -205h-51l26 193q10 61 -4 80.5t-68 19.5h-30q-53 0 -72 -19.5t-29 -80.5z" />
<glyph unicode="&#xaa;" horiz-adv-x="454" d="M225 1290l-16 -116h-47l18 129q10 82 41 111.5t105 29.5h49q76 0 97.5 -29t8.5 -112l-75 -531q-10 -74 -9 -131h-45q-4 27 2 90q-39 -100 -139 -100h-18q-68 0 -87.5 27.5t-9.5 103.5l17 112q12 84 38.5 125t110.5 80q100 49 123 72t33 96l6 43q10 66 -1 86.5t-67 20.5 h-38q-53 0 -70 -20.5t-27 -86.5zM358 811l45 301q-23 -25 -106 -65q-78 -37 -98.5 -70t-32.5 -111l-12 -86q-8 -63 2 -84.5t59 -21.5h33q90 0 110 137zM57 459l9 53h311l-8 -53h-312z" />
<glyph unicode="&#xab;" horiz-adv-x="505" d="M162 156l-142 409l256 410h62l-260 -410l141 -409h-57zM371 156l-142 409l256 410h62l-260 -410l141 -409h-57z" />
<glyph unicode="&#xac;" d="M479 686h-368l8 59h426l-37 -253h-57z" />
<glyph unicode="&#xad;" horiz-adv-x="382" d="M334 573l-6 -47h-281l6 47h281z" />
<glyph unicode="&#xae;" horiz-adv-x="956" d="M938 1081l-102 -729q-27 -193 -111 -277.5t-274 -84.5h-107q-190 0 -248.5 85t-32.5 277l103 729q27 193 109.5 278t273.5 85h106q190 0 250 -85t33 -278zM223 1081l-102 -729q-25 -174 24.5 -242.5t208.5 -68.5h101q160 0 229.5 68.5t93.5 242.5l103 729 q23 174 -26.5 243t-209.5 69h-100q-160 0 -229.5 -69t-92.5 -243zM707 1065l-35 -236q-14 -109 -82 -131q61 -23 47 -129l-19 -123q-18 -127 -10 -217h-61q-8 41 12 191l23 151q8 61 -7.5 83t-68.5 22h-109l-63 -447h-55l137 975h174q76 0 102.5 -29.5t14.5 -109.5z M578 1159h-113l-62 -436h113q53 0 72.5 20.5t27.5 79.5l33 236q10 61 -4 80.5t-67 19.5z" />
<glyph unicode="&#xaf;" horiz-adv-x="305" d="M403 1266h-305l8 51h306z" />
<glyph unicode="&#xb0;" horiz-adv-x="440" d="M338 1411q63 0 104 -39t41 -98q0 -80 -56 -136.5t-134 -56.5q-63 0 -103 40t-40 102q0 78 56 133t132 55zM332 1360q-53 0 -92 -38t-39 -91q0 -43 27.5 -69.5t70.5 -26.5q53 0 91 36.5t38 92.5q0 43 -26.5 69.5t-69.5 26.5z" />
<glyph unicode="&#xb1;" d="M508 487l-8 -57h-426l8 57h426zM338 1001h55l-26 -194h186l-8 -59h-187l-28 -195h-56l29 195h-184l8 59h184z" />
<glyph unicode="&#xb2;" horiz-adv-x="460" d="M225 1278l-14 -109h-49l18 129q12 86 43 116t107 30h57q76 0 98.5 -30t12.5 -116l-4 -28q-6 -43 -19.5 -82t-26 -64.5t-40 -60.5t-38.5 -47l-48 -49l-43 -43q-125 -129 -144 -265l-6 -45h268l-6 -49h-323l12 94q23 158 166 302q57 57 86.5 90.5t63.5 93t44 119.5l2 14 q12 70 -1 93.5t-74 23.5h-35q-59 0 -78 -22.5t-29 -94.5z" />
<glyph unicode="&#xb3;" horiz-adv-x="460" d="M358 721l23 164q10 72 -2 94t-72 22h-112l8 50h112q57 0 77 23.5t30 92.5l14 111q10 72 -2 94.5t-72 22.5h-34q-59 0 -78 -22.5t-29 -94.5l-8 -64h-49l12 84q10 84 43 115t109 31h55q76 0 100.5 -31t10.5 -115l-21 -133q-10 -68 -31.5 -99.5t-66.5 -39.5q43 -8 56 -41 t3 -100l-24 -185q-12 -84 -44 -114.5t-108 -30.5h-55q-76 0 -99.5 30.5t-11.5 114.5l14 107h50l-13 -86q-10 -70 2.5 -93.5t69.5 -23.5h37q59 0 77.5 22.5t28.5 94.5z" />
<glyph unicode="&#xb4;" horiz-adv-x="305" d="M174 1192l133 225h76l-164 -225h-45z" />
<glyph unicode="&#xb5;" horiz-adv-x="618" d="M45 -260h-59l194 1390h60l-131 -937q-16 -82 0 -117t88 -35h49q137 0 164 197l125 892h59l-131 -940q-18 -119 -14 -190h-56q-6 33 6 113q-51 -123 -184 -123h-35q-61 0 -98 16z" />
<glyph unicode="&#xb6;" horiz-adv-x="731" d="M475 1378l-221 -1577h-64l86 613h-59q-113 0 -146.5 44t-17.5 165l86 602q16 123 62.5 166t158.5 43h381l-229 -1633h-63l221 1577h-195z" />
<glyph unicode="&#xb7;" horiz-adv-x="305" d="M127 651l16 131h76l-16 -131h-76z" />
<glyph unicode="&#xb8;" horiz-adv-x="305" d="M39 -238q74 0 74 93q0 47 -52 47q-16 0 -26 -2l16 120h25l-13 -81q96 0 97 -78q0 -131 -125 -131q-92 0 -92 71q0 10 4 39h49q-6 -29 -6 -45q0 -33 49 -33z" />
<glyph unicode="&#xb9;" horiz-adv-x="274" d="M164 565h-53l118 842q27 0 31 27h27z" />
<glyph unicode="&#xba;" horiz-adv-x="452" d="M57 459l9 53h309l-8 -53h-310zM106 774l74 529q10 84 40 112.5t104 28.5h55q76 0 96.5 -29t9.5 -112l-73 -529q-12 -84 -42 -113.5t-106 -29.5h-55q-74 0 -94.5 29.5t-8.5 113.5zM360 784l72 506q10 66 -1 86.5t-66 20.5h-39q-53 0 -69.5 -20.5t-27.5 -86.5l-71 -506 q-8 -66 3 -86t64 -20h39q55 0 71.5 20t24.5 86z" />
<glyph unicode="&#xbb;" horiz-adv-x="505" d="M344 975l141 -410l-256 -409h-61l260 409l-141 410h57zM135 975l141 -410l-256 -409h-61l260 409l-141 410h57z" />
<glyph unicode="&#xbc;" horiz-adv-x="804" d="M80 0l536 1434h50l-537 -1434h-49zM164 565h-53l118 842q27 0 31 27h27zM686 868h51l-92 -653h60l-7 -49h-59l-25 -166h-53l25 166h-248l6 49zM395 215h197l14 104q27 193 72 459q-94 -207 -227 -459z" />
<glyph unicode="&#xbd;" horiz-adv-x="858" d="M80 0l536 1434h50l-537 -1434h-49zM164 565h-53l118 842q27 0 31 27h27zM543 713l-15 -109h-49l19 129q12 86 42.5 116t106.5 30h58q76 0 98 -30t12 -116l-4 -28q-6 -43 -19.5 -82t-25.5 -65t-40 -60.5t-39 -47t-48 -49.5l-43 -43q-125 -129 -143 -264l-7 -45h269l-6 -49 h-324l12 94q23 158 166 301q57 57 87 91t64 93.5t44 118.5l2 15q12 70 -1.5 93t-74.5 23h-35q-59 0 -77.5 -22t-28.5 -94z" />
<glyph unicode="&#xbe;" horiz-adv-x="962" d="M238 0l536 1434h49l-536 -1434h-49zM844 868h51l-92 -653h59l-6 -49h-59l-25 -166h-53l24 166h-247l6 49zM553 215h197l14 104q27 193 72 459q-94 -207 -228 -459zM358 721l23 164q10 72 -2 94t-72 22h-112l8 50h112q57 0 77 23.5t30 92.5l14 111q10 72 -2 94.5t-72 22.5 h-34q-59 0 -78 -22.5t-29 -94.5l-8 -64h-49l12 84q10 84 43 115t109 31h55q76 0 100.5 -31t10.5 -115l-21 -133q-10 -68 -31.5 -99.5t-66.5 -39.5q43 -8 56 -41t3 -100l-24 -185q-12 -84 -44 -114.5t-108 -30.5h-55q-76 0 -99.5 30.5t-11.5 114.5l14 107h50l-13 -86 q-10 -70 2.5 -93.5t69.5 -23.5h37q59 0 77.5 22.5t28.5 94.5z" />
<glyph unicode="&#xbf;" horiz-adv-x="548" d="M440 1174l-30 -218h-74l31 218h73zM45 6l-8 -59q-12 -96 4 -129t98 -33h58q82 0 108.5 32.5t38.5 129.5l43 303h55l-45 -326q-16 -115 -58 -154.5t-146 -39.5h-70q-104 0 -134 40t-14 154l11 70q18 125 53 216t75 144.5t81 102.5t75.5 124.5t51.5 180.5l10 63h49l-6 -43 q-18 -121 -53 -208t-75 -138l-79 -102q-39 -51 -73 -132t-50 -196z" />
<glyph unicode="&#xc0;" horiz-adv-x="587" d="M406 0l-3 254h-313l-72 -254h-57l412 1434h86l10 -1434h-63zM254 819l-148 -510h297l-4 510q-4 340 0 533q-61 -244 -145 -533zM399 1704l68 -225h-43l-98 225h73z" />
<glyph unicode="&#xc1;" horiz-adv-x="587" d="M406 0l-3 254h-313l-72 -254h-57l412 1434h86l10 -1434h-63zM254 819l-148 -510h297l-4 510q-4 340 0 533q-61 -244 -145 -533zM375 1479l133 225h76l-164 -225h-45z" />
<glyph unicode="&#xc2;" horiz-adv-x="587" d="M406 0l-3 254h-313l-72 -254h-57l412 1434h86l10 -1434h-63zM254 819l-148 -510h297l-4 510q-4 340 0 533q-61 -244 -145 -533zM479 1704l92 -225h-45l-82 161l-127 -161h-47l156 225h53z" />
<glyph unicode="&#xc3;" horiz-adv-x="587" d="M406 0l-3 254h-313l-72 -254h-57l412 1434h86l10 -1434h-63zM254 819l-148 -510h297l-4 510q-4 340 0 533q-61 -244 -145 -533zM559 1634h43q-8 -61 -31.5 -85.5t-68.5 -24.5q-43 0 -88 28.5t-62 28.5q-23 0 -31 -13.5t-12 -47.5h-43q8 59 32 84.5t69 25.5q43 0 88 -28.5 t61 -28.5q23 0 31 13t12 48z" />
<glyph unicode="&#xc4;" horiz-adv-x="587" d="M406 0l-3 254h-313l-72 -254h-57l412 1434h86l10 -1434h-63zM254 819l-148 -510h297l-4 510q-4 340 0 533q-61 -244 -145 -533zM549 1546h-66l13 90h65zM375 1546h-66l13 90h65z" />
<glyph unicode="&#xc5;" horiz-adv-x="587" d="M406 0l-3 254h-313l-72 -254h-57l412 1434h86l10 -1434h-63zM254 819l-148 -510h297l-4 510q-4 340 0 533q-61 -244 -145 -533zM444 1647q-25 0 -45 -16.5t-20 -47.5q0 -47 49 -47q25 0 45.5 16.5t20.5 46.5q-1 48 -50 48zM422 1495q-39 0 -61.5 23.5t-22.5 60.5 q0 45 32.5 77t80.5 32q39 0 61.5 -24t22.5 -60q0 -45 -33 -77t-80 -32z" />
<glyph unicode="&#xc6;" horiz-adv-x="774" d="M-55 0l514 1434h381l-9 -56h-288l-84 -596h254l-8 -55h-254l-95 -672h289l-6 -55h-352l35 254h-230l-90 -254h-57zM295 819l-182 -510h217l143 1022z" />
<glyph unicode="&#xc7;" horiz-adv-x="649" d="M238 -10l-7 -51q94 0 95 -78q0 -131 -125 -131q-92 0 -92 71q0 10 4 39h49q-6 -29 -6 -45q0 -33 49 -33q74 0 74 93q0 47 -52 47q-16 0 -26 -2l12 90h-4q-113 0 -145.5 43t-16.5 166l146 1036q16 121 63 165t160 44h73q113 0 145 -43t15 -166l-41 -297h-59l39 274 q10 66 7 105t-28.5 55.5t-87.5 16.5h-67q-88 0 -116 -35t-42 -142l-139 -991q-10 -66 -7 -104.5t28.5 -55t86.5 -16.5h68q88 0 115.5 35t42.5 141l47 336h59l-51 -358q-16 -123 -62.5 -166t-158.5 -43h-45z" />
<glyph unicode="&#xc8;" horiz-adv-x="522" d="M291 1378l-84 -596h254l-8 -55h-254l-95 -672h289l-6 -55h-352l201 1434h352l-8 -56h-289zM397 1704l68 -225h-43l-98 225h73z" />
<glyph unicode="&#xc9;" horiz-adv-x="522" d="M291 1378l-84 -596h254l-8 -55h-254l-95 -672h289l-6 -55h-352l201 1434h352l-8 -56h-289zM373 1479l133 225h76l-164 -225h-45z" />
<glyph unicode="&#xca;" horiz-adv-x="522" d="M291 1378l-84 -596h254l-8 -55h-254l-95 -672h289l-6 -55h-352l201 1434h352l-8 -56h-289zM477 1704l92 -225h-45l-82 161l-127 -161h-47l156 225h53z" />
<glyph unicode="&#xcb;" horiz-adv-x="522" d="M291 1378l-84 -596h254l-8 -55h-254l-95 -672h289l-6 -55h-352l201 1434h352l-8 -56h-289zM547 1546h-66l13 90h65zM373 1546h-66l12 90h66z" />
<glyph unicode="&#xcc;" horiz-adv-x="288" d="M35 0l201 1434h63l-201 -1434h-63zM250 1704l67 -225h-43l-98 225h74z" />
<glyph unicode="&#xcd;" horiz-adv-x="288" d="M35 0l201 1434h63l-201 -1434h-63zM225 1479l133 225h76l-164 -225h-45z" />
<glyph unicode="&#xce;" horiz-adv-x="288" d="M35 0l201 1434h63l-201 -1434h-63zM332 1704l92 -225h-45l-82 161l-127 -161h-47l156 225h53z" />
<glyph unicode="&#xcf;" horiz-adv-x="288" d="M35 0l201 1434h63l-201 -1434h-63zM401 1546h-65l12 90h66zM227 1546h-65l12 90h66z" />
<glyph unicode="&#xd0;" horiz-adv-x="671" d="M35 0l102 729h-65l6 51h65l93 654h268q113 0 146.5 -44t17.5 -165l-144 -1016q-16 -123 -62 -166t-159 -43h-268zM492 1378h-201l-84 -598h176l-6 -51h-176l-95 -674h199q88 0 116 35t42 141l137 971q10 66 7 105t-28.5 55t-86.5 16z" />
<glyph unicode="&#xd1;" horiz-adv-x="677" d="M420 0l-127 1128q-18 180 -21 222q-14 -156 -24 -226l-158 -1124h-57l200 1434h89l116 -1074q12 -127 19 -221q27 221 26 226l150 1069h57l-201 -1434h-69zM604 1634h43q-8 -61 -31.5 -85.5t-68.5 -24.5q-43 0 -88 28.5t-62 28.5q-23 0 -31 -13.5t-12 -47.5h-43 q8 59 32 84.5t69 25.5q43 0 88 -28.5t61 -28.5q23 0 31 13t12 48z" />
<glyph unicode="&#xd2;" horiz-adv-x="657" d="M47 199l146 1036q16 121 63 165t160 44h76q113 0 145.5 -43t15.5 -166l-145 -1036q-16 -123 -62.5 -166t-158.5 -43h-76q-113 0 -146.5 44t-17.5 165zM449 221l139 991q10 66 7 105t-28.5 55.5t-87.5 16.5h-67q-88 0 -116 -35t-42 -142l-139 -991q-10 -66 -7 -104.5 t28.5 -55t86.5 -16.5h68q88 0 116 35t42 141zM434 1704l68 -225h-43l-99 225h74z" />
<glyph unicode="&#xd3;" horiz-adv-x="657" d="M47 199l146 1036q16 121 63 165t160 44h76q113 0 145.5 -43t15.5 -166l-145 -1036q-16 -123 -62.5 -166t-158.5 -43h-76q-113 0 -146.5 44t-17.5 165zM449 221l139 991q10 66 7 105t-28.5 55.5t-87.5 16.5h-67q-88 0 -116 -35t-42 -142l-139 -991q-10 -66 -7 -104.5 t28.5 -55t86.5 -16.5h68q88 0 116 35t42 141zM410 1479l133 225h75l-163 -225h-45z" />
<glyph unicode="&#xd4;" horiz-adv-x="657" d="M47 199l146 1036q16 121 63 165t160 44h76q113 0 145.5 -43t15.5 -166l-145 -1036q-16 -123 -62.5 -166t-158.5 -43h-76q-113 0 -146.5 44t-17.5 165zM449 221l139 991q10 66 7 105t-28.5 55.5t-87.5 16.5h-67q-88 0 -116 -35t-42 -142l-139 -991q-10 -66 -7 -104.5 t28.5 -55t86.5 -16.5h68q88 0 116 35t42 141zM514 1704l92 -225h-45l-82 161l-127 -161h-47l156 225h53z" />
<glyph unicode="&#xd5;" horiz-adv-x="657" d="M47 199l146 1036q16 121 63 165t160 44h76q113 0 145.5 -43t15.5 -166l-145 -1036q-16 -123 -62.5 -166t-158.5 -43h-76q-113 0 -146.5 44t-17.5 165zM449 221l139 991q10 66 7 105t-28.5 55.5t-87.5 16.5h-67q-88 0 -116 -35t-42 -142l-139 -991q-10 -66 -7 -104.5 t28.5 -55t86.5 -16.5h68q88 0 116 35t42 141zM594 1634h43q-8 -61 -31.5 -85.5t-68.5 -24.5q-41 0 -86 28.5t-64 28.5q-23 0 -31 -13.5t-12 -47.5h-43q8 59 31.5 84.5t68.5 25.5q41 0 86 -28.5t64 -28.5q23 0 31 13t12 48z" />
<glyph unicode="&#xd6;" horiz-adv-x="657" d="M47 199l146 1036q16 121 63 165t160 44h76q113 0 145.5 -43t15.5 -166l-145 -1036q-16 -123 -62.5 -166t-158.5 -43h-76q-113 0 -146.5 44t-17.5 165zM449 221l139 991q10 66 7 105t-28.5 55.5t-87.5 16.5h-67q-88 0 -116 -35t-42 -142l-139 -991q-10 -66 -7 -104.5 t28.5 -55t86.5 -16.5h68q88 0 116 35t42 141zM584 1546h-66l12 90h66zM410 1546h-66l12 90h66z" />
<glyph unicode="&#xd7;" d="M287 721l-137 170l43 39l137 -170l184 170l35 -43l-187 -170l140 -170l-43 -37l-137 170l-185 -170l-35 41z" />
<glyph unicode="&#xd8;" horiz-adv-x="657" d="M47 199l146 1036q16 123 62 166t159 43h75q78 0 117 -21l29 72h55l-45 -111q25 -47 8 -149l-145 -1036q-16 -123 -62.5 -166t-158.5 -43h-76q-76 0 -117 18l-28 -69h-54l41 108q-22 43 -6 152zM109 184l471 1174q-20 31 -101 31h-67q-88 0 -116 -35t-42 -142zM446 221 l146 1028l-473 -1175q23 -29 102 -29h68q88 0 115.5 35t41.5 141z" />
<glyph unicode="&#xd9;" horiz-adv-x="671" d="M295 1434l-170 -1213q-10 -66 -7 -104.5t28.5 -55t86.5 -16.5h68q88 0 115.5 35t42.5 141l170 1213h59l-174 -1235q-16 -123 -61 -166t-158 -43h-74q-113 0 -146.5 44t-17.5 165l174 1235h64zM440 1704l68 -225h-43l-98 225h73z" />
<glyph unicode="&#xda;" horiz-adv-x="671" d="M295 1434l-170 -1213q-10 -66 -7 -104.5t28.5 -55t86.5 -16.5h68q88 0 115.5 35t42.5 141l170 1213h59l-174 -1235q-16 -123 -61 -166t-158 -43h-74q-113 0 -146.5 44t-17.5 165l174 1235h64zM416 1479l133 225h76l-164 -225h-45z" />
<glyph unicode="&#xdb;" horiz-adv-x="671" d="M295 1434l-170 -1213q-10 -66 -7 -104.5t28.5 -55t86.5 -16.5h68q88 0 115.5 35t42.5 141l170 1213h59l-174 -1235q-16 -123 -61 -166t-158 -43h-74q-113 0 -146.5 44t-17.5 165l174 1235h64zM522 1704l92 -225h-45l-82 161l-127 -161h-47l156 225h53z" />
<glyph unicode="&#xdc;" horiz-adv-x="671" d="M295 1434l-170 -1213q-10 -66 -7 -104.5t28.5 -55t86.5 -16.5h68q88 0 115.5 35t42.5 141l170 1213h59l-174 -1235q-16 -123 -61 -166t-158 -43h-74q-113 0 -146.5 44t-17.5 165l174 1235h64zM592 1546h-66l13 90h65zM418 1546h-66l13 90h65z" />
<glyph unicode="&#xdd;" horiz-adv-x="542" d="M229 0h-63l76 543l-101 891h64l51 -463q31 -301 31 -357q25 94 125 359l178 461h59l-344 -887zM360 1479l134 225h75l-163 -225h-46z" />
<glyph unicode="&#xde;" horiz-adv-x="600" d="M35 0l201 1434h63l-18 -123h186q113 0 146.5 -43t17.5 -164l-58 -414q-16 -123 -62 -166t-159 -43h-186l-68 -481h-63zM457 1257h-183l-100 -720h180q88 0 116 34.5t42 141.5l53 366q14 109 -3 143.5t-105 34.5z" />
<glyph unicode="&#xdf;" d="M537 1120l16 113q12 96 -3 128t-93 32h-60q-72 0 -98.5 -25t-38.5 -119l-174 -1249h-59l176 1255q16 111 56 150t138 39h78q98 0 128 -39t13 -148l-20 -145q-12 -86 -40 -126t-87 -50q55 -10 72.5 -51t5.5 -125l-82 -572q-16 -111 -55 -149.5t-138 -38.5h-79l6 51h71 q72 0 98.5 24.5t39.5 117.5l77 557q12 96 -3 127.5t-93 31.5h-70l7 52h69q78 0 104 32.5t38 126.5z" />
<glyph unicode="&#xe0;" horiz-adv-x="600" d="M266 635q137 63 170 97t47 138l9 60q12 96 -3.5 128t-93.5 32h-53q-78 0 -103.5 -33t-37.5 -127l-23 -172h-55l27 196q16 109 56 148t138 39h70q98 0 127.5 -39t13.5 -148l-106 -764q-18 -139 -15 -190h-55q-6 33 6 113q-51 -123 -184 -123h-35q-92 0 -121 38t-14 140 l26 182q16 121 55 177.5t154 107.5zM395 238l62 450q-31 -39 -160 -96q-100 -45 -133 -91t-47 -151l-23 -157q-16 -82 0.5 -117t87.5 -35h49q137 0 164 197zM369 1417l67 -225h-43l-98 225h74z" />
<glyph unicode="&#xe1;" horiz-adv-x="600" d="M266 635q137 63 170 97t47 138l9 60q12 96 -3.5 128t-93.5 32h-53q-78 0 -103.5 -33t-37.5 -127l-23 -172h-55l27 196q16 109 56 148t138 39h70q98 0 127.5 -39t13.5 -148l-106 -764q-18 -139 -15 -190h-55q-6 33 6 113q-51 -123 -184 -123h-35q-92 0 -121 38t-14 140 l26 182q16 121 55 177.5t154 107.5zM395 238l62 450q-31 -39 -160 -96q-100 -45 -133 -91t-47 -151l-23 -157q-16 -82 0.5 -117t87.5 -35h49q137 0 164 197zM344 1192l133 225h76l-164 -225h-45z" />
<glyph unicode="&#xe2;" horiz-adv-x="600" d="M266 635q137 63 170 97t47 138l9 60q12 96 -3.5 128t-93.5 32h-53q-78 0 -103.5 -33t-37.5 -127l-23 -172h-55l27 196q16 109 56 148t138 39h70q98 0 127.5 -39t13.5 -148l-106 -764q-18 -139 -15 -190h-55q-6 33 6 113q-51 -123 -184 -123h-35q-92 0 -121 38t-14 140 l26 182q16 121 55 177.5t154 107.5zM395 238l62 450q-31 -39 -160 -96q-100 -45 -133 -91t-47 -151l-23 -157q-16 -82 0.5 -117t87.5 -35h49q137 0 164 197zM449 1417l92 -225h-45l-82 162l-127 -162h-47l155 225h54z" />
<glyph unicode="&#xe3;" horiz-adv-x="600" d="M266 635q137 63 170 97t47 138l9 60q12 96 -3.5 128t-93.5 32h-53q-78 0 -103.5 -33t-37.5 -127l-23 -172h-55l27 196q16 109 56 148t138 39h70q98 0 127.5 -39t13.5 -148l-106 -764q-18 -139 -15 -190h-55q-6 33 6 113q-51 -123 -184 -123h-35q-92 0 -121 38t-14 140 l26 182q16 121 55 177.5t154 107.5zM395 238l62 450q-31 -39 -160 -96q-100 -45 -133 -91t-47 -151l-23 -157q-16 -82 0.5 -117t87.5 -35h49q137 0 164 197zM528 1348h43q-8 -61 -31.5 -86t-68.5 -25q-41 0 -86 28.5t-63 28.5q-23 0 -31 -13t-12 -48h-43q8 59 31.5 84.5 t68.5 25.5q41 0 86 -28.5t63 -28.5q23 0 31 13.5t12 48.5z" />
<glyph unicode="&#xe4;" horiz-adv-x="600" d="M266 635q137 63 170 97t47 138l9 60q12 96 -3.5 128t-93.5 32h-53q-78 0 -103.5 -33t-37.5 -127l-23 -172h-55l27 196q16 109 56 148t138 39h70q98 0 127.5 -39t13.5 -148l-106 -764q-18 -139 -15 -190h-55q-6 33 6 113q-51 -123 -184 -123h-35q-92 0 -121 38t-14 140 l26 182q16 121 55 177.5t154 107.5zM395 238l62 450q-31 -39 -160 -96q-100 -45 -133 -91t-47 -151l-23 -157q-16 -82 0.5 -117t87.5 -35h49q137 0 164 197zM518 1260h-65l12 90h65zM344 1260h-65l12 90h65z" />
<glyph unicode="&#xe5;" horiz-adv-x="600" d="M266 635q137 63 170 97t47 138l9 60q12 96 -3.5 128t-93.5 32h-53q-78 0 -103.5 -33t-37.5 -127l-23 -172h-55l27 196q16 109 56 148t138 39h70q98 0 127.5 -39t13.5 -148l-106 -764q-18 -139 -15 -190h-55q-6 33 6 113q-51 -123 -184 -123h-35q-92 0 -121 38t-14 140 l26 182q16 121 55 177.5t154 107.5zM395 238l62 450q-31 -39 -160 -96q-100 -45 -133 -91t-47 -151l-23 -157q-16 -82 0.5 -117t87.5 -35h49q137 0 164 197zM414 1360q-25 0 -45.5 -16.5t-20.5 -47.5q0 -47 49 -47q25 0 45.5 16.5t20.5 47.5q0 47 -49 47zM391 1208 q-39 0 -61.5 23.5t-22.5 60.5q0 45 33 77t80 32q39 0 61.5 -23.5t22.5 -60.5q0 -45 -33 -77t-80 -32z" />
<glyph unicode="&#xe6;" horiz-adv-x="940" d="M266 635q137 63 170 97t47 138l9 60q12 96 -3.5 128t-93.5 32h-53q-78 0 -103.5 -33t-37.5 -127l-23 -172h-55l27 196q16 109 56 148t138 39h45q80 0 113 -23.5t35 -85.5q18 61 58 85t120 24h49q98 0 128 -39t13 -148l-55 -397h-350l-51 -356q-12 -96 3 -128t93 -32h57 q78 0 103.5 32.5t37.5 127.5l25 174h55l-26 -197q-16 -111 -56.5 -149.5t-138.5 -38.5h-74q-82 0 -114.5 25.5t-32.5 88.5q-53 -115 -180 -114h-35q-92 0 -121 38t-14 140l26 182q16 121 55 177.5t154 107.5zM393 238l66 450q-29 -37 -162 -96q-100 -45 -133 -91t-47 -151 l-23 -157q-16 -82 0.5 -117t87.5 -35h49q131 0 162 197zM801 608l45 322q12 96 -3.5 128t-92.5 32h-58q-78 0 -103.5 -33t-37.5 -127l-45 -322h295z" />
<glyph unicode="&#xe7;" horiz-adv-x="589" d="M213 -10l-6 -51q94 0 94 -78q0 -131 -125 -131q-92 0 -92 71q0 10 4 39h49q-6 -29 -6 -45q0 -33 49 -33q74 0 74 93q0 47 -51 47q-16 0 -27 -2l12 90h-8q-98 0 -127.5 39t-13.5 149l108 776q16 109 56.5 148t138.5 39h74q98 0 127.5 -39t13.5 -148l-33 -237h-55l29 213 q12 96 -3.5 128t-93.5 32h-57q-78 0 -103.5 -33t-37.5 -127l-103 -729q-12 -96 3.5 -128t93.5 -32h57q78 0 103.5 32.5t37.5 127.5l33 233h55l-34 -256q-16 -111 -56.5 -149.5t-138.5 -38.5h-41z" />
<glyph unicode="&#xe8;" horiz-adv-x="591" d="M395 201l25 174h55l-26 -197q-16 -111 -56.5 -149.5t-138.5 -38.5h-74q-98 0 -127.5 39t-13.5 149l108 776q16 109 56.5 148t138.5 39h74q98 0 127.5 -39t13.5 -148l-55 -397h-352l-50 -356q-12 -96 3.5 -128t93.5 -32h57q78 0 103.5 33t37.5 127zM453 608l45 322 q12 96 -3.5 128t-93.5 32h-57q-78 0 -103.5 -33t-37.5 -127l-45 -322h295zM369 1417l67 -225h-43l-98 225h74z" />
<glyph unicode="&#xe9;" horiz-adv-x="591" d="M395 201l25 174h55l-26 -197q-16 -111 -56.5 -149.5t-138.5 -38.5h-74q-98 0 -127.5 39t-13.5 149l108 776q16 109 56.5 148t138.5 39h74q98 0 127.5 -39t13.5 -148l-55 -397h-352l-50 -356q-12 -96 3.5 -128t93.5 -32h57q78 0 103.5 33t37.5 127zM453 608l45 322 q12 96 -3.5 128t-93.5 32h-57q-78 0 -103.5 -33t-37.5 -127l-45 -322h295zM344 1192l133 225h76l-164 -225h-45z" />
<glyph unicode="&#xea;" horiz-adv-x="591" d="M395 201l25 174h55l-26 -197q-16 -111 -56.5 -149.5t-138.5 -38.5h-74q-98 0 -127.5 39t-13.5 149l108 776q16 109 56.5 148t138.5 39h74q98 0 127.5 -39t13.5 -148l-55 -397h-352l-50 -356q-12 -96 3.5 -128t93.5 -32h57q78 0 103.5 33t37.5 127zM453 608l45 322 q12 96 -3.5 128t-93.5 32h-57q-78 0 -103.5 -33t-37.5 -127l-45 -322h295zM449 1417l92 -225h-45l-82 162l-127 -162h-47l155 225h54z" />
<glyph unicode="&#xeb;" horiz-adv-x="591" d="M395 201l25 174h55l-26 -197q-16 -111 -56.5 -149.5t-138.5 -38.5h-74q-98 0 -127.5 39t-13.5 149l108 776q16 109 56.5 148t138.5 39h74q98 0 127.5 -39t13.5 -148l-55 -397h-352l-50 -356q-12 -96 3.5 -128t93.5 -32h57q78 0 103.5 33t37.5 127zM453 608l45 322 q12 96 -3.5 128t-93.5 32h-57q-78 0 -103.5 -33t-37.5 -127l-45 -322h295zM518 1260h-65l12 90h65zM344 1260h-65l12 90h65z" />
<glyph unicode="&#xec;" horiz-adv-x="268" d="M201 1417l67 -225h-43l-98 225h74zM244 1130l-158 -1130h-59l157 1130h60z" />
<glyph unicode="&#xed;" horiz-adv-x="268" d="M176 1192l133 225h76l-164 -225h-45zM244 1130l-158 -1130h-59l157 1130h60z" />
<glyph unicode="&#xee;" horiz-adv-x="268" d="M244 1130l-158 -1130h-59l157 1130h60zM283 1417l92 -225h-45l-82 162l-127 -162h-47l155 225h54z" />
<glyph unicode="&#xef;" horiz-adv-x="268" d="M352 1260h-65l12 90h66zM178 1260h-65l12 90h65zM244 1130l-158 -1130h-59l157 1130h60z" />
<glyph unicode="&#xf0;" horiz-adv-x="630" d="M600 1237l-147 -1059q-16 -111 -56.5 -149.5t-138.5 -38.5h-78q-98 0 -127.5 39t-13.5 149l111 785q14 102 53 140t131 38h35q121 0 143 -103l27 185q14 92 0 120l-150 -118l-22 32l147 113q-25 12 -72 12h-59l8 52h62q76 0 112 -25l33 25h55l-65 -52q24 -43 12 -145z M395 201l99 692q27 197 -109 197h-49q-72 0 -95.5 -31t-35.5 -121l-105 -737q-12 -96 3.5 -128t93.5 -32h57q78 0 103.5 33t37.5 127z" />
<glyph unicode="&#xf1;" horiz-adv-x="618" d="M440 0h-59l131 938q12 90 -3 121t-87 31h-49q-135 0 -162 -197l-125 -893h-59l157 1130h54l-17 -110q53 121 185 121h34q92 0 121 -38t14 -140zM539 1348h43q-8 -61 -32 -86t-69 -25q-43 0 -88 28.5t-61 28.5q-23 0 -31 -13t-12 -48h-43q8 59 31.5 84.5t68.5 25.5 q43 0 88 -28.5t62 -28.5q23 0 31 13.5t12 48.5z" />
<glyph unicode="&#xf2;" horiz-adv-x="598" d="M561 954l-108 -776q-16 -111 -56.5 -149.5t-138.5 -38.5h-78q-98 0 -127.5 39t-13.5 149l108 776q16 109 56.5 148t138.5 39h78q98 0 127.5 -39t13.5 -148zM203 930l-103 -729q-12 -96 3.5 -128t93.5 -32h57q78 0 103.5 32.5t37.5 127.5l103 729q12 96 -3.5 128t-93.5 32 h-57q-78 0 -103.5 -33t-37.5 -127zM365 1417l67 -225h-43l-98 225h74z" />
<glyph unicode="&#xf3;" horiz-adv-x="598" d="M561 954l-108 -776q-16 -111 -56.5 -149.5t-138.5 -38.5h-78q-98 0 -127.5 39t-13.5 149l108 776q16 109 56.5 148t138.5 39h78q98 0 127.5 -39t13.5 -148zM203 930l-103 -729q-12 -96 3.5 -128t93.5 -32h57q78 0 103.5 32.5t37.5 127.5l103 729q12 96 -3.5 128t-93.5 32 h-57q-78 0 -103.5 -33t-37.5 -127zM340 1192l133 225h76l-164 -225h-45z" />
<glyph unicode="&#xf4;" horiz-adv-x="598" d="M561 954l-108 -776q-16 -111 -56.5 -149.5t-138.5 -38.5h-78q-98 0 -127.5 39t-13.5 149l108 776q16 109 56.5 148t138.5 39h78q98 0 127.5 -39t13.5 -148zM203 930l-103 -729q-12 -96 3.5 -128t93.5 -32h57q78 0 103.5 32.5t37.5 127.5l103 729q12 96 -3.5 128t-93.5 32 h-57q-78 0 -103.5 -33t-37.5 -127zM446 1417l93 -225h-45l-82 162l-127 -162h-47l155 225h53z" />
<glyph unicode="&#xf5;" horiz-adv-x="598" d="M561 954l-108 -776q-16 -111 -56.5 -149.5t-138.5 -38.5h-78q-98 0 -127.5 39t-13.5 149l108 776q16 109 56.5 148t138.5 39h78q98 0 127.5 -39t13.5 -148zM203 930l-103 -729q-12 -96 3.5 -128t93.5 -32h57q78 0 103.5 32.5t37.5 127.5l103 729q12 96 -3.5 128t-93.5 32 h-57q-78 0 -103.5 -33t-37.5 -127zM526 1348h43q-8 -61 -31.5 -86t-68.5 -25q-43 0 -88 28.5t-62 28.5q-23 0 -30.5 -13t-12.5 -48h-43q8 59 32 84.5t69 25.5q43 0 88 -28.5t61 -28.5q23 0 31 13.5t12 48.5z" />
<glyph unicode="&#xf6;" horiz-adv-x="598" d="M561 954l-108 -776q-16 -111 -56.5 -149.5t-138.5 -38.5h-78q-98 0 -127.5 39t-13.5 149l108 776q16 109 56.5 148t138.5 39h78q98 0 127.5 -39t13.5 -148zM203 930l-103 -729q-12 -96 3.5 -128t93.5 -32h57q78 0 103.5 32.5t37.5 127.5l103 729q12 96 -3.5 128t-93.5 32 h-57q-78 0 -103.5 -33t-37.5 -127zM516 1260h-65l12 90h65zM342 1260h-66l13 90h65z" />
<glyph unicode="&#xf7;" d="M545 745l-8 -59h-426l8 59h426zM258 492l12 79h72l-12 -79h-72zM311 860l11 80h71l-10 -80h-72z" />
<glyph unicode="&#xf8;" horiz-adv-x="598" d="M561 954l-108 -776q-16 -111 -56.5 -149.5t-138.5 -38.5h-78q-61 0 -94 12l-27 -63h-55l41 98q-20 41 -6 141l108 776q16 109 56.5 148t138.5 39h78q53 0 90 -13l31 74h55l-45 -106q22 -36 10 -142zM498 930q6 31 6 55l-391 -924q20 -20 84 -20h57q78 0 103.5 32.5 t37.5 127.5zM203 930l-109 -778l391 917q-23 20 -84 21h-57q-78 0 -103.5 -33t-37.5 -127z" />
<glyph unicode="&#xf9;" horiz-adv-x="618" d="M463 190q-18 -119 -14 -190h-56q-6 33 6 113q-51 -123 -184 -123h-35q-92 0 -120.5 38t-14.5 140l135 962h60l-131 -937q-16 -82 0 -117t88 -35h49q137 0 164 197l125 892h59zM375 1417l67 -225h-43l-98 225h74z" />
<glyph unicode="&#xfa;" horiz-adv-x="618" d="M463 190q-18 -119 -14 -190h-56q-6 33 6 113q-51 -123 -184 -123h-35q-92 0 -120.5 38t-14.5 140l135 962h60l-131 -937q-16 -82 0 -117t88 -35h49q137 0 164 197l125 892h59zM350 1192l133 225h76l-164 -225h-45z" />
<glyph unicode="&#xfb;" horiz-adv-x="618" d="M463 190q-18 -119 -14 -190h-56q-6 33 6 113q-51 -123 -184 -123h-35q-92 0 -120.5 38t-14.5 140l135 962h60l-131 -937q-16 -82 0 -117t88 -35h49q137 0 164 197l125 892h59zM457 1417l92 -225h-45l-82 162l-127 -162h-47l155 225h54z" />
<glyph unicode="&#xfc;" horiz-adv-x="618" d="M463 190q-18 -119 -14 -190h-56q-6 33 6 113q-51 -123 -184 -123h-35q-92 0 -120.5 38t-14.5 140l135 962h60l-131 -937q-16 -82 0 -117t88 -35h49q137 0 164 197l125 892h59zM526 1260h-65l12 90h66zM352 1260h-65l12 90h66z" />
<glyph unicode="&#xfd;" horiz-adv-x="530" d="M174 -145q-39 -115 -156 -115h-69l6 51h68q82 0 104 76l27 86l-54 1177h62l22 -585q16 -395 11 -498q25 117 149 498l191 585h55zM311 1192l133 225h76l-164 -225h-45z" />
<glyph unicode="&#xfe;" d="M512 938q12 90 -3 121t-87 31h-49q-135 0 -162 -197l-92 -655q-27 -197 106 -197h49q72 0 96.5 30.5t37.5 121.5zM49 -260h-59l237 1694h60l-56 -396q53 102 175 103h34q92 0 121 -38t14 -140l-112 -795q-14 -102 -53 -140t-131 -38h-35q-123 0 -146 100z" />
<glyph unicode="&#xff;" horiz-adv-x="530" d="M174 -145q-39 -115 -156 -115h-69l6 51h68q82 0 104 76l27 86l-54 1177h62l22 -585q16 -395 11 -498q25 117 149 498l191 585h55zM485 1260h-65l12 90h66zM311 1260h-65l12 90h66z" />
<glyph unicode="&#x152;" horiz-adv-x="864" d="M633 1378l-84 -596h254l-8 -55h-254l-95 -672h289l-6 -55h-516q-113 0 -146.5 44t-17.5 165l144 1016q16 123 62 166t159 43h516l-8 -56h-289zM223 55h160l186 1323h-159q-88 0 -116 -34.5t-42 -141.5l-137 -971q-10 -66 -7 -104.5t28.5 -55t86.5 -16.5z" />
<glyph unicode="&#x153;" horiz-adv-x="946" d="M750 201l24 174h55l-26 -197q-16 -111 -56 -149.5t-139 -38.5h-49q-80 0 -113.5 23.5t-35.5 84.5q-18 -61 -57.5 -84.5t-119.5 -23.5h-53q-98 0 -127.5 39t-13.5 149l108 776q16 109 56.5 148t138.5 39h53q80 0 113 -23.5t33 -85.5q20 61 60 85t120 24h49q98 0 128 -39 t13 -148l-53 -397h-352l-51 -356q-12 -96 3 -128t93 -32h57q78 0 104 33t38 127zM203 930l-103 -729q-12 -96 3.5 -128t93.5 -32h57q78 0 103.5 32.5t37.5 127.5l103 729q12 96 -3.5 128t-93.5 32h-57q-78 0 -103.5 -33t-37.5 -127zM557 930l-45 -322h295l45 322 q12 96 -3 128t-93 32h-58q-78 0 -103.5 -33t-37.5 -127z" />
<glyph unicode="&#x178;" horiz-adv-x="542" d="M229 0h-63l76 543l-101 891h64l51 -463q31 -301 31 -357q25 94 125 359l178 461h59l-344 -887zM535 1546h-66l12 90h66zM360 1546h-65l12 90h66z" />
<glyph unicode="&#x2c6;" horiz-adv-x="305" d="M301 1417l92 -225h-45l-82 162l-127 -162h-47l156 225h53z" />
<glyph unicode="&#x2dc;" horiz-adv-x="305" d="M381 1348h43q-8 -61 -31.5 -86t-68.5 -25q-41 0 -86 28.5t-64 28.5q-23 0 -31 -13t-12 -48h-43q8 59 31.5 84.5t68.5 25.5q41 0 86 -28.5t64 -28.5q23 0 31 13.5t12 48.5z" />
<glyph unicode="&#x2000;" horiz-adv-x="852" />
<glyph unicode="&#x2001;" horiz-adv-x="1704" />
<glyph unicode="&#x2002;" horiz-adv-x="852" />
<glyph unicode="&#x2003;" horiz-adv-x="1704" />
<glyph unicode="&#x2004;" horiz-adv-x="568" />
<glyph unicode="&#x2005;" horiz-adv-x="426" />
<glyph unicode="&#x2006;" horiz-adv-x="284" />
<glyph unicode="&#x2007;" horiz-adv-x="284" />
<glyph unicode="&#x2008;" horiz-adv-x="213" />
<glyph unicode="&#x2009;" horiz-adv-x="340" />
<glyph unicode="&#x200a;" horiz-adv-x="94" />
<glyph unicode="&#x2010;" horiz-adv-x="382" d="M334 573l-6 -47h-281l6 47h281z" />
<glyph unicode="&#x2011;" horiz-adv-x="382" d="M334 573l-6 -47h-281l6 47h281z" />
<glyph unicode="&#x2012;" horiz-adv-x="382" d="M334 573l-6 -47h-281l6 47h281z" />
<glyph unicode="&#x2013;" horiz-adv-x="1024" d="M1026 573l-6 -47h-1024l6 47h1024z" />
<glyph unicode="&#x2014;" horiz-adv-x="2048" d="M2050 573l-6 -47h-2048l6 47h2048z" />
<glyph unicode="&#x2018;" horiz-adv-x="305" d="M295 1298l-19 -131h-75l18 131l76 136l12 -4l-57 -132h45z" />
<glyph unicode="&#x2019;" horiz-adv-x="305" d="M219 1303l17 131h75l-16 -131l-78 -136l-10 4l57 132h-45z" />
<glyph unicode="&#x201a;" horiz-adv-x="305" d="M37 0l16 131h76l-16 -131l-78 -135l-10 4l57 131h-45z" />
<glyph unicode="&#x201c;" horiz-adv-x="438" d="M457 1298l-19 -131h-76l19 131l76 136l12 -4l-57 -132h45zM266 1298l-18 -131h-76l18 131l76 136l13 -4l-58 -132h45z" />
<glyph unicode="&#x201d;" horiz-adv-x="438" d="M381 1303l16 131h76l-16 -131l-78 -136l-10 4l57 132h-45zM190 1303l17 131h76l-17 -131l-78 -136l-10 4l58 132h-46z" />
<glyph unicode="&#x201e;" horiz-adv-x="438" d="M199 0l16 131h76l-17 -131l-77 -135l-11 4l58 131h-45zM8 0l17 131h75l-16 -131l-78 -135l-10 4l57 131h-45z" />
<glyph unicode="&#x2022;" horiz-adv-x="530" d="M262 547q-66 0 -108.5 44t-42.5 107q0 78 62.5 135.5t137.5 57.5q66 0 109 -44t43 -108q0 -78 -62.5 -135t-138.5 -57z" />
<glyph unicode="&#x2026;" horiz-adv-x="628" d="M8 0l17 131h75l-16 -131h-76zM199 0l16 131h76l-17 -131h-75zM389 0l17 131h75l-16 -131h-76z" />
<glyph unicode="&#x202f;" horiz-adv-x="340" />
<glyph unicode="&#x2039;" horiz-adv-x="296" d="M162 156l-142 409l256 410h62l-260 -410l141 -409h-57z" />
<glyph unicode="&#x203a;" horiz-adv-x="296" d="M135 975l141 -410l-256 -409h-61l260 409l-141 410h57z" />
<glyph unicode="&#x205f;" horiz-adv-x="426" />
<glyph unicode="&#x20ac;" d="M561 829h-362l-21 -149h363l-9 -55h-362l-57 -418q-14 -96 3 -129t99 -33h57q82 0 108 32t40 130l35 254h55l-39 -277q-16 -115 -57 -154.5t-146 -39.5h-69q-104 0 -135 40t-15 154l62 441h-78l8 55h78l20 149h-78l9 56h77l52 364q16 115 58 155t146 40h70q104 0 134 -40 t14 -155l-29 -200h-55l26 178q12 96 -4 129t-98 33h-58q-82 0 -108.5 -33t-38.5 -129l-49 -342h362z" />
<glyph unicode="&#x2122;" horiz-adv-x="841" d="M635 864l184 570h84l-119 -848h-59l80 567q23 158 35 209l-29 -98l-33 -111l-186 -567h-45l-33 567q-8 137 -6 217q-16 -156 -25 -217l-80 -567h-49l119 848h80l31 -570q8 -100 2 -184q22 106 49 184zM129 1382l8 52h260l-8 -52h-100l-111 -796h-59l110 796h-100z" />
<glyph unicode="&#xe000;" horiz-adv-x="1130" d="M0 1130h1130v-1130h-1130v1130z" />
<glyph unicode="&#xfb01;" horiz-adv-x="604" d="M92 1079l6 51h99l16 115q16 111 56 150t139 39h32l-8 -52h-24q-72 0 -97.5 -24.5t-38.5 -118.5l-16 -109h141l-6 -51h-141l-152 -1079h-59l151 1079h-98zM580 1130l-158 -1130h-60l158 1130h60zM547 1321l16 113h60l-17 -113h-59z" />
<glyph unicode="&#xfb02;" horiz-adv-x="604" d="M92 1079l6 51h99l16 115q16 111 56 150t139 39h32l-8 -52h-24q-72 0 -97.5 -24.5t-38.5 -118.5l-16 -109h141l-6 -51h-141l-152 -1079h-59l151 1079h-98zM422 0h-60l201 1434h60z" />
<glyph unicode="&#xfb03;" horiz-adv-x="938" d="M914 1130l-158 -1130h-59l157 1130h60zM881 1321l16 113h60l-17 -113h-59zM427 1079l6 51h99l16 115q16 111 56 150t139 39h32l-8 -52h-24q-72 0 -97.5 -24.5t-38.5 -118.5l-16 -109h141l-6 -51h-141l-152 -1079h-59l151 1079h-98zM92 1079l6 51h99l16 115q16 111 56 150 t139 39h32l-8 -52h-24q-72 0 -97.5 -24.5t-38.5 -118.5l-16 -109h141l-6 -51h-141l-152 -1079h-59l151 1079h-98z" />
<glyph unicode="&#xfb04;" horiz-adv-x="938" d="M756 0h-59l200 1434h60zM427 1079l6 51h99l16 115q16 111 56 150t139 39h32l-8 -52h-24q-72 0 -97.5 -24.5t-38.5 -118.5l-16 -109h141l-6 -51h-141l-152 -1079h-59l151 1079h-98zM92 1079l6 51h99l16 115q16 111 56 150t139 39h32l-8 -52h-24q-72 0 -97.5 -24.5 t-38.5 -118.5l-16 -109h141l-6 -51h-141l-152 -1079h-59l151 1079h-98z" />
</font>
</defs>
</svg>
