<?xml version="1.0" standalone="no"?>
<!DOCTYPE svg PUBLIC "-//W3C//DTD SVG 1.1//EN" "http://www.w3.org/Graphics/SVG/1.1/DTD/svg11.dtd" >
<svg xmlns="http://www.w3.org/2000/svg">
<metadata>
This is a custom SVG webfont generated by Fontspring.
</metadata>
<defs>
<font id="DharmaGothicERegular" horiz-adv-x="675" >
<font-face units-per-em="2048" ascent="1638" descent="-410" />
<missing-glyph horiz-adv-x="282" />
<glyph unicode=" "  horiz-adv-x="282" />
<glyph unicode="&#x09;" horiz-adv-x="282" />
<glyph unicode="&#xa0;" horiz-adv-x="282" />
<glyph unicode="!" horiz-adv-x="327" d="M254 983l-33 -657h-115l-32 657v451h180v-451zM70 0v229h188v-229h-188z" />
<glyph unicode="&#x22;" horiz-adv-x="518" d="M477 1288l-24 -282h-123l-23 282v146h170v-146zM213 1288l-25 -282h-122l-23 282v146h170v-146z" />
<glyph unicode="#" d="M608 1434l-16 -248h72l-13 -152h-71l-41 -585h73l-10 -152h-74l-20 -297h-146l21 297h-158l-20 -297h-146l21 297h-68l8 152h70l41 585h-72l13 152h71l17 248h145l-16 -248h157l17 248h145zM276 1034l-40 -585h157l43 585h-160z" />
<glyph unicode="$" d="M406 -51h-138v92q-115 2 -155.5 54t-40.5 192v250h157v-220q0 -70 14.5 -93t71.5 -23h35q57 0 72.5 23.5t15.5 92.5v86q0 72 -28.5 120t-133.5 134q-129 109 -166.5 178.5t-37.5 180.5v131q0 137 41 189.5t155 56.5v92h138v-92q117 -4 157.5 -56.5t40.5 -189.5v-223h-158 v192q0 70 -14 93.5t-72 23.5h-34q-57 0 -72.5 -23.5t-15.5 -93.5v-86q0 -72 27.5 -119t131.5 -135q131 -111 169 -179.5t38 -178.5v-131q0 -139 -41 -191.5t-157 -54.5v-92z" />
<glyph unicode="%" horiz-adv-x="1134" d="M324 0l430 1434h57l-428 -1434h-59zM676 172v547q0 106 36 144t132 38h74q94 0 129.5 -39t35.5 -143v-547q0 -104 -35.5 -143t-129.5 -39h-74q-96 0 -132 38t-36 144zM803 692v-493q0 -55 11 -72.5t54 -17.5h23q43 0 54 17t11 73v493q0 55 -11 72.5t-54 17.5h-23 q-43 0 -54 -17.5t-11 -72.5zM51 715v547q0 106 36 144t132 38h74q94 0 130 -39t36 -143v-547q0 -104 -36 -143.5t-130 -39.5h-74q-96 0 -132 38.5t-36 144.5zM178 1235v-494q0 -55 11.5 -72.5t54.5 -17.5h22q43 0 54.5 17.5t11.5 72.5v494q0 55 -11.5 72.5t-54.5 17.5h-22 q-43 0 -54.5 -17.5t-11.5 -72.5z" />
<glyph unicode="&#x26;" horiz-adv-x="731" d="M479 0q-18 43 -22 143q-29 -154 -183 -153h-47q-98 0 -134 46t-36 163v307q0 121 28 178t101 74q-74 20 -101.5 77.5t-27.5 178.5v153q0 156 49.5 211.5t190.5 55.5h188v-168h-155q-61 0 -76.5 -24.5t-15.5 -102.5v-170q0 -76 15 -101.5t77 -25.5h119v188h163v-188h109 v-166h-109v-418q0 -164 33 -258h-166zM238 551v-279q0 -68 14 -92t65 -24h35q96 0 97 145v375h-119q-61 0 -76.5 -24.5t-15.5 -100.5z" />
<glyph unicode="'" horiz-adv-x="337" d="M254 1288l-25 -282h-123l-22 282v146h170v-146z" />
<glyph unicode="(" horiz-adv-x="421" d="M70 94v1123q0 139 44 188t169 49h96v-139h-66q-53 0 -67.5 -23.5t-14.5 -91.5v-1091q0 -68 14.5 -90.5t67.5 -22.5h66v-139h-96q-125 0 -169 49t-44 188z" />
<glyph unicode=")" horiz-adv-x="421" d="M352 1217v-1123q0 -139 -44 -188t-169 -49h-96v139h66q53 0 67 22.5t14 90.5v1091q0 68 -14 91.5t-67 23.5h-66v139h96q125 0 169 -49t44 -188z" />
<glyph unicode="*" horiz-adv-x="628" d="M12 1034l230 92l-230 93l72 122l190 -153l-32 246h143l-37 -246l195 153l73 -122l-233 -93l233 -92l-73 -125l-193 152l35 -244h-143l32 244l-190 -152z" />
<glyph unicode="+" d="M266 1014h142v-223h202v-148h-202v-225h-142v225h-200v148h200v223z" />
<glyph unicode="," horiz-adv-x="337" d="M74 0v246h188v-246l-160 -174l-14 10l105 164h-119z" />
<glyph unicode="-" horiz-adv-x="438" d="M397 612v-125h-356v125h356z" />
<glyph unicode="." horiz-adv-x="337" d="M74 0v246h188v-246h-188z" />
<glyph unicode="/" d="M16 -41l482 1516h161l-483 -1516h-160z" />
<glyph unicode="0" d="M610 1198v-962q0 -143 -46 -194.5t-175 -51.5h-102q-129 0 -175 51t-46 195v962q0 143 46 194.5t175 51.5h102q129 0 175 -51.5t46 -194.5zM233 1169v-905q0 -70 15.5 -93.5t70.5 -23.5h37q55 0 70.5 24t15.5 93v905q0 70 -15 93.5t-71 23.5h-37q-55 0 -70.5 -23.5 t-15.5 -93.5z" />
<glyph unicode="1" horiz-adv-x="331" d="M254 0h-168v1348q29 0 58.5 28.5t29.5 57.5h80v-1434z" />
<glyph unicode="2" horiz-adv-x="653" d="M438 1139v30q0 70 -15 93.5t-71 23.5h-37q-55 0 -70.5 -23.5t-15.5 -93.5v-245h-157v274q0 143 45 194.5t176 51.5h92q129 0 175 -51.5t46 -194.5v-70q0 -154 -41 -248t-172 -262q-104 -135 -138 -212.5t-34 -206.5v-41h387v-158h-555v211q0 154 41 248t174 262 q102 133 136 212t34 206z" />
<glyph unicode="3" horiz-adv-x="651" d="M215 1169v-190h-158v219q0 143 45 194.5t177 51.5h92q129 0 175 -51.5t46 -194.5v-209q0 -111 -24.5 -164t-86.5 -71q61 -20 86 -72.5t25 -161.5v-284q0 -143 -46 -194.5t-175 -51.5h-92q-131 0 -176.5 51t-45.5 195v292h158v-264q0 -70 15.5 -93.5t70.5 -23.5h37 q57 0 71.5 24t14.5 93v295q0 70 -14.5 93.5t-71.5 23.5h-195v158h195q57 0 71.5 23.5t14.5 92.5v219q0 70 -14.5 93.5t-71.5 23.5h-37q-57 0 -71.5 -23.5t-14.5 -93.5z" />
<glyph unicode="4" horiz-adv-x="634" d="M340 1432h180v-1031h111v-143h-111v-258h-166v258h-342v131zM158 401h196v310q0 217 13 463q-55 -260 -117 -463z" />
<glyph unicode="5" horiz-adv-x="655" d="M223 788v-133h-157v779h507v-158h-350v-305q37 115 170 114h43q94 0 129 -45t35 -159v-645q0 -143 -46 -194.5t-177 -51.5h-90q-129 0 -175 51t-46 195v292h157v-264q0 -70 15.5 -93.5t70.5 -23.5h37q55 0 70.5 24t15.5 93v553q0 68 -14.5 91.5t-65.5 23.5h-33 q-96 -1 -96 -144z" />
<glyph unicode="6" horiz-adv-x="667" d="M610 762v-526q0 -143 -46 -194.5t-175 -51.5h-102q-131 0 -176 51t-45 195v962q0 143 46 194.5t175 51.5h90q131 0 177 -51.5t46 -194.5v-158h-158v129q0 70 -15 93.5t-71 23.5h-37q-55 0 -70.5 -23.5t-15.5 -93.5v-317q37 115 168 115h45q96 0 130 -44t34 -161zM362 811 h-32q-96 0 -97 -141v-406q0 -70 15.5 -93.5t70.5 -23.5h37q55 0 70.5 24t15.5 93v434q0 68 -14.5 90.5t-65.5 22.5z" />
<glyph unicode="7" horiz-adv-x="571" d="M287 0h-187l306 1276h-396v158h551v-142z" />
<glyph unicode="8" horiz-adv-x="659" d="M379 -10h-98q-131 0 -177.5 51t-46.5 195v296q0 109 24.5 161t86.5 73q-63 18 -87 71.5t-24 161.5v199q0 143 46.5 194.5t177.5 51.5h98q131 0 177 -51.5t46 -194.5v-199q0 -109 -24.5 -162t-85.5 -71q61 -20 85.5 -72.5t24.5 -161.5v-296q0 -143 -46 -194.5t-177 -51.5z M434 264v307q0 70 -15.5 93.5t-70.5 23.5h-37q-55 0 -70.5 -23.5t-15.5 -93.5v-307q0 -70 15.5 -93.5t70.5 -23.5h37q55 0 70.5 23.5t15.5 93.5zM434 963v206q0 70 -15.5 93.5t-70.5 23.5h-37q-55 0 -70.5 -23.5t-15.5 -93.5v-206q0 -70 15.5 -93.5t70.5 -23.5h37 q55 0 70.5 23.5t15.5 93.5z" />
<glyph unicode="9" horiz-adv-x="667" d="M348 147q55 0 70.5 24t15.5 93v338q-39 -115 -168 -115h-45q-96 0 -130 44t-34 161v506q0 143 46.5 194.5t175.5 51.5h102q131 0 176 -51.5t45 -194.5v-962q0 -143 -46 -194.5t-175 -51.5h-90q-131 0 -177 51t-46 195v178h157v-150q0 -70 15.5 -93.5t70.5 -23.5h37z M305 643h33q96 0 96 141v385q0 70 -15.5 93.5t-70.5 23.5h-37q-55 0 -70.5 -23.5t-15.5 -93.5v-413q0 -68 14.5 -90.5t65.5 -22.5z" />
<glyph unicode=":" horiz-adv-x="337" d="M74 799v245h188v-245h-188zM74 0v246h188v-246h-188z" />
<glyph unicode=";" horiz-adv-x="337" d="M74 0v246h188v-246l-160 -174l-14 10l105 164h-119zM74 799v245h188v-245h-188z" />
<glyph unicode="&#x3c;" d="M262 717l348 -285h-200l-344 285l344 282h200z" />
<glyph unicode="=" d="M610 961v-148h-544v148h544zM610 621v-148h-544v148h544z" />
<glyph unicode="&#x3e;" d="M66 432l348 285l-348 282h200l344 -282l-344 -285h-200z" />
<glyph unicode="?" horiz-adv-x="622" d="M184 0v281h185v-281h-185zM412 1124v45q0 70 -15.5 93.5t-72.5 23.5h-35q-57 0 -71.5 -23.5t-14.5 -93.5v-245h-158v274q0 143 45 194.5t176 51.5h90q131 0 177.5 -51.5t46.5 -196.5v-82q0 -106 -24 -184t-57 -125l-68 -91q-34 -44 -57.5 -107.5t-23.5 -149.5v-68h-145 v55q0 129 32.5 219.5t70.5 134.5t71 127.5t33 198.5z" />
<glyph unicode="@" horiz-adv-x="1058" d="M737 1040l-67 -768q-4 -57 49 -57h8q166 0 166 401v205q0 236 -77 340.5t-263 104.5h-8q-188 0 -277.5 -103.5t-89.5 -369.5v-408q0 -135 34 -227t97.5 -138.5t136 -64.5t168.5 -18q129 0 195 24v-98q-80 -23 -197 -23q-549 0 -549 557v396q0 299 123 436t359 137h8 q233 0 336.5 -135t103.5 -410v-223q0 -262 -75.5 -361.5t-198.5 -99.5h-12q-98 0 -123 74q-27 -74 -125 -74h-33q-119 0 -104 131l55 658q6 66 33.5 95.5t83.5 29.5h30q88 0 105 -68l24 57h84zM557 287l53 620q4 61 -53 62h-20q-41 0 -45 -49l-56 -654q-4 -47 35 -47h12 q35 0 52.5 13.5t21.5 54.5z" />
<glyph unicode="A" horiz-adv-x="681" d="M477 0l-31 219h-231l-31 -219h-161l194 1434h248l192 -1434h-180zM260 561l-22 -174h186l-23 174q-43 330 -71 723q-33 -430 -70 -723z" />
<glyph unicode="B" horiz-adv-x="729" d="M78 0v1434h348q141 0 190.5 -55.5t49.5 -211.5v-163q0 -117 -25 -173.5t-90 -76.5q66 -20 90.5 -76.5t24.5 -171.5v-240q0 -156 -49.5 -211t-190.5 -55h-348zM393 670h-135v-502h135q61 0 76.5 24.5t15.5 102.5v248q0 76 -16.5 101.5t-75.5 25.5zM485 965v174 q0 78 -15 102.5t-77 24.5h-135v-428h135q59 0 75.5 25.5t16.5 101.5z" />
<glyph unicode="C" horiz-adv-x="712" d="M250 1149v-864q0 -76 16.5 -101.5t75.5 -25.5h43q59 0 75.5 25.5t16.5 101.5v301h170v-330q0 -156 -49 -211t-190 -55h-99q-141 0 -190 55t-49 211v922q0 156 49 211t190 55h99q141 0 190 -55.5t49 -210.5v-269h-170v240q0 76 -16.5 101.5t-75.5 25.5h-43 q-59 0 -75.5 -25.5t-16.5 -101.5z" />
<glyph unicode="D" horiz-adv-x="739" d="M82 0v1434h346q141 0 191.5 -55.5t50.5 -211.5v-901q0 -156 -50.5 -211t-191.5 -55h-346zM262 168h135q59 0 75.5 25.5t16.5 101.5v844q0 76 -16 101.5t-76 25.5h-135v-1098z" />
<glyph unicode="E" horiz-adv-x="573" d="M262 1266v-432h223v-168h-223v-498h268v-168h-448v1434h448v-168h-268z" />
<glyph unicode="F" horiz-adv-x="532" d="M262 1266v-453h213v-168h-213v-645h-180v1434h438v-168h-258z" />
<glyph unicode="G" horiz-adv-x="714" d="M365 627v168h282v-539q0 -156 -49 -211t-190 -55h-99q-141 0 -190 55t-49 211v922q0 156 49 211t190 55h99q141 0 190 -55.5t49 -210.5v-244h-170v215q0 76 -16.5 101.5t-75.5 25.5h-43q-59 0 -75.5 -25.5t-16.5 -101.5v-864q0 -76 16.5 -101.5t75.5 -25.5h43 q59 0 75.5 25.5t16.5 101.5v342h-112z" />
<glyph unicode="H" horiz-adv-x="751" d="M262 0h-180v1434h180v-600h227v600h181v-1434h-181v666h-227v-666z" />
<glyph unicode="I" horiz-adv-x="344" d="M82 0v1434h180v-1434h-180z" />
<glyph unicode="J" horiz-adv-x="684" d="M199 586v-301q0 -76 16 -101.5t76 -25.5h43q59 0 75.5 25.5t16.5 101.5v1149h180v-1178q0 -156 -49 -211t-190 -55h-99q-141 0 -190 55t-49 211v330h170z" />
<glyph unicode="K" horiz-adv-x="731" d="M82 0v1434h180v-641q20 57 39 100l236 541h178l-303 -674l313 -760h-188l-236 573q-20 49 -39 115v-688h-180z" />
<glyph unicode="L" horiz-adv-x="509" d="M82 0v1434h180v-1266h236v-168h-416z" />
<glyph unicode="M" horiz-adv-x="968" d="M684 866l-133 -866h-150l-133 866q-18 109 -37 271q4 -172 5 -271v-866h-156v1434h276l111 -811q4 -37 9 -114t7 -99q8 152 17 213l108 811h281v-1434h-176v866q0 94 4 258q-23 -195 -33 -258z" />
<glyph unicode="N" horiz-adv-x="751" d="M469 0l-193 829q-20 90 -45 258q4 -168 5 -262v-825h-156v1434h227l170 -766q27 -115 47 -258q0 25 -4 115.5t-4 144.5v764h158v-1434h-205z" />
<glyph unicode="O" horiz-adv-x="727" d="M70 256v922q0 156 49 211t190 55h109q141 0 190 -55.5t49 -210.5v-922q0 -156 -49 -211t-190 -55h-109q-141 0 -190 55t-49 211zM477 285v864q0 76 -16.5 101.5t-75.5 25.5h-43q-59 0 -75.5 -25.5t-16.5 -101.5v-864q0 -76 16.5 -101.5t75.5 -25.5h43q59 0 75.5 25.5 t16.5 101.5z" />
<glyph unicode="P" horiz-adv-x="692" d="M82 0v1434h336q141 0 190 -55.5t49 -211.5v-360q0 -156 -49 -211t-190 -55h-156v-541h-180zM262 709h125q59 0 74.5 25.5t15.5 101.5v303q0 76 -15.5 101.5t-74.5 25.5h-125v-557z" />
<glyph unicode="Q" horiz-adv-x="727" d="M70 256v922q0 156 49 211t190 55h109q141 0 190 -55.5t49 -210.5v-922q0 -141 -39.5 -198.5t-146.5 -65.5v-49q0 -61 18.5 -84t65.5 -23h43v-96h-80q-119 0 -164 41t-45 182v27q-141 0 -190 55t-49 211zM477 285v864q0 76 -16.5 101.5t-75.5 25.5h-43q-59 0 -75.5 -25.5 t-16.5 -101.5v-864q0 -76 16.5 -101.5t75.5 -25.5h43q59 0 75.5 25.5t16.5 101.5z" />
<glyph unicode="R" horiz-adv-x="735" d="M666 473v-221q0 -154 30 -252h-188q-23 51 -23 223v275q0 78 -21.5 110.5t-84.5 32.5h-121v-641h-180v1434h348q141 0 190.5 -55.5t49.5 -211.5v-194q0 -115 -25 -171.5t-90 -76.5q66 -20 90.5 -77.5t24.5 -174.5zM485 936v203q0 78 -15 102.5t-77 24.5h-135v-457h135 q59 0 75.5 25.5t16.5 101.5z" />
<glyph unicode="S" d="M440 285v100q0 94 -31.5 145.5t-142.5 151.5q-129 117 -169 190.5t-40 210.5v95q0 156 49.5 211t190.5 55h84q141 0 190.5 -55.5t49.5 -210.5v-224h-170v195q0 78 -15.5 102.5t-77.5 24.5h-30q-59 0 -75.5 -24.5t-16.5 -98.5v-68q0 -94 31.5 -146t142.5 -153 q129 -117 170 -189.5t41 -209.5v-131q0 -156 -49.5 -211t-190.5 -55h-86q-141 0 -189.5 55t-48.5 211v264h168v-235q0 -78 15.5 -102.5t76.5 -24.5h31q59 0 75.5 25.5t16.5 101.5z" />
<glyph unicode="T" horiz-adv-x="509" d="M346 0h-180v1266h-158v168h494v-168h-156v-1266z" />
<glyph unicode="U" horiz-adv-x="729" d="M258 1434v-1149q0 -78 15.5 -102.5t76.5 -24.5h43q59 0 75.5 25.5t16.5 101.5v1149h168v-1178q0 -156 -48 -211t-189 -55h-99q-141 0 -190 55t-49 211v1178h180z" />
<glyph unicode="V" horiz-adv-x="673" d="M207 1434l84 -629q27 -195 57 -559q27 313 60 559l81 629h162l-192 -1434h-240l-194 1434h182z" />
<glyph unicode="W" horiz-adv-x="1038" d="M502 649l-70 -649h-233l-174 1434h182l76 -680q39 -336 43 -463q6 178 39 463l73 680h185l73 -680q33 -285 39 -463q4 127 43 463l76 680h162l-174 -1434h-221l-72 649q-14 123 -23 379q-12 -254 -24 -379z" />
<glyph unicode="X" horiz-adv-x="681" d="M420 1174l65 260h160l-174 -680l188 -754h-184l-76 317q-51 213 -69 330q-27 -158 -68 -330l-78 -317h-161l186 754l-176 680h180l66 -260q55 -221 71 -320q25 142 70 320z" />
<glyph unicode="Y" horiz-adv-x="649" d="M416 0h-180v483l-226 951h183l75 -338q53 -238 68 -394q18 176 67 394l76 338h160l-223 -951v-483z" />
<glyph unicode="Z" horiz-adv-x="569" d="M51 1266v168h481v-156l-309 -1110h309v-168h-497v156l309 1110h-293z" />
<glyph unicode="[" horiz-adv-x="432" d="M82 1454h309v-139h-147v-1319h147v-139h-309v1597z" />
<glyph unicode="\" d="M178 1475l481 -1516h-159l-484 1516h162z" />
<glyph unicode="]" horiz-adv-x="432" d="M41 1454h309v-1597h-309v139h147v1319h-147v139z" />
<glyph unicode="^" d="M279 1434h116l215 -541h-139l-133 346l-133 -346h-139z" />
<glyph unicode="_" horiz-adv-x="1024" d="M1024 -29v-106h-1024v106h1024z" />
<glyph unicode="`" horiz-adv-x="337" d="M174 1423l102 -235h-102l-149 235h149z" />
<glyph unicode="a" horiz-adv-x="655" d="M57 369q0 115 35 174t144 104q131 53 158.5 84t27.5 129v19q0 68 -14.5 90t-67.5 22h-35q-51 0 -66.5 -23.5t-15.5 -88.5v-129h-151v153q0 139 43 188.5t168 49.5h90q125 0 169 -49.5t44 -188.5v-713q0 -123 14 -190h-154q-16 35 -18 115q-33 -125 -168 -125h-41 q-92 0 -127 43t-35 151v185zM422 274v314q-39 -23 -88 -43q-72 -31 -92.5 -66t-20.5 -114v-117q0 -63 14.5 -86t63.5 -23h31q92 0 92 135z" />
<glyph unicode="b" horiz-adv-x="665" d="M438 883q0 63 -14 85.5t-64 22.5h-30q-92 0 -92 -135v-582q0 -135 92 -135h30q49 0 63.5 22.5t14.5 86.5v635zM238 1434v-398q37 104 161 105h41q92 0 127 -43t35 -152v-762q0 -109 -35 -151.5t-127 -42.5h-41q-137 0 -170 125l-16 -115h-139v1434h164z" />
<glyph unicode="c" horiz-adv-x="643" d="M428 252v207h154v-232q0 -139 -44 -188t-169 -49h-90q-127 0 -171.5 49t-44.5 188v676q0 139 44.5 188.5t171.5 49.5h90q125 0 169 -49.5t44 -188.5v-211h-154v187q0 68 -14.5 90t-67.5 22h-37q-53 0 -67.5 -22.5t-14.5 -89.5v-627q0 -68 14.5 -90.5t67.5 -22.5h37 q53 0 67.5 22.5t14.5 90.5z" />
<glyph unicode="d" horiz-adv-x="665" d="M428 274v582q0 135 -90 135h-33q-49 0 -62.5 -22.5t-13.5 -85.5v-635q0 -63 13.5 -86t62.5 -23h33q90 0 90 135zM592 190q0 -113 16 -190h-155q-12 29 -17 121q-29 -131 -170 -131h-41q-92 0 -125.5 43t-33.5 151v762q0 109 33.5 152t125.5 43h41q123 0 162 -105v398h164 v-1244z" />
<glyph unicode="e" horiz-adv-x="645" d="M428 252v133h154v-158q0 -139 -44 -188t-169 -49h-90q-127 0 -171.5 49t-44.5 188v676q0 139 44.5 188.5t171.5 49.5h90q125 0 169 -49.5t44 -188.5v-387h-355v-264q0 -68 14.5 -90.5t67.5 -22.5h37q53 0 67.5 22.5t14.5 90.5zM428 659v220q0 68 -14.5 90t-67.5 22h-37 q-53 0 -67.5 -22.5t-14.5 -89.5v-220h201z" />
<glyph unicode="f" horiz-adv-x="382" d="M12 993v137h80v68q0 137 44 186.5t169 49.5h68v-129h-33q-51 0 -68.5 -19.5t-17.5 -87.5v-68h119v-137h-117v-993h-164v993h-80z" />
<glyph unicode="g" horiz-adv-x="647" d="M217 893v-350q0 -68 14.5 -91.5t67.5 -23.5h37q53 0 67.5 23.5t14.5 91.5v350q0 68 -14.5 91.5t-67.5 23.5h-37q-53 0 -67.5 -23.5t-14.5 -91.5zM500 -78v12q0 45 -22.5 59.5t-78.5 14.5h-135q-45 0 -65.5 -17.5t-20.5 -60.5v-12q0 -51 20.5 -66.5t71.5 -15.5h129 q57 0 79 16.5t22 69.5zM190 223v-4q0 -35 20.5 -48t63.5 -13h127q119 0 176.5 -37t57.5 -154v-33q0 -119 -52.5 -161.5t-179.5 -42.5h-176q-170 0 -170 157v37q0 90 72 119q-51 37 -51 131v16q0 92 63 125q-82 41 -82 217v371q0 139 44 188.5t169 49.5h76q147 0 187 -78 q10 78 75 78h27v-146h-27q-35 0 -35 -53v-410q0 -137 -44 -187t-169 -50h-98q-41 0 -57.5 -16.5t-16.5 -55.5z" />
<glyph unicode="h" horiz-adv-x="671" d="M602 0h-164v883q0 63 -14 85.5t-64 22.5h-30q-92 0 -92 -135v-856h-164v1434h164v-398q37 104 161 105h41q92 0 127 -43t35 -152v-946z" />
<glyph unicode="i" horiz-adv-x="311" d="M238 1130v-1130h-164v1130h164zM74 1268v166h164v-166h-164z" />
<glyph unicode="j" horiz-adv-x="311" d="M74 1130h164v-1153q0 -139 -42 -188t-169 -49h-47v125h12q51 0 66.5 18.5t15.5 85.5v1161zM74 1268v166h164v-166h-164z" />
<glyph unicode="k" horiz-adv-x="649" d="M238 532v-532h-164v1434h164v-803l61 139l166 360h160l-256 -534l268 -596h-170l-178 399q-37 84 -51 133z" />
<glyph unicode="l" horiz-adv-x="311" d="M238 0h-164v1434h164v-1434z" />
<glyph unicode="m" horiz-adv-x="1013" d="M238 0h-164v1130h153v-129q31 139 172 140h31q72 0 107.5 -27t46.5 -86q37 113 166 113h32q92 0 126 -43t34 -152v-946h-162v883q0 63 -14 85.5t-64 22.5h-20q-92 0 -92 -135v-856h-164v883q0 63 -13.5 85.5t-62.5 22.5h-20q-92 0 -92 -135v-856z" />
<glyph unicode="n" horiz-adv-x="671" d="M602 0h-164v883q0 63 -14 85.5t-64 22.5h-30q-92 0 -92 -135v-856h-164v1130h153v-129q31 139 172 140h41q92 0 127 -43t35 -152v-946z" />
<glyph unicode="o" horiz-adv-x="655" d="M592 903v-676q0 -139 -44 -188t-169 -49h-100q-127 0 -171.5 49t-44.5 188v676q0 139 44.5 188.5t171.5 49.5h100q125 0 169 -49.5t44 -188.5zM227 879v-627q0 -68 14.5 -90.5t67.5 -22.5h37q53 0 67.5 22.5t14.5 90.5v627q0 68 -14.5 90t-67.5 22h-37q-53 0 -67.5 -22 t-14.5 -90z" />
<glyph unicode="p" horiz-adv-x="665" d="M438 883q0 63 -14 85.5t-64 22.5h-30q-92 0 -92 -135v-582q0 -135 92 -135h30q49 0 63.5 22.5t14.5 86.5v635zM238 -260h-164v1390h153v-129q31 139 172 140h41q92 0 127 -43t35 -152v-762q0 -109 -35 -151.5t-127 -42.5h-41q-127 0 -161 102v-352z" />
<glyph unicode="q" horiz-adv-x="665" d="M428 274v582q0 135 -90 135h-33q-49 0 -62.5 -22.5t-13.5 -85.5v-635q0 -63 13.5 -86t62.5 -23h33q90 0 90 135zM592 1130v-1390h-164v352q-39 -102 -162 -102h-41q-92 0 -125.5 43t-33.5 151v762q0 109 33.5 152t125.5 43h41q135 0 168 -127l19 116h139z" />
<glyph unicode="r" horiz-adv-x="403" d="M238 0h-164v1130h153v-151q31 162 150 162h14v-174h-16q-74 0 -105.5 -49.5t-31.5 -163.5v-754z" />
<glyph unicode="s" horiz-adv-x="630" d="M410 252v51q0 70 -29 108t-131 109q-117 80 -155 143.5t-38 174.5v65q0 139 43 188.5t170 49.5h90q125 0 169 -49.5t44 -188.5v-153h-153v129q0 68 -14.5 90t-67.5 22h-37q-51 0 -65.5 -22.5t-14.5 -89.5v-31q0 -70 29 -108t131 -109q117 -80 154.5 -143.5t37.5 -174.5 v-86q0 -139 -44 -188t-169 -49h-90q-127 0 -170 49t-43 188v174h154v-149q0 -68 14.5 -90.5t67.5 -22.5h35q53 0 67.5 22.5t14.5 90.5z" />
<glyph unicode="t" horiz-adv-x="374" d="M12 993v137h80v246h164v-246h109v-137h-109v-735q0 -166 35 -258h-174q-25 57 -25 229v764h-80z" />
<glyph unicode="u" horiz-adv-x="671" d="M598 190q0 -123 16 -190h-155q-12 29 -17 121q-29 -131 -170 -131h-41q-92 0 -125.5 43t-33.5 151v946h161v-882q0 -63 14.5 -86t63.5 -23h31q92 0 92 135v856h164v-940z" />
<glyph unicode="v" horiz-adv-x="606" d="M180 1130l70 -428q51 -309 61 -526q12 205 66 526l69 428h148l-186 -1130h-211l-185 1130h168z" />
<glyph unicode="w" horiz-adv-x="956" d="M440 379l-47 -379h-225l-156 1130h168l56 -405q35 -246 51 -539q16 236 59 537l60 407h167l60 -407q41 -293 55 -537q25 352 51 539l56 405h147l-154 -1130h-219l-47 379q-37 311 -43 395q-6 -125 -39 -395z" />
<glyph unicode="x" horiz-adv-x="595" d="M406 1065l18 65h149l-155 -538l164 -592h-170l-27 104q-86 330 -98 408q-20 -131 -94 -408l-27 -104h-150l160 592l-153 538h167l19 -65q84 -301 100 -395q23 133 97 395z" />
<glyph unicode="y" horiz-adv-x="606" d="M387 -100q-25 -160 -190 -160h-150v125h84q63 0 68 59l4 64l-191 1142h168l70 -428q47 -295 61 -526q18 252 64 526l71 428h148z" />
<glyph unicode="z" horiz-adv-x="538" d="M59 993v137h445v-124l-291 -869h291v-137h-467v125l291 868h-269z" />
<glyph unicode="{" horiz-adv-x="462" d="M37 586h-25v137h25q49 0 64.5 20.5t15.5 85.5v388q0 139 43 188t170 49h94v-139h-66q-51 0 -65 -23.5t-14 -91.5v-319q0 -106 -25 -157.5t-86 -70.5q61 -16 86 -68.5t25 -156.5v-319q0 -68 14 -90.5t65 -22.5h66v-139h-94q-127 0 -170 49t-43 188v385q0 63 -16.5 85 t-63.5 22z" />
<glyph unicode="|" d="M414 1434v-1694h-154v1694h154z" />
<glyph unicode="}" horiz-adv-x="462" d="M451 586h-25q-47 0 -63.5 -21.5t-16.5 -85.5v-385q0 -139 -43 -188t-170 -49h-94v139h65q51 0 65.5 22.5t14.5 90.5v319q0 104 24.5 156.5t86.5 68.5q-61 18 -86 69.5t-25 158.5v319q0 68 -14 91.5t-66 23.5h-65v139h94q127 0 170 -49t43 -188v-388q0 -66 15.5 -86 t64.5 -20h25v-137z" />
<glyph unicode="~" d="M610 842v-162q-63 -88 -141 -88q-47 0 -139 44t-135 44q-74 0 -129 -90v160q63 88 141 88q47 0 138 -44t134 -44q74 0 131 92z" />
<glyph unicode="&#xa1;" horiz-adv-x="327" d="M74 190l32 658h115l33 -658v-450h-180v450zM258 1174v-230h-188v230h188z" />
<glyph unicode="&#xa2;" d="M442 403v207h154v-231q0 -135 -41 -185.5t-154 -52.5v-141h-131v141q-113 2 -152.5 52.5t-39.5 185.5v676q0 133 40 184t152 53v142h131v-142q113 -2 154 -53t41 -184v-211h-154v186q0 68 -14 90.5t-68 22.5h-36q-53 0 -67.5 -22.5t-14.5 -90.5v-627q0 -68 14 -90t68 -22 h36q53 0 67.5 22t14.5 90z" />
<glyph unicode="&#xa3;" d="M573 449h-206q-14 -174 -136 -291h363v-158h-539v143q80 70 116 140.5t42 165.5h-137v118h131q-10 39 -47 129t-62.5 192.5t-25.5 223.5v86q0 143 46 194.5t175 51.5h92q131 0 176 -51.5t45 -194.5v-348h-157v319q0 70 -15.5 93.5t-71.5 23.5h-36q-55 0 -70.5 -23.5 t-15.5 -93.5v-59q0 -119 24.5 -219t57 -188.5t40.5 -135.5h211v-118z" />
<glyph unicode="&#xa4;" d="M115 715q0 70 39 125l-103 92l70 69l90 -102q61 41 125 41q72 0 127 -43l94 104l68 -69l-105 -92q41 -53 41 -125q0 -68 -39 -125l103 -90l-68 -68l-92 100q-57 -41 -129 -40.5t-125 40.5l-90 -100l-70 68l103 90q-39 53 -39 125zM201 714.5q0 -57.5 40 -97t95 -39.5 q57 0 98 39.5t41 97.5q0 59 -41 100t-98 41q-55 0 -95 -42t-40 -99.5z" />
<glyph unicode="&#xa5;" d="M412 1096l69 338h150l-201 -908h186v-65h-194v-135h194v-66h-194v-260h-168v260h-197v66h197v135h-197v65h187l-199 908h168l72 -338q49 -244 63 -394q15 150 64 394z" />
<glyph unicode="&#xa6;" d="M414 1434v-775h-154v775h154zM414 514v-774h-154v774h154z" />
<glyph unicode="&#xa7;" horiz-adv-x="645" d="M215 47q0 -70 14.5 -93.5t67.5 -23.5h37q53 0 68.5 23.5t15.5 93.5v27q0 63 -28 101t-124 93q-123 72 -166 132.5t-43 154.5v176q0 147 107 180q-66 53 -86.5 106.5t-20.5 131.5v53q0 141 45 191.5t174 50.5h95q129 0 173 -50.5t44 -191.5v-119h-160v105q0 70 -14.5 93.5 t-67.5 23.5h-37q-53 0 -67.5 -24t-14.5 -93v-27q0 -63 28 -101t122 -93q123 -72 167 -132.5t44 -154.5v-176q0 -147 -111 -182q66 -51 87.5 -104.5t21.5 -131.5v-53q0 -141 -45 -191.5t-174 -50.5h-93q-129 0 -173 50t-44 192v119h158v-105zM424 643q0 61 -22.5 96 t-102.5 86q-49 0 -63.5 -21.5t-14.5 -72.5v-139q0 -61 22.5 -97t100.5 -85q51 0 65.5 20.5t14.5 73.5v139z" />
<glyph unicode="&#xa8;" horiz-adv-x="337" d="M358 1229h-147v155h147v-155zM123 1229h-146v155h146v-155z" />
<glyph unicode="&#xa9;" horiz-adv-x="1079" d="M1004 983v-532q0 -244 -90.5 -352.5t-331.5 -108.5h-84q-244 0 -334 108.5t-90 352.5v532q0 244 90 352.5t334 108.5h84q242 0 332 -108.5t90 -352.5zM182 983v-532q0 -205 67.5 -284t250.5 -79h80q182 0 248.5 79t66.5 284v532q0 205 -66.5 284t-248.5 79h-80 q-182 0 -250 -79t-68 -284zM465 999v-565q0 -49 12 -65.5t51 -16.5h23q39 0 51 16.5t12 65.5v197h109v-217q0 -100 -34 -135t-126 -35h-57q-92 0 -125 35.5t-33 134.5v608q0 98 34 133t124 35h57q92 0 126 -35t34 -133v-178h-109v155q0 49 -12 65.5t-51 16.5h-23 q-39 0 -51 -16.5t-12 -65.5z" />
<glyph unicode="&#xaa;" horiz-adv-x="503" d="M174 1247v-80h-115v99q0 104 33 141t127 37h64q96 0 127.5 -37t31.5 -141v-490q0 -88 15 -135h-113q-12 18 -16 96q-23 -106 -129 -106h-27q-68 0 -94.5 33.5t-26.5 115.5v111q0 80 25.5 124t105.5 77q98 43 117.5 62.5t19.5 84.5v8q0 49 -10 65.5t-49 16.5h-27 q-39 0 -49 -16.5t-10 -65.5zM53 424v117h398v-117h-398zM319 844v196q-27 -20 -65 -36q-53 -23 -66.5 -46.5t-13.5 -76.5v-56q0 -49 10.5 -66.5t46.5 -17.5h23q65 1 65 103z" />
<glyph unicode="&#xab;" horiz-adv-x="643" d="M213 156l-201 409l201 410h152l-193 -410l193 -409h-152zM479 156l-192 409l192 410h152l-187 -410l187 -409h-152z" />
<glyph unicode="&#xac;" d="M467 643h-401v148h544v-373h-143v225z" />
<glyph unicode="&#xad;" horiz-adv-x="438" d="M397 612v-125h-356v125h356z" />
<glyph unicode="&#xae;" horiz-adv-x="1079" d="M1004 983v-532q0 -244 -90.5 -352.5t-331.5 -108.5h-84q-244 0 -334 108.5t-90 352.5v532q0 244 90 352.5t334 108.5h84q242 0 332 -108.5t90 -352.5zM182 983v-532q0 -205 67.5 -284t250.5 -79h80q182 0 248.5 79t66.5 284v532q0 205 -66.5 284t-248.5 79h-80 q-182 0 -250 -79t-68 -284zM733 1010v-150q0 -137 -76 -162q76 -23 76 -157v-101q0 -113 23 -186h-123q-14 35 -15 166v141q0 49 -16 67.5t-55 18.5h-76v-393h-117v926h221q92 0 125 -36t33 -134zM555 1075h-84v-323h84q39 0 51 16t12 66v159q0 49 -12 65.5t-51 16.5z" />
<glyph unicode="&#xaf;" horiz-adv-x="337" d="M360 1235h-383v104h383v-104z" />
<glyph unicode="&#xb0;" horiz-adv-x="495" d="M248 1411q94 0 152.5 -58.5t58.5 -154.5t-58.5 -155.5t-152.5 -59.5t-152.5 59.5t-58.5 155.5t58.5 154.5t152.5 58.5zM248 1303q-45 0 -73 -29t-28 -76t28 -75.5t73 -28.5t71.5 28.5t26.5 75.5t-26.5 76t-71.5 29z" />
<glyph unicode="&#xb1;" d="M610 471v-147h-544v147h544zM266 1110h142v-215h202v-150h-202v-215h-142v215h-200v150h200v215z" />
<glyph unicode="&#xb2;" horiz-adv-x="509" d="M180 1235v-113h-119v140q0 106 35 144t131 38h68q96 0 131 -38t35 -144v-43q0 -45 -9.5 -84t-18.5 -65t-32.5 -55.5t-35 -41.5t-43 -40t-39.5 -36q-57 -51 -83 -95t-26 -112v-28h281v-119h-408v145q0 100 38 165t108 122q74 63 107.5 115.5t33.5 130.5v14 q0 55 -11.5 72.5t-54.5 17.5h-22q-43 0 -54.5 -17.5t-11.5 -72.5z" />
<glyph unicode="&#xb3;" horiz-adv-x="509" d="M328 741v111q0 55 -11.5 72.5t-54.5 17.5h-127v119h127q43 0 54.5 17.5t11.5 72.5v84q0 55 -11.5 72.5t-54.5 17.5h-22q-43 0 -54.5 -17.5t-11.5 -72.5v-51h-119v78q0 106 35 144t131 38h68q94 0 130 -39t36 -143v-84q0 -84 -21.5 -124t-73.5 -53q51 -12 73 -53t22 -123 v-110q0 -104 -36 -143.5t-130 -39.5h-68q-96 0 -131 38t-35 145v88h119v-62q0 -53 11.5 -71.5t52.5 -18.5h24q43 0 54.5 17.5t11.5 72.5z" />
<glyph unicode="&#xb4;" horiz-adv-x="337" d="M59 1188l105 235h149l-149 -235h-105z" />
<glyph unicode="&#xb5;" horiz-adv-x="671" d="M233 -260h-161v1390h161v-882q0 -63 14.5 -86t63.5 -23h31q92 0 92 135v856h164v-940q0 -123 16 -190h-155q-12 29 -17 121q-29 -131 -170 -131h-39v-250z" />
<glyph unicode="&#xb6;" horiz-adv-x="837" d="M479 1303v-1502h-133v613h-72q-141 0 -190 55t-49 211v487q0 156 49 211.5t190 55.5h482v-1633h-133v1502h-144z" />
<glyph unicode="&#xb7;" horiz-adv-x="337" d="M74 594v246h188v-246h-188z" />
<glyph unicode="&#xb8;" horiz-adv-x="337" d="M215 -168q0 35 -18.5 50.5t-73.5 13.5v116h57v-78q76 0 109 -21.5t33 -72.5q0 -27 -4.5 -43t-18.5 -33.5t-48 -25.5t-87 -8q-92 0 -120 25.5t-28 86.5h95q-2 -37 7 -51t44 -14q33 0 43 12t10 43z" />
<glyph unicode="&#xb9;" horiz-adv-x="290" d="M209 543h-127v827q25 0 46.5 20.5t21.5 43.5h59v-891z" />
<glyph unicode="&#xba;" horiz-adv-x="499" d="M55 424v117h391v-117h-391zM55 811v455q0 104 32 141t126 37h76q94 0 125.5 -37t31.5 -141v-455q0 -106 -31.5 -143t-125.5 -37h-76q-94 0 -126 37t-32 143zM324 829v418q0 49 -10.5 65.5t-49.5 16.5h-26q-39 0 -49.5 -16.5t-10.5 -65.5v-418q0 -51 10.5 -67.5 t49.5 -16.5h26q39 0 49.5 16.5t10.5 67.5z" />
<glyph unicode="&#xbb;" horiz-adv-x="643" d="M631 565l-201 -409h-151l192 409l-192 410h151zM356 565l-192 -409h-152l187 409l-187 410h152z" />
<glyph unicode="&#xbc;" horiz-adv-x="884" d="M137 0l430 1434h58l-428 -1434h-60zM209 543h-127v827q25 0 46.5 20.5t21.5 43.5h59v-891zM659 891h132v-619h57v-110h-57v-162h-127v162h-252v102zM524 272h140v84q0 188 8 346q-59 -201 -115 -346z" />
<glyph unicode="&#xbd;" horiz-adv-x="950" d="M137 0l430 1434h58l-428 -1434h-60zM209 543h-127v827q25 0 46.5 20.5t21.5 43.5h59v-891zM621 692v-112h-119v139q0 106 34.5 144t131.5 38h67q96 0 131 -38t35 -144v-43q0 -45 -9 -84t-18.5 -64.5t-33 -55.5t-34.5 -42t-43 -40t-40 -36q-57 -51 -83 -95t-26 -112v-28 h281v-119h-408v145q0 100 38 165t108 122q74 63 107.5 115.5t33.5 130.5v14q0 55 -11 72.5t-54 17.5h-23q-43 0 -54 -17.5t-11 -72.5z" />
<glyph unicode="&#xbe;" horiz-adv-x="1069" d="M324 0l430 1434h57l-428 -1434h-59zM846 891h131v-619h57v-110h-57v-162h-127v162h-252v102zM711 272h139v84q0 188 8 346q-59 -201 -115 -346zM328 741v111q0 55 -11.5 72.5t-54.5 17.5h-127v119h127q43 0 54.5 17.5t11.5 72.5v84q0 55 -11.5 72.5t-54.5 17.5h-22 q-43 0 -54.5 -17.5t-11.5 -72.5v-51h-119v78q0 106 35 144t131 38h68q94 0 130 -39t36 -143v-84q0 -84 -21.5 -124t-73.5 -53q51 -12 73 -53t22 -123v-110q0 -104 -36 -143.5t-130 -39.5h-68q-96 0 -131 38t-35 145v88h119v-62q0 -53 11.5 -71.5t52.5 -18.5h24 q43 0 54.5 17.5t11.5 72.5z" />
<glyph unicode="&#xbf;" horiz-adv-x="622" d="M438 1174v-281h-184v281h184zM211 49v-45q0 -70 15.5 -93.5t72.5 -23.5h35q57 0 71.5 23.5t14.5 93.5v246h158v-275q0 -143 -45.5 -194t-176.5 -51h-90q-131 0 -177 51t-46 196v82q0 106 23.5 184.5t57.5 125.5l67 91q34 44 57.5 107.5t23.5 149.5v67h146v-55 q0 -129 -33 -219t-71 -134t-70.5 -128t-32.5 -199z" />
<glyph unicode="&#xc0;" horiz-adv-x="681" d="M477 0l-31 219h-231l-31 -219h-161l194 1434h248l192 -1434h-180zM260 561l-22 -174h186l-23 174q-43 330 -71 723q-33 -430 -70 -723zM317 1712l103 -235h-103l-149 235h149z" />
<glyph unicode="&#xc1;" horiz-adv-x="681" d="M477 0l-31 219h-231l-31 -219h-161l194 1434h248l192 -1434h-180zM260 561l-22 -174h186l-23 174q-43 330 -71 723q-33 -430 -70 -723zM260 1477l105 235h149l-149 -235h-105z" />
<glyph unicode="&#xc2;" horiz-adv-x="681" d="M477 0l-31 219h-231l-31 -219h-161l194 1434h248l192 -1434h-180zM260 561l-22 -174h186l-23 174q-43 330 -71 723q-33 -430 -70 -723zM401 1712l134 -235h-105l-88 133l-88 -133h-104l131 235h120z" />
<glyph unicode="&#xc3;" horiz-adv-x="681" d="M477 0l-31 219h-231l-31 -219h-161l194 1434h248l192 -1434h-180zM260 561l-22 -174h186l-23 174q-43 330 -71 723q-33 -430 -70 -723zM461 1667h80q0 -88 -28 -124t-89 -36q-45 0 -95 28t-69 28q-37 0 -37 -58h-80q0 88 28 124t89 36q45 0 95.5 -27.5t68.5 -27.5 q37 0 37 57z" />
<glyph unicode="&#xc4;" horiz-adv-x="681" d="M477 0l-31 219h-231l-31 -219h-161l194 1434h248l192 -1434h-180zM260 561l-22 -174h186l-23 174q-43 330 -71 723q-33 -430 -70 -723zM530 1518h-147v155h147v-155zM295 1518h-145v155h145v-155z" />
<glyph unicode="&#xc5;" horiz-adv-x="681" d="M477 0l-31 219h-231l-31 -219h-161l194 1434h248l192 -1434h-180zM260 561l-22 -174h186l-23 174q-43 330 -71 723q-33 -430 -70 -723zM393 1607.5q0 22.5 -15.5 37t-38 14.5t-37.5 -15.5t-15 -35.5q0 -23 15 -38.5t37.5 -15.5t38 15.5t15.5 38zM215 1607.5 q0 53.5 36 87.5t89 34q55 0 91 -34t36 -87.5t-37 -88t-90 -34.5t-89 34.5t-36 88z" />
<glyph unicode="&#xc6;" horiz-adv-x="905" d="M14 0l322 1434h528v-168h-268v-432h223v-168h-223v-498h268v-168h-448v219h-193l-47 -219h-162zM305 608l-45 -221h156v827q-50 -315 -111 -606z" />
<glyph unicode="&#xc7;" horiz-adv-x="712" d="M406 -168q0 35 -18.5 50.5t-74.5 13.5v94h-4q-141 0 -190 55t-49 211v922q0 156 49 211t190 55h99q141 0 190 -55.5t49 -210.5v-269h-170v240q0 76 -16.5 101.5t-75.5 25.5h-43q-59 0 -75.5 -25.5t-16.5 -101.5v-864q0 -76 16.5 -101.5t75.5 -25.5h43q59 0 75.5 25.5 t16.5 101.5v301h170v-330q0 -156 -49 -211t-190 -55h-37v-56q76 0 108.5 -21.5t32.5 -72.5q0 -27 -4 -43t-18.5 -33.5t-48 -25.5t-87.5 -8q-92 0 -119.5 25.5t-27.5 86.5h94q-2 -37 7 -51t44 -14q33 0 43.5 12t10.5 43z" />
<glyph unicode="&#xc8;" horiz-adv-x="573" d="M262 1266v-432h223v-168h-223v-498h268v-168h-448v1434h448v-168h-268zM285 1712l102 -235h-102l-150 235h150z" />
<glyph unicode="&#xc9;" horiz-adv-x="573" d="M262 1266v-432h223v-168h-223v-498h268v-168h-448v1434h448v-168h-268zM229 1477l105 235h149l-149 -235h-105z" />
<glyph unicode="&#xca;" horiz-adv-x="573" d="M262 1266v-432h223v-168h-223v-498h268v-168h-448v1434h448v-168h-268zM367 1712l133 -235h-105l-88 133l-88 -133h-104l131 235h121z" />
<glyph unicode="&#xcb;" horiz-adv-x="573" d="M262 1266v-432h223v-168h-223v-498h268v-168h-448v1434h448v-168h-268zM496 1518h-148v155h148v-155zM260 1518h-145v155h145v-155z" />
<glyph unicode="&#xcc;" horiz-adv-x="344" d="M82 0v1434h180v-1434h-180zM147 1712l103 -235h-103l-149 235h149z" />
<glyph unicode="&#xcd;" horiz-adv-x="344" d="M82 0v1434h180v-1434h-180zM90 1477l105 235h149l-149 -235h-105z" />
<glyph unicode="&#xce;" horiz-adv-x="344" d="M82 0v1434h180v-1434h-180zM231 1712l134 -235h-105l-88 133l-88 -133h-104l131 235h120z" />
<glyph unicode="&#xcf;" horiz-adv-x="344" d="M82 0v1434h180v-1434h-180zM360 1518h-147v155h147v-155zM125 1518h-145v155h145v-155z" />
<glyph unicode="&#xd0;" horiz-adv-x="739" d="M82 0v686h-53v135h53v613h346q141 0 191.5 -55.5t50.5 -211.5v-901q0 -156 -50.5 -211t-191.5 -55h-346zM262 168h135q59 0 75.5 25.5t16.5 101.5v844q0 76 -16 101.5t-76 25.5h-135v-445h119v-135h-119v-518z" />
<glyph unicode="&#xd1;" horiz-adv-x="751" d="M469 0l-193 829q-20 90 -45 258q4 -168 5 -262v-825h-156v1434h227l170 -766q27 -115 47 -258q0 25 -4 115.5t-4 144.5v764h158v-1434h-205zM496 1667h79q0 -88 -27.5 -124t-88.5 -36q-45 0 -95.5 28t-68.5 28q-37 0 -37 -58h-80q0 88 27.5 124t89.5 36q45 0 95 -27.5 t69 -27.5q37 0 37 57z" />
<glyph unicode="&#xd2;" horiz-adv-x="727" d="M70 256v922q0 156 49 211t190 55h109q141 0 190 -55.5t49 -210.5v-922q0 -156 -49 -211t-190 -55h-109q-141 0 -190 55t-49 211zM477 285v864q0 76 -16.5 101.5t-75.5 25.5h-43q-59 0 -75.5 -25.5t-16.5 -101.5v-864q0 -76 16.5 -101.5t75.5 -25.5h43q59 0 75.5 25.5 t16.5 101.5zM340 1712l102 -235h-102l-150 235h150z" />
<glyph unicode="&#xd3;" horiz-adv-x="727" d="M70 256v922q0 156 49 211t190 55h109q141 0 190 -55.5t49 -210.5v-922q0 -156 -49 -211t-190 -55h-109q-141 0 -190 55t-49 211zM477 285v864q0 76 -16.5 101.5t-75.5 25.5h-43q-59 0 -75.5 -25.5t-16.5 -101.5v-864q0 -76 16.5 -101.5t75.5 -25.5h43q59 0 75.5 25.5 t16.5 101.5zM283 1477l104 235h150l-150 -235h-104z" />
<glyph unicode="&#xd4;" horiz-adv-x="727" d="M70 256v922q0 156 49 211t190 55h109q141 0 190 -55.5t49 -210.5v-922q0 -156 -49 -211t-190 -55h-109q-141 0 -190 55t-49 211zM477 285v864q0 76 -16.5 101.5t-75.5 25.5h-43q-59 0 -75.5 -25.5t-16.5 -101.5v-864q0 -76 16.5 -101.5t75.5 -25.5h43q59 0 75.5 25.5 t16.5 101.5zM422 1712l133 -235h-104l-89 133l-88 -133h-104l131 235h121z" />
<glyph unicode="&#xd5;" horiz-adv-x="727" d="M70 256v922q0 156 49 211t190 55h109q141 0 190 -55.5t49 -210.5v-922q0 -156 -49 -211t-190 -55h-109q-141 0 -190 55t-49 211zM477 285v864q0 76 -16.5 101.5t-75.5 25.5h-43q-59 0 -75.5 -25.5t-16.5 -101.5v-864q0 -76 16.5 -101.5t75.5 -25.5h43q59 0 75.5 25.5 t16.5 101.5zM481 1667h80q0 -88 -27.5 -124t-89.5 -36q-45 0 -95 28t-68 28q-37 0 -37 -58h-80q0 88 27.5 124t89.5 36q45 0 95 -27.5t68 -27.5q37 0 37 57z" />
<glyph unicode="&#xd6;" horiz-adv-x="727" d="M70 256v922q0 156 49 211t190 55h109q141 0 190 -55.5t49 -210.5v-922q0 -156 -49 -211t-190 -55h-109q-141 0 -190 55t-49 211zM477 285v864q0 76 -16.5 101.5t-75.5 25.5h-43q-59 0 -75.5 -25.5t-16.5 -101.5v-864q0 -76 16.5 -101.5t75.5 -25.5h43q59 0 75.5 25.5 t16.5 101.5zM551 1518h-148v155h148v-155zM315 1518h-145v155h145v-155z" />
<glyph unicode="&#xd7;" d="M244 717l-172 182l92 98l174 -182l172 182l94 -96l-176 -184l176 -182l-94 -97l-172 183l-174 -183l-92 97z" />
<glyph unicode="&#xd8;" horiz-adv-x="727" d="M70 256v922q0 156 49 211t190 55h109q29 0 74 -4l16 55h149l-36 -125q37 -57 36 -192v-922q0 -156 -49 -211t-190 -55h-109q-31 0 -76 4l-16 -55h-147l34 124q-34 54 -34 193zM250 1149v-643l199 756q-16 14 -64 14h-43q-59 0 -75.5 -25.5t-16.5 -101.5zM477 285v641 l-201 -756q23 -12 66 -12h43q59 0 75.5 25.5t16.5 101.5z" />
<glyph unicode="&#xd9;" horiz-adv-x="729" d="M258 1434v-1149q0 -78 15.5 -102.5t76.5 -24.5h43q59 0 75.5 25.5t16.5 101.5v1149h168v-1178q0 -156 -48 -211t-189 -55h-99q-141 0 -190 55t-49 211v1178h180zM340 1712l102 -235h-102l-150 235h150z" />
<glyph unicode="&#xda;" horiz-adv-x="729" d="M258 1434v-1149q0 -78 15.5 -102.5t76.5 -24.5h43q59 0 75.5 25.5t16.5 101.5v1149h168v-1178q0 -156 -48 -211t-189 -55h-99q-141 0 -190 55t-49 211v1178h180zM285 1477l104 235h150l-150 -235h-104z" />
<glyph unicode="&#xdb;" horiz-adv-x="729" d="M258 1434v-1149q0 -78 15.5 -102.5t76.5 -24.5h43q59 0 75.5 25.5t16.5 101.5v1149h168v-1178q0 -156 -48 -211t-189 -55h-99q-141 0 -190 55t-49 211v1178h180zM424 1712l133 -235h-104l-88 133l-89 -133h-104l131 235h121z" />
<glyph unicode="&#xdc;" horiz-adv-x="729" d="M258 1434v-1149q0 -78 15.5 -102.5t76.5 -24.5h43q59 0 75.5 25.5t16.5 101.5v1149h168v-1178q0 -156 -48 -211t-189 -55h-99q-141 0 -190 55t-49 211v1178h180zM553 1518h-147v155h147v-155zM317 1518h-145v155h145v-155z" />
<glyph unicode="&#xdd;" horiz-adv-x="649" d="M416 0h-180v483l-226 951h183l75 -338q53 -238 68 -394q18 176 67 394l76 338h160l-223 -951v-483zM252 1477l104 235h150l-150 -235h-104z" />
<glyph unicode="&#xde;" horiz-adv-x="692" d="M82 0v1434h180v-123h156q141 0 190 -54.5t49 -209.5v-338q0 -156 -49 -211.5t-190 -55.5h-156v-442h-180zM262 610h125q59 0 74.5 24.5t15.5 100.5v281q0 78 -15.5 103.5t-74.5 25.5h-125v-535z" />
<glyph unicode="&#xdf;" horiz-adv-x="663" d="M438 1079v121q0 68 -14 91.5t-68 23.5h-39q-47 0 -63 -19.5t-16 -85.5v-1210h-164v1206q0 139 44 188.5t169 49.5h100q127 0 171 -49t44 -189v-92q0 -106 -25.5 -157.5t-91.5 -67.5q66 -14 91.5 -66.5t25.5 -156.5v-428q0 -139 -44 -188.5t-171 -49.5h-78v137h47 q49 0 65.5 19.5t16.5 87.5v454q0 68 -14 91.5t-68 23.5h-47v152h47q53 0 67.5 23t14.5 91z" />
<glyph unicode="&#xe0;" horiz-adv-x="655" d="M57 369q0 115 35 174t144 104q131 53 158.5 84t27.5 129v19q0 68 -14.5 90t-67.5 22h-35q-51 0 -66.5 -23.5t-15.5 -88.5v-129h-151v153q0 139 43 188.5t168 49.5h90q125 0 169 -49.5t44 -188.5v-713q0 -123 14 -190h-154q-16 35 -18 115q-33 -125 -168 -125h-41 q-92 0 -127 43t-35 151v185zM422 274v314q-39 -23 -88 -43q-72 -31 -92.5 -66t-20.5 -114v-117q0 -63 14.5 -86t63.5 -23h31q92 0 92 135zM305 1423l103 -235h-103l-149 235h149z" />
<glyph unicode="&#xe1;" horiz-adv-x="655" d="M57 369q0 115 35 174t144 104q131 53 158.5 84t27.5 129v19q0 68 -14.5 90t-67.5 22h-35q-51 0 -66.5 -23.5t-15.5 -88.5v-129h-151v153q0 139 43 188.5t168 49.5h90q125 0 169 -49.5t44 -188.5v-713q0 -123 14 -190h-154q-16 35 -18 115q-33 -125 -168 -125h-41 q-92 0 -127 43t-35 151v185zM422 274v314q-39 -23 -88 -43q-72 -31 -92.5 -66t-20.5 -114v-117q0 -63 14.5 -86t63.5 -23h31q92 0 92 135zM248 1188l104 235h150l-150 -235h-104z" />
<glyph unicode="&#xe2;" horiz-adv-x="655" d="M57 369q0 115 35 174t144 104q131 53 158.5 84t27.5 129v19q0 68 -14.5 90t-67.5 22h-35q-51 0 -66.5 -23.5t-15.5 -88.5v-129h-151v153q0 139 43 188.5t168 49.5h90q125 0 169 -49.5t44 -188.5v-713q0 -123 14 -190h-154q-16 35 -18 115q-33 -125 -168 -125h-41 q-92 0 -127 43t-35 151v185zM422 274v314q-39 -23 -88 -43q-72 -31 -92.5 -66t-20.5 -114v-117q0 -63 14.5 -86t63.5 -23h31q92 0 92 135zM389 1423l133 -235h-104l-88 133l-88 -133h-105l131 235h121z" />
<glyph unicode="&#xe3;" horiz-adv-x="655" d="M57 369q0 115 35 174t144 104q131 53 158.5 84t27.5 129v19q0 68 -14.5 90t-67.5 22h-35q-51 0 -66.5 -23.5t-15.5 -88.5v-129h-151v153q0 139 43 188.5t168 49.5h90q125 0 169 -49.5t44 -188.5v-713q0 -123 14 -190h-154q-16 35 -18 115q-33 -125 -168 -125h-41 q-92 0 -127 43t-35 151v185zM422 274v314q-39 -23 -88 -43q-72 -31 -92.5 -66t-20.5 -114v-117q0 -63 14.5 -86t63.5 -23h31q92 0 92 135zM449 1378h79q0 -88 -27.5 -123.5t-88.5 -35.5q-45 0 -95.5 27.5t-68.5 27.5q-37 0 -37 -57h-80q0 88 27.5 123.5t89.5 35.5 q45 0 95 -27.5t69 -27.5q37 0 37 57z" />
<glyph unicode="&#xe4;" horiz-adv-x="655" d="M57 369q0 115 35 174t144 104q131 53 158.5 84t27.5 129v19q0 68 -14.5 90t-67.5 22h-35q-51 0 -66.5 -23.5t-15.5 -88.5v-129h-151v153q0 139 43 188.5t168 49.5h90q125 0 169 -49.5t44 -188.5v-713q0 -123 14 -190h-154q-16 35 -18 115q-33 -125 -168 -125h-41 q-92 0 -127 43t-35 151v185zM422 274v314q-39 -23 -88 -43q-72 -31 -92.5 -66t-20.5 -114v-117q0 -63 14.5 -86t63.5 -23h31q92 0 92 135zM518 1229h-147v155h147v-155zM283 1229h-146v155h146v-155z" />
<glyph unicode="&#xe5;" horiz-adv-x="655" d="M57 369q0 115 35 174t144 104q131 53 158.5 84t27.5 129v19q0 68 -14.5 90t-67.5 22h-35q-51 0 -66.5 -23.5t-15.5 -88.5v-129h-151v153q0 139 43 188.5t168 49.5h90q125 0 169 -49.5t44 -188.5v-713q0 -123 14 -190h-154q-16 35 -18 115q-33 -125 -168 -125h-41 q-92 0 -127 43t-35 151v185zM422 274v314q-39 -23 -88 -43q-72 -31 -92.5 -66t-20.5 -114v-117q0 -63 14.5 -86t63.5 -23h31q92 0 92 135zM381 1318.5q0 22.5 -15.5 37t-38 14.5t-38 -15.5t-15.5 -35.5q0 -23 15.5 -38t38 -15t38 15t15.5 37.5zM203 1319q0 53 35.5 87 t89.5 34q55 0 91 -34t36 -87t-37 -88t-90.5 -35t-89 35t-35.5 88z" />
<glyph unicode="&#xe6;" horiz-adv-x="1001" d="M236 647q131 53 158.5 84t27.5 129v19q0 68 -14.5 90t-67.5 22h-35q-51 0 -66.5 -23.5t-15.5 -88.5v-129h-151v153q0 139 43 188.5t168 49.5h34q86 0 128 -21.5t57 -77.5q16 55 59 77t129 22h35q127 0 170 -49.5t43 -188.5v-387h-352v-264q0 -68 14 -90.5t68 -22.5h37 q51 0 65 22.5t14 90.5v133h154v-158q0 -139 -43 -188t-170 -49h-90q-100 0 -145.5 27.5t-59.5 101.5q-33 -129 -170 -129h-41q-92 0 -127 43t-35 151v185q0 115 35 174t144 104zM784 659v220q0 68 -14 90t-65 22h-37q-53 0 -67.5 -22.5t-14.5 -89.5v-220h198zM422 274v314 q-39 -23 -88 -43q-72 -31 -92.5 -66t-20.5 -114v-117q0 -63 14.5 -86t63.5 -23h31q92 0 92 135z" />
<glyph unicode="&#xe7;" horiz-adv-x="643" d="M367 -168q0 35 -18.5 50.5t-74.5 13.5v94q-125 2 -168 50t-43 187v676q0 139 44.5 188.5t171.5 49.5h90q125 0 169 -49.5t44 -188.5v-211h-154v187q0 68 -14.5 90t-67.5 22h-37q-53 0 -67.5 -22.5t-14.5 -89.5v-627q0 -68 14.5 -90.5t67.5 -22.5h37q53 0 67.5 22.5 t14.5 90.5v207h154v-232q0 -139 -44 -188t-169 -49h-37v-56q76 0 108.5 -21.5t32.5 -72.5q0 -27 -4 -43t-18.5 -33.5t-48 -25.5t-87.5 -8q-92 0 -119.5 25.5t-27.5 86.5h94q-2 -37 7.5 -51t43.5 -14q33 0 43.5 12t10.5 43z" />
<glyph unicode="&#xe8;" horiz-adv-x="645" d="M428 252v133h154v-158q0 -139 -44 -188t-169 -49h-90q-127 0 -171.5 49t-44.5 188v676q0 139 44.5 188.5t171.5 49.5h90q125 0 169 -49.5t44 -188.5v-387h-355v-264q0 -68 14.5 -90.5t67.5 -22.5h37q53 0 67.5 22.5t14.5 90.5zM428 659v220q0 68 -14.5 90t-67.5 22h-37 q-53 0 -67.5 -22.5t-14.5 -89.5v-220h201zM305 1423l103 -235h-103l-149 235h149z" />
<glyph unicode="&#xe9;" horiz-adv-x="645" d="M428 252v133h154v-158q0 -139 -44 -188t-169 -49h-90q-127 0 -171.5 49t-44.5 188v676q0 139 44.5 188.5t171.5 49.5h90q125 0 169 -49.5t44 -188.5v-387h-355v-264q0 -68 14.5 -90.5t67.5 -22.5h37q53 0 67.5 22.5t14.5 90.5zM428 659v220q0 68 -14.5 90t-67.5 22h-37 q-53 0 -67.5 -22.5t-14.5 -89.5v-220h201zM248 1188l104 235h150l-150 -235h-104z" />
<glyph unicode="&#xea;" horiz-adv-x="645" d="M428 252v133h154v-158q0 -139 -44 -188t-169 -49h-90q-127 0 -171.5 49t-44.5 188v676q0 139 44.5 188.5t171.5 49.5h90q125 0 169 -49.5t44 -188.5v-387h-355v-264q0 -68 14.5 -90.5t67.5 -22.5h37q53 0 67.5 22.5t14.5 90.5zM428 659v220q0 68 -14.5 90t-67.5 22h-37 q-53 0 -67.5 -22.5t-14.5 -89.5v-220h201zM387 1423l133 -235h-104l-88 133l-88 -133h-105l131 235h121z" />
<glyph unicode="&#xeb;" horiz-adv-x="645" d="M428 252v133h154v-158q0 -139 -44 -188t-169 -49h-90q-127 0 -171.5 49t-44.5 188v676q0 139 44.5 188.5t171.5 49.5h90q125 0 169 -49.5t44 -188.5v-387h-355v-264q0 -68 14.5 -90.5t67.5 -22.5h37q53 0 67.5 22.5t14.5 90.5zM428 659v220q0 68 -14.5 90t-67.5 22h-37 q-53 0 -67.5 -22.5t-14.5 -89.5v-220h201zM516 1229h-147v155h147v-155zM281 1229h-146v155h146v-155z" />
<glyph unicode="&#xec;" horiz-adv-x="311" d="M133 1423l103 -235h-103l-149 235h149zM238 1130v-1130h-164v1130h164z" />
<glyph unicode="&#xed;" horiz-adv-x="311" d="M76 1188l104 235h150l-150 -235h-104zM238 1130v-1130h-164v1130h164z" />
<glyph unicode="&#xee;" horiz-adv-x="311" d="M238 1130v-1130h-164v1130h164zM217 1423l133 -235h-104l-88 133l-88 -133h-105l131 235h121z" />
<glyph unicode="&#xef;" horiz-adv-x="311" d="M346 1229h-147v155h147v-155zM111 1229h-146v155h146v-155zM238 1130v-1130h-164v1130h164z" />
<glyph unicode="&#xf0;" d="M592 1190v-963q0 -139 -44 -188t-169 -49h-100q-127 0 -171.5 49t-44.5 188v719q0 109 35 152t127 43h41q125 0 164 -109v152q0 59 -10 82l-88 -80l-29 31l90 79q-16 8 -49 9h-59v129h88q96 0 145 -29l33 29h55l-59 -54q45 -53 45 -190zM227 252q0 -68 14.5 -90.5 t67.5 -22.5h37q53 0 67.5 22.5t14.5 90.5v604q0 135 -92 135h-31q-49 0 -63.5 -22.5t-14.5 -85.5v-631z" />
<glyph unicode="&#xf1;" horiz-adv-x="671" d="M602 0h-164v883q0 63 -14 85.5t-64 22.5h-30q-92 0 -92 -135v-856h-164v1130h153v-129q31 139 172 140h41q92 0 127 -43t35 -152v-946zM457 1378h80q0 -88 -28 -123.5t-89 -35.5q-45 0 -95.5 27.5t-68.5 27.5q-37 0 -37 -57h-80q0 88 28 123.5t89 35.5q45 0 95 -27.5 t69 -27.5q37 0 37 57z" />
<glyph unicode="&#xf2;" horiz-adv-x="655" d="M592 903v-676q0 -139 -44 -188t-169 -49h-100q-127 0 -171.5 49t-44.5 188v676q0 139 44.5 188.5t171.5 49.5h100q125 0 169 -49.5t44 -188.5zM227 879v-627q0 -68 14.5 -90.5t67.5 -22.5h37q53 0 67.5 22.5t14.5 90.5v627q0 68 -14.5 90t-67.5 22h-37q-53 0 -67.5 -22 t-14.5 -90zM303 1423l103 -235h-103l-149 235h149z" />
<glyph unicode="&#xf3;" horiz-adv-x="655" d="M592 903v-676q0 -139 -44 -188t-169 -49h-100q-127 0 -171.5 49t-44.5 188v676q0 139 44.5 188.5t171.5 49.5h100q125 0 169 -49.5t44 -188.5zM227 879v-627q0 -68 14.5 -90.5t67.5 -22.5h37q53 0 67.5 22.5t14.5 90.5v627q0 68 -14.5 90t-67.5 22h-37q-53 0 -67.5 -22 t-14.5 -90zM248 1188l104 235h150l-150 -235h-104z" />
<glyph unicode="&#xf4;" horiz-adv-x="655" d="M592 903v-676q0 -139 -44 -188t-169 -49h-100q-127 0 -171.5 49t-44.5 188v676q0 139 44.5 188.5t171.5 49.5h100q125 0 169 -49.5t44 -188.5zM227 879v-627q0 -68 14.5 -90.5t67.5 -22.5h37q53 0 67.5 22.5t14.5 90.5v627q0 68 -14.5 90t-67.5 22h-37q-53 0 -67.5 -22 t-14.5 -90zM387 1423l133 -235h-104l-88 133l-88 -133h-105l131 235h121z" />
<glyph unicode="&#xf5;" horiz-adv-x="655" d="M592 903v-676q0 -139 -44 -188t-169 -49h-100q-127 0 -171.5 49t-44.5 188v676q0 139 44.5 188.5t171.5 49.5h100q125 0 169 -49.5t44 -188.5zM227 879v-627q0 -68 14.5 -90.5t67.5 -22.5h37q53 0 67.5 22.5t14.5 90.5v627q0 68 -14.5 90t-67.5 22h-37q-53 0 -67.5 -22 t-14.5 -90zM446 1378h80q0 -88 -27.5 -123.5t-88.5 -35.5q-45 0 -95.5 27.5t-68.5 27.5q-37 0 -37 -57h-80q0 88 27.5 123.5t89.5 35.5q45 0 95 -27.5t69 -27.5q36 0 36 57z" />
<glyph unicode="&#xf6;" horiz-adv-x="655" d="M592 903v-676q0 -139 -44 -188t-169 -49h-100q-127 0 -171.5 49t-44.5 188v676q0 139 44.5 188.5t171.5 49.5h100q125 0 169 -49.5t44 -188.5zM227 879v-627q0 -68 14.5 -90.5t67.5 -22.5h37q53 0 67.5 22.5t14.5 90.5v627q0 68 -14.5 90t-67.5 22h-37q-53 0 -67.5 -22 t-14.5 -90zM516 1229h-147v155h147v-155zM281 1229h-146v155h146v-155z" />
<glyph unicode="&#xf7;" d="M610 791v-148h-544v148h544zM256 391v158h162v-158h-162zM256 883v159h162v-159h-162z" />
<glyph unicode="&#xf8;" horiz-adv-x="655" d="M592 903v-676q0 -139 -44 -188t-169 -49h-100q-25 0 -62 4l-18 -55h-136l35 110q-35 49 -35 178v676q0 139 44.5 188.5t171.5 49.5h100q20 0 57 -4l21 65h135l-39 -119q39 -49 39 -180zM346 139q53 0 67.5 22.5t14.5 90.5v485l-170 -590q16 -8 51 -8h37zM227 879v-484 l166 588q-14 8 -47 8h-37q-53 0 -67.5 -22t-14.5 -90z" />
<glyph unicode="&#xf9;" horiz-adv-x="671" d="M598 190q0 -123 16 -190h-155q-12 29 -17 121q-29 -131 -170 -131h-41q-92 0 -125.5 43t-33.5 151v946h161v-882q0 -63 14.5 -86t63.5 -23h31q92 0 92 135v856h164v-940zM311 1423l103 -235h-103l-149 235h149z" />
<glyph unicode="&#xfa;" horiz-adv-x="671" d="M598 190q0 -123 16 -190h-155q-12 29 -17 121q-29 -131 -170 -131h-41q-92 0 -125.5 43t-33.5 151v946h161v-882q0 -63 14.5 -86t63.5 -23h31q92 0 92 135v856h164v-940zM254 1188l104 235h150l-150 -235h-104z" />
<glyph unicode="&#xfb;" horiz-adv-x="671" d="M598 190q0 -123 16 -190h-155q-12 29 -17 121q-29 -131 -170 -131h-41q-92 0 -125.5 43t-33.5 151v946h161v-882q0 -63 14.5 -86t63.5 -23h31q92 0 92 135v856h164v-940zM395 1423l133 -235h-104l-88 133l-88 -133h-105l131 235h121z" />
<glyph unicode="&#xfc;" horiz-adv-x="671" d="M598 190q0 -123 16 -190h-155q-12 29 -17 121q-29 -131 -170 -131h-41q-92 0 -125.5 43t-33.5 151v946h161v-882q0 -63 14.5 -86t63.5 -23h31q92 0 92 135v856h164v-940zM524 1229h-147v155h147v-155zM289 1229h-146v155h146v-155z" />
<glyph unicode="&#xfd;" horiz-adv-x="606" d="M387 -100q-25 -160 -190 -160h-150v125h84q63 0 68 59l4 64l-191 1142h168l70 -428q47 -295 61 -526q18 252 64 526l71 428h148zM229 1188l105 235h149l-149 -235h-105z" />
<glyph unicode="&#xfe;" horiz-adv-x="665" d="M438 883q0 63 -14 85.5t-64 22.5h-30q-92 0 -92 -135v-582q0 -135 92 -135h30q49 0 63.5 22.5t14.5 86.5v635zM238 -260h-164v1694h164v-398q37 104 161 105h41q92 0 127 -43t35 -152v-762q0 -109 -35 -151.5t-127 -42.5h-41q-127 0 -161 102v-352z" />
<glyph unicode="&#xff;" horiz-adv-x="606" d="M387 -100q-25 -160 -190 -160h-150v125h84q63 0 68 59l4 64l-191 1142h168l70 -428q47 -295 61 -526q18 252 64 526l71 428h148zM498 1229h-148v155h148v-155zM262 1229h-145v155h145v-155z" />
<glyph unicode="&#x152;" horiz-adv-x="944" d="M633 1266v-432h225v-168h-225v-498h268v-168h-590q-141 0 -191 55.5t-50 210.5v901q0 156 50 211.5t191 55.5h590v-168h-268zM342 168h111v1098h-111q-59 0 -75.5 -26t-16.5 -101v-844q0 -76 16.5 -101.5t75.5 -25.5z" />
<glyph unicode="&#x153;" horiz-adv-x="1007" d="M791 252v133h153v-158q0 -139 -43 -188t-168 -49h-35q-88 0 -131 23.5t-59 80.5q-14 -57 -56 -80.5t-130 -23.5h-43q-127 0 -171.5 49t-44.5 188v676q0 139 44.5 188.5t171.5 49.5h43q88 0 130 -23.5t56 -81.5q16 57 59 81t131 24h33q127 0 170 -49.5t43 -188.5v-387 h-352v-264q0 -68 14.5 -90.5t67.5 -22.5h37q51 0 65.5 22.5t14.5 90.5zM227 879v-627q0 -68 14.5 -90.5t67.5 -22.5h37q53 0 67.5 22.5t14.5 90.5v627q0 68 -14.5 90t-67.5 22h-37q-53 0 -67.5 -22t-14.5 -90zM592 879v-220h199v220q0 66 -14.5 89t-65.5 23h-37 q-53 0 -67.5 -22t-14.5 -90z" />
<glyph unicode="&#x178;" horiz-adv-x="649" d="M416 0h-180v483l-226 951h183l75 -338q53 -238 68 -394q18 176 67 394l76 338h160l-223 -951v-483zM520 1518h-147v155h147v-155zM285 1518h-146v155h146v-155z" />
<glyph unicode="&#x2c6;" horiz-adv-x="337" d="M229 1423l133 -235h-104l-88 133l-88 -133h-105l132 235h120z" />
<glyph unicode="&#x2dc;" horiz-adv-x="337" d="M289 1378h80q0 -88 -28 -123.5t-89 -35.5q-45 0 -95.5 27.5t-68.5 27.5q-37 0 -37 -57h-80q0 88 28 123.5t89 35.5q45 0 95 -27.5t69 -27.5q37 0 37 57z" />
<glyph unicode="&#x2000;" horiz-adv-x="864" />
<glyph unicode="&#x2001;" horiz-adv-x="1728" />
<glyph unicode="&#x2002;" horiz-adv-x="864" />
<glyph unicode="&#x2003;" horiz-adv-x="1728" />
<glyph unicode="&#x2004;" horiz-adv-x="576" />
<glyph unicode="&#x2005;" horiz-adv-x="432" />
<glyph unicode="&#x2006;" horiz-adv-x="288" />
<glyph unicode="&#x2007;" horiz-adv-x="288" />
<glyph unicode="&#x2008;" horiz-adv-x="216" />
<glyph unicode="&#x2009;" horiz-adv-x="345" />
<glyph unicode="&#x200a;" horiz-adv-x="96" />
<glyph unicode="&#x2010;" horiz-adv-x="438" d="M397 612v-125h-356v125h356z" />
<glyph unicode="&#x2011;" horiz-adv-x="438" d="M397 612v-125h-356v125h356z" />
<glyph unicode="&#x2012;" horiz-adv-x="438" d="M397 612v-125h-356v125h356z" />
<glyph unicode="&#x2013;" horiz-adv-x="1024" d="M1024 612v-125h-1024v125h1024z" />
<glyph unicode="&#x2014;" horiz-adv-x="2048" d="M2048 612v-125h-2048v125h2048z" />
<glyph unicode="&#x2018;" horiz-adv-x="337" d="M262 1260v-246h-188v246l159 174l15 -11l-105 -163h119z" />
<glyph unicode="&#x2019;" horiz-adv-x="337" d="M74 1188v246h188v-246l-160 -174l-14 10l105 164h-119z" />
<glyph unicode="&#x201a;" horiz-adv-x="337" d="M74 0v246h188v-246l-160 -174l-14 10l105 164h-119z" />
<glyph unicode="&#x201c;" horiz-adv-x="569" d="M514 1260v-246h-188v246l159 174l15 -11l-105 -163h119zM244 1260v-246h-189v246l160 174l14 -11l-104 -163h119z" />
<glyph unicode="&#x201d;" horiz-adv-x="569" d="M324 1188v246h188v-246l-160 -174l-14 10l104 164h-118zM55 1188v246h189v-246l-160 -174l-14 10l104 164h-119z" />
<glyph unicode="&#x201e;" horiz-adv-x="569" d="M324 0v246h188v-246l-160 -174l-14 10l104 164h-118zM55 0v246h189v-246l-160 -174l-14 10l104 164h-119z" />
<glyph unicode="&#x2022;" horiz-adv-x="577" d="M70 717q0 98 60 163.5t157 65.5q98 0 159.5 -65.5t61.5 -163.5q0 -96 -62.5 -160.5t-159 -64.5t-156.5 64.5t-60 160.5z" />
<glyph unicode="&#x2026;" horiz-adv-x="837" d="M55 0v246h189v-246h-189zM324 0v246h188v-246h-188zM594 0v246h188v-246h-188z" />
<glyph unicode="&#x202f;" horiz-adv-x="345" />
<glyph unicode="&#x2039;" horiz-adv-x="374" d="M213 156l-201 409l201 410h149l-188 -410l188 -409h-149z" />
<glyph unicode="&#x203a;" horiz-adv-x="374" d="M362 565l-200 -409h-150l189 409l-189 410h150z" />
<glyph unicode="&#x205f;" horiz-adv-x="432" />
<glyph unicode="&#x20ac;" d="M612 819h-366v-129h366v-67h-366v-359q0 -70 14 -93.5t72 -23.5h35q57 0 72.5 24t15.5 93v219h157v-247q0 -143 -46 -194.5t-177 -51.5h-90q-129 0 -175 51t-46 195v387h-64v67h64v129h-64v66h64v313q0 143 46 194.5t175 51.5h90q131 0 177 -51.5t46 -194.5v-174h-157 v145q0 70 -15.5 93.5t-72.5 23.5h-35q-57 0 -71.5 -23.5t-14.5 -93.5v-284h366v-66z" />
<glyph unicode="&#x2122;" horiz-adv-x="999" d="M690 977l76 457h184v-848h-123v454q0 127 7 230q-25 -160 -37 -230l-80 -454h-101l-84 454q-31 174 -38 238q8 -143 8 -238v-454h-105v848h178l76 -457q14 -100 21 -189q8 132 18 189zM8 1331v103h332v-103h-104v-745h-123v745h-105z" />
<glyph unicode="&#xe000;" horiz-adv-x="1130" d="M0 1130h1130v-1130h-1130v1130z" />
<glyph unicode="&#xfb01;" horiz-adv-x="694" d="M12 993v137h80v68q0 137 44 186.5t169 49.5h68v-129h-33q-51 0 -68.5 -19.5t-17.5 -87.5v-68h119v-137h-117v-993h-164v993h-80zM621 1130v-1130h-164v1130h164zM457 1268v166h164v-166h-164z" />
<glyph unicode="&#xfb02;" horiz-adv-x="694" d="M12 993v137h80v68q0 137 44 186.5t169 49.5h68v-129h-33q-51 0 -68.5 -19.5t-17.5 -87.5v-68h119v-137h-117v-993h-164v993h-80zM621 0h-164v1434h164v-1434z" />
<glyph unicode="&#xfb03;" horiz-adv-x="1075" d="M1002 1130v-1130h-164v1130h164zM838 1268v166h164v-166h-164zM394 993v137h80v68q0 137 44 186.5t169 49.5h68v-129h-33q-51 0 -68.5 -19.5t-17.5 -87.5v-68h119v-137h-117v-993h-164v993h-80zM12 993v137h80v68q0 137 44 186.5t169 49.5h68v-129h-33q-51 0 -68.5 -19.5 t-17.5 -87.5v-68h119v-137h-117v-993h-164v993h-80z" />
<glyph unicode="&#xfb04;" horiz-adv-x="1075" d="M1002 0h-164v1434h164v-1434zM394 993v137h80v68q0 137 44 186.5t169 49.5h68v-129h-33q-51 0 -68.5 -19.5t-17.5 -87.5v-68h119v-137h-117v-993h-164v993h-80zM12 993v137h80v68q0 137 44 186.5t169 49.5h68v-129h-33q-51 0 -68.5 -19.5t-17.5 -87.5v-68h119v-137h-117 v-993h-164v993h-80z" />
</font>
</defs>
</svg>
